<svg width="36" height="37" viewBox="0 0 36 37" fill="none" xmlns="http://www.w3.org/2000/svg">
<path d="M34.0876 30.83V10.4117C34.0876 9.1928 33.1167 8.14288 31.898 8.14288H23.909V4.62244C23.909 3.40355 22.9258 2.37501 21.707 2.37501H21.1947V1.91476C21.1947 0.882993 20.3367 0 19.3049 0H6.56028C5.5285 0 4.56985 0.882993 4.56985 1.91476V2.37501H4.15813C2.93924 2.37501 1.85556 3.40355 1.85556 4.62244V30.83C0.837698 31.1762 0 32.2061 0 33.4197C0 34.9163 1.26367 36.134 2.76027 36.134H33.2961C34.7926 36.134 36 34.9163 36 33.4197C35.9998 32.2061 35.1055 31.1762 34.0876 30.83ZM15.9358 33.2501H9.82862V27.6519H15.9358V33.2501ZM20.8554 23.4108H4.90897V20.3572H20.8554V23.4108ZM20.8554 16.4554H4.90897V13.4018H20.8554V16.4554ZM20.8554 9.50002H4.90897V6.44644H20.8554V9.50002ZM31.2037 23.4108H25.2662V20.3572H31.2037V23.4108ZM31.2037 16.4554H25.2662V13.4018H31.2037V16.4554Z" fill="#717579"/>
</svg>
