<svg width="36" height="32" viewBox="0 0 36 32" fill="none" xmlns="http://www.w3.org/2000/svg">
<path d="M2.55305 10.125C2.60044 10.1521 4.25848 11.0945 5.625 11.0945C6.99152 11.0945 8.70652 10.1521 8.75559 10.125H9.39171C10.4212 10.1281 11.25 10.9588 11.25 11.9833V19.125C11.25 20.3676 10.2426 21.375 9 21.375V29.8125C9 30.7445 8.24449 31.5 7.3125 31.5H3.9375C3.00551 31.5 2.25 30.7445 2.25 29.8125V21.375C1.00737 21.375 0 20.3676 0 19.125V12.0419C0 10.9852 0.855 10.1282 1.91686 10.125H2.55305ZM14.928 10.125C14.9754 10.1521 16.6335 11.0945 18 11.0945C19.3665 11.0945 21.0815 10.1521 21.1306 10.125H21.7667C22.7962 10.1281 23.625 10.9588 23.625 11.9833V19.125C23.625 20.3676 22.6176 21.375 21.375 21.375V29.8125C21.375 30.7445 20.6195 31.5 19.6875 31.5H16.3125C15.3805 31.5 14.625 30.7445 14.625 29.8125V21.375C13.3824 21.375 12.375 20.3676 12.375 19.125V12.0419C12.375 10.9852 13.23 10.1282 14.2919 10.125H14.928ZM32.0625 31.5H28.6875C27.7555 31.5 27 30.7445 27 29.8125V21.375C25.7574 21.375 24.75 20.3676 24.75 19.125V12.0419C24.75 10.9832 25.6082 10.125 26.6669 10.125H27.303C27.303 10.125 28.989 11.0945 30.375 11.0945C31.761 11.0945 33.5056 10.125 33.5056 10.125H34.1417C35.1681 10.125 36 10.9569 36 11.9833V19.125C36 20.3676 34.9926 21.375 33.75 21.375V29.8125C33.75 30.7422 32.9983 31.4962 32.0625 31.5ZM5.625 9C8.11027 9 10.125 6.98527 10.125 4.5C10.125 2.01473 8.11027 0 5.625 0C3.13973 0 1.125 2.01473 1.125 4.5C1.125 6.98527 3.13973 9 5.625 9ZM18 9C20.4853 9 22.5 6.98527 22.5 4.5C22.5 2.01473 20.4853 0 18 0C15.5147 0 13.5 2.01473 13.5 4.5C13.5 6.98527 15.5147 9 18 9ZM34.875 4.5C34.875 6.98527 32.8603 9 30.375 9C27.8897 9 25.875 6.98527 25.875 4.5C25.875 2.01473 27.8897 0 30.375 0C32.8603 0 34.875 2.01473 34.875 4.5Z" fill="#717579"/>
</svg>
