<svg width="36" height="50" viewBox="0 0 36 50" fill="none" xmlns="http://www.w3.org/2000/svg">
<path d="M18.0777 34.3034C18.0777 28.8572 22.5081 24.4268 27.9543 24.4268C29.0531 24.4268 30.1092 24.6098 31.0972 24.9424L31.9191 15.0793H0.708984L3.15309 44.4076C3.41437 47.5434 6.08407 50 9.23104 50H23.3972C26.544 50 29.2139 47.5434 29.4751 44.4076L29.5043 44.0572C28.9991 44.1372 28.4815 44.18 27.9543 44.18C22.5083 44.18 18.0777 39.7495 18.0777 34.3034Z" fill="#717579"/>
<path d="M27.9542 26.7195C23.7726 26.7195 20.3704 30.1217 20.3704 34.3034C20.3704 38.485 23.7726 41.8872 27.9542 41.8872C32.1358 41.8872 35.538 38.485 35.538 34.3034C35.538 30.1217 32.1358 26.7195 27.9542 26.7195ZM31.6749 36.4027C32.1226 36.8505 32.1226 37.5763 31.6749 38.0241C31.451 38.2478 31.1576 38.3598 30.8641 38.3598C30.5709 38.3598 30.2773 38.2478 30.0534 38.0241L27.9542 35.9248L25.8549 38.0241C25.631 38.2478 25.3375 38.3598 25.0441 38.3598C24.7508 38.3598 24.4572 38.2478 24.2333 38.0241C23.7857 37.5763 23.7857 36.8505 24.2333 36.4027L26.3327 34.3034L24.2333 32.2041C23.7857 31.7562 23.7857 31.0305 24.2333 30.5827C24.6811 30.1352 25.4069 30.1352 25.8547 30.5827L27.954 32.682L30.0534 30.5827C30.5013 30.1352 31.2271 30.1352 31.6749 30.5827C32.1226 31.0305 32.1226 31.7562 31.6749 32.2041L29.5756 34.3034L31.6749 36.4027Z" fill="#717579"/>
<path d="M11.6402 4.39428C11.6402 3.23552 12.583 2.29276 13.7418 2.29276H18.8859C20.0448 2.29276 20.9876 3.23552 20.9876 4.39428V5.82643H23.2803V4.39428C23.2805 1.97138 21.3091 0 18.886 0H13.7419C11.319 0 9.34766 1.97138 9.34766 4.39428V5.82643H11.6402V4.39428Z" fill="#717579"/>
<path d="M32.6279 10.7143C32.6279 9.28333 31.4638 8.11919 30.0328 8.11919H2.59512C1.16414 8.11919 0 9.28333 0 10.7143V12.7867H32.6279V10.7143Z" fill="#717579"/>
</svg>
