<svg width="26" height="20" viewBox="0 0 26 20" fill="none" xmlns="http://www.w3.org/2000/svg">
<path d="M25.3877 11.464H24.8779V5.2515C24.8779 4.92474 24.6037 4.65997 24.2656 4.65997H23.7773V2.92146C23.7773 2.5947 23.5031 2.32993 23.165 2.32993H22.4285V0.591532C22.4285 0.26477 22.1543 0 21.8162 0H4.1838C3.84566 0 3.57145 0.26477 3.57145 0.591532V2.32993H2.83504C2.49691 2.32993 2.2227 2.5947 2.2227 2.92146V4.65997H1.73441C1.39627 4.65997 1.12206 4.92474 1.12206 5.2515V11.464H0.612347C0.274209 11.464 0 11.7288 0 12.0555V19.3899C0 19.7167 0.274209 19.9815 0.612347 19.9815H25.3877C25.7258 19.9815 26 19.7167 26 19.3899V12.0555C26 11.7288 25.7258 11.464 25.3877 11.464ZM4.79614 1.18306H21.2039V2.32993H4.79614V1.18306ZM3.44739 3.51299H22.5526V4.65997H3.44739V3.51299ZM2.34676 5.84303H23.6532V11.464H18.9477C18.6536 11.464 18.401 11.6661 18.3462 11.9452L17.8284 14.5785H8.17177L7.65397 11.9452C7.5991 11.6661 7.34657 11.464 7.0524 11.464H2.34676V5.84303Z" fill="#717579"/>
</svg>

