<svg width="25" height="17" viewBox="0 0 25 17" fill="none" xmlns="http://www.w3.org/2000/svg">
<path d="M8.47352 7.85813C9.39194 7.85813 10.2897 7.62768 11.0534 7.19592C11.817 6.76415 12.4121 6.15048 12.7636 5.4325C13.115 4.71451 13.2069 3.92447 13.0277 3.16229C12.8484 2.40011 12.4061 1.70002 11.7566 1.15056C11.1072 0.601093 10.2797 0.22694 9.37891 0.0754139C8.47812 -0.0761123 7.54445 0.00179416 6.69599 0.299281C5.84752 0.596768 5.12237 1.10047 4.61224 1.7467C4.10211 2.39292 3.82992 3.15263 3.83008 3.92975C3.83137 4.97141 4.32103 5.97008 5.19158 6.70657C6.06214 7.44307 7.24247 7.85722 8.47352 7.85813Z" fill="#717579"/>
<path d="M14.5478 11.1038C13.3712 10.0826 11.8615 9.38134 10.2115 9.08963C8.56162 8.79793 6.84638 8.92901 5.28492 9.46613C3.72347 10.0033 2.38668 10.922 1.44532 12.1051C0.503961 13.2882 0.000761625 14.6819 0 16.1081C0 16.2905 0.0856024 16.4653 0.237976 16.5943C0.390349 16.7232 0.597012 16.7956 0.8125 16.7956H16.1362C16.3517 16.7956 16.5584 16.7232 16.7108 16.5943C16.8631 16.4653 16.9487 16.2905 16.9487 16.1081C16.9519 15.3791 16.8189 14.6543 16.5547 13.9604C16.1613 12.8876 15.4736 11.9088 14.5478 11.1038Z" fill="#717579"/>
<path d="M18.1653 8.7019C20.0724 8.7019 21.6184 7.39374 21.6184 5.78003C21.6184 4.16632 20.0724 2.85815 18.1653 2.85815C16.2582 2.85815 14.7122 4.16632 14.7122 5.78003C14.7122 7.39374 16.2582 8.7019 18.1653 8.7019Z" fill="#717579"/>
<path d="M18.2812 9.00635C17.1921 9.00981 16.1241 9.26079 15.1888 9.73303C15.3652 9.86641 15.5431 9.99772 15.7097 10.1421C16.816 11.1043 17.6378 12.2741 18.1082 13.5562C18.2692 13.9783 18.388 14.4111 18.4632 14.8501H23.5625C23.7779 14.8501 23.9846 14.7777 24.137 14.6487C24.2894 14.5198 24.375 14.3449 24.375 14.1626C24.3732 12.7955 23.7307 11.4849 22.5882 10.5182C21.4458 9.55152 19.8968 9.0078 18.2812 9.00635Z" fill="#717579"/>
</svg>
