<svg width="64" height="63" viewBox="0 0 64 63" fill="none" xmlns="http://www.w3.org/2000/svg">
<g clip-path="url(#clip0_422_1132)">
<path d="M33.0214 8.76625V6.7351H34.7235C35.2877 6.7351 35.7448 6.28499 35.7448 5.72978C35.7448 5.17458 35.2877 4.72446 34.7235 4.72446H29.2767C28.7125 4.72446 28.2554 5.17458 28.2554 5.72978C28.2554 6.28499 28.7125 6.7351 29.2767 6.7351H30.9788V8.76625C16.255 9.29719 4.44238 21.2516 4.44238 35.8729C4.44238 50.8308 16.8047 63 32.0001 63C47.1955 63 59.5578 50.8308 59.5578 35.8729C59.5578 21.2516 47.7452 9.29719 33.0214 8.76625ZM32.0001 60.9894C17.931 60.9894 6.48494 49.7221 6.48494 35.8729C6.48494 22.0236 17.931 10.7564 32.0001 10.7564C46.0692 10.7564 57.5153 22.0236 57.5153 35.8729C57.5153 49.7221 46.0692 60.9894 32.0001 60.9894Z" fill="#9A9AA9"/>
<path d="M7.83602 17.3377C8.04422 17.3377 8.25447 17.2753 8.43571 17.1455L24.2957 5.79506C24.5148 5.63823 24.6618 5.40218 24.704 5.13879C24.7462 4.8754 24.6805 4.60624 24.5212 4.3907C22.4907 1.64135 19.2143 0 15.7572 0C13.4607 0 11.2622 0.704662 9.39939 2.03785C7.06053 3.71164 5.52371 6.18191 5.07231 8.99345C4.6209 11.805 5.3087 14.6212 7.00919 16.9235C7.20895 17.194 7.52037 17.3377 7.83602 17.3377ZM7.0898 9.30738C7.45597 7.02638 8.70288 5.02217 10.6003 3.66419C12.1119 2.58246 13.895 2.01064 15.7572 2.01064C18.2193 2.01064 20.5682 3.0362 22.2199 4.7947L8.10795 14.8943C7.13787 13.2035 6.77729 11.2541 7.0898 9.30738Z" fill="#9A9AA9"/>
<path d="M39.7045 5.79493L55.5645 17.1454C55.7457 17.2751 55.956 17.3376 56.1642 17.3376C56.4798 17.3376 56.7911 17.194 56.991 16.9234C58.6914 14.6211 59.3793 11.8049 58.9279 8.99332C58.4765 6.18177 56.9397 3.71164 54.601 2.03771C52.738 0.704662 50.5395 0 48.243 0C44.7858 0 41.5095 1.64135 39.479 4.3907C39.3197 4.60624 39.254 4.8754 39.2962 5.13879C39.3385 5.40218 39.4854 5.63823 39.7045 5.79493ZM48.243 2.01064C50.1052 2.01064 51.8883 2.58246 53.3998 3.66419C55.2973 5.02217 56.5441 7.02638 56.9103 9.30738C57.2229 11.2541 56.8622 13.2035 55.8921 14.8943L41.7803 4.7947C43.432 3.0362 45.7809 2.01064 48.243 2.01064Z" fill="#9A9AA9"/>
<path d="M33.0214 19.134V17.7936C33.0214 17.2384 32.5643 16.7883 32.0001 16.7883C31.4359 16.7883 30.9788 17.2384 30.9788 17.7936V19.134C30.9788 19.6892 31.4359 20.1394 32.0001 20.1394C32.5643 20.1394 33.0214 19.6892 33.0214 19.134Z" fill="#9A9AA9"/>
<path d="M23.4987 22.3822C23.6719 22.3822 23.8477 22.3387 24.0084 22.2473C24.4969 21.9697 24.6642 21.3549 24.3822 20.874L23.7013 19.7132C23.4192 19.2323 22.7945 19.0676 22.3063 19.3453C21.8178 19.6229 21.6505 20.2377 21.9325 20.7186L22.6133 21.8794C22.8026 22.2017 23.1459 22.3822 23.4987 22.3822Z" fill="#9A9AA9"/>
<path d="M17.7845 26.6328L16.6052 25.9626C16.1164 25.6847 15.4921 25.8496 15.2102 26.3305C14.9282 26.8113 15.0955 27.4262 15.584 27.7038L16.7632 28.374C16.9242 28.4654 17.0997 28.5088 17.2729 28.5088C17.6258 28.5088 17.9691 28.3286 18.1583 28.006C18.4403 27.5252 18.2728 26.9104 17.7845 26.6328Z" fill="#9A9AA9"/>
<path d="M16.0169 35.8729C16.0169 35.3177 15.5597 34.8675 14.9956 34.8675H13.6339C13.0697 34.8675 12.6126 35.3177 12.6126 35.8729C12.6126 36.4281 13.0697 36.8782 13.6339 36.8782H14.9956C15.5597 36.8782 16.0169 36.4281 16.0169 35.8729Z" fill="#9A9AA9"/>
<path d="M16.0954 45.918C16.2686 45.918 16.4444 45.8746 16.6051 45.7832L17.7843 45.113C18.2728 44.8354 18.4401 44.2205 18.1581 43.7397C17.8761 43.2589 17.2514 43.0941 16.7631 43.3717L15.5838 44.042C15.0954 44.3196 14.928 44.9344 15.21 45.4152C15.3993 45.7377 15.7425 45.918 16.0954 45.918Z" fill="#9A9AA9"/>
<path d="M22.6133 49.8665L21.9325 51.0273C21.6505 51.5081 21.8178 52.123 22.3063 52.4006C22.4672 52.492 22.6428 52.5354 22.816 52.5354C23.1689 52.5354 23.5122 52.3551 23.7013 52.0326L24.3822 50.8718C24.6642 50.391 24.4969 49.7762 24.0084 49.4986C23.5197 49.2208 22.8952 49.3856 22.6133 49.8665Z" fill="#9A9AA9"/>
<path d="M30.9788 52.6117V53.9521C30.9788 54.5073 31.4359 54.9574 32.0001 54.9574C32.5643 54.9574 33.0214 54.5073 33.0214 53.9521V52.6117C33.0214 52.0565 32.5643 51.6064 32.0001 51.6064C31.4359 51.6064 30.9788 52.0565 30.9788 52.6117Z" fill="#9A9AA9"/>
<path d="M39.9917 49.4984C39.5032 49.776 39.3359 50.3909 39.6179 50.8717L40.2987 52.0325C40.488 52.355 40.8312 52.5353 41.1841 52.5353C41.3573 52.5353 41.5331 52.4919 41.6938 52.4005C42.1822 52.1228 42.3496 51.508 42.0676 51.0272L41.3867 49.8664C41.1047 49.3856 40.48 49.2208 39.9917 49.4984Z" fill="#9A9AA9"/>
<path d="M48.7902 45.4152C49.0722 44.9344 48.9048 44.3196 48.4164 44.042L47.2371 43.3717C46.7483 43.094 46.1238 43.2588 45.8421 43.7397C45.5601 44.2205 45.7274 44.8354 46.2159 45.113L47.3951 45.7832C47.556 45.8746 47.7316 45.918 47.9048 45.918C48.2577 45.918 48.601 45.7377 48.7902 45.4152Z" fill="#9A9AA9"/>
<path d="M47.9834 35.8729C47.9834 36.4281 48.4405 36.8782 49.0046 36.8782H50.3663C50.9305 36.8782 51.3876 36.4281 51.3876 35.8729C51.3876 35.3177 50.9305 34.8675 50.3663 34.8675H49.0046C48.4405 34.8675 47.9834 35.3175 47.9834 35.8729Z" fill="#9A9AA9"/>
<path d="M47.3951 25.9626L46.2159 26.6328C45.7274 26.9104 45.5601 27.5252 45.8421 28.006C46.0314 28.3286 46.3745 28.5088 46.7275 28.5088C46.9007 28.5088 47.0765 28.4654 47.2371 28.374L48.4164 27.7038C48.9048 27.4262 49.0722 26.8113 48.7902 26.3305C48.5079 25.8497 47.8834 25.6848 47.3951 25.9626Z" fill="#9A9AA9"/>
<path d="M40.5015 22.3822C40.8544 22.3822 41.1977 22.2019 41.3869 21.8794L42.0677 20.7186C42.3497 20.2377 42.1824 19.6229 41.6939 19.3453C41.2051 19.0674 40.5807 19.2323 40.2989 19.7132L39.618 20.874C39.336 21.3549 39.5033 21.9697 39.9918 22.2473C40.1526 22.3386 40.3281 22.3822 40.5015 22.3822Z" fill="#9A9AA9"/>
<path d="M45.9408 35.8729C45.9408 35.3177 45.4837 34.8675 44.9195 34.8675H34.8883C34.7403 34.457 34.5044 34.0872 34.2029 33.7798C34.1908 33.7665 34.1795 33.753 34.1666 33.7403L25.5125 25.2214C24.9338 24.6518 24.1645 24.3381 23.3461 24.3381C22.5277 24.3381 21.7583 24.6519 21.1796 25.2214C19.9853 26.3974 19.9853 28.3107 21.1796 29.4867L28.9363 37.1221V43.2287C28.9363 44.8918 30.3108 46.2447 32.0001 46.2447C33.6894 46.2447 35.0639 44.8918 35.0639 43.2287V36.8782H44.9195C45.4837 36.8782 45.9408 36.4281 45.9408 35.8729ZM30.9788 35.8729C30.9788 35.3185 31.4369 34.8675 32.0001 34.8675C32.5633 34.8675 33.0214 35.3185 33.0214 35.8729C33.0214 36.4273 32.5633 36.8782 32.0001 36.8782C31.4369 36.8782 30.9788 36.4271 30.9788 35.8729ZM22.6241 26.6432C22.8169 26.4533 23.0735 26.3487 23.3462 26.3487C23.619 26.3487 23.8755 26.4533 24.0683 26.6432L30.6801 33.1517C30.0497 33.4492 29.5381 33.9528 29.2358 34.5733L22.6242 28.065C22.2258 27.673 22.2258 27.0352 22.6241 26.6432ZM32.0001 44.234C31.4369 44.234 30.9788 43.7831 30.9788 43.2287V38.7159C31.2984 38.8276 31.6421 38.8888 32.0001 38.8888C32.3581 38.8888 32.7018 38.8274 33.0214 38.7159V43.2287C33.0214 43.7831 32.5633 44.234 32.0001 44.234Z" fill="#9A9AA9"/>
<path d="M32.0001 12.767C19.0573 12.767 8.52749 23.1323 8.52749 35.8729C8.52749 48.6135 19.0573 58.9787 32.0001 58.9787C37.4725 58.9787 42.8038 57.0763 47.0119 53.6217C47.4451 53.2661 47.5033 52.6322 47.1421 52.2058C46.781 51.7796 46.1369 51.7221 45.7037 52.0777C41.8621 55.2313 36.9955 56.9681 32.0001 56.9681C20.1835 56.9681 10.57 47.5048 10.57 35.8729C10.57 24.2409 20.1835 14.7777 32.0001 14.7777C43.8167 14.7777 53.4302 24.2409 53.4302 35.8729C53.4302 40.7901 51.6658 45.5806 48.4623 49.3625C48.101 49.7889 48.1593 50.4229 48.5924 50.7784C49.0261 51.1341 49.6697 51.0766 50.0308 50.6501C53.54 46.5077 55.4727 41.2596 55.4727 35.8729C55.4727 23.1323 44.9429 12.767 32.0001 12.767Z" fill="#9A9AA9"/>
</g>
<defs>
<clipPath id="clip0_422_1132">
<rect width="64" height="63" fill="white"/>
</clipPath>
</defs>
</svg>
