<svg width="15" height="15" viewBox="0 0 15 15" fill="none" xmlns="http://www.w3.org/2000/svg">
<path d="M5.45176 7.30037C5.45176 7.43857 5.34137 7.54914 5.20339 7.54914H4.27126C4.13328 7.54914 4.02289 7.43857 4.02289 7.30037V6.36671C4.02289 6.2285 4.13328 6.11794 4.27126 6.11794H5.20339C5.34137 6.11794 5.45176 6.2285 5.45176 6.36671V7.30037ZM7.39881 6.36978C7.39881 6.23157 7.28843 6.12101 7.15045 6.12101H6.21832C6.08034 6.12101 5.96995 6.23157 5.96995 6.36978V7.30344C5.96995 7.44165 6.08034 7.55221 6.21832 7.55221H7.15045C7.28843 7.55221 7.39881 7.44165 7.39881 7.30344V6.36978ZM9.34587 6.36978C9.34587 6.23157 9.23549 6.12101 9.09751 6.12101H8.16537C8.02739 6.12101 7.91701 6.23157 7.91701 6.36978V7.30344C7.91701 7.44165 8.02739 7.55221 8.16537 7.55221H9.09751C9.23549 7.55221 9.34587 7.44165 9.34587 7.30344V6.36978ZM5.45176 8.26781C5.45176 8.12961 5.34137 8.01904 5.20339 8.01904H4.27126C4.13328 8.01904 4.02289 8.12961 4.02289 8.26781V9.20147C4.02289 9.33968 4.13328 9.45025 4.27126 9.45025H5.20339C5.34137 9.45025 5.45176 9.33968 5.45176 9.20147V8.26781ZM7.39881 8.26781C7.39881 8.12961 7.28843 8.01904 7.15045 8.01904H6.21832C6.08034 8.01904 5.96995 8.12961 5.96995 8.26781V9.20147C5.96995 9.33968 6.08034 9.45025 6.21832 9.45025H7.15045C7.28843 9.45025 7.39881 9.33968 7.39881 9.20147V8.26781ZM9.09751 8.01904H8.16537C8.02739 8.01904 7.91701 8.12961 7.91701 8.26781V9.20147C7.91701 9.33968 8.02739 9.45025 8.16537 9.45025H9.09751C9.23549 9.45025 9.34587 9.33968 9.34587 9.20147V8.26781C9.34587 8.12961 9.23549 8.01904 9.09751 8.01904ZM3.25327 9.91708H2.3242C2.18622 9.91708 2.07584 10.0276 2.07584 10.1658V11.0995C2.07584 11.2377 2.18622 11.3483 2.3242 11.3483H3.25634C3.39432 11.3483 3.5047 11.2377 3.5047 11.0995V10.1658C3.5047 10.0276 3.39125 9.91708 3.25327 9.91708ZM3.5047 8.26781C3.5047 8.12961 3.39432 8.01904 3.25634 8.01904H2.3242C2.18622 8.01904 2.07584 8.12961 2.07584 8.26781V9.20147C2.07584 9.33968 2.18622 9.45025 2.3242 9.45025H3.25634C3.39432 9.45025 3.5047 9.33968 3.5047 9.20147V8.26781ZM7.15045 9.91708H6.21832C6.08034 9.91708 5.96995 10.0276 5.96995 10.1658V11.0995C5.96995 11.2377 6.08034 11.3483 6.21832 11.3483H7.15045C7.28843 11.3483 7.39881 11.2377 7.39881 11.0995V10.1658C7.39881 10.0276 7.28843 9.91708 7.15045 9.91708ZM5.20339 9.91708H4.27126C4.13328 9.91708 4.02289 10.0276 4.02289 10.1658V11.0995C4.02289 11.2377 4.13328 11.3483 4.27126 11.3483H5.20339C5.34137 11.3483 5.45176 11.2377 5.45176 11.0995V10.1658C5.45176 10.0276 5.34137 9.91708 5.20339 9.91708ZM11.0446 7.55221C11.1825 7.55221 11.2929 7.44165 11.2929 7.30344V6.36978C11.2929 6.23157 11.1825 6.12101 11.0446 6.12101H10.1124C9.97445 6.12101 9.86406 6.23157 9.86406 6.36978V7.30344C9.86406 7.44165 9.97445 7.55221 10.1124 7.55221H11.0446ZM1.46259 13.3753H8.53639C8.42294 13.019 8.35854 12.6382 8.35548 12.2451H1.46259C1.27862 12.2451 1.13144 12.0946 1.13144 11.9134V5.23956H12.222V8.34459C12.6145 8.34767 12.9947 8.40602 13.3504 8.51966V2.90233C13.3504 2.09459 12.6942 1.43735 11.8878 1.43735H10.2504V0.534398C10.2504 0.239558 10.0112 0 9.71688 0H8.88594C8.59158 0 8.35241 0.239558 8.35241 0.534398V1.44042H4.99796V0.534398C4.99796 0.239558 4.75879 0 4.46443 0H3.63348C3.33913 0 3.09996 0.239558 3.09996 0.534398V1.44042H1.46259C0.656173 1.44042 0 2.09767 0 2.90541V11.9134C0 12.7181 0.656173 13.3753 1.46259 13.3753ZM15 12.2021C15 13.7469 13.749 15 12.2067 15C10.6644 15 9.41333 13.7469 9.41333 12.2021C9.41333 10.6572 10.6644 9.40418 12.2067 9.40418C13.749 9.40418 15 10.6572 15 12.2021ZM13.6171 11.4773C13.6171 11.3882 13.5834 11.3022 13.519 11.2408C13.3872 11.1087 13.1756 11.1087 13.0437 11.2408L11.8295 12.457L11.3635 11.9902C11.2316 11.8581 11.02 11.8581 10.8882 11.9902C10.8238 12.0547 10.7901 12.1376 10.7901 12.2267C10.7901 12.3157 10.8238 12.4017 10.8882 12.4631L11.5904 13.1665C11.7222 13.2985 11.9338 13.2985 12.0656 13.1665L13.5159 11.7138C13.5834 11.6523 13.6171 11.5663 13.6171 11.4773Z" fill="#868686" fill-opacity="0.8"/>
</svg>
