<svg width="28" height="23" viewBox="0 0 28 23" fill="none" xmlns="http://www.w3.org/2000/svg">
<path d="M23.2893 3.32543H21.9193V1.10848C21.9193 0.81449 21.775 0.532545 21.5181 0.324665C21.2612 0.116786 20.9127 0 20.5494 0C20.186 0 19.8376 0.116786 19.5807 0.324665C19.3238 0.532545 19.1794 0.81449 19.1794 1.10848V3.32543H8.21975V1.10848C8.21975 0.81449 8.07542 0.532545 7.8185 0.324665C7.56158 0.116786 7.21313 0 6.84979 0C6.48646 0 6.138 0.116786 5.88109 0.324665C5.62417 0.532545 5.47983 0.81449 5.47983 1.10848V3.32543H4.10988C3.01987 3.32543 1.97451 3.67579 1.20375 4.29943C0.433004 4.92307 0 5.7689 0 6.65086V7.75934H27.3992V6.65086C27.3992 5.7689 26.9662 4.92307 26.1954 4.29943C25.4247 3.67579 24.3793 3.32543 23.2893 3.32543Z" fill="#717579"/>
<path d="M0 18.8442C0 19.7262 0.433004 20.572 1.20375 21.1957C1.97451 21.8193 3.01987 22.1697 4.10988 22.1697H23.2893C24.3793 22.1697 25.4247 21.8193 26.1954 21.1957C26.9662 20.572 27.3992 19.7262 27.3992 18.8442V9.97632H0V18.8442Z" fill="#717579"/>
</svg>

