<svg width="60" height="67" viewBox="0 0 60 67" fill="none" xmlns="http://www.w3.org/2000/svg">
<path d="M21.807 32.1334C21.807 32.7408 21.3655 33.2266 20.8136 33.2266H17.085C16.5331 33.2266 16.0916 32.7408 16.0916 32.1334V28.0307C16.0916 27.4234 16.5331 26.9375 17.085 26.9375H20.8136C21.3655 26.9375 21.807 27.4234 21.807 28.0307V32.1334ZM29.5953 28.0442C29.5953 27.4369 29.1537 26.951 28.6018 26.951H24.8733C24.3213 26.951 23.8798 27.4369 23.8798 28.0442V32.1469C23.8798 32.7543 24.3213 33.2401 24.8733 33.2401H28.6018C29.1537 33.2401 29.5953 32.7543 29.5953 32.1469V28.0442ZM37.3835 28.0442C37.3835 27.4369 36.9419 26.951 36.39 26.951H32.6615C32.1096 26.951 31.668 27.4369 31.668 28.0442V32.1469C31.668 32.7543 32.1096 33.2401 32.6615 33.2401H36.39C36.9419 33.2401 37.3835 32.7543 37.3835 32.1469V28.0442ZM21.807 36.3846C21.807 35.7773 21.3655 35.2915 20.8136 35.2915H17.085C16.5331 35.2915 16.0916 35.7773 16.0916 36.3846V40.4874C16.0916 41.0947 16.5331 41.5806 17.085 41.5806H20.8136C21.3655 41.5806 21.807 41.0947 21.807 40.4874V36.3846ZM29.5953 36.3846C29.5953 35.7773 29.1537 35.2915 28.6018 35.2915H24.8733C24.3213 35.2915 23.8798 35.7773 23.8798 36.3846V40.4874C23.8798 41.0947 24.3213 41.5806 24.8733 41.5806H28.6018C29.1537 41.5806 29.5953 41.0947 29.5953 40.4874V36.3846ZM36.39 35.2915H32.6615C32.1096 35.2915 31.668 35.7773 31.668 36.3846V40.4874C31.668 41.0947 32.1096 41.5806 32.6615 41.5806H36.39C36.9419 41.5806 37.3835 41.0947 37.3835 40.4874V36.3846C37.3835 35.7773 36.9419 35.2915 36.39 35.2915ZM13.0131 43.6319H9.29681C8.74489 43.6319 8.30335 44.1178 8.30335 44.7251V48.8279C8.30335 49.4352 8.74489 49.921 9.29681 49.921H13.0253C13.5773 49.921 14.0188 49.4352 14.0188 48.8279V44.7251C14.0188 44.1178 13.565 43.6319 13.0131 43.6319ZM14.0188 36.3846C14.0188 35.7773 13.5773 35.2915 13.0253 35.2915H9.29681C8.74489 35.2915 8.30335 35.7773 8.30335 36.3846V40.4874C8.30335 41.0947 8.74489 41.5806 9.29681 41.5806H13.0253C13.5773 41.5806 14.0188 41.0947 14.0188 40.4874V36.3846ZM28.6018 43.6319H24.8733C24.3213 43.6319 23.8798 44.1178 23.8798 44.7251V48.8279C23.8798 49.4352 24.3213 49.921 24.8733 49.921H28.6018C29.1537 49.921 29.5953 49.4352 29.5953 48.8279V44.7251C29.5953 44.1178 29.1537 43.6319 28.6018 43.6319ZM20.8136 43.6319H17.085C16.5331 43.6319 16.0916 44.1178 16.0916 44.7251V48.8279C16.0916 49.4352 16.5331 49.921 17.085 49.921H20.8136C21.3655 49.921 21.807 49.4352 21.807 48.8279V44.7251C21.807 44.1178 21.3655 43.6319 20.8136 43.6319ZM44.1783 33.2401C44.7302 33.2401 45.1717 32.7543 45.1717 32.1469V28.0442C45.1717 27.4369 44.7302 26.951 44.1783 26.951H40.4497C39.8978 26.951 39.4563 27.4369 39.4563 28.0442V32.1469C39.4563 32.7543 39.8978 33.2401 40.4497 33.2401H44.1783ZM5.85037 58.8283H34.1455C33.6917 57.2628 33.4342 55.5893 33.4219 53.8618H5.85037C5.11447 53.8618 4.52576 53.2005 4.52576 52.4043V23.0777H48.888V36.722C50.4579 36.7355 51.9787 36.992 53.4015 37.4913V12.8073C53.4015 9.25791 50.7768 6.36979 47.5511 6.36979H41.0016V2.402C41.0016 1.10639 40.045 0.0537109 38.8675 0.0537109H35.5437C34.3663 0.0537109 33.4096 1.10639 33.4096 2.402V6.38328H19.9918V2.402C19.9918 1.10639 19.0352 0.0537109 17.8577 0.0537109H14.5339C13.3565 0.0537109 12.3998 1.10639 12.3998 2.402V6.38328H5.85037C2.62469 6.38328 0 9.2714 0 12.8208V52.4043C0 55.9402 2.62469 58.8283 5.85037 58.8283ZM60 53.6729C60 60.4613 54.9959 65.9676 48.8267 65.9676C42.6574 65.9676 37.6533 60.4613 37.6533 53.6729C37.6533 46.8844 42.6574 41.3781 48.8267 41.3781C54.9959 41.3781 60 46.8844 60 53.6729ZM54.4685 50.4879C54.4685 50.0965 54.3336 49.7186 54.076 49.4487C53.5486 48.8683 52.7024 48.8683 52.175 49.4487L47.3181 54.793L45.4538 52.7417C44.9264 52.1613 44.0801 52.1613 43.5527 52.7417C43.2952 53.0251 43.1603 53.3895 43.1603 53.7809C43.1603 54.1722 43.2952 54.5501 43.5527 54.82L46.3614 57.9106C46.8888 58.4909 47.7351 58.4909 48.2625 57.9106L54.0638 51.527C54.3336 51.2571 54.4685 50.8792 54.4685 50.4879Z" fill="#9A9AA9"/>
</svg>
