<svg width="61" height="67" viewBox="0 0 61 67" fill="none" xmlns="http://www.w3.org/2000/svg">
<path d="M21.7356 31.9167C21.7356 32.5209 21.2955 33.0043 20.7454 33.0043H17.0291C16.479 33.0043 16.0389 32.5209 16.0389 31.9167V27.8348C16.0389 27.2306 16.479 26.7472 17.0291 26.7472H20.7454C21.2955 26.7472 21.7356 27.2306 21.7356 27.8348V31.9167ZM29.4984 27.8482C29.4984 27.244 29.0583 26.7606 28.5082 26.7606H24.7918C24.2417 26.7606 23.8016 27.244 23.8016 27.8482V31.9301C23.8016 32.5344 24.2417 33.0178 24.7918 33.0178H28.5082C29.0583 33.0178 29.4984 32.5344 29.4984 31.9301V27.8482ZM37.2611 27.8482C37.2611 27.244 36.821 26.7606 36.2709 26.7606H32.5546C32.0044 26.7606 31.5644 27.244 31.5644 27.8482V31.9301C31.5644 32.5344 32.0044 33.0178 32.5546 33.0178H36.2709C36.821 33.0178 37.2611 32.5344 37.2611 31.9301V27.8482ZM21.7356 36.1463C21.7356 35.5421 21.2955 35.0587 20.7454 35.0587H17.0291C16.479 35.0587 16.0389 35.5421 16.0389 36.1463V40.2282C16.0389 40.8325 16.479 41.3158 17.0291 41.3158H20.7454C21.2955 41.3158 21.7356 40.8325 21.7356 40.2282V36.1463ZM29.4984 36.1463C29.4984 35.5421 29.0583 35.0587 28.5082 35.0587H24.7918C24.2417 35.0587 23.8016 35.5421 23.8016 36.1463V40.2282C23.8016 40.8325 24.2417 41.3158 24.7918 41.3158H28.5082C29.0583 41.3158 29.4984 40.8325 29.4984 40.2282V36.1463ZM36.2709 35.0587H32.5546C32.0044 35.0587 31.5644 35.5421 31.5644 36.1463V40.2282C31.5644 40.8325 32.0044 41.3158 32.5546 41.3158H36.2709C36.821 41.3158 37.2611 40.8325 37.2611 40.2282V36.1463C37.2611 35.5421 36.821 35.0587 36.2709 35.0587ZM12.9705 43.3568H9.26637C8.71626 43.3568 8.27617 43.8402 8.27617 44.4444V48.5263C8.27617 49.1305 8.71626 49.6139 9.26637 49.6139H12.9827C13.5328 49.6139 13.9729 49.1305 13.9729 48.5263V44.4444C13.9729 43.8402 13.5206 43.3568 12.9705 43.3568ZM13.9729 36.1463C13.9729 35.5421 13.5328 35.0587 12.9827 35.0587H9.26637C8.71626 35.0587 8.27617 35.5421 8.27617 36.1463V40.2282C8.27617 40.8325 8.71626 41.3158 9.26637 41.3158H12.9827C13.5328 41.3158 13.9729 40.8325 13.9729 40.2282V36.1463ZM28.5082 43.3568H24.7918C24.2417 43.3568 23.8016 43.8402 23.8016 44.4444V48.5263C23.8016 49.1305 24.2417 49.6139 24.7918 49.6139H28.5082C29.0583 49.6139 29.4984 49.1305 29.4984 48.5263V44.4444C29.4984 43.8402 29.0583 43.3568 28.5082 43.3568ZM20.7454 43.3568H17.0291C16.479 43.3568 16.0389 43.8402 16.0389 44.4444V48.5263C16.0389 49.1305 16.479 49.6139 17.0291 49.6139H20.7454C21.2955 49.6139 21.7356 49.1305 21.7356 48.5263V44.4444C21.7356 43.8402 21.2955 43.3568 20.7454 43.3568ZM44.0336 33.0178C44.5837 33.0178 45.0238 32.5344 45.0238 31.9301V27.8482C45.0238 27.244 44.5837 26.7606 44.0336 26.7606H40.3173C39.7672 26.7606 39.3271 27.244 39.3271 27.8482V31.9301C39.3271 32.5344 39.7672 33.0178 40.3173 33.0178H44.0336ZM5.83121 58.4759H34.0337C33.5814 56.9184 33.3247 55.2534 33.3125 53.5347H5.83121C5.09773 53.5347 4.51094 52.8767 4.51094 52.0845V22.907H48.7279V36.482C50.2927 36.4954 51.8086 36.7505 53.2266 37.2474V12.6888C53.2266 9.15743 50.6105 6.28398 47.3954 6.28398H40.8674V2.33635C40.8674 1.04733 39.9139 0 38.7403 0H35.4274C34.2538 0 33.3003 1.04733 33.3003 2.33635V6.29741H19.9264V2.33635C19.9264 1.04733 18.9728 0 17.7993 0H14.4863C13.3128 0 12.3592 1.04733 12.3592 2.33635V6.29741H5.83121C2.6161 6.29741 0 9.17085 0 12.7022V52.0845C0 55.6025 2.6161 58.4759 5.83121 58.4759ZM59.8036 53.3467C59.8036 60.1006 54.8159 65.579 48.6668 65.579C42.5177 65.579 37.53 60.1006 37.53 53.3467C37.53 46.5928 42.5177 41.1144 48.6668 41.1144C54.8159 41.1144 59.8036 46.5928 59.8036 53.3467ZM54.2902 50.1779C54.2902 49.7885 54.1557 49.4125 53.899 49.144C53.3733 48.5666 52.5298 48.5666 52.0042 49.144L47.1632 54.4612L45.305 52.4202C44.7793 51.8428 43.9358 51.8428 43.4101 52.4202C43.1534 52.7022 43.019 53.0647 43.019 53.4541C43.019 53.8435 43.1534 54.2195 43.4101 54.488L46.2096 57.5629C46.7353 58.1403 47.5788 58.1403 48.1045 57.5629L53.8868 51.2118C54.1557 50.9432 54.2902 50.5673 54.2902 50.1779Z" fill="#9A9AA9"/>
<ellipse cx="49.0388" cy="53.8629" rx="11.9607" ry="13.1373" fill="#9A9AA9"/>
<path fill-rule="evenodd" clip-rule="evenodd" d="M52.2374 59.7974C52.7021 60.3079 53.4557 60.3079 53.9204 59.7974C54.3852 59.2869 54.3852 58.4593 53.9204 57.9488L50.7228 54.4367L53.9205 50.9242C54.3852 50.4137 54.3852 49.5861 53.9204 49.0756C53.4556 48.5651 52.7021 48.5652 52.2373 49.0757L49.0398 52.5881L45.8418 49.0755C45.377 48.565 44.6235 48.565 44.1587 49.0755C43.694 49.586 43.694 50.4136 44.1587 50.9241L47.3568 54.4367L44.159 57.9494C43.6943 58.4599 43.6943 59.2875 44.1591 59.798C44.6239 60.3084 45.3774 60.3084 45.8422 59.7979L49.0398 56.2854L52.2374 59.7974Z" fill="#FFFEFE"/>
</svg>
