<svg width="28" height="23" viewBox="0 0 28 23" fill="none" xmlns="http://www.w3.org/2000/svg">
<path d="M0 1.53589V18.9145C0 19.7626 0.688183 20.4501 1.53708 20.4501H18.646V17.4018C18.3336 17.0411 18.0816 16.6365 17.8948 16.1954C17.6561 15.6317 17.5353 15.0336 17.5353 14.4175C17.5353 13.8014 17.6562 13.2034 17.8948 12.6397C18.125 12.0958 18.4545 11.6076 18.874 11.1885C19.2935 10.7694 19.7822 10.4403 20.3266 10.2102C20.8907 9.97181 21.4894 9.85095 22.1061 9.85095C22.7227 9.85095 23.3214 9.97184 23.8855 10.2102C24.4299 10.4402 24.9186 10.7694 25.3381 11.1885C25.7576 11.6076 26.087 12.0958 26.3174 12.6397C26.556 13.2034 26.6769 13.8014 26.6769 14.4175C26.6769 15.0336 26.5559 15.6317 26.3174 16.1954C26.1306 16.6365 25.8785 17.0411 25.5661 17.4018V20.4501H26.4629C27.3118 20.4501 28 19.7626 28 18.9145V7.13128H22.7066C21.6896 7.13128 20.8621 6.30461 20.8621 5.2885V0.000244141H1.53708C0.688152 0.000244141 0 0.687786 0 1.53589ZM3.41309 4.81958H18.7649V6.50879H3.41309V4.81958ZM3.41309 10.8624H16.4285V11.7838H3.41309V10.8624ZM3.41309 13.7494H11.089V14.6708H3.41309V13.7494Z" fill="#717579"/>
<path d="M21.7844 0.144505V5.28857C21.7844 5.79742 22.1973 6.20996 22.7067 6.20996H27.8562H28L21.7844 0V0.144505Z" fill="#717579"/>
<path d="M24.6438 20.4503V18.2166C24.4055 18.3757 24.1522 18.5124 23.8855 18.625C23.3214 18.8634 22.7227 18.9843 22.1061 18.9843C21.4894 18.9843 20.8907 18.8634 20.3266 18.625C20.0599 18.5124 19.8067 18.3757 19.5683 18.2166V20.4503V22.5688L22.106 21.559L24.6438 22.5688V20.4503H24.6438Z" fill="#717579"/>
<path d="M25.105 16.4941C25.2993 16.2144 25.4556 15.9063 25.5661 15.5772C25.6883 15.213 25.7547 14.823 25.7547 14.4176C25.7547 12.4045 24.1211 10.7725 22.1061 10.7725C20.091 10.7725 18.4575 12.4045 18.4575 14.4177C18.4575 14.823 18.5239 15.213 18.6461 15.5772C18.7565 15.9063 18.9128 16.2144 19.1072 16.4941C19.2431 16.6896 19.3977 16.8713 19.5683 17.0364C20.225 17.6717 21.1198 18.0629 22.1061 18.0629C23.0924 18.0629 23.9871 17.6718 24.6438 17.0364C24.8144 16.8713 24.969 16.6896 25.105 16.4941Z" fill="#717579"/>
</svg>
