<svg width="26" height="26" viewBox="0 0 26 26" fill="none" xmlns="http://www.w3.org/2000/svg">
<g clip-path="url(#clip0_65_199)">
<path d="M19.3274 10.1467C19.3274 9.22801 19.1937 8.31425 18.9303 7.4347C18.5564 6.18357 17.9262 5.02549 17.0802 4.0354C16.2343 3.0453 15.1916 2.24525 14.0196 1.68699C12.8475 1.12873 11.5723 0.824711 10.2764 0.794594C8.98041 0.764478 7.69262 1.00894 6.49631 1.51216C5.30001 2.01538 4.22183 2.76614 3.33154 3.71589C2.44125 4.66563 1.75868 5.7932 1.32799 7.02563C0.897293 8.25806 0.728074 9.56791 0.831278 10.8704C0.934482 12.1729 1.30781 13.4391 1.92711 14.587L0.835916 18.4477C0.801771 18.5685 0.795906 18.6956 0.818779 18.8191C0.841653 18.9426 0.892642 19.059 0.967735 19.1593C1.04283 19.2595 1.13997 19.3408 1.25153 19.3968C1.36309 19.4528 1.48601 19.4819 1.61062 19.4818C1.68522 19.4817 1.75945 19.4713 1.83127 19.451L5.66211 18.3503C6.20564 18.6505 6.77894 18.8924 7.37258 19.0719C8.24501 19.344 9.1531 19.4822 10.0663 19.4818C12.5217 19.4791 14.8756 18.4946 16.6118 16.7446C18.348 14.9945 19.3246 12.6217 19.3274 10.1467Z" fill="#717579"/>
<path d="M24.9339 24.1301L23.8427 20.2694C24.9572 18.2018 25.2545 15.7857 24.675 13.5063C24.0954 11.2268 22.6819 9.25274 20.7181 7.98035C21.0408 9.57122 21.0079 11.2145 20.6218 12.791C20.2358 14.3675 19.5063 15.8375 18.4863 17.0943C17.4663 18.3511 16.1815 19.3631 14.7251 20.057C13.2687 20.7508 11.6772 21.109 10.0663 21.1055C9.34858 21.1033 8.63284 21.0285 7.92987 20.8823C8.77186 22.1897 9.92315 23.2655 11.2801 24.013C12.6371 24.7604 14.1571 25.1561 15.7035 25.1642C17.2425 25.1644 18.757 24.7757 20.1085 24.0335L23.9385 25.1334C24.0104 25.1537 24.0846 25.1641 24.1592 25.1642C24.2838 25.1643 24.4067 25.1351 24.5183 25.0792C24.6298 25.0232 24.727 24.9419 24.8021 24.8416C24.8772 24.7414 24.9282 24.625 24.951 24.5015C24.9739 24.378 24.968 24.2509 24.9339 24.1301V24.1301Z" fill="#717579"/>
</g>
<defs>
<clipPath id="clip0_65_199">
<rect width="25.7698" height="25.9759" fill="white"/>
</clipPath>
</defs>
</svg>
