<svg width="62" height="62" viewBox="0 0 92 92" fill="none" xmlns="http://www.w3.org/2000/svg">
<path d="M68.0003 18.9004H4.0664C1.82313 18.9004 0 20.7746 0 23.0788V92.0008L14.4348 77.1741H68.0003C70.2435 77.1741 72.0667 75.2999 72.0667 72.9957V23.0788C72.0667 20.7746 70.2435 18.9004 68.0003 18.9004ZM16.8667 34.65H35.2667C36.1146 34.65 36.8 35.3556 36.8 36.225C36.8 37.0944 36.1146 37.8 35.2667 37.8H16.8667C16.0187 37.8 15.3333 37.0944 15.3333 36.225C15.3333 35.3556 16.0187 34.65 16.8667 34.65ZM55.2 59.8495H16.8667C16.0187 59.8495 15.3333 59.1439 15.3333 58.2745C15.3333 57.4051 16.0187 56.6996 16.8667 56.6996H55.2C56.0479 56.6996 56.7333 57.4051 56.7333 58.2745C56.7333 59.1439 56.0479 59.8495 55.2 59.8495ZM55.2 48.8247H16.8667C16.0187 48.8247 15.3333 48.1191 15.3333 47.2498C15.3333 46.3804 16.0187 45.6748 16.8667 45.6748H55.2C56.0479 45.6748 56.7333 46.3804 56.7333 47.2498C56.7333 48.1191 56.0479 48.8247 55.2 48.8247Z" fill="white" fill-opacity="0.6"/>
<path d="M87.9335 0H19.3997C17.1564 0 15.3333 1.87421 15.3333 4.17838V15.7496H68.0002C71.9332 15.7496 75.1333 19.0366 75.1333 23.078V62.9986H77.5651H91.9999V4.17838C91.9999 1.87421 90.1768 0 87.9335 0Z" fill="white" fill-opacity="0.6"/>
</svg>
