<svg width="15" height="15" viewBox="0 0 15 15" fill="none" xmlns="http://www.w3.org/2000/svg">
<path d="M9.95408 9.84213L9.28244 10.5138C9.23907 10.5591 9.18693 10.595 9.12918 10.6195C9.07144 10.6439 9.00931 10.6563 8.94662 10.6559C8.8203 10.6547 8.69956 10.6037 8.61079 10.5138L6.71211 8.58926C6.6682 8.5451 6.63342 8.4927 6.60978 8.43508C6.58614 8.37745 6.5741 8.31573 6.57434 8.25344V3.78875C6.57434 3.66314 6.62424 3.54268 6.71305 3.45387C6.80187 3.36505 6.92233 3.31515 7.04794 3.31515H7.99512C8.12038 3.31628 8.24019 3.36653 8.32876 3.45511C8.41734 3.54368 8.46759 3.66349 8.46872 3.78875V7.46986C8.46847 7.53215 8.48051 7.59387 8.50415 7.65149C8.52779 7.70912 8.56257 7.76152 8.60649 7.80568L9.9756 9.1748C10.0609 9.26632 10.1065 9.38787 10.1024 9.5129C10.0984 9.63794 10.0451 9.75629 9.95408 9.84213V9.84213ZM7.5 0C6.01664 0 4.56659 0.439867 3.33323 1.26398C2.09986 2.08809 1.13856 3.25943 0.570907 4.62987C0.00324965 6.00032 -0.145275 7.50832 0.144114 8.96318C0.433503 10.418 1.14781 11.7544 2.1967 12.8033C3.2456 13.8522 4.58197 14.5665 6.03682 14.8559C7.49168 15.1453 8.99968 14.9968 10.3701 14.4291C11.7406 13.8614 12.9119 12.9001 13.736 11.6668C14.5601 10.4334 15 8.98336 15 7.5C15 5.51088 14.2098 3.60322 12.8033 2.1967C11.3968 0.790176 9.48913 0 7.5 0Z" fill="#868686" fill-opacity="0.8"/>
</svg>
