<svg width="17" height="17" viewBox="0 0 17 17" fill="none" xmlns="http://www.w3.org/2000/svg">
<path fill-rule="evenodd" clip-rule="evenodd" d="M4.31585 0.373169C4.73006 0.373169 5.06585 0.708955 5.06585 1.12317V1.62708H7.6665V1.12317C7.6665 0.708955 8.00229 0.373169 8.4165 0.373169C8.83072 0.373169 9.1665 0.708955 9.1665 1.12317V1.62708H11.6665V1.12317C11.6665 0.708955 12.0023 0.373169 12.4165 0.373169C12.8307 0.373169 13.1665 0.708955 13.1665 1.12317V1.62708H13.6665C15.1853 1.62708 16.4165 2.85829 16.4165 4.37708V7.47083C16.4165 7.88504 16.0807 8.22083 15.6665 8.22083C15.2523 8.22083 14.9165 7.88504 14.9165 7.47083V4.37708C14.9165 3.68672 14.3569 3.12708 13.6665 3.12708H13.1665V3.62457C13.1665 4.03878 12.8307 4.37457 12.4165 4.37457C12.0023 4.37457 11.6665 4.03878 11.6665 3.62457V3.12708H9.1665V3.62457C9.1665 4.03878 8.83072 4.37457 8.4165 4.37457C8.00229 4.37457 7.6665 4.03878 7.6665 3.62457V3.12708H5.06585V3.62457C5.06585 4.03878 4.73006 4.37457 4.31585 4.37457C3.90164 4.37457 3.56585 4.03878 3.56585 3.62457V3.12708H3.1665C2.47615 3.12708 1.9165 3.68672 1.9165 4.37708V13.6271C1.9165 14.3174 2.47615 14.8771 3.1665 14.8771H7.51025C7.92447 14.8771 8.26025 15.2129 8.26025 15.6271C8.26025 16.0413 7.92447 16.3771 7.51025 16.3771H3.1665C1.64772 16.3771 0.416504 15.1459 0.416504 13.6271V4.37708C0.416504 2.85829 1.64772 1.62708 3.1665 1.62708H3.56585V1.12317C3.56585 0.708955 3.90164 0.373169 4.31585 0.373169ZM5.03651 6.92707C5.03651 7.31367 4.7231 7.62707 4.33651 7.62707C3.94991 7.62707 3.63651 7.31367 3.63651 6.92707C3.63651 6.54047 3.94991 6.22707 4.33651 6.22707C4.7231 6.22707 5.03651 6.54047 5.03651 6.92707ZM7.0365 7.62707C7.4231 7.62707 7.7365 7.31367 7.7365 6.92707C7.7365 6.54047 7.4231 6.22707 7.0365 6.22707C6.6499 6.22707 6.3365 6.54047 6.3365 6.92707C6.3365 7.31367 6.6499 7.62707 7.0365 7.62707ZM5.03651 9.65708C5.03651 10.0437 4.7231 10.3571 4.33651 10.3571C3.94991 10.3571 3.63651 10.0437 3.63651 9.65708C3.63651 9.27048 3.94991 8.95708 4.33651 8.95708C4.7231 8.95708 5.03651 9.27048 5.03651 9.65708ZM7.0365 10.3571C7.4231 10.3571 7.7365 10.0437 7.7365 9.65708C7.7365 9.27048 7.4231 8.95708 7.0365 8.95708C6.6499 8.95708 6.3365 9.27048 6.3365 9.65708C6.3365 10.0437 6.6499 10.3571 7.0365 10.3571ZM5.03651 12.3671C5.03651 12.7537 4.7231 13.0671 4.33651 13.0671C3.94991 13.0671 3.63651 12.7537 3.63651 12.3671C3.63651 11.9805 3.94991 11.6671 4.33651 11.6671C4.7231 11.6671 5.03651 11.9805 5.03651 12.3671ZM7.0365 13.0671C7.4231 13.0671 7.7365 12.7537 7.7365 12.3671C7.7365 11.9805 7.4231 11.6671 7.0365 11.6671C6.6499 11.6671 6.3365 11.9805 6.3365 12.3671C6.3365 12.7537 6.6499 13.0671 7.0365 13.0671ZM10.4665 6.92707C10.4665 7.31367 10.1531 7.62707 9.76651 7.62707C9.37991 7.62707 9.06651 7.31367 9.06651 6.92707C9.06651 6.54047 9.37991 6.22707 9.76651 6.22707C10.1531 6.22707 10.4665 6.54047 10.4665 6.92707ZM12.4665 7.62707C12.8531 7.62707 13.1665 7.31367 13.1665 6.92707C13.1665 6.54047 12.8531 6.22707 12.4665 6.22707C12.0799 6.22707 11.7665 6.54047 11.7665 6.92707C11.7665 7.31367 12.0799 7.62707 12.4665 7.62707Z" fill="#3F434A"/>
<path fill-rule="evenodd" clip-rule="evenodd" d="M14.9165 12.3771C14.9165 13.7578 13.7972 14.8771 12.4165 14.8771C11.0358 14.8771 9.9165 13.7578 9.9165 12.3771C9.9165 10.9964 11.0358 9.87708 12.4165 9.87708C13.7972 9.87708 14.9165 10.9964 14.9165 12.3771ZM16.4165 12.3771C16.4165 14.5862 14.6256 16.3771 12.4165 16.3771C10.2074 16.3771 8.4165 14.5862 8.4165 12.3771C8.4165 10.1679 10.2074 8.37708 12.4165 8.37708C14.6256 8.37708 16.4165 10.1679 16.4165 12.3771ZM12.6165 11.3771C12.6165 11.1009 12.3926 10.8771 12.1165 10.8771C11.8404 10.8771 11.6165 11.1009 11.6165 11.3771V12.8771C11.6165 13.1532 11.8404 13.3771 12.1165 13.3771H13.3165C13.5926 13.3771 13.8165 13.1532 13.8165 12.8771C13.8165 12.6009 13.5926 12.3771 13.3165 12.3771H12.6165V11.3771Z" fill="#3F434A"/>
</svg>
