<svg width="439" height="458" viewBox="0 0 439 458" fill="none" xmlns="http://www.w3.org/2000/svg">
<path d="M300.362 420.318L438.626 320.712L252.249 264.846L300.362 420.318Z" fill="#C2D8F0"/>
<path d="M308.093 54.1244L104.115 0.198087C102.391 -0.362691 100.84 0.298469 99.76 1.78573L99.7562 1.77855L88.4678 11.7311L98.2265 38.4788L98.2259 333.288C98.2259 338.291 100.876 343.245 104.114 344.299L282.143 402.242L299.727 420.318L311.189 410.435L311.142 410.344C312.839 409.295 313.981 406.788 313.981 403.509L313.982 65.1354C313.982 60.1329 311.332 55.1785 308.093 54.1244Z" fill="#0E2D82"/>
<path d="M296.312 420.996L92.9269 359.323C89.6978 358.345 87.0557 353.451 87.0557 348.449L87.0563 17.1944C87.0563 12.1927 89.6978 8.9005 92.9269 9.87935L296.313 64.4331C299.542 65.4119 302.184 70.3061 302.184 75.3078L302.183 413.681C302.183 418.682 299.542 421.975 296.312 420.996Z" fill="#91AFF5"/>
<path d="M290.878 397.291L103.083 340.347V35.9141L290.878 86.0319V397.291Z" fill="white"/>
<path d="M290.878 397.291L103.083 340.347V35.9141L290.878 86.0319V397.291Z" stroke="#35519C" stroke-width="1.63592" stroke-miterlimit="10"/>
<path d="M290.795 397.377L103 340.433V36L290.795 86.1178V397.377Z" fill="white"/>
<path d="M290.795 397.377L103 340.433V36L290.795 86.1178V397.377Z" stroke="#35519C" stroke-width="1.63592" stroke-miterlimit="10"/>
<path d="M239.287 44.4059L237.526 43.9254C236.118 33.9162 229.572 24.7195 221.936 22.6327L171.366 8.8143C163.73 6.72756 157.511 12.4349 156.528 21.7909L154.767 21.3104C146.287 18.9935 139.551 26.2849 139.798 37.5146C140.044 48.7436 147.183 59.827 155.663 62.144L240.183 85.2409C248.663 87.5585 255.399 80.2664 255.152 69.0367C254.906 57.807 247.767 46.7228 239.287 44.4059Z" fill="#0E2D82"/>
<path d="M183.787 299.818L275.511 327.049" stroke="#849AD1" stroke-width="7.09852" stroke-linecap="round" stroke-linejoin="round"/>
<path d="M184.224 275.154L238.861 291.507" stroke="#849AD1" stroke-width="7.09852" stroke-linecap="round" stroke-linejoin="round"/>
<path d="M154.854 304.406L119.459 293.757L119.439 248.775L154.834 259.425L154.854 304.406Z" fill="#2F71FF"/>
<path d="M183.786 219.867L275.51 247.098" stroke="#849AD1" stroke-width="7.09852" stroke-linecap="round" stroke-linejoin="round"/>
<path d="M184.224 195.199L238.861 211.552" stroke="#849AD1" stroke-width="7.09852" stroke-linecap="round" stroke-linejoin="round"/>
<path d="M154.854 224.457L119.459 213.807L119.439 168.826L154.834 179.476L154.854 224.457Z" fill="#2F71FF"/>
<path d="M183.786 140.629L275.511 167.86" stroke="#849AD1" stroke-width="7.09852" stroke-linecap="round" stroke-linejoin="round"/>
<path d="M184.224 115.959L238.861 132.312" stroke="#849AD1" stroke-width="7.09852" stroke-linecap="round" stroke-linejoin="round"/>
<path d="M154.854 145.221L119.459 134.571L119.439 89.5898L154.834 100.239L154.854 145.221Z" fill="#2F71FF"/>
<path d="M126.937 111.182L134.989 127.103L145.486 111.725" stroke="white" stroke-width="7.90933" stroke-linecap="round" stroke-linejoin="round"/>
<path d="M233.839 49.5079L232.078 49.0275C230.671 39.0182 224.124 29.8215 216.488 27.7347L165.919 13.9156C158.282 11.8296 152.063 17.5369 151.08 26.8929L149.319 26.4124C140.84 24.0955 134.104 31.3869 134.35 42.6166C134.596 53.8456 141.736 64.929 150.216 67.246L234.735 90.3429C243.216 92.6606 249.951 85.3684 249.705 74.1387C249.458 62.909 242.319 51.8248 233.839 49.5079Z" fill="#B9D0FF"/>
<path d="M120.897 212.615L129.677 172.981L98.9086 194.822C94.5505 205.842 115.648 220.558 120.897 212.615Z" fill="#FBE7C6"/>
<path d="M131.122 171.237L125.81 190.438C125.242 184.649 122.769 181.207 117 181.825L131.122 171.237Z" fill="#11389E"/>
<path d="M22.036 343.669C22.1002 343.585 22.1593 343.497 22.2216 343.412L22.2267 343.416L41.4559 317.854C46.8181 310.725 46.7936 300.503 41.4013 295.022C36.0084 289.541 27.2897 290.877 21.9269 298.005L2.69769 323.568L2.70274 323.573C2.63792 323.656 2.57183 323.736 2.50764 323.821C-2.85521 330.95 1.46287 336.135 6.85582 341.616C12.2481 347.097 16.6738 350.798 22.036 343.669Z" fill="#2F71FF"/>
<path d="M11.3418 311.431L97.782 196.866C103.174 194.01 107.676 196.103 110.841 205.617L30.7164 309.482C24.6946 298.014 18.0116 304.91 11.3418 311.431Z" fill="#11389E"/>
<path d="M110.842 205.618C113.015 205.578 118.046 204.147 120.091 213.47L36.4318 324.874C33.5513 314.825 28.2522 311.24 28.2522 311.24L110.842 205.618Z" fill="#0E2D82"/>
<path d="M31.3913 331.707C31.3158 331.778 31.514 331.535 31.5769 331.449L31.582 331.454L40.1253 319.977C45.0465 312.087 27.221 290.644 21.1871 298.363C21.1217 298.447 21.3174 298.198 21.3829 298.115L21.3772 298.11L11.5338 311.178L11.5382 311.182C11.4734 311.266 11.2644 311.499 11.3425 311.43C17.1577 306.367 37.4616 326.008 31.3913 331.707Z" fill="#FBE7C6"/>
<path d="M88.9939 399.443C79.4599 396.028 63.4197 396.159 53.1684 399.733C51.4183 400.343 49.957 401.014 48.773 401.725C42.0952 400.36 33.1431 400.75 27.0706 402.867C19.8666 405.379 19.4575 409.36 26.1569 411.759C32.5948 414.065 43.2444 414.064 50.4591 411.831C50.903 412.022 51.3677 412.208 51.8673 412.387C61.4012 415.802 77.4408 415.672 87.6928 412.097C97.9454 408.523 98.5279 402.858 88.9939 399.443Z" fill="#C2D7EF"/>
<path d="M73.0225 398.646L80.3139 400.03C85.6545 399.21 88.4891 396.708 90.2214 398.787L90.5538 400.812C91.1977 402.259 90.1853 404.581 88.2232 405.445L80.4671 408.507L78.1175 408.01L78.0732 410.573L73.7038 412.011C70.8679 412.773 67.8908 411.666 67.875 408.792C67.875 408.792 67.8902 400.758 69.1844 400.44C71.7841 399.8 70.7539 399.255 73.0225 398.646Z" fill="#1637A1"/>
<path d="M76.8112 402.578C76.7751 405.944 69.5427 405.846 69.5787 402.479L69.6952 391.535L76.9271 391.633L76.8112 402.578Z" fill="#ED5353"/>
<path d="M77.7029 392.438C75.3653 396.462 69.1015 396.786 67.6258 394.249C66.0963 378.839 60.6968 362.666 64.9312 341.087C64.9312 341.087 66.0618 335.6 71.6215 335.718C77.1597 335.836 78.9969 341.51 78.9969 341.51L77.7029 392.438Z" fill="#1637A1"/>
<path d="M64.6601 341.544L52.2117 278.158C52.2117 278.158 53.6953 266.78 65.5923 267.667C78.0151 268.593 78.0955 280.662 78.0955 280.662L79.074 341.368C79.074 341.368 71.5838 355.424 64.6601 341.544Z" fill="#1637A1"/>
<path d="M30.0284 388.398L30.131 395.99C31.6505 401.252 35.1335 401.873 33.7798 403.963L32.6977 406.062C31.5517 407.38 28.3385 404.952 27.5464 403.797L23.1587 395.657L22.0798 394.595L20.8718 394.365C20.1785 392.578 17.2103 391.039 17.8453 389.295C18.1847 388.365 20.9984 385.933 21.6227 385.286C21.6227 385.286 23.6158 383.044 24.627 383.013C27.0374 382.938 29.1774 386.205 30.0284 388.398Z" fill="#1637A1"/>
<path d="M29.3116 387.256C28.1818 390.039 21.4293 387.093 22.5591 384.311L26.231 375.268L32.9831 378.214L29.3116 387.256Z" fill="#ED5353"/>
<path d="M34.1083 383.715C30.4222 385.838 26.0477 378.752 25.7224 375.985C30.7991 362.808 34.7755 343.521 46.3647 336.68C46.3647 336.68 49.7767 333.342 53.3048 335.405C58.2883 338.318 56.8172 343.772 56.8172 343.772C56.464 344.738 54.0612 351.794 53.5276 352.647L34.1083 383.715Z" fill="#1637A1"/>
<path d="M44.6509 338.481L41.198 301.905C39.5721 296.612 39.4773 292.053 39.6417 283.563C39.6417 283.563 42.9005 275.475 51.2837 276.753C60.4097 278.146 60.0599 290.193 60.0599 290.193L56.8122 341.212C56.7461 342.255 46.3466 350.753 44.6509 338.481Z" fill="#1637A1"/>
<path d="M72.2486 203.656C72.0854 210.287 66.7473 214.221 62.3969 211.19C58.0465 208.159 54.6521 200.328 54.8153 193.698C54.9786 187.067 58.6382 184.149 62.9886 187.181C67.339 190.212 72.4119 197.026 72.2486 203.656Z" fill="#EC5252"/>
<path d="M58.2365 224.066L57.6382 223.891C55.6166 223.299 54.3902 220.942 54.9131 218.651L57.863 205.741C58.386 203.452 60.4678 202.063 62.4894 202.657L63.0877 202.831C65.1094 203.424 66.3352 205.782 65.8122 208.071L64.587 220.948C64.0647 223.238 60.2576 224.658 58.2365 224.066Z" fill="#EC5252"/>
<path d="M52.2665 209.505C52.2665 209.505 53.3575 213.974 60.545 213.058C62.7269 212.781 65.0182 208.368 64.1172 205.551C63.4922 203.596 62.3057 204.072 62.1278 202.969C61.9555 201.9 66.1533 200.471 66.6725 199.665C67.0682 199.051 61.7953 196.975 61.8624 196.849C61.9814 196.731 68.7821 197.21 69.2696 196.795C73.7428 192.997 70.8182 188.005 68.1399 185.812C66.7888 184.706 59.6284 179.794 64.4037 185.219C66.6052 187.72 61.1828 184.617 58.6503 185.576C53.7358 187.44 45.1459 192.718 52.2665 209.505Z" fill="#11389E"/>
<path d="M66.7117 202.658C66.6718 204.27 65.486 205.54 64.062 205.496C62.6387 205.45 61.5174 204.107 61.5572 202.495C61.5965 200.883 62.783 199.612 64.2063 199.657C65.6296 199.703 66.7509 201.046 66.7117 202.658Z" fill="#EC5252"/>
<path d="M65.1044 212.646L64.1616 211.27C64.1616 211.27 65.4868 212.157 67.4261 211.282C67.4261 211.282 66.4169 212.394 65.1044 212.646Z" fill="#B94141"/>
<path d="M37.5469 286.463C38.1667 270.185 40.327 259.55 39.6255 245.477C39.8971 218.584 42.8634 217.431 48.1015 215.728L53.3389 215.066C54.9655 215.417 56.4724 216.265 58.0806 216.711C64.8141 218.577 69.1309 218.992 73.9676 221.958C78.2743 224.599 78.525 231.66 78.5142 237.574C79.678 254.908 79.9857 281.003 80.2022 289.56C77.7532 301.809 41.6446 294.756 37.5469 286.463Z" fill="#A0E7E5"/>
<path d="M79.0348 239.596L75.0845 244.423C70.4467 265.621 72.5956 287.112 64.9902 296.154C69.6433 296.14 73.9075 295.447 77.0612 292.82C77.2303 292.844 78.6846 291.379 78.8967 288.735L79.0348 239.596Z" fill="#6BA6A5"/>
<path d="M52.451 214.708C52.451 214.708 50.6896 215.635 57.6207 217.189C62.47 218.277 65.9998 218.953 65.9998 218.953C65.9998 218.953 61.5399 213.66 52.451 214.708Z" fill="#FBE7C6"/>
<path d="M96.3445 251.751L96.3458 251.752C98.2653 253.335 100.979 252.853 102.376 250.679L105.757 245.423C107.155 243.25 106.728 240.176 104.809 238.592L104.807 238.591C102.889 237.008 100.175 237.492 98.7771 239.666L95.3971 244.92C93.999 247.094 94.425 250.168 96.3445 251.751Z" fill="#EC5252"/>
<path d="M99.4466 253.328C99.4466 253.328 85.12 268.766 79.2704 271.065C73.4209 273.365 70.5072 260.924 70.5072 260.924L94.8173 245.628L99.4466 253.328Z" fill="#EC5252"/>
<path d="M62.8095 236.562L69.4958 267.414C70.2192 274.997 87.2734 273.401 85.6002 264.464C85.4945 263.901 76.6475 225.866 76.6475 225.866C76.6475 225.866 63.6309 214.89 62.8095 236.562Z" fill="#A0E7E5"/>
<path d="M71.688 262.458C73.9856 266.946 82.842 266.442 85.0395 261.488" stroke="#FBE7C6" stroke-width="2.02631" stroke-linecap="round" stroke-linejoin="round"/>
<path d="M323.24 425.009C323.24 431.759 335.585 437.231 350.812 437.231C366.04 437.231 378.384 431.759 378.384 425.009C378.384 418.259 366.04 412.787 350.812 412.787C335.585 412.787 323.24 418.259 323.24 425.009Z" fill="#C2D7EF"/>
<path d="M338.319 228.689C337.992 232.688 337.336 240.685 341.1 243.206C345.33 246.039 352.186 242.196 355.614 240.274" fill="#0E2E82"/>
<path d="M341.655 227.26C341.777 230.137 342.02 235.893 344.799 237.907C346.869 239.406 349.954 236.063 351.497 234.391" fill="#0E2E82"/>
<path d="M327.791 424.762L339.059 415.802C340.498 415.144 343.546 415.056 345.553 415.482C346.453 415.672 347.045 416.485 346.991 417.4L346.873 419.377C346.803 422.227 346.492 422.617 344.593 423.485L333.318 428.64C331.419 429.508 328.712 429.409 327.302 428.42L326.902 428.14C325.492 427.15 325.892 425.631 327.791 424.762Z" fill="#0E2D82"/>
<path d="M345.169 415.194C345.952 419.057 339.413 422.528 338.361 418.685C329.317 397.139 325.52 390.128 323.273 382.727C323.273 382.727 322.158 376.672 326.739 374.213C331.613 371.598 334.883 376.086 334.883 376.086C336.657 381.813 336.495 380.29 337.382 383.22C337.856 384.789 339.136 386.399 340.163 389.9C342.295 397.17 342.897 408.177 345.169 415.194Z" fill="#EC5252"/>
<path d="M335.728 381.312C335.493 385.266 324.933 391.118 322.988 380.453C319.83 344.671 320.433 348.45 319.829 308.97L342.126 288.975C339.465 323.135 335.342 373.851 335.728 381.312Z" fill="#EC5252"/>
<path d="M336.13 391.471C335.103 387.97 333.734 385.748 332.558 382.154C331.062 377.58 334.904 376.501 335.641 379.354C336.593 383.031 339.148 386.454 340.175 389.955C342.306 397.226 342.908 408.233 345.18 415.249C345.777 418.201 338.262 398.741 336.13 391.471Z" fill="#D34949"/>
<path d="M331.954 380.166C332.033 370.384 331.956 362.272 332.605 352.422C333.84 333.668 338.176 332.379 336.864 352.294C336.215 362.143 336.292 370.255 336.212 380.038C336.18 383.87 331.922 383.998 331.954 380.166Z" fill="#D34949"/>
<path d="M347.441 429.146L353.268 413.379C354.166 412.066 354.887 410.667 356.694 410.535C358.142 410.429 359.737 412.029 360.149 412.839L361.04 414.587C362.411 417.055 362.34 417.55 361.153 419.282L354.108 429.569C352.921 431.301 350.559 432.63 348.858 432.522L348.376 432.491C346.676 432.383 346.256 430.878 347.441 429.146Z" fill="#0E2D82"/>
<path d="M358.802 412.815C358.802 412.815 354.151 422.406 351.756 421.934C351.756 421.934 350.221 421.626 351.163 419.078C352.104 416.53 353.436 411.35 353.436 411.35L358.802 412.815Z" fill="#EC5252"/>
<path d="M358.546 412.698C359.305 416.178 354.925 419.511 352.987 416.378C347.181 402.65 342.294 392.971 338.345 382.601C335.354 374.747 350.25 368.574 351.221 377.879C351.691 382.382 353.957 382.173 355.234 389.741C356.532 397.429 356.775 401.716 358.546 412.698Z" fill="#EC5252"/>
<path d="M345.074 388.771C342.535 388.991 339.907 388.369 337.872 382.279C335.201 374.278 335.303 364.536 334.034 355.132C331.007 332.699 351.474 327.039 350.453 349.839C350.037 359.157 350.219 368.535 351.202 377.839C351.462 380.302 349.721 388.369 345.074 388.771Z" fill="#EC5252"/>
<path d="M318.497 269.376L299.64 277.377C299.64 277.377 291.804 281.108 292.683 284.436C294.016 289.485 299.343 287.353 299.343 287.353L320.343 280.719C320.343 280.719 322.963 277.969 322.298 273.627C321.795 270.342 318.497 269.376 318.497 269.376Z" fill="#EC5252"/>
<path d="M322.238 279.843L312.635 275.943C312.635 275.943 313.371 282.166 317.275 282.625C321.179 283.085 322.238 279.843 322.238 279.843Z" fill="#B94141"/>
<path d="M322.238 279.849C322.238 279.849 315.162 281.658 312.635 275.949L313.952 270.454L324.171 273.898L322.238 279.849Z" fill="#FBE7C6"/>
<path d="M320.722 241.531L312.076 271.631C312.076 271.631 317.5 283.108 328.506 274.916C338.772 267.275 331.51 246.143 328.663 240.801C325.816 235.459 320.555 241.478 320.722 241.531Z" fill="#A0E7E5"/>
<path d="M350.006 293.156C359.475 293.369 350.072 335.791 353.813 366.292C353.813 366.292 329.638 386.86 312.917 368.847L316.703 299.09C316.703 299.09 321.08 293.05 325.688 291.568C341.333 286.539 350.006 293.156 350.006 293.156Z" fill="#163891"/>
<path d="M338.981 375.334C350.159 357.09 343.848 316.266 346.684 295.406L350.005 293.16C359.474 293.374 350.07 335.796 353.812 366.297C353.812 366.297 347.494 372.876 338.981 375.334Z" fill="#0B2973"/>
<path d="M318.407 296.722C317.856 289.221 319.441 282.609 318.729 276.286C318.063 270.378 312.611 266.867 313.736 259.667C313.883 255.738 320.015 248.461 320.282 245.591C320.704 241.054 320.984 236.862 329.409 232.396L333.112 233.306C334.879 233.74 336.586 234.388 338.195 235.231C355.37 244.241 359.114 244.681 357.918 256.074C357.723 261.933 354.644 257.374 353.717 261.254C351.937 268.699 344.998 276.277 347.444 289.331C347.937 291.966 349.758 293.76 347.685 295.508C338.706 303.081 321.558 304.536 318.407 296.722Z" fill="#A0E7E5"/>
<path d="M317.847 296.663C317.837 296.945 317.825 296.644 317.847 296.663V296.663Z" fill="#FF5CAB"/>
<path d="M348.565 258.242L352.16 272.38L350.006 293.157L344.097 295.507V277.571C346.601 271.967 347.661 265.169 348.565 258.242Z" fill="#6BA6A5"/>
<path d="M292.873 286.774L296.119 288.866C297.704 289.887 299.745 289.837 300.653 288.753L301.289 287.994C302.198 286.909 301.644 285.185 300.057 284.163L296.811 282.071C295.226 281.051 293.185 281.102 292.277 282.185L291.641 282.943C290.732 284.028 291.286 285.752 292.873 286.774Z" fill="#EC5252"/>
<path d="M339.318 294.813L339.415 294.033L338.262 294.409L338.093 293.908L312.46 279.041C312.152 278.862 311.564 278.877 311.155 279.075L298.472 285.183L298.495 285.009L296.196 285.786L296.087 286.616H296.101C296.119 286.698 296.177 286.773 296.282 286.834L322.955 302.306C323.264 302.486 323.852 302.471 324.262 302.273L338.95 295.197C339.173 295.09 339.299 294.948 339.317 294.814L339.318 294.813Z" fill="#BEC5C8"/>
<path d="M323.048 301.48L296.375 286.009C296.067 285.83 296.15 285.521 296.559 285.324L311.247 278.249C311.657 278.051 312.245 278.036 312.554 278.214L339.227 293.688C339.535 293.866 339.453 294.175 339.043 294.372L324.354 301.448C323.945 301.645 323.357 301.659 323.048 301.48Z" fill="#DDE4E8"/>
<path d="M321.857 293.202L315.402 289.458C315.327 289.415 315.347 289.34 315.446 289.292L319 287.579C319.1 287.532 319.242 287.528 319.317 287.57L325.773 291.316C325.847 291.359 325.827 291.434 325.728 291.482L322.173 293.193C322.074 293.242 321.931 293.245 321.857 293.202Z" fill="#BEC5C8"/>
<path d="M347.444 240.017C347.444 240.017 341.142 257.12 331.988 252.665C322.834 248.21 329.467 232.738 329.467 232.738C329.467 232.738 338.973 234.953 347.444 240.017Z" fill="#EC5252"/>
<path d="M336.812 243.311L336.205 243.449C334.154 243.917 332.261 242.503 331.998 240.31L330.515 227.946C330.253 225.753 331.715 223.576 333.765 223.109L334.373 222.97C336.424 222.503 338.317 223.915 338.58 226.109L341.638 237.62C341.901 239.812 338.863 242.844 336.812 243.311Z" fill="#EC5252"/>
<path d="M344.11 418.833C344.11 418.833 336.053 422.555 334.594 421.466C333.363 420.546 339.324 416.133 339.324 416.133L344.11 418.833Z" fill="#EC5252"/>
<path d="M345.692 239.069C345.692 239.069 340.141 256.704 331.001 252.021C323.91 248.389 329.054 233.801 329.054 233.801L327.144 234.218C327.144 234.218 321.019 251.345 331.374 256.13C340.486 260.34 348.126 240.391 348.126 240.391L345.692 239.069Z" fill="#FBE7C6"/>
<path d="M331.375 234.191C331.375 234.191 336.385 234.082 339.849 228.725C339.849 228.725 336.395 236.818 331.795 237.706L331.375 234.191Z" fill="#B94141"/>
<path d="M345.575 274.525C345.575 274.525 339.037 281.121 334.45 280.006C334.45 280.006 342.574 283.265 345.575 282.107C348.575 280.951 345.575 274.525 345.575 274.525Z" fill="#6AA6A4"/>
<path d="M317.211 272.656C317.211 272.656 317.268 272.755 317.374 272.922C317.888 273.739 319.552 276.202 321.257 276.815L318.074 277.019" fill="#79ADAB"/>
<path d="M322.221 285.241C322.103 284.581 321.517 283.767 320.91 283.424L292.72 267.443C292.47 267.3 292.255 267.262 292.097 267.311L292.095 267.31L292.092 267.313C292.036 267.331 291.987 267.36 291.947 267.401L291.017 268.188L291.864 268.183L294.582 283.471C294.699 284.13 295.286 284.944 295.893 285.287L322.549 300.399L323.41 301.303L323.517 301.518C324.056 301.659 325.343 300.952 325.343 300.952L322.221 285.241Z" fill="white"/>
<path d="M321.02 279.031C320.903 278.371 320.316 277.558 319.71 277.215L291.52 261.234C291.269 261.091 291.055 261.054 290.898 261.102L290.895 261.102L290.891 261.104C290.836 261.122 290.787 261.151 290.747 261.191L289.817 261.979L290.664 261.974L293.383 277.261C293.499 277.921 294.086 278.735 294.693 279.078L321.348 294.19L322.21 295.094L322.318 295.309C322.856 295.45 324.143 294.743 324.143 294.743L321.02 279.031Z" fill="white"/>
<path d="M290.622 262.061L318.811 278.041C319.418 278.385 320.005 279.199 320.122 279.858L322.871 295.315C322.873 295.326 322.872 295.334 322.874 295.345L323.974 301.533C324.09 302.192 323.694 302.448 323.088 302.104L294.898 286.124C294.291 285.779 293.704 284.966 293.588 284.306L290.839 268.851C290.837 268.839 290.838 268.83 290.836 268.82L289.736 262.633C289.619 261.973 290.016 261.717 290.622 262.061Z" fill="#0E2D82"/>
<path d="M307.11 282.852C307.141 283.977 306.207 284.342 305.023 283.667C303.839 282.992 302.854 281.533 302.823 280.408C302.793 279.283 303.726 278.918 304.91 279.593C306.094 280.267 307.079 281.727 307.11 282.852Z" fill="#FBE7C6"/>
<path d="M333.897 289.775C343.025 293.029 351.964 293.538 360.741 291.696C363.104 291.201 365.076 289.37 365.906 286.915C367.809 281.29 362.452 278.142 359.298 280.153L357.375 281.589C347.55 282.373 341.498 285.575 335.75 285.252L333.897 289.775Z" fill="#EC5252"/>
<path d="M360.326 290.105C362.595 289.202 363.02 286.953 363.851 284.5C365.192 280.534 367.781 282.028 365.975 286.945C365.084 289.371 363.173 291.231 360.811 291.726C352.033 293.568 343.093 293.059 333.966 289.806C333.966 289.806 350.586 293.978 360.326 290.105Z" fill="#B94141"/>
<path d="M364.953 283.372L357.382 285.652C357.382 285.652 361.462 288.631 365.473 285.557L364.953 283.372Z" fill="#B94141"/>
<path d="M366.733 282.287C366.733 282.287 363.446 286.38 357.188 284.814L356.117 280.12L365.97 277.343L366.733 282.287Z" fill="#FBE7C6"/>
<path d="M349.074 258.777L354.824 278.151C355.65 280.931 357.831 282.615 360.149 282.265C363.588 281.745 367.87 280.17 367.157 275.505C365.188 262.609 361.143 253.054 358.271 247.54C357.024 245.145 355.507 246.097 352.472 244.641C351.981 244.405 349.8 246.265 349.375 246.779C346.783 249.911 347.825 254.572 349.074 258.777Z" fill="#A0E7E5"/>
<path d="M358.271 247.538C358.271 247.538 366.621 264.244 367.255 276.134C367.255 276.134 367.752 279.236 364.691 280.784C364.691 280.784 365.384 277.768 364.761 274.247C364.138 270.727 363.592 275.764 362.928 274.577C362.264 273.391 361.293 268.705 361.021 265.355C360.748 262.005 357.545 252.89 358.042 250.488C358.538 248.087 358.271 247.538 358.271 247.538Z" fill="#6BA6A5"/>
<path d="M338.081 287.765C338.317 289.69 337.119 291.482 335.418 291.746L329.506 292.665C327.807 292.928 326.224 291.572 325.987 289.648C325.75 287.723 326.948 285.931 328.65 285.667L334.562 284.749C336.261 284.484 337.844 285.842 338.081 287.765Z" fill="#EC5252"/>
<path d="M341.237 209.056C339.519 205.873 336.865 205.293 334.387 207.094C331.979 205.961 329.049 207.568 326.868 211.693C323.832 217.437 322.374 225.696 324.21 230.745C325.204 233.479 325.251 237.154 331.017 236.069C334.927 235.255 339.96 231.969 342.199 227.735C345.236 221.991 343.744 213.699 341.237 209.056Z" fill="#EC5252"/>
<path d="M340.247 218.936C340.247 218.936 335.807 224.058 329.27 217.526C329.27 217.526 326.394 214.037 327.562 213.449C339.254 207.561 340.247 218.936 340.247 218.936Z" fill="#B94141"/>
<path d="M327.559 213.925C328.643 215.857 334.406 219.684 336.303 218.614C343.132 214.763 337.456 219.505 338.608 224.569C338.608 224.569 339.743 229.613 339.745 229.624C340.42 233.394 343.804 231.895 347.038 233.143L347.048 233.147C347.048 233.147 357.786 219.298 344.64 207.976C335.744 200.315 323.313 207.667 324.582 217.654L327.559 213.925Z" fill="#0E2D82"/>
<path d="M342.011 226.189C341.273 227.586 339.674 228.159 338.441 227.471C337.208 226.783 336.807 225.093 337.545 223.697C338.283 222.3 339.882 221.726 341.115 222.414C342.348 223.102 342.749 224.792 342.011 226.189Z" fill="#EC5252"/>
<path d="M339.346 225.108C339.051 224.86 339.032 224.366 339.31 224.058C339.705 223.619 340.308 223.207 340.749 224.075C341.194 224.952 340.695 226.067 340.26 226.777C340.182 226.906 340.012 226.825 340.045 226.676C340.145 226.22 340.15 225.689 339.753 225.415C339.588 225.301 339.454 225.198 339.346 225.108Z" fill="#B94141"/>
<path d="M152.135 435.364L120.989 425.878C121.92 424.128 121.479 421.235 124.6 418.814L148.481 400.283C151.601 397.862 157.147 396.792 160.806 397.906L191.953 407.392C195.611 408.506 196.05 411.399 192.93 413.821L169.049 432.351C165.929 434.773 160.383 435.842 152.135 435.364Z" fill="#C2D7EF"/>
<path d="M144.166 435.714L113.021 426.228C109.362 425.114 108.921 422.222 112.042 419.801L135.923 401.269C139.044 398.848 144.59 397.779 148.248 398.892L179.394 408.379C183.053 409.493 183.493 412.386 180.372 414.807L156.492 433.338C153.371 435.759 147.825 436.829 144.166 435.714Z" fill="#0E2D82"/>
<path d="M144.166 435.714L113.02 426.228C109.362 425.114 108.921 422.222 112.042 419.801L135.922 401.269C139.043 398.848 144.59 397.779 148.248 398.892L179.394 408.379C183.052 409.493 183.492 412.386 180.372 414.807L156.491 433.338C153.371 435.759 147.824 436.829 144.166 435.714Z" fill="#0E2D82"/>
<path d="M111.195 425.265C123.746 428.437 142.357 434.943 147.284 434.047C156.434 432.38 171.211 421.388 180.92 414.417C184 412.205 182.588 409.004 179.037 408.062C167.148 404.911 155.79 402.445 143.723 404.556C132.284 406.558 121.811 414.668 111.415 420.431C109.045 421.745 109.742 424.896 111.195 425.265Z" fill="#0E2D82"/>
<path d="M143.56 434.523L112.414 425.037C108.755 423.923 108.315 421.031 111.436 418.609L135.316 400.078C138.437 397.657 143.983 396.587 147.642 397.701L178.788 407.187C182.446 408.301 182.886 411.194 179.766 413.616L155.885 432.146C152.764 434.567 147.218 435.637 143.56 434.523Z" fill="#2F71FF"/>
<path d="M138.185 407.57L137.303 421.039L163.557 410.882" stroke="white" stroke-width="6.88259" stroke-linecap="round" stroke-linejoin="round"/>
<path d="M259.88 208.194L263.635 194.696C259.306 193.465 255.748 188.453 255.729 183.556L255.587 147.607C255.568 142.71 259.094 139.71 263.423 140.939L399.165 179.504C403.494 180.734 407.052 185.746 407.071 190.643L407.212 226.593C407.232 231.49 403.705 234.49 399.377 233.26L275.139 197.963L259.88 208.194Z" fill="white"/>
<path d="M259.88 208.194L263.635 194.696C259.306 193.465 255.748 188.453 255.729 183.556L255.587 147.607C255.568 142.71 259.094 139.71 263.423 140.939L399.165 179.504C403.494 180.734 407.052 185.746 407.071 190.643L407.212 226.593C407.232 231.49 403.705 234.49 399.377 233.26L275.139 197.963L259.88 208.194Z" stroke="#1737A2" stroke-width="4.43872" stroke-linecap="round" stroke-linejoin="round"/>
<path d="M275.111 159.578L277.494 165.703C277.716 166.272 278.128 166.719 278.638 166.945L284.155 169.39C285.676 170.064 285.947 172.371 284.636 173.473L281.609 176.016C280.982 176.543 280.668 177.423 280.797 178.295L281.429 182.569C281.742 184.682 279.603 186.131 278.108 184.82L274.349 181.526C273.826 181.068 273.141 180.919 272.505 181.125L267.952 182.601C266.479 183.078 265.071 181.648 265.332 179.938L266.238 173.997C266.34 173.324 266.18 172.635 265.799 172.107L262.44 167.454C261.27 165.833 262.413 163.417 264.253 163.622L267.708 164.007C268.535 164.099 269.332 163.624 269.732 162.8L271.389 159.392C272.218 157.685 274.417 157.794 275.111 159.578Z" fill="#FF9B3D"/>
<path d="M303.319 167.858L305.702 173.982C305.924 174.552 306.336 174.998 306.846 175.225L312.363 177.669C313.884 178.344 314.155 180.65 312.844 181.752L309.817 184.295C309.19 184.822 308.876 185.703 309.005 186.575L309.637 190.848C309.95 192.961 307.811 194.41 306.316 193.1L302.557 189.806C302.034 189.347 301.349 189.199 300.713 189.404L296.16 190.881C294.687 191.358 293.279 189.927 293.54 188.217L294.446 182.276C294.548 181.604 294.388 180.915 294.007 180.386L290.648 175.734C289.478 174.112 290.621 171.696 292.461 171.901L295.916 172.287C296.743 172.379 297.54 171.903 297.94 171.079L299.597 167.671C300.426 165.964 302.625 166.073 303.319 167.858Z" fill="#FF9B3D"/>
<path d="M330.568 175.977L332.951 182.101C333.172 182.671 333.584 183.118 334.095 183.344L339.612 185.788C341.132 186.463 341.404 188.769 340.093 189.871L337.065 192.414C336.439 192.941 336.125 193.822 336.254 194.694L336.886 198.968C337.198 201.08 335.06 202.529 333.564 201.219L329.805 197.925C329.282 197.466 328.598 197.318 327.962 197.523L323.409 199C321.935 199.477 320.528 198.046 320.789 196.336L321.694 190.395C321.797 189.723 321.637 189.034 321.255 188.505L317.897 183.853C316.727 182.231 317.87 179.815 319.71 180.02L323.165 180.406C323.992 180.498 324.788 180.023 325.188 179.198L326.845 175.791C327.675 174.083 329.874 174.193 330.568 175.977Z" fill="#FF9B3D"/>
<path d="M358.031 184.19L360.414 190.314C360.635 190.884 361.047 191.33 361.558 191.557L367.075 194.001C368.595 194.676 368.867 196.982 367.555 198.084L364.528 200.627C363.902 201.154 363.588 202.035 363.717 202.907L364.349 207.18C364.661 209.293 362.523 210.742 361.027 209.432L357.268 206.138C356.745 205.679 356.061 205.531 355.425 205.736L350.872 207.213C349.398 207.69 347.991 206.259 348.252 204.549L349.157 198.608C349.26 197.936 349.099 197.247 348.718 196.718L345.36 192.066C344.19 190.444 345.333 188.028 347.173 188.233L350.627 188.619C351.455 188.711 352.251 188.235 352.651 187.411L354.308 184.003C355.138 182.296 357.337 182.405 358.031 184.19Z" fill="#FF9B3D"/>
<path d="M386.044 192.178L388.423 198.305C388.647 198.87 389.061 199.32 389.568 199.547L395.086 201.993C396.608 202.666 396.877 204.974 395.571 206.071L392.542 208.617C391.917 209.144 391.597 210.028 391.727 210.895L392.358 215.173C392.671 217.279 390.536 218.731 389.037 217.42L385.282 214.125C384.755 213.669 384.07 213.522 383.438 213.726L378.885 215.205C377.412 215.678 376 214.251 376.266 212.536L377.167 206.601C377.272 205.926 377.111 205.239 376.729 204.71L373.374 200.059C372.203 198.437 373.345 196.014 375.182 196.22L378.641 196.612C379.464 196.701 380.267 196.223 380.662 195.404L382.32 191.996C383.149 190.285 385.347 190.396 386.044 192.178Z" stroke="#91B0F5" stroke-width="2.86"/>
<path d="M386.044 192.178L388.427 198.302C388.648 198.872 389.06 199.319 389.571 199.545L395.088 201.99C396.608 202.664 396.88 204.97 395.569 206.073L392.541 208.616C391.915 209.142 391.601 210.023 391.73 210.895L392.362 215.169C392.674 217.281 390.536 218.73 389.04 217.42L385.281 214.126C384.758 213.667 384.074 213.519 383.438 213.724L378.885 215.201C377.411 215.678 376.004 214.247 376.265 212.537L377.171 206.596C377.273 205.924 377.113 205.235 376.731 204.706L373.373 200.054C372.203 198.432 373.346 196.016 375.186 196.221L378.641 196.607C379.468 196.699 380.264 196.224 380.665 195.399L382.321 191.992C383.151 190.284 385.35 190.394 386.044 192.178Z" fill="#91B0F5"/>
<path d="M384.531 193.547L386.91 199.674C387.134 200.239 387.547 200.689 388.055 200.916L393.573 203.362C395.095 204.036 395.364 206.343 394.058 207.44L391.028 209.986C390.404 210.513 390.084 211.397 390.214 212.264L390.845 216.542C391.157 218.648 389.023 220.101 387.524 218.789L383.769 215.495C383.241 215.038 382.557 214.891 381.925 215.095L377.372 216.574C375.898 217.047 374.487 215.62 374.753 213.905L375.654 207.97C375.759 207.296 375.598 206.608 375.216 206.079L371.861 201.428C370.689 199.806 371.832 197.384 373.669 197.589L377.128 197.981C377.951 198.07 378.753 197.592 379.149 196.773L380.807 193.365C381.636 191.655 383.834 191.765 384.531 193.547Z" stroke="#91B0F5" stroke-width="2.86"/>
<path d="M384.53 193.549L386.913 199.673C387.135 200.243 387.547 200.69 388.057 200.916L393.574 203.361C395.094 204.035 395.366 206.341 394.055 207.444L391.028 209.987C390.401 210.513 390.087 211.394 390.216 212.266L390.848 216.54C391.161 218.652 389.022 220.102 387.527 218.791L383.767 215.497C383.245 215.039 382.56 214.89 381.924 215.095L377.371 216.572C375.898 217.049 374.49 215.618 374.751 213.908L375.657 207.968C375.759 207.295 375.599 206.606 375.218 206.077L371.859 201.425C370.689 199.803 371.832 197.387 373.672 197.592L377.127 197.978C377.954 198.07 378.751 197.595 379.151 196.77L380.808 193.363C381.637 191.656 383.836 191.765 384.53 193.549Z" fill="#91B0F5"/>
<path d="M385.159 193.001L387.538 199.127C387.762 199.692 388.175 200.142 388.683 200.369L394.201 202.815C395.723 203.489 395.992 205.796 394.685 206.893L391.656 209.44C391.032 209.966 390.712 210.85 390.842 211.717L391.473 215.995C391.785 218.102 389.651 219.554 388.152 218.242L384.397 214.948C383.869 214.491 383.185 214.344 382.553 214.548L378 216.027C376.526 216.501 375.115 215.073 375.381 213.358L376.282 207.423C376.387 206.749 376.226 206.061 375.844 205.532L372.489 200.881C371.317 199.259 372.46 196.837 374.297 197.042L377.756 197.434C378.579 197.523 379.381 197.046 379.777 196.226L381.435 192.819C382.264 191.108 384.462 191.218 385.159 193.001Z" stroke="#91B0F5" stroke-width="2.86"/>
<path d="M385.159 193.002L387.542 199.126C387.763 199.696 388.175 200.143 388.686 200.369L394.203 202.814C395.723 203.488 395.995 205.794 394.683 206.897L391.656 209.44C391.029 209.966 390.716 210.847 390.845 211.719L391.477 215.993C391.789 218.105 389.651 219.555 388.155 218.244L384.396 214.95C383.873 214.492 383.189 214.343 382.552 214.549L378 216.025C376.526 216.502 375.119 215.072 375.38 213.361L376.285 207.421C376.388 206.748 376.227 206.059 375.846 205.53L372.488 200.878C371.318 199.256 372.461 196.84 374.301 197.046L377.755 197.431C378.583 197.523 379.379 197.048 379.779 196.223L381.436 192.816C382.266 191.109 384.465 191.218 385.159 193.002Z" fill="white"/>
<path d="M216.492 457.309L185.346 447.823C186.276 446.073 185.837 443.18 188.957 440.759L212.838 422.228C215.958 419.806 221.505 418.737 225.163 419.852L256.309 429.337C259.967 430.452 260.407 433.344 257.287 435.765L233.407 454.297C230.286 456.718 224.739 457.787 216.492 457.309Z" fill="#C2D7EF"/>
<path d="M207.317 457.085L176.171 447.6C172.512 446.486 172.072 443.593 175.192 441.172L199.073 422.64C202.194 420.219 207.74 419.15 211.398 420.263L242.544 429.75C246.203 430.864 246.643 433.757 243.523 436.178L219.642 454.709C216.521 457.13 210.975 458.2 207.317 457.085Z" fill="#0E2D82"/>
<path d="M207.317 455.079L176.171 445.594C172.512 444.48 172.072 441.587 175.192 439.166L199.073 420.634C202.194 418.214 207.74 417.144 211.398 418.257L242.544 427.744C246.203 428.858 246.643 431.751 243.523 434.173L219.642 452.703C216.521 455.124 210.975 456.194 207.317 455.079Z" fill="#EC5252"/>
<line x1="2.5" y1="-2.5" x2="16.9235" y2="-2.5" transform="matrix(0.294182 0.95575 -0.930125 0.367243 205.876 427.846)" stroke="white" stroke-width="5" stroke-linecap="round"/>
<line x1="2.5" y1="-2.5" x2="20.7949" y2="-2.5" transform="matrix(-0.983033 0.183432 -0.143953 -0.989585 221.307 432.908)" stroke="white" stroke-width="5" stroke-linecap="round"/>
</svg>
