<svg width="62" height="62"  viewBox="0 0 92 92" fill="none" xmlns="http://www.w3.org/2000/svg">
<path d="M78.8138 0H13.1915C5.90451 0 0 4.6905 0 10.4745V81.5255C0 87.3095 5.90451 92 13.1915 92H78.8085C86.0955 92 92 87.3095 92 81.5255V10.4745C92.0053 4.6905 86.0928 0 78.8138 0ZM12.5134 47.4413L17.1173 40.327C17.1806 40.2285 17.2624 40.1426 17.36 40.0651L55.6733 9.64705C56.1851 9.23855 57.0267 9.23855 57.5386 9.64705L61.8891 13.1037C62.1398 13.3006 62.2743 13.5666 62.2743 13.8453C62.2743 14.1239 62.1345 14.3899 61.8891 14.5868L23.5758 45.007C23.4782 45.0803 23.3647 45.1453 23.246 45.1977L14.289 48.8533C13.7798 49.0628 13.1572 48.9852 12.7509 48.6605C12.3472 48.34 12.2496 47.8498 12.5134 47.4413ZM74.363 82.6525H17.6396C14.727 82.6525 12.3631 80.7755 12.3631 78.4627C12.3631 76.1499 14.727 74.2729 17.6396 74.2729H74.363C77.2757 74.2729 79.6396 76.1499 79.6396 78.4627C79.6396 80.7755 77.2757 82.6525 74.363 82.6525ZM74.363 66.9407H17.6396C14.727 66.9407 12.3631 65.0637 12.3631 62.7509C12.3631 60.4381 14.727 58.5611 17.6396 58.5611H74.363C77.2757 58.5611 79.6396 60.4381 79.6396 62.7509C79.6396 65.0637 77.2757 66.9407 74.363 66.9407ZM74.363 51.2289H37.4269C34.5142 51.2289 32.1503 49.3519 32.1503 47.0391C32.1503 44.7263 34.5142 42.8493 37.4269 42.8493H74.363C77.2757 42.8493 79.6396 44.7263 79.6396 47.0391C79.6396 49.3519 77.2757 51.2289 74.363 51.2289Z" fill="white" fill-opacity="0.6"/>
</svg>
