<svg width="24" height="24" viewBox="0 0 24 24" fill="none" xmlns="http://www.w3.org/2000/svg">
<path d="M7.16503 0.333435H3.72815C1.83001 0.333435 0.29126 1.90044 0.29126 3.83344V7.33344C0.29126 9.26643 1.83001 10.8334 3.72815 10.8334H7.16503C9.06317 10.8334 10.6019 9.26643 10.6019 7.33344V3.83344C10.6019 1.90044 9.06317 0.333435 7.16503 0.333435Z" fill="#717579"/>
<path d="M19.767 0.333435H16.3301C14.4319 0.333435 12.8932 1.90044 12.8932 3.83344V7.33344C12.8932 9.26643 14.4319 10.8334 16.3301 10.8334H19.767C21.6651 10.8334 23.2039 9.26643 23.2039 7.33344V3.83344C23.2039 1.90044 21.6651 0.333435 19.767 0.333435Z" fill="#717579"/>
<path d="M7.16503 13.1667H3.72815C1.83001 13.1667 0.29126 14.7338 0.29126 16.6667V20.1668C0.29126 22.0997 1.83001 23.6668 3.72815 23.6668H7.16503C9.06317 23.6668 10.6019 22.0997 10.6019 20.1668V16.6667C10.6019 14.7338 9.06317 13.1667 7.16503 13.1667Z" fill="#717579"/>
<path d="M19.767 13.1667H16.3301C14.4319 13.1667 12.8932 14.7338 12.8932 16.6667V20.1668C12.8932 22.0997 14.4319 23.6668 16.3301 23.6668H19.767C21.6651 23.6668 23.2039 22.0997 23.2039 20.1668V16.6667C23.2039 14.7338 21.6651 13.1667 19.767 13.1667Z" fill="#717579"/>
</svg>
