<svg width="24" height="24" viewBox="0 0 24 24" fill="none" xmlns="http://www.w3.org/2000/svg">
<path d="M7 2.00012H4C2.34315 2.00012 1 3.34327 1 5.00012V8.00011C1 9.65697 2.34315 11.0001 4 11.0001H7C8.65686 11.0001 10 9.65697 10 8.00011V5.00012C10 3.34327 8.65686 2.00012 7 2.00012Z" fill="#717579"/>
<path d="M18 2.00012H15C13.3431 2.00012 12 3.34327 12 5.00012V8.00011C12 9.65697 13.3431 11.0001 15 11.0001H18C19.6569 11.0001 21 9.65697 21 8.00011V5.00012C21 3.34327 19.6569 2.00012 18 2.00012Z" fill="#717579"/>
<path d="M7 13.0001H4C2.34315 13.0001 1 14.3433 1 16.0001V19.0001C1 20.657 2.34315 22.0001 4 22.0001H7C8.65686 22.0001 10 20.657 10 19.0001V16.0001C10 14.3433 8.65686 13.0001 7 13.0001Z" fill="#717579"/>
<path d="M18 13.0001H15C13.3431 13.0001 12 14.3433 12 16.0001V19.0001C12 20.657 13.3431 22.0001 15 22.0001H18C19.6569 22.0001 21 20.657 21 19.0001V16.0001C21 14.3433 19.6569 13.0001 18 13.0001Z" fill="#717579"/>
</svg>
