<svg width="36" height="50" viewBox="0 0 36 50" fill="none" xmlns="http://www.w3.org/2000/svg">
<path d="M18.3086 34.3034C18.3086 28.8572 22.7391 24.4268 28.1852 24.4268C29.2841 24.4268 30.3401 24.6098 31.3282 24.9424L32.15 15.0793H0.939941L3.38405 44.4076C3.64533 47.5434 6.31503 50 9.462 50H23.6282C26.775 50 29.4448 47.5434 29.7061 44.4076L29.7352 44.0572C29.23 44.1372 28.7125 44.18 28.1852 44.18C22.7393 44.18 18.3086 39.7495 18.3086 34.3034Z" fill="#717579"/>
<path d="M28.1852 26.7195C24.0035 26.7195 20.6013 30.1217 20.6013 34.3034C20.6013 38.485 24.0035 41.8872 28.1852 41.8872C32.3668 41.8872 35.769 38.485 35.769 34.3034C35.769 30.1217 32.3668 26.7195 28.1852 26.7195ZM31.9059 36.4027C32.3535 36.8505 32.3535 37.5763 31.9059 38.0241C31.682 38.2478 31.3885 38.3598 31.0951 38.3598C30.8018 38.3598 30.5082 38.2478 30.2843 38.0241L28.1852 35.9248L26.0858 38.0241C25.8619 38.2478 25.5685 38.3598 25.2751 38.3598C24.9818 38.3598 24.6882 38.2478 24.4643 38.0241C24.0166 37.5763 24.0166 36.8505 24.4643 36.4027L26.5636 34.3034L24.4643 32.2041C24.0166 31.7562 24.0166 31.0305 24.4643 30.5827C24.9121 30.1352 25.6379 30.1352 26.0857 30.5827L28.185 32.682L30.2843 30.5827C30.7323 30.1352 31.4581 30.1352 31.9059 30.5827C32.3535 31.0305 32.3535 31.7562 31.9059 32.2041L29.8065 34.3034L31.9059 36.4027Z" fill="#717579"/>
<path d="M11.8712 4.39428C11.8712 3.23552 12.814 2.29276 13.9727 2.29276H19.1168C20.2758 2.29276 21.2185 3.23552 21.2185 4.39428V5.82643H23.5113V4.39428C23.5114 1.97138 21.5401 0 19.117 0H13.9729C11.55 0 9.57861 1.97138 9.57861 4.39428V5.82643H11.8712V4.39428Z" fill="#717579"/>
<path d="M32.8589 10.7143C32.8589 9.28333 31.6948 8.11919 30.2638 8.11919H2.82607C1.3951 8.11919 0.230957 9.28333 0.230957 10.7143V12.7867H32.8589V10.7143Z" fill="#717579"/>
</svg>
