<svg width="14" height="16" viewBox="0 0 14 16" fill="none" xmlns="http://www.w3.org/2000/svg">
<path d="M0.841797 6.33789L1.72341 15.0282H11.421L12.3026 6.33789H0.841797ZM4.58859 13.5074H3.26621V7.85868H4.58859V13.5074ZM7.23338 13.5074H5.91097V7.85868H7.23338V13.5074ZM9.87818 13.5074H8.5558V7.85868H9.87818V13.5074Z" fill="#B8B8B8"/>
<path d="M10.5419 2.86492H8.99912V2.64767C8.99912 1.32991 7.91156 0.257812 6.57474 0.257812C5.23793 0.257812 4.15033 1.32991 4.15033 2.64767V2.86492H2.60753C1.29712 2.86492 0.209937 3.80457 0 5.03751H13.1494C12.9395 3.80457 11.8523 2.86492 10.5419 2.86492ZM7.67674 2.86492H5.47275V2.64767C5.47275 2.04868 5.96709 1.56138 6.57474 1.56138C7.1824 1.56138 7.67674 2.04868 7.67674 2.64767V2.86492Z" fill="#B8B8B8"/>
</svg>
