<svg width="50" height="50" viewBox="0 0 50 50" fill="none" xmlns="http://www.w3.org/2000/svg">
<path d="M47.7273 25.5052C46.4721 25.5052 45.4545 26.5334 45.4545 27.8016V45.4072H4.54545V27.8016C4.54545 26.5334 3.52788 25.5052 2.27273 25.5052C1.01758 25.5052 0 26.5334 0 27.8016V47.7036C0 48.9718 1.01758 50 2.27273 50H47.7273C48.9824 50 50 48.9718 50 47.7036V27.8016C50 26.5334 48.9824 25.5052 47.7273 25.5052Z" fill="black"/>
<path d="M15.9161 23.0882L22.7061 29.7268V2.24313C22.7061 1.00432 23.7332 0 25.0002 0C26.2672 0 27.2943 1.00432 27.2943 2.24313V29.7267L34.0837 23.0882C34.5317 22.6502 35.1188 22.4311 35.7058 22.4311C36.2929 22.4311 36.8801 22.6501 37.3281 23.0882C38.224 23.9642 38.224 25.3844 37.3281 26.2605L26.6229 36.7278C26.5691 36.7803 26.5126 36.8299 26.4541 36.877C26.4287 36.8974 26.4019 36.915 26.3761 36.934C26.3421 36.959 26.3089 36.9844 26.2736 37.0076C26.2419 37.0284 26.2091 37.0463 26.1765 37.0653C26.1448 37.084 26.1138 37.1033 26.081 37.1205C26.0479 37.1378 26.0139 37.1523 25.9799 37.168C25.9458 37.1837 25.9125 37.2003 25.8775 37.2145C25.8447 37.2277 25.8114 37.2385 25.7782 37.2501C25.7409 37.2633 25.704 37.2774 25.6657 37.2887C25.6326 37.2984 25.5991 37.3055 25.5659 37.3137C25.5268 37.3234 25.4879 37.3342 25.4482 37.342C25.4099 37.3493 25.3712 37.3536 25.3327 37.3592C25.2974 37.3642 25.2623 37.3707 25.2264 37.3741C25.1557 37.3808 25.0849 37.3841 25.014 37.3846C25.0094 37.3846 25.0049 37.3852 25.0004 37.3852C24.9959 37.3852 24.9913 37.3846 24.9869 37.3846C24.9159 37.3843 24.845 37.3808 24.7742 37.3741C24.7391 37.3707 24.7049 37.3644 24.6702 37.3595C24.6307 37.3539 24.5912 37.3494 24.5522 37.3418C24.5134 37.3343 24.4758 37.3239 24.4377 37.3144C24.4031 37.3059 24.3686 37.2984 24.3343 37.2884C24.2974 37.2775 24.2615 37.2639 24.2254 37.2512C24.191 37.2391 24.1563 37.228 24.1223 37.2142C24.0887 37.2006 24.0566 37.1846 24.0238 37.1695C23.9886 37.1534 23.9532 37.138 23.9186 37.12C23.8874 37.1037 23.858 37.0852 23.8276 37.0675C23.7935 37.0478 23.7592 37.029 23.726 37.0073C23.6929 36.9856 23.6618 36.9614 23.6298 36.9382C23.6017 36.9177 23.5731 36.8987 23.5459 36.8767C23.4901 36.832 23.4367 36.7846 23.3854 36.7351C23.383 36.7327 23.3804 36.7308 23.3778 36.7284L12.6719 26.2606C11.7761 25.3846 11.776 23.9644 12.6719 23.0884C13.5677 22.2122 15.0203 22.2125 15.9161 23.0882Z" fill="black"/>
</svg>
