<svg width="14" height="16" viewBox="0 0 39 43" fill="none" xmlns="http://www.w3.org/2000/svg">
<path d="M3.18665 40.1062C2.24556 40.1062 1.48975 40.862 1.48975 41.8031C1.48975 42.7442 2.24556 43.5 3.18665 43.5H35.8135C36.7545 43.5 37.5104 42.7442 37.5104 41.8031C37.5104 40.862 36.7545 40.1062 35.8135 40.1062H3.18665ZM18.3042 33.929C18.6158 34.2406 19.0517 34.4301 19.5001 34.4301C19.9382 34.4301 20.379 34.2565 20.699 33.9259L30.2268 24.3981C30.892 23.7329 30.892 22.6627 30.2268 21.9976C29.5616 21.3324 28.4915 21.3324 27.8263 21.9976L21.197 28.6269V1.19691C21.197 0.255816 20.4411 -0.5 19.5001 -0.5C18.559 -0.5 17.8031 0.255816 17.8031 1.19691V28.6269L11.1738 21.9976C10.5087 21.3324 9.43847 21.3324 8.77331 21.9976C8.10815 22.6627 8.10815 23.7329 8.77331 24.3981L18.3042 33.929Z" fill="#0000ff" stroke="#0000ff"/>
</svg>
