<svg width="451" height="525" viewBox="0 0 451 525" fill="none" xmlns="http://www.w3.org/2000/svg">
<path d="M225.545 510.352C329.616 510.352 413.982 453.653 413.982 383.712C413.982 313.77 329.616 257.071 225.545 257.071C121.474 257.071 37.1083 313.77 37.1083 383.712C37.1083 453.653 121.474 510.352 225.545 510.352Z" fill="#F5F5F5"/>
<path d="M121.157 449.652C143.823 449.652 162.198 437.303 162.198 422.069C162.198 406.835 143.823 394.485 121.157 394.485C98.4903 394.485 80.1156 406.835 80.1156 422.069C80.1156 437.303 98.4903 449.652 121.157 449.652Z" fill="#EBEBEB"/>
<path d="M333.668 449.652C356.334 449.652 374.709 437.303 374.709 422.069C374.709 406.835 356.334 394.485 333.668 394.485C311.002 394.485 292.627 406.835 292.627 422.069C292.627 437.303 311.002 449.652 333.668 449.652Z" fill="#EBEBEB"/>
<path d="M227.286 465.958C253.021 465.958 273.883 451.935 273.883 434.637C273.883 417.339 253.021 403.315 227.286 403.315C201.551 403.315 180.689 417.339 180.689 434.637C180.689 451.935 201.551 465.958 227.286 465.958Z" fill="#EBEBEB"/>
<path d="M42.394 177.345C44.6904 182.586 45.6066 188.499 45.0279 194.344C44.4867 199.332 42.9984 204.162 43.5396 209.244C44.3874 217.266 49.2222 223.66 53.1278 229.971C55.3973 233.354 57.2213 237.113 58.5398 241.122C59.965 246.057 59.6222 251.191 58.8285 256.231C57.3311 265.807 55.2205 274.806 59.8297 283.699C62.3733 288.592 65.8099 292.74 68.2002 297.748C70.7774 303.276 72.3898 309.342 72.9448 315.598C72.9989 316.165 73.937 316.354 73.8919 315.714C73.5741 310.463 72.4595 305.319 70.5995 300.52C68.7144 295.669 65.9723 291.595 63.2663 287.353C60.5603 283.111 58.2061 278.428 57.9625 272.895C57.737 267.729 58.8645 262.636 59.7665 257.617C60.5423 253.008 61.1195 248.251 60.2807 243.6C59.4801 239.712 58.0605 236.033 56.0954 232.753C52.1446 225.802 46.5613 219.45 44.9196 211.113C43.72 205.002 45.8216 199.216 46.1644 193.168C46.5297 187.565 45.3784 181.969 42.8721 177.166C42.6827 176.809 42.2136 176.893 42.403 177.345H42.394Z" fill="#37474F"/>
<path d="M41.2034 186.312C40.9779 184.643 43.3501 179.498 43.9094 179.403C44.4686 179.309 47.7609 183.309 48.0044 185.094C48.0211 185.449 47.9573 185.802 47.8196 186.119C47.6819 186.436 47.475 186.705 47.2197 186.9C46.5342 187.476 45.7408 187.855 44.905 188.005C44.0691 188.154 43.2147 188.071 42.412 187.761C42.1159 187.669 41.8466 187.486 41.6323 187.231C41.418 186.976 41.2667 186.659 41.1943 186.312H41.2034Z" fill="#F34A4A"/>
<path opacity="0.1" d="M41.2034 186.312C40.9779 184.643 43.3501 179.498 43.9094 179.403C44.4686 179.309 47.7609 183.309 48.0044 185.094C48.0211 185.449 47.9573 185.802 47.8196 186.119C47.6819 186.436 47.475 186.705 47.2197 186.9C46.5342 187.476 45.7408 187.855 44.905 188.005C44.0691 188.154 43.2147 188.071 42.412 187.761C42.1159 187.669 41.8466 187.486 41.6323 187.231C41.418 186.976 41.2667 186.659 41.1943 186.312H41.2034Z" fill="black"/>
<path d="M19.9883 152.849C21.648 165.68 32.472 180.338 44.198 181.377C55.0852 175.644 61.6156 158.54 59.9199 145.677C58.2241 132.815 49.5469 122.136 36.6934 124.436C23.8399 126.735 18.2926 140.018 19.9883 152.849Z" fill="#F34A4A"/>
<path opacity="0.05" d="M59.9285 152.576C59.9285 152.576 58.6296 165.417 45.6228 168.735C33.1391 171.948 20.7456 157.658 19.7264 146.916C19.6384 148.899 19.726 150.887 19.988 152.849C21.6476 165.68 32.4716 180.338 44.1976 181.377C53.2176 176.631 59.243 164.073 60.0819 152.607L59.9285 152.576Z" fill="black"/>
<path d="M408.705 228.176C406.669 231.484 405.291 235.279 404.673 239.285C404.078 243.264 404.673 247.233 404.845 251.223C405.115 256.473 404.141 260.873 401.147 264.873C398.774 268.023 395.906 270.648 393.759 274.05C389.448 280.886 388.473 288.53 389.357 296.793C390.359 306.149 392.226 314.948 388.356 323.831C386.282 328.598 383.539 332.945 382.087 338.069C380.79 343.057 380.234 348.267 380.446 353.472C380.446 354.05 381.393 354.228 381.402 353.588C381.328 348.622 381.878 343.669 383.034 338.888C384.216 334.499 386.345 330.645 388.275 326.666C390.232 322.922 391.463 318.726 391.883 314.37C392.06 310.454 391.833 306.527 391.206 302.673C390.611 298.19 389.89 293.643 390.079 289.097C390.315 284.584 391.541 280.216 393.642 276.413C397.34 269.577 404.52 265.377 405.756 256.883C406.351 252.767 405.593 248.588 405.422 244.472C405.187 238.76 406.802 233.552 409.174 228.638C409.328 228.333 408.886 227.84 408.687 228.165L408.705 228.176Z" fill="#37474F"/>
<path d="M409.887 237.563C410.194 235.904 408.083 230.601 407.551 230.454C407.018 230.307 403.492 234.077 403.158 235.841C403.12 236.193 403.163 236.55 403.282 236.876C403.401 237.202 403.591 237.486 403.834 237.699C404.49 238.32 405.261 238.754 406.087 238.966C406.912 239.177 407.769 239.161 408.588 238.917C408.887 238.844 409.165 238.68 409.393 238.442C409.621 238.204 409.791 237.901 409.887 237.563Z" fill="#F34A4A"/>
<path opacity="0.1" d="M409.887 237.563C410.194 235.904 408.083 230.601 407.551 230.454C407.018 230.307 403.492 234.077 403.158 235.841C403.12 236.193 403.163 236.55 403.282 236.876C403.401 237.202 403.591 237.486 403.834 237.699C404.49 238.32 405.261 238.754 406.087 238.966C406.912 239.177 407.769 239.161 408.588 238.917C408.887 238.844 409.165 238.68 409.393 238.442C409.621 238.204 409.791 237.901 409.887 237.563Z" fill="black"/>
<path d="M432.888 205.8C430.498 218.473 418.925 232.302 407.181 232.47C396.627 225.928 391.053 208.383 393.452 195.72C395.852 183.057 405.097 172.998 417.806 176.253C430.516 179.508 435.287 193.063 432.888 205.8Z" fill="#F34A4A"/>
<path opacity="0.05" d="M393.047 202.492C393.047 202.492 393.687 215.407 406.432 219.691C418.717 223.818 431.869 210.483 433.492 199.836C433.463 201.825 433.264 203.805 432.897 205.747C430.507 218.421 418.934 232.249 407.19 232.417C398.44 226.999 393.128 214.021 392.92 202.513L393.047 202.492Z" fill="black"/>
<path d="M274.497 45.7695C270.284 45.2865 264.575 53.4765 268.706 57.414C270.997 59.598 275.985 58.653 275.922 54.5685C275.912 54.4552 275.87 54.3489 275.803 54.2655C275.737 54.1822 275.648 54.1264 275.552 54.1065C272.242 53.2245 268.958 54.8835 269.518 59.3565C269.818 61.2847 270.671 63.0375 271.937 64.3286C273.204 65.6198 274.809 66.3729 276.49 66.465C276.689 66.465 276.616 66.066 276.49 66.024C273.604 65.3205 270.88 63.231 270.311 59.64C270.183 59.0044 270.172 58.3444 270.28 57.7036C270.387 57.0629 270.61 56.4559 270.934 55.923C271.32 55.3832 271.83 54.9826 272.404 54.768C272.9 54.5895 274.677 54.264 275.11 54.768C275.886 55.7025 273.775 57.288 273.144 57.54C272.52 57.8004 271.855 57.8978 271.196 57.8252C270.536 57.7526 269.899 57.5119 269.328 57.12C267.578 55.692 268.011 53.004 268.859 51.1035C270.005 48.531 272.007 46.4415 274.587 46.3365C274.821 46.3365 274.695 45.822 274.515 45.801L274.497 45.7695Z" fill="#F34A4A"/>
<path d="M275.895 207.092C277.221 203.616 277.076 200.015 280.937 198.87C282.633 198.366 286.647 197.904 287.918 199.658C288.15 200.081 288.244 200.587 288.183 201.084C288.121 201.581 287.909 202.036 287.585 202.367C286.583 203.417 285.835 202.157 285.573 201.044C285.372 200.016 285.449 198.941 285.795 197.967C286.141 196.992 286.738 196.167 287.504 195.605C289.123 194.363 291.084 193.872 292.999 194.23C294.914 194.587 296.645 195.767 297.849 197.537C297.994 197.747 298.147 197.537 298.084 197.306C295.125 189.378 280.946 194.891 285.456 202.493C286.836 204.792 289.271 202.766 288.811 200.33C288.306 197.631 284.356 197.768 282.606 197.904C280.832 197.905 279.122 198.672 277.807 200.057C276.265 201.821 276.057 204.614 275.732 206.987C275.732 207.092 275.814 207.249 275.877 207.092H275.895Z" fill="#F34A4A"/>
<path d="M377.036 36.6248C379.805 35.6798 383.612 35.9423 385.93 38.1158C387.734 39.7958 388.744 43.4393 386.101 44.6888C385.064 45.1718 381.645 45.1718 381.239 43.5338C380.951 42.3893 382.006 41.7068 382.854 41.5598C385.334 41.1083 387.662 44.1533 387.598 46.8728C387.517 50.9573 383.431 52.3118 380.545 52.3433C380.355 52.3433 380.401 52.7633 380.545 52.7738C385.461 53.3303 390.945 48.0278 386.57 42.7148C385.398 41.2868 383.558 40.2683 381.862 41.0558C380.906 41.5073 380.148 42.5153 380.626 43.7228C381.393 45.6653 384.478 46.0013 385.975 45.5078C386.372 45.3849 386.743 45.1685 387.065 44.872C387.387 44.5755 387.654 44.2052 387.848 43.784C388.043 43.3628 388.161 42.8996 388.196 42.4231C388.23 41.9467 388.18 41.467 388.049 41.0138C386.841 35.8478 380.626 34.7138 376.946 36.3203C376.838 36.3203 376.883 36.6668 377.009 36.6248H377.036Z" fill="#F34A4A"/>
<path d="M413.323 253.376C416.093 252.431 419.899 252.693 422.217 254.867C424.021 256.547 425.031 260.19 422.389 261.44C421.351 261.923 417.933 261.923 417.527 260.274C417.238 259.14 418.293 258.458 419.132 258.3C421.622 257.859 423.94 260.904 423.886 263.624C423.805 267.708 419.719 269.063 416.832 269.094C416.643 269.094 416.688 269.514 416.832 269.525C421.748 270.081 427.232 264.779 422.858 259.466C421.685 258.038 419.845 257.019 418.149 257.807C417.193 258.248 416.435 259.266 416.913 260.474C417.68 262.416 420.765 262.752 422.262 262.248C422.66 262.128 423.031 261.913 423.354 261.618C423.677 261.323 423.944 260.953 424.139 260.533C424.334 260.112 424.452 259.649 424.486 259.173C424.52 258.696 424.469 258.217 424.337 257.765C423.128 252.588 416.913 251.465 413.233 253.071C413.125 253.071 413.161 253.418 413.296 253.376H413.323Z" fill="#F34A4A"/>
<path d="M393.029 96.3803C389.727 97.5248 386.66 104.287 389.727 107.363C392.334 109.978 397.602 109.39 396.727 104.402C396.718 104.346 396.697 104.292 396.666 104.248C396.634 104.204 396.593 104.17 396.546 104.15C393.083 103.184 391.937 107.888 392.668 110.996C393.795 115.826 397.98 115.763 401.002 113.243C401.101 113.159 401.056 112.823 400.912 112.907C398.441 114.346 394.977 115.627 393.47 111.952C392.668 109.988 392.641 106.702 394.192 105.221C394.596 104.783 395.129 104.542 395.68 104.549C396.835 104.707 396.637 106.156 395.987 107.08C394.95 108.55 392.866 108.392 391.477 107.825C386.724 105.862 389.989 98.6903 393.092 96.6743C393.182 96.6113 393.164 96.3383 393.029 96.3803Z" fill="#F34A4A"/>
<path d="M319.615 79.4852C315.718 78.9077 307.338 82.7297 309.521 88.9352C310.685 92.2427 315.88 94.3637 317.585 90.5732C317.622 90.4699 317.623 90.3542 317.587 90.2503C317.552 90.1465 317.483 90.0627 317.396 90.0167C309.278 84.6617 300.727 100.128 309.341 105.767C309.612 105.945 309.603 105.41 309.449 105.273C308.706 104.681 308.072 103.922 307.583 103.041C307.095 102.16 306.763 101.174 306.606 100.141C306.449 99.109 306.47 98.0504 306.669 97.0277C306.867 96.005 307.239 95.0386 307.762 94.1852C308.64 92.5541 309.889 91.2384 311.37 90.3842C312.48 89.7752 315.267 88.9142 316.304 90.1742C316.773 90.7622 316.764 90.0272 316.521 90.7097C316.289 91.115 315.935 91.4038 315.529 91.5182C314.643 91.8456 313.688 91.8085 312.823 91.4132C311.019 90.6782 309.603 88.7462 310.117 86.4257C311.064 81.7742 316.151 80.1257 319.714 80.0522C319.957 80.0522 319.804 79.5167 319.615 79.4852Z" fill="#F34A4A"/>
<path d="M337.348 37.6221C337.348 37.6221 337.114 42.7041 340.352 45.5286L343.743 44.3211C343.743 44.3211 341.479 43.0611 340.352 37.6221H337.348Z" fill="#455A64"/>
<path d="M280.215 160.65C280.215 160.65 279.972 165.732 283.21 168.557L286.611 167.349C286.611 167.349 284.337 166.089 283.21 160.65H280.215Z" fill="#455A64"/>
<path d="M307.943 217.917C307.943 217.917 307.699 222.988 310.947 225.813L314.338 224.616C314.338 224.616 312.074 223.345 310.947 217.917H307.943Z" fill="#37474F"/>
<path d="M414.253 63.0848C414.253 63.0848 412.268 67.6208 408.254 68.1773L405.828 65.1533C405.828 65.1533 408.335 65.3843 411.655 61.3418L414.253 63.0848Z" fill="#455A64"/>
<path d="M390.99 225.267C390.99 225.267 389.015 229.803 384.992 230.349L382.565 227.336C382.565 227.336 385.082 227.556 388.392 223.514L390.99 225.267Z" fill="#455A64"/>
<path d="M335.472 130.001C335.472 130.001 333.496 134.537 329.474 135.083L327.047 132.069C327.047 132.069 329.564 132.29 332.874 128.247L335.472 130.001Z" fill="#F34A4A"/>
<path d="M299.383 74.0252C299.383 74.0252 297.407 78.5612 293.394 79.1177L290.967 76.0937C290.967 76.0937 293.475 76.3247 296.794 72.2822L299.383 74.0252Z" fill="#455A64"/>
<path d="M374.33 80.8499C374.33 80.8499 369.991 81.4799 367.349 77.8994L368.151 73.8779C368.151 73.8779 369.387 76.4294 374.123 77.3639L374.33 80.8499Z" fill="#F34A4A"/>
<path d="M311.425 56.0601C311.425 56.0601 307.095 56.6901 304.452 53.1201L305.246 49.0986C305.246 49.0986 306.491 51.6396 311.226 52.5846L311.425 56.0601Z" fill="#F34A4A"/>
<path d="M238.48 45.0347C238.48 45.0347 234.15 45.6647 231.507 42.0947L232.301 38.0732C232.301 38.0732 233.546 40.6142 238.272 41.5592L238.48 45.0347Z" fill="#F34A4A"/>
<path d="M290.381 112.781C290.381 112.781 286.051 113.4 283.408 109.83L284.202 105.809C284.202 105.809 285.447 108.36 290.182 109.295L290.381 112.781Z" fill="#F34A4A"/>
<path d="M420.17 150.381C420.17 150.381 415.831 151.001 413.197 147.431L413.991 143.409C413.991 143.409 415.236 145.961 419.962 146.895L420.17 150.381Z" fill="#F34A4A"/>
<path d="M344.627 99.4883C344.627 99.4883 342.652 104.024 338.629 104.581L336.202 101.557C336.202 101.557 339.17 102.092 342.516 98.0498L344.627 99.4883Z" fill="#455A64"/>
<path d="M348.993 106.187C348.993 106.187 348.217 111.196 344.483 113.065L341.416 110.965C343.586 109.825 345.389 107.913 346.566 105.505L348.993 106.187Z" fill="#37474F"/>
<path d="M196.537 41.8428C200.758 41.3598 206.459 49.5393 202.328 53.4768C200.046 55.6713 195.049 54.7158 195.112 50.6313C195.124 50.5199 195.166 50.4159 195.233 50.3346C195.299 50.2534 195.386 50.1991 195.481 50.1798C198.801 49.2978 202.075 50.9463 201.516 55.4298C201.217 57.356 200.366 59.1073 199.101 60.3967C197.836 61.6862 196.232 62.4376 194.552 62.5278C194.345 62.5278 194.417 62.1288 194.552 62.0973C197.439 61.3833 200.163 59.2938 200.722 55.7028C200.853 55.0691 200.865 54.4102 200.757 53.7707C200.65 53.1312 200.426 52.5261 200.1 51.9963C199.71 51.4379 199.185 51.0283 198.593 50.8203C198.106 50.6418 196.32 50.3163 195.932 50.8203C195.148 51.7653 197.267 53.3403 197.899 53.5923C198.52 53.8562 199.184 53.9555 199.843 53.8828C200.501 53.8101 201.138 53.5674 201.705 53.1723C203.455 51.7548 203.022 49.0668 202.174 47.1558C201.038 44.5938 199.026 42.4938 196.447 42.3993C196.221 42.3993 196.338 41.8848 196.519 41.8638L196.537 41.8428Z" fill="#F34A4A"/>
<path d="M189.772 213.959C188.446 210.483 188.581 206.882 184.73 205.727C183.034 205.223 179.02 204.761 177.739 206.525C177.51 206.947 177.417 207.451 177.479 207.946C177.54 208.44 177.751 208.893 178.073 209.223C179.083 210.273 179.877 209.013 180.093 207.911C180.295 206.882 180.218 205.805 179.872 204.829C179.527 203.853 178.93 203.026 178.163 202.461C176.538 201.205 174.567 200.708 172.641 201.068C170.716 201.427 168.977 202.619 167.772 204.404C167.637 204.603 167.483 204.404 167.547 204.173C170.505 196.245 184.685 201.758 180.175 209.36C178.794 211.659 176.35 209.622 176.81 207.197C177.324 204.498 181.32 204.635 183.016 204.761C184.791 204.765 186.503 205.532 187.823 206.913C189.366 208.688 189.573 211.481 189.898 213.843C189.898 213.959 189.817 214.106 189.754 213.959H189.772Z" fill="#F34A4A"/>
<path d="M78.925 36.6248C76.1559 35.6798 72.3494 35.9423 70.0223 38.1158C68.2183 39.7958 67.217 43.4393 69.8599 44.6888C70.8972 45.1718 74.3158 45.1718 74.7217 43.5338C75.0103 42.3893 73.955 41.7068 73.1071 41.5598C70.6266 41.1083 68.2994 44.1533 68.3536 46.8728C68.4438 50.9573 72.5298 52.3118 75.4162 52.3433C75.6056 52.3433 75.5605 52.7633 75.4162 52.7738C70.5003 53.3303 65.0162 48.0278 69.3818 42.7148C70.5635 41.2868 72.4035 40.2683 74.0993 41.0558C75.0554 41.5073 75.8131 42.5153 75.335 43.7228C74.5683 45.6653 71.4835 46.0013 69.9862 45.5078C69.5892 45.3849 69.2181 45.1685 68.8959 44.872C68.5736 44.5755 68.307 44.2052 68.1126 43.784C67.9182 43.3628 67.8 42.8996 67.7654 42.4231C67.7308 41.9467 67.7806 41.467 67.9116 41.0138C69.1203 35.8478 75.326 34.7138 79.0152 36.3203C79.1234 36.3203 79.0783 36.6668 78.9521 36.6248H78.925Z" fill="#F34A4A"/>
<path d="M46.7146 249.491C43.9455 248.546 40.139 248.808 37.8119 250.982C36.0079 252.662 34.9976 256.305 37.6495 257.555C38.6868 258.038 42.0964 258.038 42.5113 256.4C42.7909 255.255 41.7356 254.573 40.8967 254.426C38.4072 253.974 36.089 257.019 36.1432 259.739C36.2243 263.823 40.3104 265.178 43.1968 265.209C43.3952 265.209 43.3411 265.629 43.1968 265.65C38.2809 266.196 32.7968 260.894 37.1624 255.581C38.3441 254.153 40.1751 253.134 41.8709 253.922C42.836 254.373 43.5937 255.381 43.1156 256.589C42.3489 258.531 39.2551 258.867 37.7578 258.374C37.3609 258.251 36.9899 258.035 36.668 257.738C36.346 257.441 36.0799 257.071 35.8862 256.649C35.6925 256.228 35.5753 255.764 35.5419 255.288C35.5085 254.811 35.5597 254.332 35.6922 253.88C36.8918 248.714 43.1066 247.632 46.7958 249.186C46.904 249.186 46.8589 249.533 46.7327 249.491H46.7146Z" fill="#F34A4A"/>
<path d="M53.8133 98.3227C57.1147 99.4672 60.1815 106.229 57.1147 109.306C54.5079 111.931 49.2402 111.332 50.1151 106.345C50.125 106.289 50.1466 106.236 50.1781 106.192C50.2096 106.148 50.2499 106.114 50.2955 106.093C53.7592 105.137 54.9048 109.841 54.1741 112.949C53.0466 117.769 48.8614 117.716 45.8397 115.186C45.7404 115.102 45.7855 114.776 45.9299 114.86C48.4013 116.299 51.865 117.569 53.3714 113.894C54.1741 111.931 54.2012 108.644 52.6498 107.174C52.2472 106.733 51.7144 106.489 51.1615 106.492C50.0069 106.649 50.2053 108.109 50.8548 109.022C51.8921 110.492 53.9757 110.335 55.3648 109.768C60.1183 107.815 56.8531 100.633 53.7502 98.6167C53.66 98.5537 53.678 98.2807 53.8133 98.3227Z" fill="#F34A4A"/>
<path d="M64.3036 184.317C58.6842 184.842 59.6944 197.264 64.2315 198.944C64.5103 199.06 64.8062 199.11 65.1019 199.092C65.3977 199.074 65.6874 198.988 65.9543 198.839C66.2871 198.554 66.5544 198.177 66.7322 197.743C66.91 197.309 66.9929 196.831 66.9735 196.35C66.4323 194.25 63.3655 196.917 63.0138 197.747C62.4298 198.84 62.1573 200.119 62.235 201.403C62.3128 202.688 62.7368 203.91 63.4467 204.897C65.7558 207.806 70.1756 207.9 73.062 206.22C73.2064 206.126 73.2334 206.451 73.1342 206.535C70.0223 208.856 64.8087 208.52 62.4996 204.845C60.6956 201.905 61.9314 194.103 65.9543 194.796C69.7066 195.437 67.1088 200.414 64.2675 199.752C61.4262 199.091 60.398 194.702 60.1274 191.982C59.7846 188.559 60.6595 183.939 64.3036 184.013C64.4209 184.013 64.4119 184.307 64.3036 184.317Z" fill="#F34A4A"/>
<path d="M134.876 79.4852C138.773 78.9077 147.152 82.7297 144.969 88.9352C143.806 92.2427 138.61 94.3637 136.906 90.5732C136.869 90.4699 136.868 90.3542 136.904 90.2503C136.939 90.1465 137.008 90.0627 137.095 90.0167C145.213 84.6617 153.764 100.128 145.15 105.767C144.879 105.945 144.888 105.41 145.042 105.273C145.786 104.681 146.422 103.921 146.911 103.039C147.4 102.157 147.733 101.17 147.89 100.137C148.047 99.103 148.025 98.0432 147.826 97.0194C147.626 95.9956 147.253 95.0284 146.728 94.1747C145.851 92.5437 144.602 91.2279 143.12 90.3737C142.011 89.7647 139.224 88.9037 138.186 90.1637C137.717 90.7517 137.726 90.0167 137.97 90.6992C138.201 91.1045 138.556 91.3933 138.962 91.5077C139.848 91.8351 140.803 91.798 141.668 91.4027C143.472 90.6677 144.888 88.7357 144.374 86.4152C143.427 81.7637 138.34 80.1152 134.777 80.0417C134.533 80.0417 134.687 79.5062 134.876 79.4747V79.4852Z" fill="#F34A4A"/>
<path d="M119.064 46.8621C119.064 46.8621 119.308 51.9441 116.06 54.7686L112.669 53.5506C112.669 53.5506 114.933 52.2906 116.06 46.8516L119.064 46.8621Z" fill="#455A64"/>
<path d="M189.158 172.631C189.158 172.631 189.402 177.713 186.155 180.537L182.763 179.34C182.763 179.34 185.027 178.07 186.155 172.631H189.158Z" fill="#455A64"/>
<path d="M175.755 233.373C175.755 233.373 175.989 238.455 172.751 241.28L169.36 240.072C169.36 240.072 171.624 238.812 172.751 233.373H175.755Z" fill="#37474F"/>
<path d="M40.2382 63.0848C40.2382 63.0848 42.2226 67.6208 46.2365 68.1773L48.708 65.1533C48.708 65.1533 46.2004 65.3843 42.8811 61.3418L40.2382 63.0848Z" fill="#455A64"/>
<path d="M82.1993 219.734C82.1993 219.734 84.1747 224.27 88.1976 224.827L90.624 221.803C90.624 221.803 88.1074 222.034 84.797 217.991L82.1993 219.734Z" fill="#455A64"/>
<path d="M124.918 135.881C124.918 135.881 126.893 140.417 130.916 140.973L133.334 137.949C133.334 137.949 130.826 138.18 127.516 134.138L124.918 135.881Z" fill="#F34A4A"/>
<path d="M164.164 76.5135C164.164 76.5135 166.139 81.0495 170.162 81.606L172.58 78.582C172.58 78.582 170.072 78.813 166.762 74.7705L164.164 76.5135Z" fill="#455A64"/>
<path d="M80.1517 80.8499C80.1517 80.8499 84.4904 81.4799 87.1332 77.8994L86.3304 73.8779C86.3304 73.8779 85.0947 76.4294 80.3592 77.3639L80.1517 80.8499Z" fill="#F34A4A"/>
<path d="M154.242 41.5279C154.242 41.5279 158.581 42.1579 161.223 38.5879L160.43 34.5664C160.43 34.5664 159.185 37.1074 154.449 38.0524L154.242 41.5279Z" fill="#F34A4A"/>
<path d="M164.083 108.539C164.083 108.539 168.412 109.159 171.055 105.589L170.262 101.567C170.262 101.567 169.017 104.119 164.281 105.053L164.083 108.539Z" fill="#F34A4A"/>
<path d="M23.452 208.383C23.452 208.383 27.7906 209.013 30.4335 205.443L29.6397 201.411C29.6397 201.411 28.395 203.963 23.6595 204.897L23.452 208.383Z" fill="#F34A4A"/>
<path d="M109.864 99.4883C109.864 99.4883 111.839 104.024 115.862 104.581L118.288 101.557C118.288 101.557 115.321 102.092 111.974 98.0498L109.864 99.4883Z" fill="#455A64"/>
<path d="M105.534 106.187C105.534 106.187 106.31 111.196 110.044 113.065L113.111 110.965C110.941 109.825 109.138 107.913 107.96 105.505L105.534 106.187Z" fill="#37474F"/>
<path d="M247.942 80.0528C247.942 80.0528 245.966 84.5888 241.943 85.1453L239.517 82.1318C239.517 82.1318 242.485 82.6568 245.831 78.6143L247.942 80.0528Z" fill="#455A64"/>
<path d="M228.495 74.6132C228.495 74.6132 227.719 79.6217 223.985 81.5012L220.918 79.4012C223.09 78.26 224.894 76.3441 226.068 73.9307L228.495 74.6132Z" fill="#37474F"/>
<path d="M343.229 323.695C343.322 327.291 343.684 330.871 344.311 334.394C345.809 356.339 347.766 361.495 350.021 376.688C350.265 378.389 350.851 381.76 350.923 382.883C351.031 384.301 351.591 395.021 352.087 398.213C352.799 402.896 359.483 403.012 359.997 397.573C360.34 393.95 359.51 384.395 359.447 382.652C359.447 382.652 359.447 379.565 359.447 378.064C359.447 371.239 360.412 358.113 360.971 346.259C361.395 337.324 359.808 332.882 358.861 328.409C358.861 328.409 360.791 313.929 363.136 297.959C365.481 281.989 371.191 263.698 359.772 249.229L344.014 255.529C344.014 255.529 342.399 284.845 343.013 308.68C343.139 315.484 343.238 320.366 343.229 323.695Z" fill="#FFBDA7"/>
<path d="M335.914 349.545C338.34 353.293 339.892 357.84 341.488 362.145C340.789 364.4 339.856 366.547 338.71 368.539L332.27 358.764C333.524 355.687 334.714 352.611 335.914 349.545Z" fill="#263238"/>
<path d="M338.71 368.55C335.851 368.55 332.982 368.55 330.114 368.55C328.68 366.397 327.228 364.266 325.802 362.113C328.797 362.218 331.792 362.428 334.822 362.523L338.71 368.55Z" fill="black"/>
<path d="M328.328 345.335C330.132 343.791 330.294 345.629 331.846 346.469C332.928 347.057 334.732 347.844 335.788 349.524C337.267 351.876 336.103 356.066 335.382 359.079C334.692 362.012 334.72 365.11 335.463 368.025C336.32 372.372 336.239 375.921 333.379 379.722C331.097 382.767 323.854 386.463 321.365 384.584C317.116 381.434 323.349 374.378 323.259 370.178C323.152 364.829 322.547 359.509 321.455 354.312C321.292 353.483 321.211 352.601 321.644 352.212C323.583 350.186 326.524 346.878 328.328 345.335Z" fill="#37474F"/>
<path d="M331.512 249.207C328.039 253.984 311.28 278.197 306.915 286.482C304.046 291.921 306.013 299.082 307.6 305.067C309.666 313.057 312.606 322.192 314.329 328.083C317.549 339.066 319.93 344.883 322.519 354.396C324.016 356.212 326.695 354.648 328.175 353.43C329.446 352.38 330.809 348.663 330.646 346.794C330.177 341.376 330.24 340.494 329.645 334.194C328.743 324.135 328.905 308.427 323.033 299.344C331.828 287.994 341.47 280.024 347.883 266.742C340.956 262.395 336.572 242.245 331.512 249.207Z" fill="#FFBDA7"/>
<path d="M350.752 381.486C349.66 381.644 349.606 382.662 349.57 387.618C349.63 392.913 349.353 398.205 348.74 403.452C347.947 409.028 347.108 415.002 351.013 419.937C353.304 422.846 357.066 423.528 359.718 418.824C362.189 414.446 363.75 410.298 362.55 405.321C361.443 401.065 360.806 396.661 360.656 392.217C360.466 385.298 360.8 381.602 359.447 381.612V382.662C359.005 383.576 357.643 384.762 355.244 384.878C352.538 385.004 351.32 383.828 350.923 382.893C350.878 382.421 350.815 381.959 350.752 381.486Z" fill="#37474F"/>
<path d="M331.981 244.65C330.249 248.462 324.323 256.473 317.396 267.488C312.606 275.111 304.209 286.682 303.767 292.362C303.325 298.043 315.105 332.084 315.105 332.084C315.105 332.084 324.927 333.428 329.365 327.663C329.519 318.14 328.463 306.569 324.116 299.838C326.046 297.56 340.018 280.623 342.562 277.085C342.562 277.085 342.147 293.759 342.12 303.209C342.093 312.659 343.022 331.559 343.725 337.607C344.429 343.655 345.376 352.632 345.782 355.457C345.782 355.457 351.852 361.988 361.116 355.236C361.116 355.236 362.018 345.702 361.729 341.492C361.44 337.281 360.205 332.199 359.465 328.566C359.465 328.566 363.073 302.904 364.832 291.533C366.591 280.161 369.928 262.773 361.098 246.089C361.134 246.078 344.438 252.462 331.981 244.65Z" fill="#455A64"/>
<path d="M342.562 277.064C342.562 277.064 336.96 272.927 334.642 268.139C334.642 268.139 335.86 273.83 339.152 277.064L329.23 293.633L342.562 277.064Z" fill="#37474F"/>
<path d="M309.485 174.878C316.431 193.274 325.829 199.689 330.231 211.491C335.788 210.977 343.418 200.204 339.206 193.578C334.453 191.321 318.956 172.158 317.982 164C317.125 156.755 313.652 145.509 313.743 139.472C313.779 138.465 314.125 137.508 314.717 136.773C316.404 134.61 316.386 132.899 317.423 130.473C318.253 128.625 319.182 127.922 318.911 127.512C318.556 127.078 318.074 126.816 317.56 126.779C317.047 126.742 316.54 126.933 316.142 127.313C315.355 127.982 314.656 128.782 314.067 129.686C314.332 127.428 314.869 125.226 315.664 123.144C317.468 118.146 317.017 115.616 311.271 117.464C307.663 118.629 305.435 122.157 305.002 132.279C304.796 136.477 304.817 140.685 305.065 144.879C305.778 152.649 306.536 160.094 307.429 166.52C307.804 169.397 308.495 172.206 309.485 174.878Z" fill="#FFBDA7"/>
<path d="M331.323 239.494C330.827 236.785 330.24 231.672 329.888 227.944C324.034 221.56 325.676 214.599 327.805 209.475C332.062 199.227 336.184 193.41 340.036 193.578L350.589 194.491C356.344 195.279 360.286 196.045 361.675 196.392C365.229 197.295 365.121 200.298 365.283 204.676C365.722 209.186 365.591 213.745 364.895 218.211L360.042 230.422L359.609 237.94C359.609 237.94 365.49 251.685 366.555 260.61C363.614 259.62 360.988 257.645 359.005 254.929C359.005 254.929 354.432 262.962 343.085 263.623C331.738 264.285 326.127 252.546 326.127 252.546L331.323 239.494Z" fill="#F34A4A"/>
<path opacity="0.1" d="M354.008 224.196C353.175 226.072 351.894 227.627 350.319 228.674C348.745 229.721 346.943 230.215 345.132 230.097C343.385 230.051 341.678 229.469 340.186 228.409C338.694 227.348 337.469 225.848 336.635 224.06C336.635 224.06 336.969 232.124 345.15 232.029C353.331 231.935 354.008 224.196 354.008 224.196Z" fill="black"/>
<path d="M356.624 148.386C360.484 150.707 362.46 153.5 365.644 154.529C368.828 155.558 371.398 154.455 373.762 152.166C376.468 149.573 377.749 146.297 380.554 144.281C383.359 142.265 386.868 141.015 389.98 142.254C393.876 143.798 396.041 148.659 397.051 153.3C398.296 159.065 397.827 165.554 395.022 170.604C389.922 179.572 382.305 186.201 373.473 189.357C362.625 193.205 350.916 191.981 340.83 185.945C336.681 183.467 335.346 181.314 332.342 177.293C329.338 173.271 328.22 168.357 329.158 161.847C330.06 155.621 332.91 151.61 338.367 148.281C341.171 146.507 344.315 145.586 347.507 145.604C350.699 145.623 353.835 146.58 356.624 148.386Z" fill="#F34A4A"/>
<path opacity="0.5" d="M356.624 148.386C360.484 150.707 362.46 153.5 365.644 154.529C368.828 155.558 371.398 154.455 373.762 152.166C376.468 149.573 377.749 146.297 380.554 144.281C383.359 142.265 386.868 141.015 389.98 142.254C393.876 143.798 396.041 148.659 397.051 153.3C398.296 159.065 397.827 165.554 395.022 170.604C389.922 179.572 382.305 186.201 373.473 189.357C362.625 193.205 350.916 191.981 340.83 185.945C336.681 183.467 335.346 181.314 332.342 177.293C329.338 173.271 328.22 168.357 329.158 161.847C330.06 155.621 332.91 151.61 338.367 148.281C341.171 146.507 344.315 145.586 347.507 145.604C350.699 145.623 353.835 146.58 356.624 148.386Z" fill="black"/>
<path d="M336.924 156.24C334.922 157.542 332.414 163.244 332.36 175.361C332.36 185.619 335.156 188.234 336.572 189.011C337.988 189.788 340.767 189.41 343.464 189.011L343.337 195.174C343.337 195.174 335.715 204.425 341.876 205.506C344.952 206.052 348.894 203.889 351.564 201.548C353.282 199.902 354.523 197.681 355.117 195.185L355.334 181.787C355.334 181.787 356.876 183.624 359.618 180.968C361.882 178.773 362.703 174.993 361.016 172.904C360.578 172.407 360.045 172.038 359.461 171.828C358.876 171.618 358.257 171.572 357.655 171.695C357.052 171.818 356.483 172.106 355.995 172.536C355.507 172.965 355.113 173.523 354.847 174.164C354.847 174.164 353.268 174.269 351.762 170.814C349.113 171.078 346.464 170.31 344.23 168.63C342.359 167.244 340.747 165.432 339.492 163.303C338.236 161.174 337.363 158.772 336.924 156.24Z" fill="#FFBDA7"/>
<path d="M343.806 172.452C343.781 172.799 343.874 173.142 344.065 173.409C344.255 173.677 344.529 173.846 344.826 173.88C345.127 173.898 345.421 173.776 345.646 173.542C345.87 173.308 346.007 172.981 346.025 172.631C346.035 172.461 346.017 172.291 345.97 172.13C345.924 171.969 345.85 171.82 345.755 171.692C345.659 171.563 345.542 171.458 345.411 171.383C345.28 171.307 345.138 171.262 344.992 171.25C344.847 171.238 344.701 171.26 344.562 171.314C344.424 171.368 344.296 171.454 344.185 171.565C344.075 171.677 343.985 171.813 343.92 171.965C343.855 172.117 343.816 172.283 343.806 172.452Z" fill="#263238"/>
<g style="mix-blend-mode:multiply" opacity="0.5">
<g style="mix-blend-mode:multiply">
<path d="M342.255 180.999L338.773 182.186C338.833 182.455 338.938 182.707 339.082 182.929C339.226 183.15 339.407 183.336 339.613 183.476C339.82 183.615 340.048 183.706 340.284 183.742C340.521 183.779 340.762 183.76 340.992 183.687C341.461 183.517 341.854 183.141 342.09 182.64C342.326 182.139 342.385 181.55 342.255 180.999Z" fill="#F0997A"/>
</g>
</g>
<path d="M333.875 168.157L336.157 166.414C336.068 166.234 335.947 166.077 335.804 165.953C335.66 165.83 335.496 165.741 335.322 165.694C335.148 165.647 334.967 165.642 334.791 165.679C334.615 165.716 334.448 165.795 334.299 165.91C333.995 166.15 333.781 166.517 333.702 166.935C333.623 167.354 333.685 167.791 333.875 168.157Z" fill="#263238"/>
<path d="M345.466 168L347.992 169.218C348.073 169.029 348.12 168.822 348.128 168.61C348.137 168.399 348.108 168.187 348.043 167.99C347.977 167.792 347.877 167.612 347.749 167.462C347.62 167.312 347.467 167.195 347.297 167.118C346.953 166.963 346.571 166.967 346.23 167.132C345.889 167.296 345.615 167.607 345.466 168Z" fill="#263238"/>
<path d="M334.407 171.906C334.401 172.159 334.458 172.408 334.573 172.624C334.687 172.839 334.853 173.01 335.05 173.116C335.248 173.223 335.467 173.259 335.682 173.221C335.897 173.184 336.098 173.073 336.259 172.904C336.421 172.734 336.536 172.513 336.59 172.268C336.645 172.023 336.636 171.765 336.566 171.526C336.496 171.287 336.366 171.077 336.194 170.922C336.022 170.767 335.815 170.675 335.598 170.656C335.449 170.647 335.3 170.671 335.16 170.729C335.019 170.786 334.89 170.876 334.779 170.992C334.668 171.108 334.578 171.249 334.514 171.406C334.451 171.563 334.414 171.733 334.407 171.906Z" fill="#263238"/>
<g style="mix-blend-mode:multiply" opacity="0.5">
<g style="mix-blend-mode:multiply">
<path d="M339.738 171.318L339.405 179.078L335.923 177.713L339.738 171.318Z" fill="#F0997A"/>
</g>
</g>
<g style="mix-blend-mode:multiply" opacity="0.5">
<g style="mix-blend-mode:multiply">
<path d="M343.464 189.001C346.314 188.654 352.177 186.901 353.142 184.202C352.753 185.552 352.016 186.729 351.031 187.573C349.227 189.263 343.427 191.059 343.427 191.059L343.464 189.001Z" fill="#F0997A"/>
</g>
</g>
<path d="M354.847 174.111L354.739 179.498C354.324 179.487 353.916 179.381 353.537 179.186C353.158 178.991 352.816 178.711 352.53 178.362C352.245 178.012 352.021 177.601 351.872 177.151C351.723 176.701 351.652 176.221 351.663 175.739L351.762 170.762L354.847 174.111Z" fill="#F34A4A"/>
<path opacity="0.5" d="M354.847 174.111L354.739 179.498C354.324 179.487 353.916 179.381 353.537 179.186C353.158 178.991 352.816 178.711 352.53 178.362C352.245 178.012 352.021 177.601 351.872 177.151C351.723 176.701 351.652 176.221 351.663 175.739L351.762 170.762L354.847 174.111Z" fill="black"/>
<path d="M384.91 176.4C378.353 194.985 370.235 206.367 364.94 218.253C355.92 218.873 355.099 202.65 359.167 195.909C359.167 195.909 374.844 173.859 376.233 165.764C377.46 158.592 380.184 147.158 379.958 141.12C379.909 140.114 379.543 139.165 378.93 138.453C377.207 136.353 377.189 134.621 376.062 132.269C375.16 130.442 374.258 129.77 374.51 129.35C374.857 128.905 375.335 128.629 375.849 128.579C376.363 128.528 376.874 128.706 377.28 129.077C378.078 129.724 378.792 130.502 379.399 131.387C379.085 129.14 378.502 126.956 377.667 124.898C375.728 119.952 376.161 117.401 381.943 119.091C385.551 120.141 387.869 123.627 388.518 133.728C388.812 137.919 388.876 142.128 388.708 146.328C388.167 154.119 387.553 161.574 386.805 168.032C386.481 170.904 385.844 173.716 384.91 176.4Z" fill="#FFBDA7"/>
<path d="M205.187 396.092C205.845 398.129 206.829 400.155 208.795 400.911C212.836 402.476 218.086 398.433 220.259 395.42C222.893 391.766 223.29 387.87 225.22 384.836C227.151 381.801 229.875 379.88 231.192 377.255C231.734 376.273 232.054 375.148 232.122 373.984C232.189 372.82 232.003 371.655 231.579 370.598C230.959 369.283 230.017 368.212 228.873 367.521C228.576 367.311 228.053 367.29 227.728 367.08L205.187 396.092Z" fill="#263238"/>
<path d="M213.585 376.95C213.304 378.838 212.669 380.63 211.726 382.2C210.049 384.804 207.893 386.725 205.918 388.983C205.206 389.65 204.628 390.488 204.222 391.44C203.392 393.96 204.366 395.997 205.891 397.96C206.556 398.667 207.357 399.178 208.227 399.451C209.508 399.861 210.86 399.861 212.141 399.451C214.611 398.466 216.82 396.756 218.555 394.485C221.973 390.033 221.757 384.184 225.834 380.278C229.911 376.372 232.653 372.204 228.495 367.164C226.474 364.707 224.219 363.657 223.615 362.775C222.532 361.21 220.007 363.951 219.204 364.749C218.401 365.547 217.626 366.492 216.805 367.332C216.049 368.322 215.356 369.375 214.73 370.482C214.471 370.791 214.255 371.145 214.09 371.532C213.948 372.047 213.893 372.589 213.927 373.128C213.923 374.412 213.808 375.693 213.585 376.95Z" fill="#37474F"/>
<path d="M218.618 394.453C219.093 393.87 219.522 393.237 219.899 392.563C219.256 390.313 217.986 388.376 216.291 387.061C215.239 386.23 214.048 385.669 212.796 385.416C211.544 385.162 210.26 385.222 209.029 385.591C207.78 386.485 206.6 387.504 205.503 388.636C204.785 389.358 204.241 390.284 203.924 391.324C203.641 392.55 203.683 393.846 204.044 395.043C204.404 396.24 205.067 397.282 205.945 398.034C206.578 398.714 207.352 399.192 208.191 399.42C209.475 399.83 210.83 399.83 212.114 399.42C214.592 398.394 216.823 396.691 218.618 394.453Z" fill="#FAFAFA"/>
<path d="M220.755 354.815L223.191 363.499C223.191 363.499 225.058 366.344 222.117 369.641C219.177 372.938 215.885 372.791 214.469 370.786L210.274 361.567L220.755 354.815Z" fill="#B16668"/>
<path d="M282.082 337.26C283.156 337.848 285.988 338.068 287.549 336.829C290.805 334.246 291.499 326.634 290.48 322.423C289.235 317.32 286.8 314.737 285.97 311.671C285.14 308.605 285.366 304.216 284.265 301.539C283.818 300.501 283.184 299.589 282.405 298.864C281.627 298.139 280.723 297.619 279.755 297.339C279.142 297.144 278.499 297.113 277.874 297.25C277.249 297.386 276.658 297.686 276.147 298.126L275.164 298.966L282.082 337.26Z" fill="#263238"/>
<path d="M273.802 317.982C274.957 319.371 275.808 321.064 276.283 322.917C277.112 325.962 277.185 329.217 277.536 332.367C277.611 333.422 277.846 334.453 278.231 335.412C279.223 337.627 281.487 338.037 283.742 337.701C284.641 337.474 285.483 337.011 286.205 336.346C287.247 335.391 288.043 334.119 288.505 332.671C289.279 329.745 289.397 326.636 288.847 323.641C288.027 317.95 283.111 314.191 283.174 308.584C283.237 302.977 280.414 295.722 274.352 299.439C271.34 301.393 268.603 303.872 266.234 306.789C267.678 309.309 269.157 311.818 270.573 314.359C270.848 315.003 271.197 315.6 271.61 316.134C272.233 316.774 273.044 317.121 273.667 317.814L273.802 317.982Z" fill="#37474F"/>
<path d="M288.847 323.735C288.728 322.951 288.538 322.184 288.279 321.446C286.37 320.667 284.286 320.69 282.389 321.509C281.159 321.956 280.036 322.733 279.111 323.778C278.186 324.823 277.486 326.107 277.067 327.526C276.941 329.227 276.941 330.938 277.067 332.639C277.16 333.735 277.469 334.792 277.969 335.726C279.295 337.963 281.433 338.131 283.688 337.826C284.586 337.598 285.428 337.134 286.15 336.472C287.191 335.514 287.986 334.243 288.451 332.797C289.247 329.866 289.384 326.746 288.847 323.735Z" fill="#FAFAFA"/>
<path d="M267.605 303.345L271.421 303.156C272.407 303.67 273.275 304.449 273.952 305.429C274.63 306.41 275.098 307.563 275.317 308.795C275.493 310.061 275.441 311.356 275.165 312.598C274.888 313.839 274.394 315.001 273.712 316.008L267.398 316.974L267.587 303.639" fill="#B16668"/>
<path d="M267.894 302.778L241.547 303.083C241.547 303.083 246.327 261.933 244.749 237.846L202.463 232.187L202.337 232.491C195.4 253.985 188.076 282.02 184.089 303.146C182.862 309.656 183.494 311.43 187.841 320.996C193.948 334.415 204.339 352.37 211.781 365.999C217.662 365.39 220.801 363.311 222.154 357.651C217.535 345.125 213.63 318.098 203.212 306.632C209.029 294.557 214.487 280.686 220.043 267.362C220.214 275.846 220.945 303.66 223.479 315.116C225.049 322.308 228.477 326.603 235.314 325.332C244.839 323.558 270.005 316.995 270.005 316.995C275.056 316.155 273.793 305.161 267.894 302.778Z" fill="#F34A4A"/>
<path opacity="0.2" d="M267.894 302.778L241.547 303.083C241.547 303.083 246.327 261.933 244.749 237.846L202.463 232.187L202.337 232.491C195.4 253.985 188.076 282.02 184.089 303.146C182.862 309.656 183.494 311.43 187.841 320.996C193.948 334.415 204.339 352.37 211.781 365.999C217.662 365.39 220.801 363.311 222.154 357.651C217.535 345.125 213.63 318.098 203.212 306.632C209.029 294.557 214.487 280.686 220.043 267.362C220.214 275.846 220.945 303.66 223.479 315.116C225.049 322.308 228.477 326.603 235.314 325.332C244.839 323.558 270.005 316.995 270.005 316.995C275.056 316.155 273.793 305.161 267.894 302.778Z" fill="black"/>
<path opacity="0.2" d="M241.574 303.082C241.574 303.082 241.934 308.637 239.896 312.784C241.34 311.209 242.459 309.274 243.17 307.125C244.253 303.702 252.695 304.51 259.009 302.925L241.574 303.082Z" fill="black"/>
<path opacity="0.2" d="M220.034 267.383L219.619 259.634C216.013 257.229 212.81 254.084 210.166 250.352C212.206 254.129 214.745 257.51 217.689 260.369L218.32 265.85L209.12 293.717L220.034 267.383Z" fill="black"/>
<path opacity="0.2" d="M203.221 306.6C202.653 307.563 201.933 308.393 201.101 309.046C203.563 310.617 205.734 312.74 207.487 315.294C209.392 318.31 211.128 321.466 212.683 324.744C210.166 317.583 207.18 310.989 203.221 306.6Z" fill="black"/>
<path d="M187.291 150.034C188.59 153.93 204.628 181.534 208.479 188.139C219.43 182.7 212.141 167.716 212.141 167.716C212.141 167.716 200.632 146.034 198.765 142.38C198.325 141.448 198.049 140.424 197.953 139.366C197.718 137.434 196.907 113.725 197.899 106.564C198.084 105.293 198.666 104.145 199.531 103.341C201.832 101.167 202.634 99.1408 204.267 96.5998C205.539 94.5943 206.747 93.9643 206.486 93.4498C206.136 92.8636 205.609 92.4533 205.01 92.3013C204.41 92.1494 203.784 92.2671 203.257 92.6308C202.067 93.3883 200.958 94.3083 199.955 95.3713C200.536 92.6197 201.496 89.9958 202.797 87.6013C205.755 82.0993 205.584 79.0228 198.521 79.9783C194.092 80.5768 189.781 84.5668 187.697 96.4003C187.093 99.8023 186.958 104.937 186.732 109.347C186.245 119.364 185.92 135.219 186.083 142.159C186.137 145.645 186.001 146.149 187.291 150.034Z" fill="#B16668"/>
<path d="M219.078 164.85C215.28 164.199 202.842 148.354 202.842 148.354C199.369 148.123 190.854 158.487 192.541 162.708C197.601 172.515 204.032 181.608 205.782 187.908C207.234 191.457 211.122 188.443 212.8 180.978C215.154 170.656 222.163 165.417 219.078 164.85Z" fill="#F34A4A"/>
<path opacity="0.3" d="M219.078 164.85C215.28 164.199 202.842 148.354 202.842 148.354C199.369 148.123 190.854 158.487 192.541 162.708C197.601 172.515 204.032 181.608 205.782 187.908C207.234 191.457 211.122 188.443 212.8 180.978C215.154 170.656 222.163 165.417 219.078 164.85Z" fill="black"/>
<path d="M247.229 183.571L246.327 202.387L245.344 242.402C232.869 249.196 214.45 245.101 201.922 233.351C201.922 233.351 202.634 187.298 205.214 176.651C207.794 166.004 212.43 163.894 218.879 164.125C225.689 164.377 234.439 165.49 234.439 165.49L241.889 167.8C241.889 167.8 247.382 179.801 247.229 183.571Z" fill="#455A64"/>
<path d="M252.506 152.586C253.354 152.082 257.259 154.35 259.641 158.267C262.022 162.183 262.184 167.717 261.445 168.767C260.705 169.817 251.117 164.85 251.117 164.85L252.506 152.586Z" fill="#F34A4A"/>
<path opacity="0.6" d="M252.506 152.586C253.354 152.082 257.259 154.35 259.641 158.267C262.022 162.183 262.184 167.717 261.445 168.767C260.705 169.817 251.117 164.85 251.117 164.85L252.506 152.586Z" fill="black"/>
<path d="M268.237 155.537C266.64 159.275 248.438 184.989 244.063 191.153C233.609 184.538 242.079 170.426 242.079 170.426C242.079 170.426 255.266 150.15 257.431 146.664C257.946 145.785 258.307 144.797 258.495 143.756C258.874 141.845 261.607 118.335 261.201 111.101C261.118 109.817 260.634 108.614 259.839 107.72C257.728 105.294 257.088 103.205 255.672 100.475C254.562 98.3746 253.417 97.587 253.715 97.0725C254.111 96.5286 254.67 96.179 255.278 96.0933C255.887 96.0077 256.501 96.1924 256.998 96.6106C258.124 97.4954 259.153 98.5354 260.065 99.708C259.705 96.9027 258.959 94.1833 257.855 91.6546C255.356 85.8586 255.78 82.8031 262.735 84.5251C267.091 85.5751 271.069 90.069 272.215 102.071C272.539 105.525 272.26 110.649 272.124 115.059C271.8 125.097 270.844 140.91 270.122 147.809C269.743 151.295 269.842 151.809 268.237 155.537Z" fill="#B16668"/>
<path d="M239.4 167.233L252.506 152.533C252.506 152.533 251.324 165.133 261.427 168.735L246.372 190.9C244.631 194.281 239.86 189.85 238.795 182.269C237.307 171.706 239.4 167.233 239.4 167.233Z" fill="#F34A4A"/>
<path opacity="0.3" d="M239.4 167.233L252.506 152.533C252.506 152.533 251.324 165.133 261.427 168.735L246.372 190.9C244.631 194.281 239.86 189.85 238.795 182.269C237.307 171.706 239.4 167.233 239.4 167.233Z" fill="black"/>
<path d="M232.436 131.785C232.33 134.468 231.543 137.054 230.174 139.216C228.806 141.378 226.917 143.019 224.747 143.931C222.577 144.843 220.223 144.986 217.983 144.34C215.744 143.695 213.719 142.291 212.165 140.305C210.611 138.32 209.598 135.843 209.254 133.187C208.909 130.532 209.249 127.817 210.231 125.386C211.212 122.956 212.791 120.919 214.767 119.533C216.743 118.147 219.028 117.474 221.333 117.6C224.42 117.771 227.322 119.361 229.404 122.02C231.486 124.68 232.576 128.191 232.436 131.785Z" fill="#263238"/>
<path d="M240.536 141.896C240.536 141.896 238.227 152.113 237.406 153.772C236.864 154.809 235.997 155.561 234.989 155.872L235.422 148.606L240.536 141.896Z" fill="#263238"/>
<path d="M238.768 126.966C239.432 126.913 240.096 127.036 240.712 127.328C241.328 127.619 241.879 128.07 242.322 128.646C243.802 130.589 242.701 136.332 240.518 141.897L236.91 142.17L238.768 126.966Z" fill="#263238"/>
<path d="M235.891 142.117C236.586 142.652 237.695 141.119 238.597 140.09C239.499 139.061 242.458 137.759 243.747 141.35C245.037 144.941 242.142 149.593 239.851 150.296C235.891 151.504 235.431 148.564 235.431 148.564L234.457 165.364C229.324 172.325 215.903 170.971 221.829 163.726L222.036 158.749C220.288 158.966 218.526 158.966 216.778 158.749C213.927 158.077 212.268 155.336 211.51 151.682C210.346 145.813 210.013 141.098 211.654 129.758C213.458 117.326 225.96 117.883 232.5 123.196C239.039 128.509 235.891 142.117 235.891 142.117Z" fill="#B16668"/>
<path d="M235.837 143.514C236.198 143.514 237.641 140.983 238.588 140.091C239.878 138.852 238.768 126.966 238.768 126.966C239.233 125.95 239.424 124.795 239.318 123.651C239.212 122.507 238.813 121.427 238.173 120.55C236.577 118.303 234.331 115.531 226.646 116.161C221.161 116.613 215.145 118.261 210.464 115.269C209.941 117.063 209.894 118.998 210.329 120.823C210.763 122.649 211.658 124.28 212.899 125.506C212.899 125.506 214.577 126.913 219.114 127.806C223.303 128.397 227.53 128.538 231.742 128.226C233.068 128.079 233.293 129.591 233.843 133.707C234.358 137.329 234.628 143.419 235.837 143.514Z" fill="#263238"/>
<path d="M238.723 127.89L243.143 125.422C243.019 125.077 242.836 124.764 242.606 124.504C242.375 124.243 242.101 124.04 241.801 123.906C241.5 123.773 241.18 123.712 240.859 123.727C240.537 123.742 240.222 123.833 239.932 123.994C239.336 124.335 238.877 124.931 238.652 125.658C238.426 126.384 238.452 127.184 238.723 127.89Z" fill="#263238"/>
<path d="M222.009 158.802C222.009 158.802 228.468 157.657 230.759 156.397C232.104 155.668 233.232 154.487 233.997 153.006C233.598 154.512 232.941 155.909 232.067 157.111C230.335 159.453 221.937 160.786 221.937 160.786L222.009 158.802Z" fill="#9A4A4D"/>
<path d="M224.327 139.65C224.324 139.945 224.396 140.235 224.533 140.483C224.67 140.731 224.867 140.926 225.099 141.045C225.332 141.163 225.589 141.2 225.838 141.149C226.088 141.098 226.32 140.963 226.504 140.76C226.688 140.557 226.817 140.296 226.874 140.008C226.931 139.721 226.914 139.42 226.825 139.144C226.736 138.867 226.58 138.628 226.374 138.454C226.169 138.281 225.925 138.182 225.671 138.17C225.5 138.164 225.329 138.198 225.168 138.269C225.008 138.341 224.861 138.448 224.736 138.586C224.611 138.723 224.511 138.888 224.441 139.071C224.371 139.253 224.332 139.45 224.327 139.65Z" fill="#263238"/>
<path d="M225.915 134.063L228.621 135.974C228.835 135.547 228.899 135.04 228.8 134.559C228.701 134.077 228.446 133.659 228.089 133.391C227.91 133.26 227.71 133.173 227.502 133.136C227.293 133.099 227.08 133.112 226.876 133.175C226.672 133.238 226.481 133.35 226.316 133.502C226.15 133.655 226.014 133.846 225.915 134.063Z" fill="#263238"/>
<path d="M222.956 149.877L219.98 150.99C220.032 151.221 220.123 151.437 220.248 151.626C220.373 151.814 220.529 151.972 220.707 152.09C220.886 152.207 221.082 152.282 221.286 152.309C221.489 152.337 221.695 152.317 221.892 152.25C222.302 152.098 222.645 151.763 222.844 151.319C223.043 150.874 223.084 150.356 222.956 149.877Z" fill="#9A4A4D"/>
<path d="M213.079 134.599L215.668 132.499C215.559 132.295 215.416 132.12 215.247 131.983C215.078 131.846 214.887 131.75 214.685 131.702C214.484 131.654 214.276 131.654 214.074 131.703C213.872 131.751 213.681 131.847 213.512 131.985C213.168 132.274 212.931 132.706 212.851 133.192C212.77 133.678 212.852 134.181 213.079 134.599Z" fill="#263238"/>
<path d="M213.684 138.6C213.664 138.805 213.68 139.012 213.732 139.21C213.783 139.407 213.87 139.59 213.985 139.747C214.1 139.903 214.241 140.031 214.401 140.121C214.56 140.211 214.734 140.263 214.911 140.271C215.088 140.28 215.265 140.246 215.43 140.172C215.595 140.097 215.746 139.984 215.872 139.839C215.998 139.694 216.097 139.52 216.163 139.329C216.229 139.137 216.26 138.932 216.254 138.726C216.275 138.521 216.258 138.313 216.207 138.116C216.155 137.918 216.069 137.736 215.954 137.579C215.838 137.422 215.697 137.294 215.537 137.204C215.378 137.114 215.204 137.063 215.027 137.054C214.85 137.045 214.674 137.079 214.508 137.154C214.343 137.228 214.192 137.341 214.066 137.486C213.94 137.631 213.841 137.805 213.775 137.997C213.71 138.188 213.678 138.393 213.684 138.6Z" fill="#263238"/>
<path d="M220.277 137.55L219.493 146.506L215.533 144.679L220.277 137.55Z" fill="#9A4A4D"/>
<path d="M135.967 393.687L136.328 392.227C136.391 394.107 136.842 402.244 139.386 407.116C141.416 410.98 144.338 415.653 144.473 419.244C144.609 422.835 138.096 422.005 135.643 420.598C132.801 418.96 129.419 415.663 128.066 411.925C127.11 409.3 126.803 406.465 126.154 404.439C125.504 402.412 123.538 399.714 123.448 397.582C123.403 396.417 124.35 394.222 125.252 392.406C126.154 390.589 127.281 388.825 127.768 389.172C127.714 389.392 127.254 390.369 127.254 390.369C127.678 391.419 129.239 392.815 131.196 393.571C132.504 394.065 135.688 394.8 135.967 393.687Z" fill="#263238"/>
<path d="M77.6983 365.767L78.6003 365.441C77.6983 366.995 74.1985 374.461 73.7746 380.141C73.4318 384.656 73.4048 390.431 71.682 393.413C69.9591 396.395 65.1334 391.229 63.8887 388.405C62.4274 385.129 61.3901 380.131 62.2019 376.193C62.7792 373.421 64.0059 370.943 64.484 368.843C64.962 366.743 64.7907 363.236 65.8009 361.493C66.3601 360.517 68.2453 359.393 69.923 358.595C71.4655 357.85 73.3867 357.115 73.6032 357.734C73.4499 357.871 72.5749 358.333 72.5749 358.333C72.3945 359.467 72.9267 361.682 74.1173 363.646C75.0488 364.837 76.3224 365.592 77.6983 365.767Z" fill="#263238"/>
<path d="M157.85 329.815C158.752 326.591 161.016 319.745 160.556 316.396C158.581 300.74 154.197 282.88 152.727 277.241C150.751 269.681 148.442 258.53 145.953 245.741C146.016 242.182 146.043 239.011 146.043 239.011L117.179 241.909C113.85 251.359 108.565 267.602 110.567 288.109C111.493 297.678 111.957 307.301 111.956 316.931C109.25 318.884 106.247 321.131 103.838 323.074C97.3979 328.324 74.8299 356.054 74.8299 356.054L72.5027 358.217L72.3223 358.375V358.438C71.0776 360.181 69.6163 367.615 68.4347 372.088C67.65 375.122 67.2621 379.91 69.0751 383.638C70.7889 387.134 72.6831 387.995 73.4228 384.1C73.522 382.703 73.5942 381.328 73.6934 380.047C73.991 376.078 75.9303 371.531 77.3826 368.623C78.5642 366.26 79.3489 364.276 81.5678 362.606C81.5678 362.606 108.547 342.11 121.517 332.471C123.655 330.921 125.5 328.881 126.939 326.475C128.378 324.069 129.381 321.347 129.888 318.475C130.79 313.036 133.992 299.648 135.083 292.907L141.397 320.911C139.963 323.62 137.293 333.248 135.715 345.061C133.604 360.811 128.616 384.887 128.616 384.887L127.344 390.389L127.281 390.641C127.173 392.899 129.78 399.902 131.142 404.344C132.044 407.326 134.172 411.452 137.51 413.174C140.676 414.802 142.66 414.161 141.253 410.528C140.651 409.328 140.118 408.083 139.657 406.801C138.21 403.156 137.226 399.287 136.734 395.314C136.458 392.656 136.768 389.96 137.636 387.481C137.636 387.481 153.06 347.056 157.85 329.815Z" fill="#FFA8A7"/>
<path d="M115.564 246.907C115.564 246.907 109.927 256.787 108.79 265.124C106.842 279.32 109.503 301.99 109.503 301.99C109.503 301.99 113.255 299.449 113.787 294.64C113.787 294.64 115.339 298.976 118.18 301.16C121.743 303.922 127.2 305.486 134.1 303.061L135.066 292.897L136.428 301.454C140.901 301.945 145.411 301.256 149.624 299.438C156.362 296.435 157.859 287.762 157.859 287.762L146.187 246.896C146.187 246.896 146.846 253.69 132.937 254.32C119.028 254.95 115.564 246.907 115.564 246.907Z" fill="#455A64"/>
<path d="M166.076 179.686C159.329 198.166 149.994 204.718 145.745 216.583C140.18 216.142 132.45 205.474 136.59 198.796C141.316 196.476 156.623 177.093 157.507 168.924C158.292 161.668 161.647 150.37 161.494 144.333C161.446 143.329 161.091 142.379 160.493 141.655C158.788 139.555 158.779 137.791 157.688 135.429C156.831 133.591 155.884 132.898 156.163 132.489C156.513 132.048 156.993 131.779 157.507 131.734C158.021 131.689 158.53 131.872 158.932 132.247C159.723 132.914 160.431 133.705 161.034 134.599C160.742 132.346 160.18 130.151 159.365 128.079C157.471 123.102 157.931 120.571 163.704 122.335C167.312 123.448 169.585 126.955 170.126 137.035C170.374 141.229 170.395 145.438 170.189 149.635C169.558 157.416 168.872 164.86 168.052 171.307C167.705 174.187 167.041 177.004 166.076 179.686Z" fill="#FFA8A7"/>
<path d="M116.565 243.442L116.051 235.924L111.072 223.786C110.339 219.328 110.163 214.769 110.549 210.252C110.712 205.873 110.549 202.902 114.157 201.925C115.546 201.558 119.479 200.739 125.234 199.825L135.769 198.775C139.621 198.544 143.797 204.309 148.163 214.525C150.345 219.628 152.059 226.569 146.268 233.026C146.268 234.36 146.413 238.864 146.268 241.563C141.703 244.268 136.703 245.833 131.588 246.157C126.472 246.48 121.356 245.556 116.565 243.442Z" fill="#F34A4A"/>
<path d="M144.194 166.383V166.005C143.247 154.234 137.447 152.05 126.848 153.31C119.019 154.245 111.92 158.56 109.557 166.593C108.684 169.612 108.42 172.826 108.786 175.983C109.152 179.141 110.138 182.158 111.668 184.8C114.906 190.386 120.381 193.504 128.12 192.664C138.204 194.04 145.141 178.143 144.194 166.383Z" fill="#263238"/>
<path d="M77.572 179.549C75.759 177.931 74.3002 175.837 73.3146 173.438C71.7271 169.585 70.9965 163.684 74.6947 161.048C75.1144 160.735 75.5889 160.534 76.0837 160.46C77.7254 160.271 79.0423 161.878 80.3231 163.075C81.5659 164.204 82.9886 165.035 84.509 165.52C86.0294 166.004 87.6173 166.134 89.1808 165.899C92.5723 165.395 95.603 163.201 98.2639 160.712C99.0813 159.875 99.9914 159.169 100.97 158.612C101.779 158.224 102.64 158.004 103.514 157.961C106.416 157.795 109.28 158.788 111.632 160.775C112.075 161.072 112.464 161.469 112.774 161.944C113.083 162.418 113.308 162.96 113.436 163.537C113.488 163.944 113.436 164.36 113.287 164.734C113.138 165.107 112.898 165.421 112.597 165.637C111.911 166.088 111.018 165.637 110.297 165.542C108.486 165.245 106.644 165.698 105.092 166.823C103.613 167.999 102.684 169.889 101.692 171.622C98.5526 177.092 93.9163 181.838 88.3329 182.783C86.4446 183.099 84.5214 182.976 82.6743 182.421C80.8273 181.865 79.0931 180.89 77.572 179.549Z" fill="#263238"/>
<path d="M137.239 160.797C139.314 161.931 142.2 167.412 142.931 179.497C143.544 189.735 140.91 192.57 139.539 193.452C138.168 194.334 135.372 194.187 132.657 193.966L133.144 200.098C133.144 200.098 141.262 208.708 135.219 210.283C132.188 211.081 128.129 209.233 125.297 207.133C123.484 205.628 122.114 203.509 121.373 201.064L120.363 187.719C120.363 187.719 118.929 189.672 116.042 187.246C113.652 185.241 112.606 181.534 114.166 179.308C114.573 178.778 115.083 178.369 115.653 178.112C116.223 177.856 116.836 177.761 117.444 177.835C118.052 177.909 118.635 178.149 119.147 178.537C119.66 178.925 120.085 179.448 120.39 180.064C120.39 180.064 121.977 180.064 123.276 176.473C125.933 176.526 128.529 175.547 130.655 173.691C132.442 172.169 133.947 170.243 135.079 168.027C136.21 165.811 136.945 163.352 137.239 160.797Z" fill="#FFA8A7"/>
<path d="M131.331 177.513C131.381 177.852 131.315 178.201 131.146 178.484C130.977 178.767 130.72 178.961 130.429 179.025C130.132 179.064 129.834 178.966 129.598 178.752C129.362 178.538 129.207 178.225 129.166 177.88C129.135 177.708 129.135 177.529 129.165 177.356C129.196 177.183 129.256 177.02 129.343 176.875C129.43 176.731 129.542 176.608 129.671 176.516C129.8 176.423 129.944 176.363 130.094 176.337C130.244 176.312 130.397 176.323 130.543 176.369C130.69 176.416 130.826 176.496 130.945 176.607C131.063 176.717 131.161 176.854 131.232 177.01C131.303 177.166 131.346 177.337 131.358 177.513H131.331Z" fill="#263238"/>
<g style="mix-blend-mode:multiply" opacity="0.5">
<g style="mix-blend-mode:multiply">
<path d="M133.388 185.912L136.933 186.826C136.889 187.099 136.8 187.359 136.67 187.591C136.54 187.824 136.371 188.024 136.174 188.18C135.977 188.337 135.755 188.446 135.521 188.502C135.288 188.557 135.047 188.559 134.813 188.506C134.333 188.373 133.916 188.028 133.65 187.544C133.384 187.06 133.29 186.475 133.388 185.912Z" fill="#F28F8F"/>
</g>
</g>
<path d="M140.992 172.431L138.61 170.877C138.69 170.694 138.801 170.532 138.935 170.4C139.07 170.268 139.226 170.168 139.394 170.108C139.562 170.047 139.739 170.026 139.915 170.047C140.09 170.067 140.26 170.128 140.414 170.226C140.737 170.435 140.978 170.781 141.086 171.193C141.193 171.604 141.16 172.048 140.992 172.431Z" fill="#263238"/>
<path d="M129.437 173.165L126.984 174.583C126.9 174.402 126.848 174.204 126.831 173.999C126.814 173.795 126.833 173.589 126.886 173.393C126.939 173.197 127.025 173.016 127.139 172.859C127.254 172.703 127.394 172.575 127.552 172.483C127.882 172.297 128.26 172.263 128.61 172.39C128.96 172.517 129.256 172.794 129.437 173.165Z" fill="#263238"/>
<path d="M140.712 176.211C140.734 176.462 140.693 176.716 140.592 176.941C140.492 177.166 140.337 177.351 140.147 177.474C139.956 177.596 139.739 177.651 139.523 177.632C139.306 177.612 139.099 177.519 138.927 177.363C138.755 177.208 138.627 176.997 138.557 176.757C138.488 176.517 138.48 176.259 138.536 176.014C138.592 175.769 138.708 175.549 138.87 175.38C139.033 175.212 139.234 175.102 139.449 175.066C139.747 175.024 140.046 175.121 140.283 175.336C140.519 175.55 140.674 175.865 140.712 176.211Z" fill="#263238"/>
<g style="mix-blend-mode:multiply" opacity="0.5">
<g style="mix-blend-mode:multiply">
<path d="M135.327 176.053L136.121 183.77L139.521 182.132L135.327 176.053Z" fill="#F28F8F"/>
</g>
</g>
<g style="mix-blend-mode:multiply" opacity="0.5">
<g style="mix-blend-mode:multiply">
<path d="M132.657 193.966C129.798 193.84 123.836 192.528 122.735 189.955C123.211 191.255 124.016 192.354 125.044 193.105C126.92 194.638 132.838 195.961 132.838 195.961L132.657 193.966Z" fill="#F28F8F"/>
</g>
</g>
<path d="M111.731 161.227L113.03 155.704C113.346 155.785 113.645 155.94 113.908 156.159C114.172 156.377 114.395 156.656 114.563 156.978C114.732 157.3 114.842 157.658 114.889 158.031C114.935 158.404 114.917 158.784 114.834 159.148C114.646 159.893 114.219 160.525 113.641 160.913C113.063 161.3 112.378 161.413 111.731 161.227Z" fill="#263238"/>
<path d="M111.316 161.7L108.61 156.933C108.87 156.71 109.166 156.552 109.48 156.466C109.794 156.38 110.119 156.37 110.437 156.434C110.755 156.499 111.058 156.638 111.328 156.843C111.599 157.047 111.831 157.314 112.01 157.626C112.366 158.279 112.492 159.066 112.362 159.824C112.233 160.582 111.858 161.254 111.316 161.7Z" fill="#263238"/>
<path d="M120.417 180.054L120.85 185.43C121.263 185.385 121.664 185.246 122.031 185.021C122.397 184.795 122.722 184.488 122.987 184.117C123.252 183.745 123.451 183.317 123.573 182.856C123.696 182.395 123.739 181.91 123.7 181.429L123.303 176.463L120.417 180.054Z" fill="#263238"/>
<path d="M90.678 182.217C97.425 200.707 105.66 211.974 111.072 223.786C120.092 224.28 120.76 208.036 116.62 201.358C116.62 201.358 100.717 179.518 99.247 171.465C97.9391 164.304 95.1069 152.901 95.2602 146.863C95.3008 145.858 95.6571 144.905 96.2614 144.186C97.9662 142.086 97.9662 140.332 99.0666 137.97C99.9145 136.122 100.871 135.439 100.591 135.019C100.236 134.584 99.7544 134.32 99.2404 134.277C98.7264 134.234 98.2172 134.417 97.8129 134.788C97.025 135.452 96.3207 136.24 95.7202 137.13C96.0073 134.876 96.566 132.681 97.3799 130.609C99.2741 125.643 98.8141 123.102 93.0503 124.876C89.4423 125.926 87.1693 129.486 86.6281 139.576C86.3817 143.796 86.3696 148.029 86.592 152.25C87.2144 160.03 87.8999 167.485 88.7207 173.922C89.0692 176.772 89.7269 179.559 90.678 182.217Z" fill="#FFA8A7"/>
<path d="M136.428 301.171L135.065 293.338L136.464 278.407C139.42 276.957 142.203 275.069 144.744 272.789C143.177 275.389 141.265 277.682 139.079 279.583L135.967 292.424L136.428 301.171Z" fill="#37474F"/>
<path opacity="0.1" d="M122.068 229.624C122.922 231.486 124.22 233.022 125.805 234.046C127.391 235.071 129.197 235.54 131.007 235.399C132.754 235.328 134.455 234.72 135.936 233.638C137.417 232.556 138.626 231.037 139.44 229.235C139.44 229.235 139.188 237.299 131.007 237.32C122.825 237.341 122.068 229.624 122.068 229.624Z" fill="black"/>
</svg>
