<svg width="57" height="57" viewBox="0 0 57 57" fill="none" xmlns="http://www.w3.org/2000/svg">
<path fill-rule="evenodd" clip-rule="evenodd" d="M26.6287 0.0144043V14.1876H31.4458L37.7505 8.31544L26.6287 0.0144043Z" fill="white" fill-opacity="0.6"/>
<path fill-rule="evenodd" clip-rule="evenodd" d="M34.1166 43.8555C28.3536 45.945 19.7873 49.0954 18.7804 49.5491C18.1434 49.8491 17.392 50.017 16.6369 50.017C14.9129 50.017 13.2576 49.1776 12.2164 47.7631C11.2057 46.3951 10.9616 44.6949 11.5566 43.2126C11.8922 42.3946 15.0884 33.5613 17.0297 28.1821L17.3272 27.357L27.4993 17.8772H22.6364V0H0V57H45.5473V33.6256L34.8947 43.5769L34.1166 43.8555Z" fill="white" fill-opacity="0.6"/>
<path fill-rule="evenodd" clip-rule="evenodd" d="M55.8673 13.9233L50.0127 8.51547C48.449 7.05815 45.3672 6.4545 43.8836 7.84039L20.7895 29.3681C20.7895 29.3681 15.7512 43.3448 15.2744 44.52C14.8968 45.4558 16.1555 46.6274 17.0289 46.2166C18.4553 45.5523 32.6855 40.3909 32.6855 40.3909L55.8406 18.756C57.3281 17.3702 57.4349 15.377 55.8673 13.9233ZM30.4619 38.7264L20.6713 42.2054L18.913 40.6874L23.5852 30.0967L26.4114 32.047H30.4467L30.4619 38.7264Z" fill="white" fill-opacity="0.6"/>
</svg>
