<svg width="62" height="62"  viewBox="0 0 92 92" fill="none" xmlns="http://www.w3.org/2000/svg">
<path fill-rule="evenodd" clip-rule="evenodd" d="M42.98 0.0234375V22.8995H50.755L60.9309 13.4216L42.98 0.0234375Z" fill="white" fill-opacity="0.6"/>
<path fill-rule="evenodd" clip-rule="evenodd" d="M55.0654 70.7843C45.7637 74.1569 31.9373 79.2418 30.3122 79.9739C29.2841 80.4582 28.0714 80.7292 26.8525 80.7292C24.07 80.7292 21.3983 79.3744 19.7177 77.0914C18.0863 74.8833 17.6924 72.1391 18.6527 69.7466C19.1944 68.4264 24.3532 54.1692 27.4866 45.4869L27.9667 44.1552L44.3848 28.8545H36.5359V0H0V92H73.515V54.273L56.3213 70.3346L55.0654 70.7843Z" fill="white" fill-opacity="0.6"/>
<path fill-rule="evenodd" clip-rule="evenodd" d="M90.1715 22.4732L80.722 13.7448C78.198 11.3926 73.224 10.4183 70.8293 12.6552L33.5547 47.4017C33.5547 47.4017 25.4226 69.9606 24.6531 71.8574C24.0437 73.3678 26.0751 75.2588 27.4849 74.5958C29.7872 73.5235 52.7553 65.1929 52.7553 65.1929L90.1284 30.2734C92.5292 28.0366 92.7016 24.8196 90.1715 22.4732ZM49.1663 62.5063L33.3639 68.1215L30.5259 65.6714L38.067 48.5777L42.6286 51.7255H49.1417L49.1663 62.5063Z" fill="white" fill-opacity="0.6"/>
</svg>
