<svg width="150" height="150" viewBox="0 0 150 150" fill="none" xmlns="http://www.w3.org/2000/svg">
<path d="M75 0C33.6525 0 0 33.6488 0 75C0 116.351 33.6525 150 75 150C116.359 150 150 116.351 150 75C150 33.6488 116.359 0 75 0ZM108.067 67.0312L75.96 99.1462C73.725 101.377 70.7963 102.495 67.8675 102.495C64.9463 102.495 62.0138 101.377 59.7825 99.1462L41.94 81.3037C37.4737 76.8375 37.4737 69.5887 41.94 65.13C46.4062 60.66 53.6438 60.66 58.1175 65.13L67.8675 74.88L91.8975 50.8538C108 34.5 115.541 33.0412 120 37.5C124.47 41.9662 126 48 108.067 67.0312Z" fill="#00C897"/>
</svg>
