<svg width="478" height="535" viewBox="0 0 478 535" fill="none" xmlns="http://www.w3.org/2000/svg">
<path d="M407.65 277.236C407.593 186.414 420.596 162.369 373.731 85.6409C326.867 8.91288 211.985 -8.07861 125.108 48.8323C38.2321 105.743 14.8739 178.933 14.8739 178.933C14.8739 178.933 -16.6485 264.424 27.6491 350.508C68.1591 429.255 147.936 473.995 217.129 510.804H394.06C404.815 501.284 413.958 489.924 421.104 477.201C457.137 413.522 407.718 368.058 407.65 277.236Z" fill="#E0D4F7"/>
<path d="M3 511.231H449.06" stroke="#4A4A4A" stroke-width="4.43975" stroke-linecap="round" stroke-linejoin="round"/>
<path d="M359.546 411.207L384.727 511.232H391.365L366.194 411.207H359.546Z" fill="#757575"/>
<path d="M359.546 411.207L384.727 511.232H391.365L366.194 411.207H359.546Z" stroke="#4A4A4A" stroke-width="2" stroke-linecap="round" stroke-linejoin="round"/>
<path d="M259.028 334.812L303.437 511.232H310.075L265.675 334.812H259.028Z" fill="#757575"/>
<path d="M259.028 334.812L303.437 511.232H310.075L265.675 334.812H259.028Z" stroke="#4A4A4A" stroke-width="2" stroke-linecap="round" stroke-linejoin="round"/>
<path d="M274.872 461.219H359.049V468.605H274.872V461.219Z" fill="#999999"/>
<path d="M274.872 461.219H359.049V468.605H274.872V461.219Z" stroke="#4A4A4A" stroke-width="2" stroke-linecap="round" stroke-linejoin="round"/>
<path d="M403.956 295.189L349.567 511.291H342.953L397.329 295.189C399.336 287.222 394.738 280.739 387.076 280.739H340.218C332.566 280.739 324.694 287.222 322.687 295.189L268.29 511.291H261.674L316.062 295.189C319.028 283.398 330.626 273.816 341.96 273.816H388.828C400.129 273.816 406.922 283.387 403.956 295.189Z" fill="#757575"/>
<path d="M403.956 295.189L349.567 511.291H342.953L397.329 295.189C399.336 287.222 394.738 280.739 387.076 280.739H340.218C332.566 280.739 324.694 287.222 322.687 295.189L268.29 511.291H261.674L316.062 295.189C319.028 283.398 330.626 273.816 341.96 273.816H388.828C400.129 273.816 406.922 283.387 403.956 295.189Z" stroke="#4A4A4A" stroke-width="2" stroke-linecap="round" stroke-linejoin="round"/>
<path d="M404.815 295.248L391.32 348.894C389.987 353.521 386.091 356.742 381.596 356.932H304.595C301.524 357.192 298.839 354.721 298.597 351.413C298.535 350.567 298.641 349.716 298.906 348.917L312.413 295.272C313.756 290.656 317.648 287.447 322.137 287.257H399.126C402.212 287.019 404.892 289.52 405.113 292.843V292.849C405.163 293.662 405.062 294.478 404.815 295.248Z" fill="#7E59C2"/>
<path d="M264.574 406.505H369.579C370.62 406.505 371.464 407.414 371.464 408.536V413.654C371.464 414.775 370.62 415.684 369.579 415.684H264.574C263.533 415.684 262.689 414.775 262.689 413.654V408.536C262.689 407.414 263.533 406.505 264.574 406.505Z" fill="#999999"/>
<path d="M264.574 406.505H369.579C370.62 406.505 371.464 407.414 371.464 408.536V413.654C371.464 414.775 370.62 415.684 369.579 415.684H264.574C263.533 415.684 262.689 414.775 262.689 413.654V408.536C262.689 407.414 263.533 406.505 264.574 406.505Z" stroke="#4A4A4A" stroke-width="2" stroke-linecap="round" stroke-linejoin="round"/>
<path d="M404.815 295.248L391.32 348.894C389.987 353.521 386.091 356.742 381.596 356.932H304.595C301.524 357.192 298.839 354.721 298.597 351.413C298.535 350.567 298.641 349.716 298.906 348.917L312.413 295.272C313.756 290.656 317.648 287.447 322.137 287.257H399.126C402.212 287.019 404.892 289.52 405.113 292.843V292.849C405.163 293.662 405.062 294.478 404.815 295.248Z" stroke="#4A4A4A" stroke-width="2" stroke-linecap="round" stroke-linejoin="round"/>
<path d="M366.215 399.678V409.462H267.075V399.678C267.075 395.704 270.067 392.482 273.757 392.482H359.523C363.207 392.47 366.204 395.675 366.215 399.643V399.678Z" fill="#7E59C2"/>
<path d="M366.215 399.678V409.462H267.075V399.678C267.075 395.704 270.067 392.482 273.757 392.482H359.523C363.207 392.47 366.204 395.675 366.215 399.643V399.678Z" stroke="#4A4A4A" stroke-width="2" stroke-linecap="round" stroke-linejoin="round"/>
<path d="M281.222 494.765L286.668 511.29C286.668 511.29 288.189 517.975 260.494 515.862L245.235 514.461L281.222 494.765Z" fill="#4A4A4A"/>
<path d="M281.089 494.765L286.668 511.291C286.668 511.291 288.19 517.976 260.495 515.863L245.235 514.461L281.089 494.765Z" fill="#7E59C2"/>
<path d="M263.857 406.802C259.106 412.014 282.137 493.92 282.137 493.92C279.623 496.294 275.919 497.387 272.413 497.885C269.19 498.316 265.933 498.368 262.7 498.039C262.7 498.039 229.69 411.813 238.775 390.416C247.859 369.02 304.232 359.307 304.232 359.307L306.635 352.895L335.797 348.478L340.615 386.937C340.615 386.937 335.83 387.435 328.631 388.433C309.326 391.069 272.59 397.302 263.857 406.802Z" fill="#4A4A4A"/>
<path d="M282.137 493.966C279.623 496.341 275.918 497.433 272.413 497.932C266.007 472.285 249.7 403.845 255.874 395.474C263.493 385.143 301.199 375.751 301.199 375.751C301.354 370.479 314.573 365.729 314.573 365.729L328.619 388.397C309.314 391.068 272.578 397.302 263.846 406.801C259.105 412.062 282.137 493.966 282.137 493.966Z" fill="#4A4A4A"/>
<path d="M263.857 406.802C259.106 412.014 282.137 493.92 282.137 493.92C279.623 496.294 275.919 497.387 272.413 497.885C269.19 498.316 265.933 498.368 262.7 498.039C262.7 498.039 229.69 411.813 238.775 390.416C247.859 369.02 304.232 359.307 304.232 359.307L306.635 352.895L335.797 348.478L340.615 386.937C340.615 386.937 335.83 387.435 328.631 388.433C309.326 391.069 272.59 397.302 263.857 406.802Z" stroke="#4A4A4A" stroke-width="2" stroke-linecap="round" stroke-linejoin="round"/>
<path d="M260.208 397.302C260.208 397.302 263.736 399.227 262.975 404.677" stroke="white" stroke-width="2" stroke-linecap="round" stroke-linejoin="round"/>
<path d="M256.492 401.933C256.492 401.933 261.31 405.009 261.652 407.764" stroke="white" stroke-width="2" stroke-linecap="round" stroke-linejoin="round"/>
<path d="M280.822 495.628L286.668 511.291C286.668 511.291 288.19 517.976 260.495 515.863L245.235 514.461L280.822 495.628Z" stroke="#4A4A4A" stroke-width="2" stroke-linecap="round" stroke-linejoin="round"/>
<path d="M273.905 498.555C273.905 498.555 275.895 508.634 273.95 516.147C273.95 516.147 244.725 521.201 238.179 519.359C231.634 517.516 227.655 514.025 227.452 512.296C227.452 512.296 227.671 507.482 234.219 506.041C240.766 504.6 253.79 503.579 258.92 495.613C264.05 487.647 273.905 498.555 273.905 498.555Z" fill="#7E59C2"/>
<path d="M273.905 498.555C273.905 498.555 275.895 508.634 273.95 516.147C273.95 516.147 244.725 521.201 238.179 519.359C231.634 517.516 227.655 514.025 227.452 512.296C227.452 512.296 227.671 507.482 234.219 506.041C240.766 504.6 253.79 503.579 258.92 495.613C264.05 487.647 273.905 498.555 273.905 498.555Z" stroke="#4A4A4A" stroke-width="2" stroke-linecap="round" stroke-linejoin="round"/>
<path d="M312.039 351.736C321.349 337.358 364.362 354.412 364.362 354.412C364.362 354.412 368.545 388.899 351.453 398.187C334.361 407.473 309.686 407.088 303.04 414.583L276.136 500.829C276.136 500.829 266.404 505.253 252.217 498.424C252.217 498.424 269.276 433.309 274.272 410.195C279.212 387.318 311.538 371.661 311.538 371.661C309.864 369.55 308.594 367.105 307.8 364.464" fill="#4A4A4A"/>
<path d="M312.039 351.736C321.349 337.358 364.362 354.412 364.362 354.412C364.362 354.412 368.545 388.899 351.453 398.187C334.361 407.473 309.686 407.088 303.04 414.583L276.136 500.829C276.136 500.829 266.404 505.253 252.217 498.424C252.217 498.424 269.276 433.309 274.272 410.195C279.212 387.318 311.538 371.661 311.538 371.661C309.864 369.55 308.594 367.105 307.8 364.464" stroke="#4A4A4A" stroke-width="2" stroke-linecap="round" stroke-linejoin="round"/>
<path d="M355.559 384.539C354.191 385.851 352.754 387.077 351.255 388.211" stroke="white" stroke-width="2" stroke-linecap="round" stroke-linejoin="round"/>
<path d="M358.985 355.283C362.528 363.459 362.831 373.858 357.945 381.466" stroke="white" stroke-width="2" stroke-linecap="round" stroke-linejoin="round"/>
<path d="M349.206 356.646C349.206 356.646 348.328 362.962 350.949 365.453C353.57 367.943 361.594 369.176 361.594 369.176" stroke="white" stroke-width="2" stroke-linecap="round" stroke-linejoin="round"/>
<path d="M314.019 357.049C314.019 357.049 314.4 363.338 312.025 363.053C309.652 362.766 309.537 365.58 309.537 365.58" stroke="white" stroke-width="2" stroke-linecap="round" stroke-linejoin="round"/>
<path d="M300.809 406.388C300.809 406.388 302.036 407.379 302.543 410.974" stroke="white" stroke-width="2" stroke-linecap="round" stroke-linejoin="round"/>
<path d="M296.291 411.004C298.446 411.245 300.406 412.45 301.693 414.322" stroke="white" stroke-width="2" stroke-linecap="round" stroke-linejoin="round"/>
<path d="M247.54 329.278C242.7 328.387 277.153 295.854 277.153 295.854L293.769 307.893C293.769 307.893 265.499 329.337 261.056 329.919C256.614 330.501 247.54 329.278 247.54 329.278Z" fill="white"/>
<path d="M247.54 329.278C242.7 328.387 277.153 295.854 277.153 295.854L293.769 307.893C293.769 307.893 265.499 329.337 261.056 329.919C256.614 330.501 247.54 329.278 247.54 329.278Z" stroke="#4A4A4A" stroke-width="2" stroke-linecap="round" stroke-linejoin="round"/>
<path d="M287.947 281.628C283.614 284.882 264.154 306.433 264.154 306.433C264.154 306.433 273.272 317.607 281.265 319.221L302.931 307.893L287.947 281.628Z" fill="#7E59C2"/>
<path d="M287.947 281.628C283.614 284.882 264.154 306.433 264.154 306.433C264.154 306.433 273.272 317.607 281.265 319.221L302.931 307.893L287.947 281.628Z" stroke="#4A4A4A" stroke-width="2" stroke-linecap="round" stroke-linejoin="round"/>
<path d="M287.947 281.628C283.614 284.882 264.154 306.433 264.154 306.433C264.154 306.433 273.272 317.607 281.265 319.221L302.931 307.893L287.947 281.628Z" stroke="#4A4A4A" stroke-width="2" stroke-linecap="round" stroke-linejoin="round"/>
<path d="M288.521 286.473C288.16 284.887 287.967 283.262 287.947 281.629C287.947 281.629 301.177 269.612 318.212 269.683C338.498 269.754 350.902 276.63 355.863 286.176C363.735 301.279 364.838 354.771 364.838 354.771C364.838 354.771 313.934 363.226 306.635 352.859C305.367 351.055 306.337 338.313 306.337 338.313C306.337 338.313 300.638 322.213 299.436 309.722C297.762 307.235 296.204 304.661 294.772 302.004C292.96 298.735 291.389 295.315 290.075 291.781" fill="#7E59C2"/>
<path d="M288.521 286.473C288.16 284.887 287.967 283.262 287.947 281.629C287.947 281.629 301.177 269.612 318.212 269.683C338.498 269.754 350.902 276.63 355.863 286.176C363.735 301.279 364.838 354.771 364.838 354.771C364.838 354.771 313.934 363.226 306.635 352.859C305.367 351.055 306.337 338.313 306.337 338.313C306.337 338.313 300.638 322.213 299.436 309.722C297.762 307.235 296.204 304.661 294.772 302.004C292.96 298.735 291.389 295.315 290.075 291.781" stroke="#4A4A4A" stroke-width="2" stroke-linecap="round" stroke-linejoin="round"/>
<path d="M288.521 286.473C288.16 284.887 287.967 283.262 287.947 281.629C287.947 281.629 301.177 269.612 318.212 269.683C338.498 269.754 350.902 276.63 355.863 286.176C363.735 301.279 364.838 354.771 364.838 354.771C364.838 354.771 313.934 363.226 306.635 352.859C305.367 351.055 306.337 338.313 306.337 338.313C306.337 338.313 300.638 322.213 299.436 309.722C297.762 307.235 296.204 304.661 294.772 302.004C292.96 298.735 291.389 295.315 290.075 291.781" stroke="#4A4A4A" stroke-width="2" stroke-linecap="round" stroke-linejoin="round"/>
<path d="M308.014 299.332C308.014 299.332 315.786 331.807 314.628 338.955C314.351 341.422 314.734 343.922 315.73 346.162C313.648 348.521 313.203 352.054 314.628 354.925" stroke="#4A4A4A" stroke-width="2" stroke-linecap="round" stroke-linejoin="round"/>
<path d="M328.63 326.203C327.242 326.146 325.894 325.687 324.728 324.872L322.423 313.996C326.995 314.445 331.604 314.096 336.073 312.963L338.542 324.837C337.154 325.254 335.744 325.583 334.319 325.823" stroke="#4A4A4A" stroke-width="2" stroke-linecap="round" stroke-linejoin="round"/>
<path d="M302.49 303.559C302.49 303.559 295.875 273.21 312.567 269.684C329.259 266.157 332.687 274.552 331.706 280.24C330.394 287.827 316.558 306.433 316.558 306.433L308.014 299.308L302.49 303.559Z" fill="#7E59C2"/>
<path d="M302.49 303.559C302.49 303.559 295.875 273.21 312.567 269.684C329.259 266.157 332.687 274.552 331.706 280.24C330.394 287.827 316.558 306.433 316.558 306.433L308.014 299.308L302.49 303.559Z" stroke="#4A4A4A" stroke-width="2" stroke-linecap="round" stroke-linejoin="round"/>
<path d="M302.49 303.559C302.49 303.559 295.875 273.21 312.567 269.684C329.259 266.157 332.688 274.552 331.707 280.24C330.395 287.827 316.558 306.433 316.558 306.433L308.014 299.308L302.49 303.559Z" fill="white"/>
<path d="M302.49 303.559C302.49 303.559 295.875 273.21 312.567 269.684C329.259 266.157 332.687 274.552 331.706 280.24C330.394 287.827 316.558 306.433 316.558 306.433L308.014 299.308L302.49 303.559Z" stroke="#4A4A4A" stroke-width="2" stroke-linecap="round" stroke-linejoin="round"/>
<path d="M344.077 327.248C344.077 327.248 348.487 335.263 366.646 334.526C363.266 330.63 358.991 327.762 354.254 326.214C346.833 324.077 344.077 327.248 344.077 327.248Z" fill="#7E59C2"/>
<path d="M344.077 327.248C344.077 327.248 348.487 335.263 366.646 334.526C363.266 330.63 358.991 327.762 354.254 326.214C346.833 324.077 344.077 327.248 344.077 327.248Z" stroke="#4A4A4A" stroke-width="2" stroke-linecap="round" stroke-linejoin="round"/>
<path d="M308.014 298.027C307.088 295.198 306.712 292.195 306.912 289.204C306.955 288.19 307.055 287.179 307.209 286.177L305.346 282.994L302.953 278.898L305.72 267.024C305.72 267.024 323.361 270.681 324.684 275.977C326.007 281.273 308.014 298.027 308.014 298.027Z" fill="white"/>
<path d="M308.014 298.027C307.088 295.198 306.712 292.195 306.912 289.204C306.955 288.19 307.055 287.179 307.209 286.177L305.346 282.994L302.953 278.898L305.72 267.024C305.72 267.024 323.361 270.681 324.684 275.977C326.007 281.273 308.014 298.027 308.014 298.027Z" stroke="#4A4A4A" stroke-width="2" stroke-linecap="round" stroke-linejoin="round"/>
<g opacity="0.999998">
<path d="M289.039 132.174H232.072C227.882 132.174 224.486 135.832 224.486 140.344V193.075C224.486 197.587 227.882 201.245 232.072 201.245H257.32L271.785 220.017L268.157 201.245H289.039C293.215 201.225 296.592 197.573 296.592 193.075V140.344C296.592 135.846 293.215 132.194 289.039 132.174Z" fill="white"/>
<path d="M289.039 132.174H232.072C227.882 132.174 224.486 135.832 224.486 140.344V193.075C224.486 197.587 227.882 201.245 232.072 201.245H257.32L271.785 220.017L268.157 201.245H289.039C293.215 201.225 296.592 197.573 296.592 193.075V140.344C296.592 135.846 293.215 132.194 289.039 132.174Z" stroke="#4A4A4A" stroke-width="2" stroke-linecap="round" stroke-linejoin="round"/>
<path d="M259.235 188.748L261.555 187.332L260.795 185.424C261.111 185.095 261.39 184.729 261.625 184.333L263.557 184.678L264.363 181.959L262.526 181.266C262.532 180.814 262.496 180.366 262.417 179.928L264.091 178.693L262.872 176.285L261.038 177.205C260.743 176.894 260.413 176.619 260.056 176.387L260.488 174.308L257.959 173.626L257.207 175.61C256.777 175.626 256.347 175.693 255.926 175.809L254.855 174.104L252.517 175.532L253.271 177.43C252.959 177.762 252.68 178.128 252.441 178.52L250.47 178.2L249.663 180.919L251.5 181.612C251.496 182.068 251.534 182.519 251.615 182.96L249.935 184.185L251.155 186.594L252.993 185.683C253.291 185.988 253.619 186.258 253.971 186.491L253.538 188.57L256.067 189.252L256.819 187.268C257.25 187.258 257.68 187.191 258.101 187.069L259.235 188.748ZM254.324 183.082C253.54 181.533 254.129 179.53 255.638 178.609C257.147 177.687 259.007 178.194 259.791 179.743C260.575 181.291 259.987 183.294 258.478 184.216C256.969 185.129 255.116 184.62 254.334 183.075L254.324 183.082Z" fill="#7E59C2"/>
<path d="M275.196 181.876L278.492 179.863L277.423 177.19C277.865 176.727 278.255 176.214 278.586 175.659L281.311 176.141L282.43 172.331L279.852 171.347C279.867 170.708 279.814 170.075 279.695 169.456L282.054 167.737L280.337 164.346L277.762 165.64C277.345 165.2 276.881 164.812 276.377 164.485L276.981 161.572L273.443 160.606L272.373 163.392C271.771 163.412 271.169 163.507 270.58 163.678L269.077 161.271L265.781 163.284L266.85 165.956C266.407 166.416 266.016 166.927 265.683 167.478L262.963 167.006L261.834 170.823L264.416 171.79C264.393 172.433 264.448 173.072 264.579 173.691L262.209 175.416L263.927 178.808L266.511 177.507C266.92 177.953 267.383 178.337 267.891 178.652L267.282 181.582L270.831 182.542L271.895 179.745C272.499 179.735 273.103 179.641 273.693 179.468L275.196 181.876ZM268.296 173.913C267.194 171.738 268.02 168.926 270.14 167.632C272.261 166.337 274.871 167.05 275.973 169.225C277.074 171.399 276.248 174.211 274.128 175.506C272.008 176.8 269.397 176.088 268.296 173.913Z" fill="#7E59C2"/>
<path d="M255.195 172.821L259.834 169.988L258.325 166.245C258.942 165.59 259.49 164.868 259.962 164.092L263.789 164.763L265.358 159.392L261.735 158.027C261.763 157.128 261.688 156.235 261.512 155.367L264.832 152.942L262.423 148.185L258.795 150.003C258.217 149.381 257.566 148.84 256.855 148.391L257.711 144.291L252.728 142.921L251.178 146.85C250.328 146.875 249.478 147.002 248.644 147.231L246.543 143.849L241.906 146.682L243.404 150.431C242.788 151.088 242.241 151.814 241.773 152.593L237.94 151.913L236.37 157.284L239.995 158.648C239.967 159.548 240.042 160.441 240.217 161.309L236.897 163.734L239.306 168.491L242.934 166.673C243.512 167.295 244.164 167.835 244.875 168.284L244.018 172.385L249.001 173.754L250.502 169.83C251.351 169.799 252.199 169.668 253.03 169.439L255.195 172.821ZM245.499 161.635C243.945 158.58 245.1 154.623 248.078 152.798C251.057 150.971 254.731 151.967 256.285 155.021C257.839 158.076 256.684 162.032 253.706 163.858C250.741 165.683 247.078 164.699 245.525 161.659L245.514 161.639L245.499 161.635Z" fill="#7E59C2"/>
</g>
<path d="M227.502 259.702L222.147 408.389L129.593 405.356L130.162 389.595L134.948 256.658L193.225 258.569L227.502 259.702Z" fill="white"/>
<path d="M227.502 259.702L222.147 408.389L129.593 405.356L130.162 389.595L134.948 256.658L193.225 258.569L227.502 259.702Z" stroke="#4A4A4A" stroke-linecap="round" stroke-linejoin="round"/>
<path d="M141.571 266.369L165.547 267.134" stroke="#4A4A4A" stroke-linecap="round" stroke-linejoin="round"/>
<path d="M141.409 271.302L157.717 271.827" stroke="#4A4A4A" stroke-linecap="round" stroke-linejoin="round"/>
<path d="M146.873 283.381L215.833 285.581" stroke="#4A4A4A" stroke-linecap="round" stroke-linejoin="round"/>
<path d="M146.711 288.337L215.672 290.537" stroke="#4A4A4A" stroke-linecap="round" stroke-linejoin="round"/>
<path d="M146.528 294.094L205.338 295.962" stroke="#4A4A4A" stroke-linecap="round" stroke-linejoin="round"/>
<path d="M146.422 305.239L146.639 299.223L152.265 299.409L152.048 305.424L146.422 305.239Z" stroke="#4A4A4A" stroke-linecap="round" stroke-linejoin="round"/>
<path d="M156.588 305.627L156.805 299.612L162.432 299.797L162.215 305.812L156.588 305.627Z" stroke="#4A4A4A" stroke-linecap="round" stroke-linejoin="round"/>
<path d="M166.742 306.017L166.959 300.001L172.585 300.186L172.368 306.202L166.742 306.017Z" stroke="#4A4A4A" stroke-linecap="round" stroke-linejoin="round"/>
<path d="M176.908 306.404L177.125 300.388L182.751 300.574L182.534 306.589L176.908 306.404Z" stroke="#4A4A4A" stroke-linecap="round" stroke-linejoin="round"/>
<path d="M143.203 283.031C143.184 283.854 142.544 284.509 141.774 284.495L141.772 284.495C140.996 284.47 140.39 283.778 140.419 282.948C140.448 282.118 141.1 281.464 141.877 281.489C142.646 281.509 143.25 282.192 143.225 283.015C143.225 283.016 143.225 283.017 143.224 283.018L143.203 283.031Z" fill="#4A4A4A"/>
<path d="M145.929 312.292L214.89 314.493" stroke="#4A4A4A" stroke-linecap="round" stroke-linejoin="round"/>
<path d="M145.767 317.248L214.727 319.448" stroke="#4A4A4A" stroke-linecap="round" stroke-linejoin="round"/>
<path d="M145.586 323.005L204.395 324.874" stroke="#4A4A4A" stroke-linecap="round" stroke-linejoin="round"/>
<path d="M145.468 334.169L145.685 328.153L151.311 328.338L151.094 334.354L145.468 334.169Z" stroke="#4A4A4A" stroke-linecap="round" stroke-linejoin="round"/>
<path d="M155.643 334.545L155.86 328.529L161.486 328.715L161.269 334.73L155.643 334.545Z" stroke="#4A4A4A" stroke-linecap="round" stroke-linejoin="round"/>
<path d="M165.797 334.922L166.014 328.906L171.641 329.091L171.424 335.107L165.797 334.922Z" stroke="#4A4A4A" stroke-linecap="round" stroke-linejoin="round"/>
<path d="M175.951 335.311L176.168 329.295L181.795 329.481L181.578 335.496L175.951 335.311Z" stroke="#4A4A4A" stroke-linecap="round" stroke-linejoin="round"/>
<path d="M142.27 311.941C142.245 312.771 141.597 313.426 140.821 313.406C140.82 313.406 140.819 313.406 140.818 313.406C140.036 313.385 139.424 312.689 139.451 311.853C139.477 311.018 140.133 310.358 140.914 310.381C141.694 310.402 142.306 311.095 142.281 311.929L142.27 311.941Z" fill="#4A4A4A"/>
<path d="M144.998 341.203L213.947 343.403" stroke="#4A4A4A" stroke-linecap="round" stroke-linejoin="round"/>
<path d="M144.835 346.158L213.785 348.359" stroke="#4A4A4A" stroke-linecap="round" stroke-linejoin="round"/>
<path d="M144.643 351.904L203.452 353.784" stroke="#4A4A4A" stroke-linecap="round" stroke-linejoin="round"/>
<path d="M144.535 363.062L144.752 357.046L150.379 357.232L150.162 363.247L144.535 363.062Z" stroke="#4A4A4A" stroke-linecap="round" stroke-linejoin="round"/>
<path d="M155.903 363.403L156.105 357.375L161.744 357.545L161.541 363.573L155.903 363.403Z" stroke="#4A4A4A" stroke-linecap="round" stroke-linejoin="round"/>
<path d="M164.854 363.84L165.071 357.824L170.698 358.009L170.481 364.025L164.854 363.84Z" stroke="#4A4A4A" stroke-linecap="round" stroke-linejoin="round"/>
<path d="M175.031 364.216L175.248 358.2L180.874 358.386L180.657 364.401L175.031 364.216Z" stroke="#4A4A4A" stroke-linecap="round" stroke-linejoin="round"/>
<path d="M141.329 340.853C141.304 341.682 140.655 342.337 139.879 342.317C139.878 342.317 139.877 342.317 139.876 342.317C139.094 342.336 138.451 341.675 138.439 340.839C138.427 340.004 139.051 339.311 139.833 339.291L139.836 339.291L140.036 339.287C140.811 339.307 141.419 339.995 141.394 340.824L141.394 340.828L141.329 340.853Z" fill="#4A4A4A"/>
<path d="M144.024 370.935L212.974 373.146" stroke="#4A4A4A" stroke-linecap="round" stroke-linejoin="round"/>
<path d="M143.861 375.889L212.822 378.101" stroke="#4A4A4A" stroke-linecap="round" stroke-linejoin="round"/>
<path d="M143.68 381.647L202.49 383.527" stroke="#4A4A4A" stroke-linecap="round" stroke-linejoin="round"/>
<path d="M143.557 392.808L143.774 386.792L149.4 386.977L149.183 392.993L143.557 392.808Z" stroke="#4A4A4A" stroke-linecap="round" stroke-linejoin="round"/>
<path d="M153.734 393.184L153.951 387.168L159.577 387.354L159.36 393.369L153.734 393.184Z" stroke="#4A4A4A" stroke-linecap="round" stroke-linejoin="round"/>
<path d="M163.91 393.561L164.127 387.545L169.754 387.73L169.537 393.746L163.91 393.561Z" stroke="#4A4A4A" stroke-linecap="round" stroke-linejoin="round"/>
<path d="M174.065 393.962L174.282 387.946L179.908 388.131L179.691 394.147L174.065 393.962Z" stroke="#4A4A4A" stroke-linecap="round" stroke-linejoin="round"/>
<path d="M140.354 370.595C140.321 371.424 139.666 372.073 138.89 372.044C138.115 372.015 137.514 371.319 137.547 370.491C137.58 369.664 138.233 369.016 139.006 369.042C139.781 369.069 140.385 369.762 140.354 370.591C140.354 370.592 140.354 370.594 140.354 370.595Z" fill="#4A4A4A"/>
<path d="M148.577 301.682L149.324 303.012L152.275 299.41" stroke="#4A4A4A" stroke-linecap="round" stroke-linejoin="round"/>
<path d="M167.975 330.994L168.722 332.324L171.673 328.722" stroke="#4A4A4A" stroke-linecap="round" stroke-linejoin="round"/>
<path d="M177.959 361.303L178.707 362.633L181.657 359.019" stroke="#4A4A4A" stroke-linecap="round" stroke-linejoin="round"/>
<path d="M155.913 388.936L156.66 390.255L159.61 386.652" stroke="#4A4A4A" stroke-linecap="round" stroke-linejoin="round"/>
<path d="M219.791 402.728L125.258 396.35L123.866 249.646L163.006 252.286L218.396 256.034L219.659 389.131L219.791 402.728Z" fill="white"/>
<path d="M219.791 402.728L125.258 396.35L123.866 249.646L163.006 252.286L218.396 256.034L219.659 389.131L219.791 402.728Z" stroke="#4A4A4A" stroke-linecap="round" stroke-linejoin="round"/>
<path d="M134.29 259.911L158.265 261.431" stroke="#4A4A4A" stroke-linecap="round" stroke-linejoin="round"/>
<path d="M134.161 265.009L150.472 266.042" stroke="#4A4A4A" stroke-linecap="round" stroke-linejoin="round"/>
<path d="M139.727 275.938L208.704 280.303" stroke="#4A4A4A" stroke-linecap="round" stroke-linejoin="round"/>
<path d="M139.612 280.891L208.588 285.257" stroke="#4A4A4A" stroke-linecap="round" stroke-linejoin="round"/>
<path d="M139.467 286.86L198.299 290.579" stroke="#4A4A4A" stroke-linecap="round" stroke-linejoin="round"/>
<path d="M139.485 293.136L145.208 293.523L145.265 299.434L139.541 299.047L139.485 293.136Z" stroke="#4A4A4A" stroke-linecap="round" stroke-linejoin="round"/>
<path d="M149.658 293.407L155.381 293.795L155.438 299.705L149.715 299.318L149.658 293.407Z" stroke="#4A4A4A" stroke-linecap="round" stroke-linejoin="round"/>
<path d="M159.833 293.687L165.556 294.074L165.612 299.985L159.889 299.597L159.833 293.687Z" stroke="#4A4A4A" stroke-linecap="round" stroke-linejoin="round"/>
<path d="M169.987 293.97L175.71 294.357L175.767 300.267L170.043 299.88L169.987 293.97Z" stroke="#4A4A4A" stroke-linecap="round" stroke-linejoin="round"/>
<path d="M136.084 277.118C136.092 277.933 135.458 278.551 134.668 278.497C133.878 278.444 133.233 277.739 133.225 276.924C133.217 276.108 133.851 275.491 134.641 275.545C135.43 275.598 136.076 276.302 136.084 277.118Z" fill="#4A4A4A"/>
<path d="M139.036 304.851L208.013 309.217" stroke="#4A4A4A" stroke-linecap="round" stroke-linejoin="round"/>
<path d="M138.918 309.816L207.898 314.171" stroke="#4A4A4A" stroke-linecap="round" stroke-linejoin="round"/>
<path d="M138.787 315.777L197.608 319.492" stroke="#4A4A4A" stroke-linecap="round" stroke-linejoin="round"/>
<path d="M138.8 322.045L144.523 322.433L144.58 328.343L138.856 327.956L138.8 322.045Z" stroke="#4A4A4A" stroke-linecap="round" stroke-linejoin="round"/>
<path d="M148.963 322.328L154.687 322.715L154.743 328.626L149.019 328.239L148.963 322.328Z" stroke="#4A4A4A" stroke-linecap="round" stroke-linejoin="round"/>
<path d="M159.137 322.611L164.86 322.999L164.916 328.909L159.193 328.522L159.137 322.611Z" stroke="#4A4A4A" stroke-linecap="round" stroke-linejoin="round"/>
<path d="M169.323 322.883L175.046 323.27L175.102 329.181L169.379 328.793L169.323 322.883Z" stroke="#4A4A4A" stroke-linecap="round" stroke-linejoin="round"/>
<path d="M135.4 306.047C135.408 306.867 134.769 307.489 133.974 307.435C133.18 307.381 132.529 306.671 132.521 305.851C132.514 305.032 133.149 304.411 133.942 304.462C134.731 304.511 135.38 305.21 135.392 306.026C135.392 306.028 135.392 306.03 135.392 306.031L135.4 306.047Z" fill="#4A4A4A"/>
<path d="M138.352 333.779L207.321 338.13" stroke="#4A4A4A" stroke-linecap="round" stroke-linejoin="round"/>
<path d="M138.237 338.733L207.203 343.095" stroke="#4A4A4A" stroke-linecap="round" stroke-linejoin="round"/>
<path d="M138.093 344.701L196.924 348.421" stroke="#4A4A4A" stroke-linecap="round" stroke-linejoin="round"/>
<path d="M138.105 350.958L143.829 351.345L143.885 357.256L138.162 356.868L138.105 350.958Z" stroke="#4A4A4A" stroke-linecap="round" stroke-linejoin="round"/>
<path d="M148.29 351.241L154.014 351.628L154.07 357.539L148.347 357.151L148.29 351.241Z" stroke="#4A4A4A" stroke-linecap="round" stroke-linejoin="round"/>
<path d="M158.443 351.52L164.166 351.907L164.222 357.818L158.499 357.43L158.443 351.52Z" stroke="#4A4A4A" stroke-linecap="round" stroke-linejoin="round"/>
<path d="M168.616 351.803L174.34 352.19L174.396 358.101L168.673 357.713L168.616 351.803Z" stroke="#4A4A4A" stroke-linecap="round" stroke-linejoin="round"/>
<path d="M134.709 334.96C134.716 335.781 134.078 336.402 133.283 336.348C132.488 336.294 131.838 335.585 131.831 334.764C131.823 333.945 132.458 333.324 133.251 333.375C134.04 333.424 134.689 334.124 134.701 334.939C134.701 334.941 134.701 334.943 134.701 334.945L134.709 334.96Z" fill="#4A4A4A"/>
<path d="M137.645 363.521L206.612 367.882" stroke="#4A4A4A" stroke-linecap="round" stroke-linejoin="round"/>
<path d="M137.516 368.481L206.496 372.835" stroke="#4A4A4A" stroke-linecap="round" stroke-linejoin="round"/>
<path d="M137.386 374.441L196.218 378.161" stroke="#4A4A4A" stroke-linecap="round" stroke-linejoin="round"/>
<path d="M137.396 380.712L143.119 381.099L143.175 387.01L137.452 386.622L137.396 380.712Z" stroke="#4A4A4A" stroke-linecap="round" stroke-linejoin="round"/>
<path d="M147.571 380.991L153.294 381.379L153.35 387.289L147.627 386.902L147.571 380.991Z" stroke="#4A4A4A" stroke-linecap="round" stroke-linejoin="round"/>
<path d="M157.744 381.274L163.467 381.662L163.523 387.572L157.8 387.185L157.744 381.274Z" stroke="#4A4A4A" stroke-linecap="round" stroke-linejoin="round"/>
<path d="M167.907 381.557L173.631 381.944L173.687 387.855L167.964 387.467L167.907 381.557Z" stroke="#4A4A4A" stroke-linecap="round" stroke-linejoin="round"/>
<path d="M134.002 364.701C134.018 365.522 133.386 366.151 132.591 366.105C131.796 366.06 131.139 365.357 131.123 364.535C131.111 363.712 131.745 363.084 132.541 363.127C133.327 363.18 133.973 363.874 133.993 364.685L134.002 364.701Z" fill="#4A4A4A"/>
<path d="M151.148 295.814L151.977 297.161L154.837 293.691" stroke="#4A4A4A" stroke-linecap="round" stroke-linejoin="round"/>
<path d="M140.164 324.716L140.994 326.063L143.843 322.588" stroke="#4A4A4A" stroke-linecap="round" stroke-linejoin="round"/>
<path d="M139.55 353.357L140.38 354.704L143.23 351.229" stroke="#4A4A4A" stroke-linecap="round" stroke-linejoin="round"/>
<path d="M159.216 383.46L160.046 384.807L162.906 381.336" stroke="#4A4A4A" stroke-linecap="round" stroke-linejoin="round"/>
<path d="M116.273 242.081L210.429 245.165L211.802 392.436L117.646 389.352L116.273 242.081Z" fill="white"/>
<path d="M116.273 242.081L210.429 245.165L211.802 392.436L117.646 389.352L116.273 242.081Z" stroke="#4A4A4A" stroke-linecap="round" stroke-linejoin="round"/>
<path d="M125.466 251.909L149.456 252.548" stroke="#4A4A4A" stroke-linecap="round" stroke-linejoin="round"/>
<path d="M125.425 256.935L141.74 257.364" stroke="#4A4A4A" stroke-linecap="round" stroke-linejoin="round"/>
<path d="M131.173 268.254L200.163 270.082" stroke="#4A4A4A" stroke-linecap="round" stroke-linejoin="round"/>
<path d="M131.133 273.206L200.122 275.044" stroke="#4A4A4A" stroke-linecap="round" stroke-linejoin="round"/>
<path d="M131.09 279.077L189.933 280.646" stroke="#4A4A4A" stroke-linecap="round" stroke-linejoin="round"/>
<path d="M131.255 284.831L136.953 285.019L137.009 290.952L131.31 290.764L131.255 284.831Z" stroke="#4A4A4A" stroke-linecap="round" stroke-linejoin="round"/>
<path d="M141.427 284.926L147.126 285.114L147.182 291.047L141.483 290.859L141.427 284.926Z" stroke="#4A4A4A" stroke-linecap="round" stroke-linejoin="round"/>
<path d="M151.598 285.033L157.296 285.221L157.352 291.154L151.653 290.966L151.598 285.033Z" stroke="#4A4A4A" stroke-linecap="round" stroke-linejoin="round"/>
<path d="M161.769 285.117L167.468 285.304L167.524 291.237L161.825 291.05L161.769 285.117Z" stroke="#4A4A4A" stroke-linecap="round" stroke-linejoin="round"/>
<path d="M127.528 268.84C127.537 269.664 126.902 270.312 126.111 270.287C125.319 270.262 124.67 269.573 124.661 268.749C124.653 267.927 125.286 267.279 126.076 267.302C126.862 267.325 127.507 268.006 127.518 268.824C127.518 268.825 127.518 268.826 127.517 268.826L127.528 268.84Z" fill="#4A4A4A"/>
<path d="M130.933 297.18L199.922 299.018" stroke="#4A4A4A" stroke-linecap="round" stroke-linejoin="round"/>
<path d="M130.892 302.142L199.882 303.97" stroke="#4A4A4A" stroke-linecap="round" stroke-linejoin="round"/>
<path d="M130.848 308.014L189.693 309.571" stroke="#4A4A4A" stroke-linecap="round" stroke-linejoin="round"/>
<path d="M131.016 313.752L136.714 313.94L136.769 319.872L131.071 319.685L131.016 313.752Z" stroke="#4A4A4A" stroke-linecap="round" stroke-linejoin="round"/>
<path d="M141.185 313.858L146.884 314.046L146.94 319.979L141.241 319.791L141.185 313.858Z" stroke="#4A4A4A" stroke-linecap="round" stroke-linejoin="round"/>
<path d="M151.357 313.953L157.056 314.141L157.112 320.074L151.413 319.886L151.357 313.953Z" stroke="#4A4A4A" stroke-linecap="round" stroke-linejoin="round"/>
<path d="M161.528 314.073L167.226 314.261L167.282 320.193L161.583 320.006L161.528 314.073Z" stroke="#4A4A4A" stroke-linecap="round" stroke-linejoin="round"/>
<path d="M127.288 297.765C127.297 298.589 126.662 299.238 125.87 299.212C125.079 299.187 124.431 298.499 124.422 297.674C124.414 296.852 125.047 296.204 125.837 296.227C126.629 296.251 127.278 296.938 127.288 297.763C127.288 297.763 127.288 297.764 127.288 297.765Z" fill="#4A4A4A"/>
<path d="M130.693 326.105L199.682 327.944" stroke="#4A4A4A" stroke-linecap="round" stroke-linejoin="round"/>
<path d="M130.652 331.067L199.642 332.895" stroke="#4A4A4A" stroke-linecap="round" stroke-linejoin="round"/>
<path d="M130.609 336.938L189.454 338.497" stroke="#4A4A4A" stroke-linecap="round" stroke-linejoin="round"/>
<path d="M130.774 342.683L136.472 342.871L136.527 348.804L130.829 348.617L130.774 342.683Z" stroke="#4A4A4A" stroke-linecap="round" stroke-linejoin="round"/>
<path d="M140.946 342.779L146.644 342.966L146.7 348.9L141.001 348.712L140.946 342.779Z" stroke="#4A4A4A" stroke-linecap="round" stroke-linejoin="round"/>
<path d="M151.116 342.886L156.814 343.073L156.87 349.006L151.171 348.819L151.116 342.886Z" stroke="#4A4A4A" stroke-linecap="round" stroke-linejoin="round"/>
<path d="M161.288 342.982L166.987 343.169L167.042 349.103L161.343 348.916L161.288 342.982Z" stroke="#4A4A4A" stroke-linecap="round" stroke-linejoin="round"/>
<path d="M127.037 326.689C127.041 327.507 126.407 328.145 125.621 328.115C124.836 328.085 124.196 327.398 124.192 326.581C124.189 325.763 124.823 325.125 125.608 325.155C126.393 325.185 127.034 325.872 127.037 326.689Z" fill="#4A4A4A"/>
<path d="M130.45 355.866L199.44 357.694" stroke="#4A4A4A" stroke-linecap="round" stroke-linejoin="round"/>
<path d="M130.409 360.817L199.398 362.655" stroke="#4A4A4A" stroke-linecap="round" stroke-linejoin="round"/>
<path d="M130.355 366.687L189.198 368.256" stroke="#4A4A4A" stroke-linecap="round" stroke-linejoin="round"/>
<path d="M130.526 372.439L136.225 372.627L136.281 378.56L130.582 378.373L130.526 372.439Z" stroke="#4A4A4A" stroke-linecap="round" stroke-linejoin="round"/>
<path d="M140.708 372.547L146.406 372.734L146.462 378.668L140.763 378.48L140.708 372.547Z" stroke="#4A4A4A" stroke-linecap="round" stroke-linejoin="round"/>
<path d="M150.868 372.63L156.567 372.817L156.623 378.751L150.924 378.564L150.868 372.63Z" stroke="#4A4A4A" stroke-linecap="round" stroke-linejoin="round"/>
<path d="M161.041 372.725L166.739 372.912L166.794 378.845L161.096 378.659L161.041 372.725Z" stroke="#4A4A4A" stroke-linecap="round" stroke-linejoin="round"/>
<path d="M126.795 356.438C126.811 357.263 126.181 357.917 125.389 357.898C124.598 357.88 123.944 357.197 123.929 356.373C123.914 355.549 124.543 354.895 125.334 354.913C125.341 354.913 125.347 354.914 125.353 354.914C126.139 354.937 126.785 355.618 126.795 356.436C126.795 356.437 126.795 356.437 126.795 356.438Z" fill="#4A4A4A"/>
<path d="M133.312 287.227L134.129 288.543L136.954 284.981" stroke="#4A4A4A" stroke-linecap="round" stroke-linejoin="round"/>
<path d="M153.42 315.985L154.236 317.301L157.051 313.737" stroke="#4A4A4A" stroke-linecap="round" stroke-linejoin="round"/>
<path d="M142.998 345.417L143.814 346.732L146.641 343.171" stroke="#4A4A4A" stroke-linecap="round" stroke-linejoin="round"/>
<path d="M162.968 375.126L163.785 376.441L166.611 372.88" stroke="#4A4A4A" stroke-linecap="round" stroke-linejoin="round"/>
<path d="M370.726 440.048C361.207 446.744 353.22 455.675 347.363 466.17C337.65 483.624 329.954 508.18 341.905 511.291L353.271 510.827L375.146 502.741L372.853 497.992C372.853 497.992 353.702 508.916 350.428 508.916C347.153 508.916 342.886 509.794 341.089 508.381C339.292 506.968 347.384 475.23 364.706 464.65C382.026 454.07 370.726 440.048 370.726 440.048Z" fill="#7E59C2"/>
<path d="M370.726 440.048C361.207 446.744 353.22 455.675 347.363 466.17C337.65 483.624 329.954 508.18 341.905 511.291L353.271 510.827L375.146 502.741L372.853 497.992C372.853 497.992 353.702 508.916 350.428 508.916C347.153 508.916 342.886 509.794 341.089 508.381C339.292 506.968 347.384 475.23 364.706 464.65C382.026 454.07 370.726 440.048 370.726 440.048Z" stroke="#4A4A4A" stroke-width="2" stroke-linecap="round" stroke-linejoin="round"/>
<path d="M383.173 428.602C383.173 428.602 383.172 423.484 390.372 422.784C397.571 422.083 398.597 429.551 398.597 429.551H396.116C396.116 429.551 396.171 425.076 390.879 424.732C385.587 424.387 385.785 429.551 385.785 429.551L383.173 428.602Z" fill="#7E59C2"/>
<path d="M383.173 428.602C383.173 428.602 383.172 423.484 390.372 422.784C397.571 422.083 398.597 429.551 398.597 429.551H396.116C396.116 429.551 396.171 425.076 390.879 424.732C385.587 424.387 385.785 429.551 385.785 429.551L383.173 428.602Z" stroke="#4A4A4A" stroke-width="2" stroke-linecap="round" stroke-linejoin="round"/>
<path d="M372.523 511.29C357.297 511.29 360.185 437.757 361.938 434.111C363.692 430.466 407.87 428.65 412.225 430.193C416.58 431.736 434.043 504.997 424.407 510.851L372.523 511.29Z" fill="#7E59C2"/>
<path d="M372.523 511.29C357.297 511.29 360.185 437.757 361.938 434.111C363.692 430.466 407.87 428.65 412.225 430.193C416.58 431.736 434.043 504.997 424.407 510.851L372.523 511.29Z" stroke="#4A4A4A" stroke-width="2" stroke-linecap="round" stroke-linejoin="round"/>
<path d="M361.938 434.027C367.451 435.298 370.627 459.366 378.046 465.493C385.467 471.62 420.449 470.302 424.408 465.493C428.366 460.684 420.626 433.683 415.003 429.551C409.381 425.419 405.379 429.433 389.557 427.545C366.107 424.731 361.938 434.027 361.938 434.027Z" fill="#7E59C2"/>
<path d="M361.938 434.027C367.451 435.298 370.627 459.366 378.046 465.493C385.467 471.62 420.449 470.302 424.408 465.493C428.366 460.684 420.626 433.683 415.003 429.551C409.381 425.419 405.379 429.433 389.557 427.545C366.107 424.731 361.938 434.027 361.938 434.027Z" stroke="#4A4A4A" stroke-width="2" stroke-linecap="round" stroke-linejoin="round"/>
<path d="M402.093 447.861L408.576 453.56C408.947 453.9 408.993 454.499 408.677 454.899C408.677 454.9 408.675 454.901 408.675 454.902L403.625 460.767C403.29 461.127 402.749 461.127 402.413 460.767L395.963 454.296C395.635 453.933 395.635 453.354 395.963 452.99L400.957 447.992C401.25 447.645 401.739 447.588 402.093 447.861Z" fill="#7E59C2"/>
<path d="M402.093 447.861L408.576 453.56C408.947 453.9 408.993 454.499 408.677 454.899C408.677 454.9 408.675 454.901 408.675 454.902L403.625 460.767C403.29 461.127 402.749 461.127 402.413 460.767L395.963 454.296C395.635 453.933 395.635 453.354 395.963 452.99L400.957 447.992C401.25 447.645 401.739 447.588 402.093 447.861Z" stroke="#4A4A4A" stroke-width="2" stroke-linecap="round" stroke-linejoin="round"/>
<path d="M380.714 477.794C380.714 477.794 410.02 480.395 424.407 476.382C426.333 478.014 427.764 480.224 428.52 482.734C429.832 486.961 432.567 501.423 424.407 505.128C416.249 508.833 386.921 508.12 383.007 503.941C379.093 499.761 380.714 477.794 380.714 477.794Z" fill="#7E59C2"/>
<path d="M380.714 477.794C380.714 477.794 410.02 480.395 424.407 476.382C426.333 478.014 427.764 480.224 428.52 482.734C429.832 486.961 432.567 501.423 424.407 505.128C416.249 508.833 386.921 508.12 383.007 503.941C379.093 499.761 380.714 477.794 380.714 477.794Z" stroke="#4A4A4A" stroke-width="2" stroke-linecap="round" stroke-linejoin="round"/>
<path d="M380.713 477.794C380.713 477.794 384.153 487.78 385.951 489.312C387.748 490.844 425.818 490.844 430.052 487.139C434.285 483.435 428.486 476.738 424.418 476.381C424.407 476.381 397.737 479.73 380.713 477.794Z" fill="#7E59C2"/>
<path d="M380.713 477.794C380.713 477.794 384.153 487.78 385.951 489.312C387.748 490.844 425.818 490.844 430.052 487.139C434.285 483.435 428.486 476.738 424.418 476.381C424.407 476.381 397.737 479.73 380.713 477.794Z" stroke="#4A4A4A" stroke-width="2" stroke-linecap="round" stroke-linejoin="round"/>
<path d="M368.432 475.669C368.432 475.669 369.414 496.65 371.376 501.411C368.42 503.073 364.895 503.073 361.938 501.411C356.977 498.586 357.792 480.514 358.774 480.561C359.755 480.609 368.432 475.669 368.432 475.669Z" fill="#7E59C2"/>
<path d="M368.432 475.669C368.432 475.669 369.414 496.65 371.376 501.411C368.42 503.073 364.895 503.073 361.938 501.411C356.977 498.586 357.792 480.514 358.774 480.561C359.755 480.609 368.432 475.669 368.432 475.669Z" stroke="#4A4A4A" stroke-width="2" stroke-linecap="round" stroke-linejoin="round"/>
<path d="M368.432 475.669L361.056 477.261C361.056 477.261 354.022 483.078 357.132 485.013C360.241 486.949 368.256 482.199 368.432 475.669Z" fill="#7E59C2"/>
<path d="M368.432 475.669L361.056 477.261C361.056 477.261 354.022 483.078 357.132 485.013C360.241 486.949 368.256 482.199 368.432 475.669Z" stroke="#4A4A4A" stroke-width="2" stroke-linecap="round" stroke-linejoin="round"/>
<path d="M145.557 440.546C145.557 440.546 130.913 449.745 135.141 461.47C135.141 461.47 153.567 460.577 145.557 440.546Z" fill="#7E59C2"/>
<path d="M145.557 440.546C145.557 440.546 130.913 449.745 135.141 461.47C135.141 461.47 153.567 460.577 145.557 440.546Z" stroke="#4A4A4A" stroke-width="2" stroke-linecap="round" stroke-linejoin="round"/>
<path d="M142.946 448.286C142.946 448.286 139.126 460.381 131.674 464.078" stroke="#4A4A4A" stroke-width="2" stroke-linecap="round" stroke-linejoin="round"/>
<path d="M121.112 450.51C121.112 450.51 113.815 436.124 98.1532 439.425C98.1532 439.425 104.954 456.354 121.112 450.51Z" fill="#7E59C2"/>
<path d="M121.112 450.51C121.112 450.51 113.815 436.124 98.1532 439.425C98.1532 439.425 104.954 456.354 121.112 450.51Z" stroke="#4A4A4A" stroke-width="2" stroke-linecap="round" stroke-linejoin="round"/>
<path d="M104.889 443.537C104.889 443.537 121.779 452.101 129.048 451.872" stroke="#4A4A4A" stroke-width="2" stroke-linecap="round" stroke-linejoin="round"/>
<path d="M98.9331 408.953C98.9331 408.953 95.662 434.25 117.615 428.185C117.615 428.185 111.155 409.203 98.9331 408.953Z" fill="#7E59C2"/>
<path d="M98.9331 408.953C98.9331 408.953 95.662 434.25 117.615 428.185C117.615 428.185 111.155 409.203 98.9331 408.953Z" stroke="#4A4A4A" stroke-width="2" stroke-linecap="round" stroke-linejoin="round"/>
<path d="M104.574 419.398C104.574 419.398 110.808 429.018 121.784 428.443" stroke="#4A4A4A" stroke-width="2" stroke-linecap="round" stroke-linejoin="round"/>
<path d="M141.22 413.773C141.22 413.773 122.259 416.955 125.647 434.402C125.647 434.402 144.384 430.059 141.22 413.773Z" fill="#7E59C2"/>
<path d="M141.22 413.773C141.22 413.773 122.259 416.955 125.647 434.402C125.647 434.402 144.384 430.059 141.22 413.773Z" stroke="#4A4A4A" stroke-width="2" stroke-linecap="round" stroke-linejoin="round"/>
<path d="M136.301 420.127C136.301 420.127 125.965 427.69 124.447 440.463" stroke="#4A4A4A" stroke-width="2" stroke-linecap="round" stroke-linejoin="round"/>
<path d="M148.414 474.315H110.917L114.841 511.232H144.488L148.414 474.315Z" fill="#4A4A4A"/>
<path d="M148.414 474.315H110.917L114.841 511.232H144.488L148.414 474.315Z" stroke="#4A4A4A" stroke-width="2" stroke-linecap="round" stroke-linejoin="round"/>
<path d="M109.307 473.496H150.024V478.709H109.307V473.496Z" fill="#4A4A4A"/>
<path d="M109.307 473.496H150.024V478.709H109.307V473.496Z" stroke="#4A4A4A" stroke-width="2" stroke-linecap="round" stroke-linejoin="round"/>
<path d="M125.431 395.532C125.431 395.532 108.133 405.197 120.659 420.477C120.648 420.477 132.804 409.889 125.431 395.532Z" fill="#7E59C2"/>
<path d="M125.431 395.532C125.431 395.532 108.133 405.197 120.659 420.477C120.648 420.477 132.804 409.889 125.431 395.532Z" stroke="#4A4A4A" stroke-width="2" stroke-linecap="round" stroke-linejoin="round"/>
<path d="M128.039 489.534C128.039 489.534 136.821 470.49 128.732 450.827C120.643 431.165 117.983 414.66 122.448 403.133" stroke="#4A4A4A" stroke-width="2" stroke-linecap="round" stroke-linejoin="round"/>
<path d="M318.896 266.898C323.653 251.196 318.452 225.899 291.756 233.729C276.095 238.337 275.314 258.308 281.099 266.518C286.885 274.729 281.291 275.611 289.61 281.259C292.988 283.547 295.839 287.738 299.7 287.614C304.294 287.446 309.895 282.345 313.991 277.043" fill="white"/>
<path d="M318.896 266.898C323.653 251.196 318.452 225.899 291.756 233.729C276.095 238.337 275.314 258.308 281.099 266.518C286.885 274.729 281.291 275.611 289.61 281.259C292.988 283.547 295.839 287.738 299.7 287.614C304.294 287.446 309.895 282.345 313.991 277.043" stroke="#4A4A4A" stroke-width="2" stroke-linecap="round" stroke-linejoin="round"/>
<path d="M288.034 271.266C288.034 271.266 287.631 274.349 287.048 277.487C286.466 280.625 291.879 278.365 291.626 277.923" fill="white"/>
<path d="M288.034 271.266C288.034 271.266 287.631 274.349 287.048 277.487C286.466 280.625 291.879 278.365 291.626 277.923" stroke="#4A4A4A" stroke-width="2" stroke-linecap="round" stroke-linejoin="round"/>
<path d="M294.583 281.663C296.841 280.741 298.805 279.147 300.218 277.09" stroke="#4A4A4A" stroke-width="2" stroke-linecap="round" stroke-linejoin="round"/>
<path d="M300.881 248.436C300.881 248.436 297.37 260.091 287.085 260.942C287.085 260.942 290.486 257.76 291.315 254.982C291.315 254.982 283.872 263.895 275.744 260.643C267.616 257.392 270.397 237.899 282.079 229.063C293.761 220.227 306.268 220.91 310.878 227.658C310.878 227.658 319.317 225.94 323.795 238.405C327.804 249.564 323.446 267.603 318.221 268.361C310.123 269.546 307.972 260.632 307.972 260.632C304.419 257.476 301.943 253.217 300.881 248.436Z" fill="#4A4A4A"/>
<path d="M300.881 248.436C300.881 248.436 297.37 260.091 287.085 260.942C287.085 260.942 290.486 257.76 291.315 254.982C291.315 254.982 283.872 263.895 275.744 260.643C267.616 257.392 270.397 237.899 282.079 229.063C293.761 220.227 306.268 220.91 310.878 227.658C310.878 227.658 319.317 225.94 323.795 238.405C327.804 249.564 323.446 267.603 318.221 268.361C310.123 269.546 307.972 260.632 307.972 260.632C304.419 257.476 301.943 253.217 300.881 248.436Z" stroke="#4A4A4A" stroke-width="2" stroke-linecap="round" stroke-linejoin="round"/>
<path d="M310.967 268.306C310.967 268.306 310.094 257.637 316.074 258.295C322.054 258.954 318.483 271.778 314.037 272.127" fill="white"/>
<path d="M310.967 268.306C310.967 268.306 310.094 257.637 316.074 258.295C322.054 258.954 318.483 271.778 314.037 272.127" stroke="#4A4A4A" stroke-width="2" stroke-linecap="round" stroke-linejoin="round"/>
<path d="M298.035 268.65C298.406 269.228 298.241 270.03 297.668 270.44L297.665 270.442C297.087 270.844 296.324 270.701 295.954 270.122C295.842 269.954 295.775 269.755 295.763 269.546C295.393 268.968 295.557 268.168 296.131 267.758C296.132 267.757 296.132 267.757 296.133 267.756C296.712 267.354 297.475 267.495 297.844 268.075C297.957 268.243 298.023 268.441 298.035 268.65Z" fill="#4A4A4A"/>
<path d="M286.275 269.388C286.55 270.205 286.438 271.017 286.014 271.18C285.591 271.342 285.025 270.815 284.805 269.98C284.586 269.145 284.654 268.35 285.077 268.187C285.501 268.024 285.977 268.562 286.275 269.388Z" fill="#4A4A4A"/>
<path d="M292.264 265.235C292.264 265.235 295.956 261.244 300.695 262.256" stroke="#4A4A4A" stroke-width="2" stroke-linecap="round" stroke-linejoin="round"/>
<path d="M285.017 265.739C283.834 263.909 281.869 262.792 279.705 262.719" stroke="#4A4A4A" stroke-width="2" stroke-linecap="round" stroke-linejoin="round"/>
<path d="M251.763 315.599C251.763 315.599 258.985 317.534 261.201 319.161C263.417 320.788 262.778 326.666 262.778 326.666C262.778 326.666 253.153 323.745 251.763 315.599Z" fill="white"/>
<path d="M251.763 315.599C251.763 315.599 258.985 317.534 261.201 319.161C263.417 320.788 262.778 326.666 262.778 326.666C262.778 326.666 253.153 323.745 251.763 315.599Z" stroke="#4A4A4A" stroke-width="2" stroke-linecap="round" stroke-linejoin="round"/>
<path d="M247.156 300.698L260.584 328.435H262.171L249.416 299.333L247.156 300.698Z" fill="#4A4A4A"/>
<path d="M259.261 320.752C259.261 320.752 250.794 314.27 248.721 314.27C246.648 314.27 240.441 322.166 240.441 326.144C240.441 330.122 253.979 332.294 256.625 328.934C257.949 327.259 255.325 323.222 255.325 323.222C256.901 325.029 258.592 326.715 260.385 328.269C261.488 328.934 263.593 328.067 263.593 328.067C263.593 328.067 260.772 323.199 259.261 320.752Z" fill="white"/>
<path d="M259.261 320.752C259.261 320.752 250.794 314.27 248.721 314.27C246.648 314.27 240.441 322.166 240.441 326.144C240.441 330.122 253.979 332.294 256.625 328.934C257.949 327.259 255.325 323.222 255.325 323.222C256.901 325.029 258.592 326.715 260.385 328.269C261.488 328.934 263.593 328.067 263.593 328.067C263.593 328.067 260.772 323.199 259.261 320.752Z" stroke="#4A4A4A" stroke-width="2" stroke-linecap="round" stroke-linejoin="round"/>
<path d="M255.324 329.847C253.372 327.177 250.975 324.924 248.257 323.199" stroke="#4A4A4A" stroke-width="2" stroke-linecap="round" stroke-linejoin="round"/>
<path d="M255.324 323.198C255.324 323.198 252.391 320.444 250.417 319.838" stroke="#4A4A4A" stroke-width="2" stroke-linecap="round" stroke-linejoin="round"/>
<path d="M246.096 326.701C248.147 327.833 250.124 329.11 252.017 330.525" stroke="#4A4A4A" stroke-width="2" stroke-linecap="round" stroke-linejoin="round"/>
<path d="M273.625 330.465C273.625 330.465 277.837 323.436 281.695 322.023C285.555 320.61 296.889 320.491 298.642 320.444C300.394 320.396 331.541 328.922 346.16 334.17L344.881 307.893L364.528 309.568C364.528 309.568 363.734 341.626 360.681 350.116C357.627 358.606 353.25 356.54 345.786 353.073C316.425 339.454 299.225 329.967 297.627 330.512C296.029 331.059 273.625 330.465 273.625 330.465Z" fill="white"/>
<path d="M273.625 330.465C273.625 330.465 277.837 323.436 281.695 322.023C285.555 320.61 296.889 320.491 298.642 320.444C300.394 320.396 331.541 328.922 346.16 334.17L344.881 307.893L364.528 309.568C364.528 309.568 363.734 341.626 360.681 350.116C357.627 358.606 353.25 356.54 345.786 353.073C316.425 339.454 299.225 329.967 297.627 330.512C296.029 331.059 273.625 330.465 273.625 330.465Z" stroke="#4A4A4A" stroke-width="2" stroke-linecap="round" stroke-linejoin="round"/>
<path d="M339.976 292.624C339.462 294.803 339.298 297.059 339.491 299.298C340.362 307.514 344.077 327.248 344.077 327.248C344.077 327.248 362.39 330.062 366.646 334.526C366.646 334.526 369.667 308.405 363.515 295.142C357.363 281.879 351.002 280.419 351.002 280.419C346.977 279.35 343.283 283.387 341.244 288.576" fill="white"/>
<path d="M339.976 292.624C339.463 294.803 339.299 297.059 339.491 299.298C340.362 307.514 344.078 327.248 344.078 327.248C344.078 327.248 362.39 330.062 366.646 334.526C366.646 334.526 369.667 308.405 363.515 295.142C357.363 281.879 351.002 280.419 351.002 280.419C346.977 279.35 343.283 283.387 341.244 288.576" stroke="#4A4A4A" stroke-width="2" stroke-linecap="round" stroke-linejoin="round"/>
<path d="M344.077 302.788C344.077 302.788 350.692 316.253 359.049 319.221" stroke="#4A4A4A" stroke-width="2" stroke-linecap="round" stroke-linejoin="round"/>
<path d="M339.976 292.624C339.463 294.803 339.299 297.059 339.491 299.298C340.362 307.514 344.078 327.248 344.078 327.248C344.078 327.248 362.39 330.062 366.646 334.526C366.646 334.526 369.667 308.405 363.515 295.142C357.363 281.879 351.002 280.419 351.002 280.419C346.977 279.35 343.283 283.387 341.244 288.576" fill="#7E59C2"/>
<path d="M339.976 292.624C339.463 294.803 339.299 297.059 339.491 299.298C340.362 307.514 344.078 327.248 344.078 327.248C344.078 327.248 362.39 330.062 366.646 334.526C366.646 334.526 369.667 308.405 363.515 295.142C357.363 281.879 351.002 280.419 351.002 280.419C346.977 279.35 343.283 283.387 341.244 288.576" stroke="#4A4A4A" stroke-width="2" stroke-linecap="round" stroke-linejoin="round"/>
<path d="M215.531 329.278H304.427C305.421 329.278 306.224 330.145 306.224 331.214V334.55C306.224 335.619 305.421 336.486 304.427 336.486H215.531C214.539 336.486 213.734 335.619 213.734 334.55V331.214C213.734 330.145 214.539 329.278 215.531 329.278Z" fill="#7E59C2"/>
<path d="M215.531 329.278H304.427C305.421 329.278 306.224 330.145 306.224 331.214V334.55C306.224 335.619 305.421 336.486 304.427 336.486H215.531C214.539 336.486 213.734 335.619 213.734 334.55V331.214C213.734 330.145 214.539 329.278 215.531 329.278Z" stroke="#4A4A4A" stroke-width="2" stroke-linecap="round" stroke-linejoin="round"/>
</svg>
