<svg width="61" height="61" viewBox="0 0 61 61" fill="none" xmlns="http://www.w3.org/2000/svg">
<path d="M49.8717 49.3227C50.216 48.4262 50.0152 47.382 49.2632 46.6528C48.0871 45.5132 46.0627 45.6377 45.069 47.0456C44.4748 47.8895 44.4809 49.031 45.0854 49.8711C45.8168 50.892 47.1036 51.2265 48.2018 50.8745L51.6236 53.5172C52.2752 54.0247 53.1398 53.2099 52.6153 52.5838L49.8717 49.3227Z" fill="white" fill-opacity="0.6"/>
<path d="M58.006 39.6404L58.3502 39.9671C58.9547 40.5408 59.9382 40.5408 60.5467 39.9671C61.1512 39.3896 61.1512 38.4581 60.5467 37.8825L58.3933 35.8387C57.7868 35.2612 56.8053 35.2612 56.1968 35.8387C55.5882 36.4163 55.5882 37.3477 56.1968 37.9233L56.541 38.25L55.8566 38.8995C53.9347 37.3613 51.5436 36.3365 48.9147 36.0429V34.0264H50.5355C51.3919 34.0264 52.0906 33.3671 52.0906 32.5524C52.0906 31.7376 51.394 31.0745 50.5355 31.0745H44.1898C43.3293 31.0745 42.6367 31.7376 42.6367 32.5524C42.6367 33.3671 43.3293 34.0264 44.1898 34.0264H45.8065V36.0429C39.2641 36.7741 34.1642 42.0673 34.1642 48.4747C34.1642 55.3839 40.0837 60.9999 47.3616 60.9999C54.6396 60.9999 60.559 55.3781 60.559 48.4747C60.559 45.3439 59.3317 42.4854 57.3258 40.286L58.006 39.6404ZM57.4528 48.4747C57.4528 53.7543 52.9287 58.0499 47.3637 58.0499C41.7987 58.0499 37.2725 53.7543 37.2725 48.4747C37.2725 43.1932 41.7987 38.8956 47.3637 38.8956C52.9287 38.8956 57.4528 43.1932 57.4528 48.4747Z" fill="white" fill-opacity="0.6"/>
<path d="M12.1157 14.7731C14.388 14.7731 16.2321 13.0249 16.2321 10.8664V3.90864C16.2321 1.75014 14.388 0 12.1157 0C9.84138 0 7.99731 1.74819 7.99731 3.90864V10.8664C7.99936 13.0249 9.84343 14.7731 12.1157 14.7731Z" fill="white" fill-opacity="0.6"/>
<path d="M41.4751 14.7731C43.7474 14.7731 45.5935 13.0249 45.5935 10.8664V3.90864C45.5935 1.75014 43.7495 0 41.4751 0C39.2008 0 37.3567 1.74819 37.3567 3.90864V10.8664C37.3567 13.0249 39.2028 14.7731 41.4751 14.7731Z" fill="white" fill-opacity="0.6"/>
<path d="M20.7273 50.857V39.0397H32.8613V44.8735C34.0927 40.4126 37.5145 36.7567 42.0694 35.133H36.9797V23.4712H49.4764V29.3342H50.5398C51.89 29.3342 53.0518 30.0965 53.5927 31.1835V7.38745H47.6569V10.8663C47.6569 14.0983 44.8826 16.7274 41.4793 16.7274C38.0739 16.7274 35.3016 14.0983 35.3016 10.8663V7.38745H18.2952V10.8663C18.2952 14.0983 15.523 16.7274 12.1196 16.7274C8.71425 16.7274 5.942 14.0983 5.942 10.8663V7.38745H0V54.7656H33.896C33.2588 53.5503 32.808 52.2396 32.5622 50.8589L20.7273 50.857ZM20.7273 23.4732H32.8613V35.1349H20.7273V23.4732ZM16.6089 50.857H4.11842V39.0397H16.6089V50.857ZM16.6089 35.1349H4.11842V23.4732H16.6089V35.1349Z" fill="white" fill-opacity="0.6"/>
</svg>
