<svg width="404" height="503" viewBox="0 0 404 503" fill="none" xmlns="http://www.w3.org/2000/svg">
<path d="M387.477 180.654H299.466C299.466 180.654 308.192 150.391 321.622 150.391C335.052 150.391 339.259 171.28 339.259 171.28C339.259 171.28 348.32 159.93 355.763 159.93C363.206 159.93 369.679 174.928 369.679 174.928C369.679 174.928 380.196 166.863 387.477 180.654Z" fill="#ECECEC"/>
<path d="M361.721 62.1273H320.591C320.591 62.1273 329.781 45.2207 337.022 45.2207C344.263 45.2207 346.403 56.492 346.403 56.492C346.403 56.492 351.513 51.2318 356.247 52.1711C360.981 53.1104 361.721 62.1273 361.721 62.1273Z" fill="#ECECEC"/>
<path d="M134.114 139.205H54C54 139.205 64.9709 108.106 76.7073 106.162C88.4437 104.218 94.0564 129.271 94.0564 129.271C94.0564 129.271 101.626 120.416 107.579 120.416C113.533 120.416 118.125 132.079 118.125 132.079C118.125 132.079 130.032 124.088 134.114 139.205Z" fill="#ECECEC"/>
<path d="M118.47 23.0204H64.3513C64.3513 23.0204 73.6473 0.488335 83.7323 0.159871C93.8173 -0.168593 99.1184 17.2123 99.1184 17.2123C99.1184 17.2123 114.806 1.22754 118.47 23.0204Z" fill="#ECECEC"/>
<path d="M105.452 180.708H71.1508C71.1508 180.708 77.0431 165.5 83.4351 165.278C89.8271 165.057 93.187 176.788 93.187 176.788C93.187 176.788 103.13 165.999 105.452 180.708Z" fill="#ECECEC"/>
<path d="M96.1637 193.329V496.333H52.5202V193.329H96.1637Z" fill="#ECECEC"/>
<path d="M96.1639 187.296V193.329H51.4706V187.296H96.1639Z" fill="#C8C8C8"/>
<path d="M60.8879 202.223V496.333H56.4661V202.223H60.8879Z" fill="white"/>
<path d="M68.7206 202.223V496.333H64.2988V202.223H68.7206Z" fill="white"/>
<path d="M76.5528 202.223V496.333H72.131V202.223H76.5528Z" fill="white"/>
<path d="M84.3855 202.223V496.333H79.9637V202.223H84.3855Z" fill="white"/>
<path d="M92.2178 202.223V496.333H87.7959V202.223H92.2178Z" fill="white"/>
<path d="M60.8879 209.846V221.756H56.4661V209.846H60.8879Z" fill="#ECECEC"/>
<path d="M68.7206 209.846V221.756H64.2988V209.846H68.7206Z" fill="#ECECEC"/>
<path d="M76.5528 209.846V221.756H72.131V209.846H76.5528Z" fill="#ECECEC"/>
<path d="M84.3855 209.846V221.756H79.9637V209.846H84.3855Z" fill="#ECECEC"/>
<path d="M92.2178 209.846V221.756H87.7959V209.846H92.2178Z" fill="#ECECEC"/>
<path d="M60.8879 229.204V241.115H56.4661V229.204H60.8879Z" fill="#ECECEC"/>
<path d="M68.7206 229.204V241.115H64.2988V229.204H68.7206Z" fill="#ECECEC"/>
<path d="M76.5528 229.204V241.115H72.131V229.204H76.5528Z" fill="#ECECEC"/>
<path d="M84.3855 229.204V241.115H79.9637V229.204H84.3855Z" fill="#ECECEC"/>
<path d="M92.2178 229.204V241.115H87.7959V229.204H92.2178Z" fill="#ECECEC"/>
<path d="M60.8879 248.562V260.472H56.4661V248.562H60.8879Z" fill="#ECECEC"/>
<path d="M68.7206 248.562V260.472H64.2988V248.562H68.7206Z" fill="#ECECEC"/>
<path d="M76.5528 248.562V260.472H72.131V248.562H76.5528Z" fill="#ECECEC"/>
<path d="M84.3855 248.562V260.472H79.9637V248.562H84.3855Z" fill="#ECECEC"/>
<path d="M92.2178 248.562V260.472H87.7959V248.562H92.2178Z" fill="#ECECEC"/>
<path d="M60.8879 267.919V279.83H56.4661V267.919H60.8879Z" fill="#ECECEC"/>
<path d="M68.7206 267.919V279.83H64.2988V267.919H68.7206Z" fill="#ECECEC"/>
<path d="M76.5528 267.919V279.83H72.131V267.919H76.5528Z" fill="#ECECEC"/>
<path d="M84.3855 267.919V279.83H79.9637V267.919H84.3855Z" fill="#ECECEC"/>
<path d="M92.2178 267.919V279.83H87.7959V267.919H92.2178Z" fill="#ECECEC"/>
<path d="M60.8879 287.276V299.187H56.4661V287.276H60.8879Z" fill="#ECECEC"/>
<path d="M68.7206 287.276V299.187H64.2988V287.276H68.7206Z" fill="#ECECEC"/>
<path d="M76.5528 287.276V299.187H72.131V287.276H76.5528Z" fill="#ECECEC"/>
<path d="M84.3855 287.276V299.187H79.9637V287.276H84.3855Z" fill="#ECECEC"/>
<path d="M92.2178 287.276V299.187H87.7959V287.276H92.2178Z" fill="#ECECEC"/>
<path d="M60.8879 306.634V318.544H56.4661V306.634H60.8879Z" fill="#ECECEC"/>
<path d="M68.7206 306.634V318.544H64.2988V306.634H68.7206Z" fill="#ECECEC"/>
<path d="M76.5528 306.634V318.544H72.131V306.634H76.5528Z" fill="#ECECEC"/>
<path d="M84.3855 306.634V318.544H79.9637V306.634H84.3855Z" fill="#ECECEC"/>
<path d="M92.2178 306.634V318.544H87.7959V306.634H92.2178Z" fill="#ECECEC"/>
<path d="M60.8879 325.991V337.902H56.4661V325.991H60.8879Z" fill="#ECECEC"/>
<path d="M68.7206 325.991V337.902H64.2988V325.991H68.7206Z" fill="#ECECEC"/>
<path d="M76.5528 325.991V337.902H72.131V325.991H76.5528Z" fill="#ECECEC"/>
<path d="M84.3855 325.991V337.902H79.9637V325.991H84.3855Z" fill="#ECECEC"/>
<path d="M92.2178 325.991V337.902H87.7959V325.991H92.2178Z" fill="#ECECEC"/>
<path d="M60.8879 345.35V357.26H56.4661V345.35H60.8879Z" fill="#ECECEC"/>
<path d="M68.7206 345.35V357.26H64.2988V345.35H68.7206Z" fill="#ECECEC"/>
<path d="M76.5528 345.35V357.26H72.131V345.35H76.5528Z" fill="#ECECEC"/>
<path d="M84.3855 345.35V357.26H79.9637V345.35H84.3855Z" fill="#ECECEC"/>
<path d="M92.2178 345.35V357.26H87.7959V345.35H92.2178Z" fill="#ECECEC"/>
<path d="M60.8879 364.707V376.618H56.4661V364.707H60.8879Z" fill="#ECECEC"/>
<path d="M68.7206 364.707V376.618H64.2988V364.707H68.7206Z" fill="#ECECEC"/>
<path d="M76.5528 364.707V376.618H72.131V364.707H76.5528Z" fill="#ECECEC"/>
<path d="M84.3855 364.707V376.618H79.9637V364.707H84.3855Z" fill="#ECECEC"/>
<path d="M92.2178 364.707V376.618H87.7959V364.707H92.2178Z" fill="#ECECEC"/>
<path d="M60.8879 384.065V395.976H56.4661V384.065H60.8879Z" fill="#ECECEC"/>
<path d="M68.7206 384.065V395.976H64.2988V384.065H68.7206Z" fill="#ECECEC"/>
<path d="M76.5528 384.065V395.976H72.131V384.065H76.5528Z" fill="#ECECEC"/>
<path d="M84.3855 384.065V395.976H79.9637V384.065H84.3855Z" fill="#ECECEC"/>
<path d="M92.2178 384.065V395.976H87.7959V384.065H92.2178Z" fill="#ECECEC"/>
<path d="M60.8879 403.423V415.334H56.4661V403.423H60.8879Z" fill="#ECECEC"/>
<path d="M68.7206 403.423V415.334H64.2988V403.423H68.7206Z" fill="#ECECEC"/>
<path d="M76.5528 403.423V415.334H72.131V403.423H76.5528Z" fill="#ECECEC"/>
<path d="M84.3855 403.423V415.334H79.9637V403.423H84.3855Z" fill="#ECECEC"/>
<path d="M92.2178 403.423V415.334H87.7959V403.423H92.2178Z" fill="#ECECEC"/>
<path d="M60.8879 422.78V434.691H56.4661V422.78H60.8879Z" fill="#ECECEC"/>
<path d="M68.7206 422.78V434.691H64.2988V422.78H68.7206Z" fill="#ECECEC"/>
<path d="M76.5528 422.78V434.691H72.131V422.78H76.5528Z" fill="#ECECEC"/>
<path d="M84.3855 422.78V434.691H79.9637V422.78H84.3855Z" fill="#ECECEC"/>
<path d="M92.2178 422.78V434.691H87.7959V422.78H92.2178Z" fill="#ECECEC"/>
<path d="M60.8879 442.138V454.048H56.4661V442.138H60.8879Z" fill="#ECECEC"/>
<path d="M68.7206 442.138V454.048H64.2988V442.138H68.7206Z" fill="#ECECEC"/>
<path d="M76.5528 442.138V454.048H72.131V442.138H76.5528Z" fill="#ECECEC"/>
<path d="M84.3855 442.138V454.048H79.9637V442.138H84.3855Z" fill="#ECECEC"/>
<path d="M92.2178 442.138V454.048H87.7959V442.138H92.2178Z" fill="#ECECEC"/>
<path d="M60.8879 461.495V496.332H56.4661V461.495H60.8879Z" fill="#ECECEC"/>
<path d="M68.7206 461.495V496.332H64.2988V461.495H68.7206Z" fill="#ECECEC"/>
<path d="M76.5528 461.495V496.332H72.131V461.495H76.5528Z" fill="#ECECEC"/>
<path d="M84.3855 461.495V496.332H79.9637V461.495H84.3855Z" fill="#ECECEC"/>
<path d="M92.2178 461.495V496.332H87.7959V461.495H92.2178Z" fill="#ECECEC"/>
<path d="M124.183 193.329V496.333H96.1638V193.329H124.183Z" fill="#DCDCDC"/>
<path d="M125.396 187.296V193.329H96.1636V187.296H125.396Z" fill="#C8C8C8"/>
<path d="M104.532 202.223V496.333H100.11V202.223H104.532Z" fill="#C8C8C8"/>
<path d="M112.364 202.223V496.333H107.942V202.223H112.364Z" fill="#C8C8C8"/>
<path d="M120.196 202.223V496.333H115.774V202.223H120.196Z" fill="#C8C8C8"/>
<path d="M104.532 209.846V221.756H100.11V209.846H104.532Z" fill="#DCDCDC"/>
<path d="M112.364 209.846V221.756H107.942V209.846H112.364Z" fill="#DCDCDC"/>
<path d="M120.196 209.846V221.756H115.774V209.846H120.196Z" fill="#DCDCDC"/>
<path d="M104.532 229.204V241.115H100.11V229.204H104.532Z" fill="#DCDCDC"/>
<path d="M112.364 229.204V241.115H107.942V229.204H112.364Z" fill="#DCDCDC"/>
<path d="M120.196 229.204V241.115H115.774V229.204H120.196Z" fill="#DCDCDC"/>
<path d="M104.532 248.562V260.472H100.11V248.562H104.532Z" fill="#DCDCDC"/>
<path d="M112.364 248.562V260.472H107.942V248.562H112.364Z" fill="#DCDCDC"/>
<path d="M120.196 248.562V260.472H115.774V248.562H120.196Z" fill="#DCDCDC"/>
<path d="M104.532 267.919V279.83H100.11V267.919H104.532Z" fill="#DCDCDC"/>
<path d="M112.364 267.919V279.83H107.942V267.919H112.364Z" fill="#DCDCDC"/>
<path d="M120.196 267.919V279.83H115.774V267.919H120.196Z" fill="#DCDCDC"/>
<path d="M104.532 287.276V299.187H100.11V287.276H104.532Z" fill="#DCDCDC"/>
<path d="M112.364 287.276V299.187H107.942V287.276H112.364Z" fill="#DCDCDC"/>
<path d="M120.196 287.276V299.187H115.774V287.276H120.196Z" fill="#DCDCDC"/>
<path d="M104.532 306.634V318.544H100.11V306.634H104.532Z" fill="#DCDCDC"/>
<path d="M112.364 306.634V318.544H107.942V306.634H112.364Z" fill="#DCDCDC"/>
<path d="M120.196 306.634V318.544H115.774V306.634H120.196Z" fill="#DCDCDC"/>
<path d="M104.532 325.991V337.902H100.11V325.991H104.532Z" fill="#DCDCDC"/>
<path d="M112.364 325.991V337.902H107.942V325.991H112.364Z" fill="#DCDCDC"/>
<path d="M120.196 325.991V337.902H115.774V325.991H120.196Z" fill="#DCDCDC"/>
<path d="M104.532 345.35V357.26H100.11V345.35H104.532Z" fill="#DCDCDC"/>
<path d="M112.364 345.35V357.26H107.942V345.35H112.364Z" fill="#DCDCDC"/>
<path d="M120.196 345.35V357.26H115.774V345.35H120.196Z" fill="#DCDCDC"/>
<path d="M104.532 364.707V376.618H100.11V364.707H104.532Z" fill="#DCDCDC"/>
<path d="M112.364 364.707V376.618H107.942V364.707H112.364Z" fill="#DCDCDC"/>
<path d="M120.196 364.707V376.618H115.774V364.707H120.196Z" fill="#DCDCDC"/>
<path d="M104.532 384.065V395.976H100.11V384.065H104.532Z" fill="#DCDCDC"/>
<path d="M112.364 384.065V395.976H107.942V384.065H112.364Z" fill="#DCDCDC"/>
<path d="M120.196 384.065V395.976H115.774V384.065H120.196Z" fill="#DCDCDC"/>
<path d="M104.532 403.423V415.334H100.11V403.423H104.532Z" fill="#DCDCDC"/>
<path d="M112.364 403.423V415.334H107.942V403.423H112.364Z" fill="#DCDCDC"/>
<path d="M120.196 403.423V415.334H115.774V403.423H120.196Z" fill="#DCDCDC"/>
<path d="M104.532 422.78V434.691H100.11V422.78H104.532Z" fill="#DCDCDC"/>
<path d="M112.364 422.78V434.691H107.942V422.78H112.364Z" fill="#DCDCDC"/>
<path d="M120.196 422.78V434.691H115.774V422.78H120.196Z" fill="#DCDCDC"/>
<path d="M104.532 442.138V454.048H100.11V442.138H104.532Z" fill="#DCDCDC"/>
<path d="M112.364 442.138V454.048H107.942V442.138H112.364Z" fill="#DCDCDC"/>
<path d="M120.196 442.138V454.048H115.774V442.138H120.196Z" fill="#DCDCDC"/>
<path d="M104.532 461.495V496.332H100.11V461.495H104.532Z" fill="#DCDCDC"/>
<path d="M112.364 461.495V496.332H107.942V461.495H112.364Z" fill="#DCDCDC"/>
<path d="M120.196 461.495V496.332H115.774V461.495H120.196Z" fill="#DCDCDC"/>
<path d="M45.1925 289.914V502.167H3.80179V289.914H45.1925Z" fill="#ECECEC"/>
<path d="M45.1923 275.837V289.914H9.68915V275.837H45.1923Z" fill="#C8C8C8"/>
<path d="M40.6544 297.262V455.935H8.3399V297.262H40.6544Z" fill="#DCDCDC"/>
<path d="M40.6544 312.403V316.153H8.3399V312.403H40.6544Z" fill="white"/>
<path d="M40.6544 327.935V331.684H8.3399V327.935H40.6544Z" fill="white"/>
<path d="M40.6544 343.466V347.216H8.3399V343.466H40.6544Z" fill="white"/>
<path d="M40.6544 358.997V362.747H8.3399V358.997H40.6544Z" fill="white"/>
<path d="M40.6544 374.528V378.278H8.3399V374.528H40.6544Z" fill="white"/>
<path d="M40.6544 390.06V393.809H8.3399V390.06H40.6544Z" fill="white"/>
<path d="M40.6544 405.591V409.341H8.3399V405.591H40.6544Z" fill="white"/>
<path d="M40.6544 421.122V424.872H8.3399V421.122H40.6544Z" fill="white"/>
<path d="M40.6544 436.653V440.403H8.3399V436.653H40.6544Z" fill="white"/>
<path d="M40.6544 452.185V455.934H8.3399V452.185H40.6544Z" fill="white"/>
<path d="M71.1174 289.914V502.167H45.1923V289.914H71.1174Z" fill="#DCDCDC"/>
<path d="M67.2272 275.837V289.914H45.1923V275.837H67.2272Z" fill="#A8A8A8"/>
<path d="M68.6996 297.262V455.935H48.7664V297.262H68.6996Z" fill="#C8C8C8"/>
<path d="M68.6996 312.403V316.153H48.7664V312.403H68.6996Z" fill="white"/>
<path d="M68.6996 327.935V331.684H48.7664V327.935H68.6996Z" fill="white"/>
<path d="M68.6996 343.466V347.216H48.7664V343.466H68.6996Z" fill="white"/>
<path d="M68.6996 358.997V362.747H48.7664V358.997H68.6996Z" fill="white"/>
<path d="M68.6996 374.528V378.278H48.7664V374.528H68.6996Z" fill="white"/>
<path d="M68.6996 390.06V393.809H48.7664V390.06H68.6996Z" fill="white"/>
<path d="M68.6996 405.591V409.341H48.7664V405.591H68.6996Z" fill="white"/>
<path d="M68.6996 421.122V424.872H48.7664V421.122H68.6996Z" fill="white"/>
<path d="M68.6996 436.653V440.403H48.7664V436.653H68.6996Z" fill="white"/>
<path d="M68.6996 452.185V455.934H48.7664V452.185H68.6996Z" fill="white"/>
<path d="M242.117 387.704V502.167H199.955V387.704H242.117Z" fill="#C8C8C8"/>
<path d="M214.047 397.612V404.625H206.586V397.612H214.047Z" fill="#DCDCDC"/>
<path d="M214.047 412.591V419.604H206.586V412.591H214.047Z" fill="#DCDCDC"/>
<path d="M214.047 427.569V434.582H206.586V427.569H214.047Z" fill="#DCDCDC"/>
<path d="M214.047 442.548V449.561H206.586V442.548H214.047Z" fill="#DCDCDC"/>
<path d="M214.047 457.526V464.539H206.586V457.526H214.047Z" fill="#DCDCDC"/>
<path d="M214.047 472.505V479.518H206.586V472.505H214.047Z" fill="#DCDCDC"/>
<path d="M214.047 487.483V494.496H206.586V487.483H214.047Z" fill="#DCDCDC"/>
<path d="M224.78 397.612V404.625H217.319V397.612H224.78Z" fill="#DCDCDC"/>
<path d="M224.78 412.591V419.604H217.319V412.591H224.78Z" fill="#DCDCDC"/>
<path d="M224.78 427.569V434.582H217.319V427.569H224.78Z" fill="#DCDCDC"/>
<path d="M224.78 442.548V449.561H217.319V442.548H224.78Z" fill="#DCDCDC"/>
<path d="M224.78 457.526V464.539H217.319V457.526H224.78Z" fill="#DCDCDC"/>
<path d="M224.78 472.505V479.518H217.319V472.505H224.78Z" fill="#DCDCDC"/>
<path d="M224.78 487.483V494.496H217.319V487.483H224.78Z" fill="#DCDCDC"/>
<path d="M235.487 397.612V404.625H228.025V397.612H235.487Z" fill="#DCDCDC"/>
<path d="M235.487 412.591V419.604H228.025V412.591H235.487Z" fill="#DCDCDC"/>
<path d="M235.487 427.569V434.582H228.025V427.569H235.487Z" fill="#DCDCDC"/>
<path d="M235.487 442.548V449.561H228.025V442.548H235.487Z" fill="#DCDCDC"/>
<path d="M235.487 457.526V464.539H228.025V457.526H235.487Z" fill="#DCDCDC"/>
<path d="M235.487 472.505V479.518H228.025V472.505H235.487Z" fill="#DCDCDC"/>
<path d="M235.487 487.483V494.496H228.025V487.483H235.487Z" fill="#DCDCDC"/>
<path d="M242.117 375.779V387.705H214.047V375.779H242.117Z" fill="#DCDCDC"/>
<path d="M242.117 368.396V375.779H224.321V368.396H242.117Z" fill="#ECECEC"/>
<path d="M271.698 387.704V502.167H242.117V387.704H271.698Z" fill="#A8A8A8"/>
<path d="M268.671 486.365V493.378H262.597V486.365H268.671Z" fill="#C8C8C8"/>
<path d="M268.671 471.387V478.4H262.597V471.387H268.671Z" fill="#C8C8C8"/>
<path d="M268.671 456.408V463.421H262.597V456.408H268.671Z" fill="#C8C8C8"/>
<path d="M268.671 441.43V448.443H262.597V441.43H268.671Z" fill="#C8C8C8"/>
<path d="M268.671 426.451V433.464H262.597V426.451H268.671Z" fill="#C8C8C8"/>
<path d="M268.671 411.473V418.485H262.597V411.473H268.671Z" fill="#C8C8C8"/>
<path d="M268.671 396.494V403.507H262.597V396.494H268.671Z" fill="#C8C8C8"/>
<path d="M259.934 486.365V493.378H253.86V486.365H259.934Z" fill="#C8C8C8"/>
<path d="M259.934 471.387V478.4H253.86V471.387H259.934Z" fill="#C8C8C8"/>
<path d="M259.934 456.408V463.421H253.86V456.408H259.934Z" fill="#C8C8C8"/>
<path d="M259.934 441.43V448.443H253.86V441.43H259.934Z" fill="#C8C8C8"/>
<path d="M259.934 426.451V433.464H253.86V426.451H259.934Z" fill="#C8C8C8"/>
<path d="M259.934 411.473V418.485H253.86V411.473H259.934Z" fill="#C8C8C8"/>
<path d="M259.934 396.494V403.507H253.86V396.494H259.934Z" fill="#C8C8C8"/>
<path d="M251.218 486.365V493.378H245.145V486.365H251.218Z" fill="#C8C8C8"/>
<path d="M251.218 471.387V478.4H245.145V471.387H251.218Z" fill="#C8C8C8"/>
<path d="M251.218 456.408V463.421H245.145V456.408H251.218Z" fill="#C8C8C8"/>
<path d="M251.218 441.43V448.443H245.145V441.43H251.218Z" fill="#C8C8C8"/>
<path d="M251.218 426.451V433.464H245.145V426.451H251.218Z" fill="#C8C8C8"/>
<path d="M251.218 411.473V418.485H245.145V411.473H251.218Z" fill="#C8C8C8"/>
<path d="M251.218 396.494V403.507H245.145V396.494H251.218Z" fill="#C8C8C8"/>
<path d="M267.217 375.778V387.704H242.117V375.778H267.217Z" fill="#C8C8C8"/>
<path d="M255.719 368.396V375.779H242.117V368.396H255.719Z" fill="#DCDCDC"/>
<path d="M366.072 293.492V328.801H343.966V293.492H366.072Z" fill="#DCDCDC"/>
<path d="M380.088 293.492V330.097H366.072V293.492H380.088Z" fill="#C8C8C8"/>
<path d="M381.021 309.084V330.096H367.111V309.084H381.021Z" fill="#DCDCDC"/>
<path d="M389.697 309.084V330.096H381.021V309.084H389.697Z" fill="#C8C8C8"/>
<path d="M371.233 326.507V502.167H335.487V326.507H371.233Z" fill="#ECECEC"/>
<path d="M350.813 334.059V340.269H339.573V334.059H350.813Z" fill="white"/>
<path d="M365.193 334.059V340.269H353.952V334.059H365.193Z" fill="white"/>
<path d="M350.813 344.603V350.813H339.573V344.603H350.813Z" fill="white"/>
<path d="M365.193 344.603V350.813H353.952V344.603H365.193Z" fill="white"/>
<path d="M350.813 355.146V361.357H339.573V355.146H350.813Z" fill="white"/>
<path d="M365.193 355.146V361.357H353.952V355.146H365.193Z" fill="white"/>
<path d="M350.813 365.689V371.899H339.573V365.689H350.813Z" fill="white"/>
<path d="M365.193 365.689V371.899H353.952V365.689H365.193Z" fill="white"/>
<path d="M350.813 376.233V382.443H339.573V376.233H350.813Z" fill="white"/>
<path d="M365.193 376.233V382.443H353.952V376.233H365.193Z" fill="white"/>
<path d="M350.813 386.776V392.986H339.573V386.776H350.813Z" fill="white"/>
<path d="M365.193 386.776V392.986H353.952V386.776H365.193Z" fill="white"/>
<path d="M350.813 397.32V403.53H339.573V397.32H350.813Z" fill="white"/>
<path d="M365.193 397.32V403.53H353.952V397.32H365.193Z" fill="white"/>
<path d="M350.813 407.864V414.074H339.573V407.864H350.813Z" fill="white"/>
<path d="M365.193 407.864V414.074H353.952V407.864H365.193Z" fill="white"/>
<path d="M350.813 418.408V424.618H339.573V418.408H350.813Z" fill="white"/>
<path d="M365.193 418.408V424.618H353.952V418.408H365.193Z" fill="white"/>
<path d="M350.813 428.951V435.161H339.573V428.951H350.813Z" fill="white"/>
<path d="M365.193 428.951V435.161H353.952V428.951H365.193Z" fill="white"/>
<path d="M350.813 439.495V445.705H339.573V439.495H350.813Z" fill="white"/>
<path d="M365.193 439.495V445.705H353.952V439.495H365.193Z" fill="white"/>
<path d="M350.813 450.039V456.249H339.573V450.039H350.813Z" fill="white"/>
<path d="M365.193 450.039V456.249H353.952V450.039H365.193Z" fill="white"/>
<path d="M350.813 460.583V466.793H339.573V460.583H350.813Z" fill="white"/>
<path d="M365.193 460.583V466.793H353.952V460.583H365.193Z" fill="white"/>
<path d="M350.813 471.127V477.337H339.573V471.127H350.813Z" fill="white"/>
<path d="M365.193 471.127V477.337H353.952V471.127H365.193Z" fill="white"/>
<path d="M400.198 326.507V502.167H371.233V326.507H400.198Z" fill="#C8C8C8"/>
<path d="M397.294 471.127V477.337H388.065V471.127H397.294Z" fill="#ECECEC"/>
<path d="M385.488 471.127V477.337H376.259V471.127H385.488Z" fill="#ECECEC"/>
<path d="M397.294 460.583V466.793H388.065V460.583H397.294Z" fill="#ECECEC"/>
<path d="M385.488 460.583V466.793H376.259V460.583H385.488Z" fill="#ECECEC"/>
<path d="M397.294 450.039V456.249H388.065V450.039H397.294Z" fill="#ECECEC"/>
<path d="M385.488 450.039V456.249H376.259V450.039H385.488Z" fill="#ECECEC"/>
<path d="M397.294 439.495V445.705H388.065V439.495H397.294Z" fill="#ECECEC"/>
<path d="M385.488 439.495V445.705H376.259V439.495H385.488Z" fill="#ECECEC"/>
<path d="M397.294 428.951V435.161H388.065V428.951H397.294Z" fill="#ECECEC"/>
<path d="M385.488 428.951V435.161H376.259V428.951H385.488Z" fill="#ECECEC"/>
<path d="M397.294 418.408V424.618H388.065V418.408H397.294Z" fill="#ECECEC"/>
<path d="M385.488 418.408V424.618H376.259V418.408H385.488Z" fill="#ECECEC"/>
<path d="M397.294 407.864V414.074H388.065V407.864H397.294Z" fill="#ECECEC"/>
<path d="M385.488 407.864V414.074H376.259V407.864H385.488Z" fill="#ECECEC"/>
<path d="M397.294 397.32V403.53H388.065V397.32H397.294Z" fill="#ECECEC"/>
<path d="M385.488 397.32V403.53H376.259V397.32H385.488Z" fill="#ECECEC"/>
<path d="M397.294 386.776V392.986H388.065V386.776H397.294Z" fill="#ECECEC"/>
<path d="M385.488 386.776V392.986H376.259V386.776H385.488Z" fill="#ECECEC"/>
<path d="M397.294 376.233V382.443H388.065V376.233H397.294Z" fill="#ECECEC"/>
<path d="M385.488 376.233V382.443H376.259V376.233H385.488Z" fill="#ECECEC"/>
<path d="M397.294 365.689V371.899H388.065V365.689H397.294Z" fill="#ECECEC"/>
<path d="M385.488 365.689V371.899H376.259V365.689H385.488Z" fill="#ECECEC"/>
<path d="M397.294 355.146V361.357H388.065V355.146H397.294Z" fill="#ECECEC"/>
<path d="M385.488 355.146V361.357H376.259V355.146H385.488Z" fill="#ECECEC"/>
<path d="M397.294 344.603V350.813H388.065V344.603H397.294Z" fill="#ECECEC"/>
<path d="M385.488 344.603V350.813H376.259V344.603H385.488Z" fill="#ECECEC"/>
<path d="M397.294 334.059V340.269H388.065V334.059H397.294Z" fill="#ECECEC"/>
<path d="M385.488 334.059V340.269H376.259V334.059H385.488Z" fill="#ECECEC"/>
<path d="M308.571 205.635V502.167H266.735V205.635H308.571Z" fill="#DCDCDC"/>
<path d="M281.361 215.267V226.589H273.229V215.267H281.361Z" fill="#ECECEC"/>
<path d="M291.765 215.267V226.589H283.632V215.267H291.765Z" fill="#ECECEC"/>
<path d="M281.361 234.49V245.813H273.229V234.49H281.361Z" fill="#ECECEC"/>
<path d="M291.765 234.49V245.813H283.632V234.49H291.765Z" fill="#ECECEC"/>
<path d="M281.361 253.713V265.036H273.229V253.713H281.361Z" fill="#ECECEC"/>
<path d="M291.765 253.713V265.036H283.632V253.713H291.765Z" fill="#ECECEC"/>
<path d="M281.361 272.937V284.259H273.229V272.937H281.361Z" fill="#ECECEC"/>
<path d="M291.765 272.937V284.259H283.632V272.937H291.765Z" fill="#ECECEC"/>
<path d="M281.361 292.159V303.482H273.229V292.159H281.361Z" fill="#ECECEC"/>
<path d="M291.765 292.159V303.482H283.632V292.159H291.765Z" fill="#ECECEC"/>
<path d="M281.361 311.383V322.705H273.229V311.383H281.361Z" fill="#ECECEC"/>
<path d="M291.765 311.383V322.705H283.632V311.383H291.765Z" fill="#ECECEC"/>
<path d="M281.361 330.605V341.928H273.229V330.605H281.361Z" fill="#ECECEC"/>
<path d="M291.765 330.605V341.928H283.632V330.605H291.765Z" fill="#ECECEC"/>
<path d="M281.361 349.829V361.152H273.229V349.829H281.361Z" fill="#ECECEC"/>
<path d="M291.765 349.829V361.152H283.632V349.829H291.765Z" fill="#ECECEC"/>
<path d="M281.361 369.052V380.374H273.229V369.052H281.361Z" fill="#ECECEC"/>
<path d="M291.765 369.052V380.374H283.632V369.052H291.765Z" fill="#ECECEC"/>
<path d="M281.361 388.275V399.598H273.229V388.275H281.361Z" fill="#ECECEC"/>
<path d="M291.765 388.275V399.598H283.632V388.275H291.765Z" fill="#ECECEC"/>
<path d="M281.361 407.498V418.821H273.229V407.498H281.361Z" fill="#ECECEC"/>
<path d="M291.765 407.498V418.821H283.632V407.498H291.765Z" fill="#ECECEC"/>
<path d="M281.361 426.722V438.044H273.229V426.722H281.361Z" fill="#ECECEC"/>
<path d="M291.765 426.722V438.044H283.632V426.722H291.765Z" fill="#ECECEC"/>
<path d="M281.361 445.944V457.267H273.229V445.944H281.361Z" fill="#ECECEC"/>
<path d="M291.765 445.944V457.267H283.632V445.944H291.765Z" fill="#ECECEC"/>
<path d="M281.361 465.168V476.491H273.229V465.168H281.361Z" fill="#ECECEC"/>
<path d="M302.077 465.168V476.491H293.945V465.168H302.077Z" fill="#ECECEC"/>
<path d="M302.077 445.944V457.267H293.945V445.944H302.077Z" fill="#ECECEC"/>
<path d="M302.077 426.722V438.044H293.945V426.722H302.077Z" fill="#ECECEC"/>
<path d="M302.077 407.498V418.821H293.945V407.498H302.077Z" fill="#ECECEC"/>
<path d="M302.077 388.275V399.598H293.945V388.275H302.077Z" fill="#ECECEC"/>
<path d="M302.077 369.052V380.374H293.945V369.052H302.077Z" fill="#ECECEC"/>
<path d="M302.077 349.829V361.152H293.945V349.829H302.077Z" fill="#ECECEC"/>
<path d="M302.077 330.605V341.928H293.945V330.605H302.077Z" fill="#ECECEC"/>
<path d="M302.077 311.383V322.705H293.945V311.383H302.077Z" fill="#ECECEC"/>
<path d="M302.077 292.159V303.482H293.945V292.159H302.077Z" fill="#ECECEC"/>
<path d="M302.077 272.937V284.259H293.945V272.937H302.077Z" fill="#ECECEC"/>
<path d="M302.077 253.713V265.036H293.945V253.713H302.077Z" fill="#ECECEC"/>
<path d="M302.077 234.49V245.813H293.945V234.49H302.077Z" fill="#ECECEC"/>
<path d="M302.077 215.267V226.589H293.945V215.267H302.077Z" fill="#ECECEC"/>
<path d="M291.765 465.168V476.491H283.632V465.168H291.765Z" fill="#ECECEC"/>
<path d="M341.556 205.635V502.167H308.571V205.635H341.556Z" fill="#A8A8A8"/>
<path d="M338.156 465.168V476.491H331.44V465.168H338.156Z" fill="#C8C8C8"/>
<path d="M329.565 465.168V476.491H322.849V465.168H329.565Z" fill="#C8C8C8"/>
<path d="M338.156 445.944V457.267H331.44V445.944H338.156Z" fill="#C8C8C8"/>
<path d="M329.565 445.944V457.267H322.849V445.944H329.565Z" fill="#C8C8C8"/>
<path d="M338.156 426.722V438.044H331.44V426.722H338.156Z" fill="#C8C8C8"/>
<path d="M329.565 426.722V438.044H322.849V426.722H329.565Z" fill="#C8C8C8"/>
<path d="M338.156 407.498V418.821H331.44V407.498H338.156Z" fill="#C8C8C8"/>
<path d="M329.565 407.498V418.821H322.849V407.498H329.565Z" fill="#C8C8C8"/>
<path d="M338.156 388.275V399.598H331.44V388.275H338.156Z" fill="#C8C8C8"/>
<path d="M329.565 388.275V399.598H322.849V388.275H329.565Z" fill="#C8C8C8"/>
<path d="M338.156 369.052V380.374H331.44V369.052H338.156Z" fill="#C8C8C8"/>
<path d="M329.565 369.052V380.374H322.849V369.052H329.565Z" fill="#C8C8C8"/>
<path d="M338.156 349.829V361.152H331.44V349.829H338.156Z" fill="#C8C8C8"/>
<path d="M329.565 349.829V361.152H322.849V349.829H329.565Z" fill="#C8C8C8"/>
<path d="M338.156 330.605V341.928H331.44V330.605H338.156Z" fill="#C8C8C8"/>
<path d="M329.565 330.605V341.928H322.849V330.605H329.565Z" fill="#C8C8C8"/>
<path d="M338.156 311.383V322.705H331.44V311.383H338.156Z" fill="#C8C8C8"/>
<path d="M329.565 311.383V322.705H322.849V311.383H329.565Z" fill="#C8C8C8"/>
<path d="M338.156 292.159V303.482H331.44V292.159H338.156Z" fill="#C8C8C8"/>
<path d="M329.565 292.159V303.482H322.849V292.159H329.565Z" fill="#C8C8C8"/>
<path d="M338.156 272.937V284.259H331.44V272.937H338.156Z" fill="#C8C8C8"/>
<path d="M329.565 272.937V284.259H322.849V272.937H329.565Z" fill="#C8C8C8"/>
<path d="M338.156 253.713V265.036H331.44V253.713H338.156Z" fill="#C8C8C8"/>
<path d="M329.565 253.713V265.036H322.849V253.713H329.565Z" fill="#C8C8C8"/>
<path d="M338.156 234.49V245.813H331.44V234.49H338.156Z" fill="#C8C8C8"/>
<path d="M329.565 234.49V245.813H322.849V234.49H329.565Z" fill="#C8C8C8"/>
<path d="M338.156 215.267V226.589H331.44V215.267H338.156Z" fill="#C8C8C8"/>
<path d="M321.048 215.267V226.589H314.332V215.267H321.048Z" fill="#C8C8C8"/>
<path d="M321.048 234.49V245.813H314.332V234.49H321.048Z" fill="#C8C8C8"/>
<path d="M321.048 253.713V265.036H314.332V253.713H321.048Z" fill="#C8C8C8"/>
<path d="M321.048 272.937V284.259H314.332V272.937H321.048Z" fill="#C8C8C8"/>
<path d="M321.048 292.159V303.482H314.332V292.159H321.048Z" fill="#C8C8C8"/>
<path d="M321.048 311.383V322.705H314.332V311.383H321.048Z" fill="#C8C8C8"/>
<path d="M321.048 330.605V341.928H314.332V330.605H321.048Z" fill="#C8C8C8"/>
<path d="M321.048 349.829V361.152H314.332V349.829H321.048Z" fill="#C8C8C8"/>
<path d="M321.048 369.052V380.374H314.332V369.052H321.048Z" fill="#C8C8C8"/>
<path d="M321.048 388.275V399.598H314.332V388.275H321.048Z" fill="#C8C8C8"/>
<path d="M321.048 407.498V418.821H314.332V407.498H321.048Z" fill="#C8C8C8"/>
<path d="M321.048 426.722V438.044H314.332V426.722H321.048Z" fill="#C8C8C8"/>
<path d="M321.048 445.944V457.267H314.332V445.944H321.048Z" fill="#C8C8C8"/>
<path d="M321.048 465.168V476.491H314.332V465.168H321.048Z" fill="#C8C8C8"/>
<path d="M329.565 215.267V226.589H322.849V215.267H329.565Z" fill="#C8C8C8"/>
<path d="M184.447 158.638V498.009H150.365V158.638H184.447Z" fill="#2B454E"/>
<path d="M184.447 177.647V181.214H150.365V177.647H184.447Z" fill="#375A64"/>
<path d="M160.151 191.697V211.539H153.878V191.697H160.151Z" fill="#1A2E35"/>
<path d="M160.151 216.733V236.575H153.878V216.733H160.151Z" fill="#1A2E35"/>
<path d="M160.151 241.771V261.612H153.878V241.771H160.151Z" fill="#1A2E35"/>
<path d="M160.151 266.792V286.634H153.878V266.792H160.151Z" fill="#1A2E35"/>
<path d="M160.151 291.828V311.67H153.878V291.828H160.151Z" fill="#1A2E35"/>
<path d="M160.151 316.864V336.706H153.878V316.864H160.151Z" fill="#1A2E35"/>
<path d="M160.151 341.887V361.729H153.878V341.887H160.151Z" fill="#1A2E35"/>
<path d="M160.151 366.923V386.765H153.878V366.923H160.151Z" fill="#1A2E35"/>
<path d="M160.151 391.959V411.801H153.878V391.959H160.151Z" fill="#1A2E35"/>
<path d="M160.151 416.98V436.822H153.878V416.98H160.151Z" fill="#1A2E35"/>
<path d="M160.151 442.017V461.858H153.878V442.017H160.151Z" fill="#1A2E35"/>
<path d="M160.151 467.053V486.895H153.878V467.053H160.151Z" fill="#1A2E35"/>
<path d="M160.151 191.697V211.539H153.878V191.697H160.151Z" fill="#1A2E35"/>
<path d="M160.151 216.733V236.575H153.878V216.733H160.151Z" fill="#1A2E35"/>
<path d="M160.151 241.771V261.612H153.878V241.771H160.151Z" fill="#1A2E35"/>
<path d="M160.151 266.792V286.634H153.878V266.792H160.151Z" fill="#1A2E35"/>
<path d="M160.151 291.828V311.67H153.878V291.828H160.151Z" fill="#1A2E35"/>
<path d="M160.151 316.864V336.706H153.878V316.864H160.151Z" fill="#1A2E35"/>
<path d="M160.151 341.887V361.729H153.878V341.887H160.151Z" fill="#1A2E35"/>
<path d="M160.151 366.923V386.765H153.878V366.923H160.151Z" fill="#1A2E35"/>
<path d="M160.151 391.959V411.801H153.878V391.959H160.151Z" fill="#1A2E35"/>
<path d="M160.151 416.98V436.822H153.878V416.98H160.151Z" fill="#1A2E35"/>
<path d="M160.151 442.017V461.858H153.878V442.017H160.151Z" fill="#1A2E35"/>
<path d="M160.151 467.053V486.895H153.878V467.053H160.151Z" fill="#1A2E35"/>
<path d="M170.542 191.697V211.539H164.27V191.697H170.542Z" fill="#1A2E35"/>
<path d="M170.542 216.733V236.575H164.27V216.733H170.542Z" fill="#1A2E35"/>
<path d="M170.542 241.771V261.612H164.27V241.771H170.542Z" fill="#1A2E35"/>
<path d="M170.542 266.792V286.634H164.27V266.792H170.542Z" fill="#1A2E35"/>
<path d="M170.542 291.828V311.67H164.27V291.828H170.542Z" fill="#1A2E35"/>
<path d="M170.542 316.864V336.706H164.27V316.864H170.542Z" fill="#1A2E35"/>
<path d="M170.542 341.887V361.729H164.27V341.887H170.542Z" fill="#1A2E35"/>
<path d="M170.542 366.923V386.765H164.27V366.923H170.542Z" fill="#1A2E35"/>
<path d="M170.542 391.959V411.801H164.27V391.959H170.542Z" fill="#1A2E35"/>
<path d="M170.542 416.98V436.822H164.27V416.98H170.542Z" fill="#1A2E35"/>
<path d="M170.542 442.017V461.858H164.27V442.017H170.542Z" fill="#1A2E35"/>
<path d="M170.542 467.053V486.895H164.27V467.053H170.542Z" fill="#1A2E35"/>
<path d="M170.542 191.697V211.539H164.27V191.697H170.542Z" fill="#1A2E35"/>
<path d="M170.542 216.733V236.575H164.27V216.733H170.542Z" fill="#1A2E35"/>
<path d="M170.542 241.771V261.612H164.27V241.771H170.542Z" fill="#1A2E35"/>
<path d="M170.542 266.792V286.634H164.27V266.792H170.542Z" fill="#1A2E35"/>
<path d="M170.542 291.828V311.67H164.27V291.828H170.542Z" fill="#1A2E35"/>
<path d="M170.542 316.864V336.706H164.27V316.864H170.542Z" fill="#1A2E35"/>
<path d="M170.542 341.887V361.729H164.27V341.887H170.542Z" fill="#1A2E35"/>
<path d="M170.542 366.923V386.765H164.27V366.923H170.542Z" fill="#1A2E35"/>
<path d="M170.542 391.959V411.801H164.27V391.959H170.542Z" fill="#1A2E35"/>
<path d="M170.542 416.98V436.822H164.27V416.98H170.542Z" fill="#1A2E35"/>
<path d="M170.542 442.017V461.858H164.27V442.017H170.542Z" fill="#1A2E35"/>
<path d="M170.542 467.053V486.895H164.27V467.053H170.542Z" fill="#1A2E35"/>
<path d="M180.934 191.697V211.539H174.661V191.697H180.934Z" fill="#1A2E35"/>
<path d="M180.934 216.733V236.575H174.661V216.733H180.934Z" fill="#1A2E35"/>
<path d="M180.934 241.771V261.612H174.661V241.771H180.934Z" fill="#1A2E35"/>
<path d="M180.934 266.792V286.634H174.661V266.792H180.934Z" fill="#1A2E35"/>
<path d="M180.934 291.828V311.67H174.661V291.828H180.934Z" fill="#1A2E35"/>
<path d="M180.934 316.864V336.706H174.661V316.864H180.934Z" fill="#1A2E35"/>
<path d="M180.934 341.887V361.729H174.661V341.887H180.934Z" fill="#1A2E35"/>
<path d="M180.934 366.923V386.765H174.661V366.923H180.934Z" fill="#1A2E35"/>
<path d="M180.934 391.959V411.801H174.661V391.959H180.934Z" fill="#1A2E35"/>
<path d="M180.934 416.98V436.822H174.661V416.98H180.934Z" fill="#1A2E35"/>
<path d="M180.934 442.017V461.858H174.661V442.017H180.934Z" fill="#1A2E35"/>
<path d="M180.934 467.053V486.895H174.661V467.053H180.934Z" fill="#1A2E35"/>
<path d="M180.934 191.697V211.539H174.661V191.697H180.934Z" fill="#1A2E35"/>
<path d="M180.934 216.733V236.575H174.661V216.733H180.934Z" fill="#1A2E35"/>
<path d="M180.934 241.771V261.612H174.661V241.771H180.934Z" fill="#1A2E35"/>
<path d="M180.934 266.792V286.634H174.661V266.792H180.934Z" fill="#1A2E35"/>
<path d="M180.934 291.828V311.67H174.661V291.828H180.934Z" fill="#1A2E35"/>
<path d="M180.934 316.864V336.706H174.661V316.864H180.934Z" fill="#1A2E35"/>
<path d="M180.934 341.887V361.729H174.661V341.887H180.934Z" fill="#1A2E35"/>
<path d="M180.934 366.923V386.765H174.661V366.923H180.934Z" fill="#1A2E35"/>
<path d="M180.934 391.959V411.801H174.661V391.959H180.934Z" fill="#1A2E35"/>
<path d="M180.934 416.98V436.822H174.661V416.98H180.934Z" fill="#1A2E35"/>
<path d="M180.934 442.017V461.858H174.661V442.017H180.934Z" fill="#1A2E35"/>
<path d="M180.934 467.053V486.895H174.661V467.053H180.934Z" fill="#1A2E35"/>
<path d="M150.365 158.638V498.009H92.1025V158.638H150.365Z" fill="#375A64"/>
<path d="M150.365 177.647V181.214H92.1025V177.647H150.365Z" fill="#2B454E"/>
<path d="M150.365 139.572V158.638H112.87V139.572H150.365Z" fill="#2B454E"/>
<path d="M167.984 139.572V158.638H150.365V139.572H167.984Z" fill="#1A2E35"/>
<path d="M108.529 191.698V211.54H98.3444V191.698H108.529Z" fill="#1A2E35"/>
<path d="M108.529 216.734V236.576H98.3444V216.734H108.529Z" fill="#1A2E35"/>
<path d="M108.529 241.771V261.613H98.3444V241.771H108.529Z" fill="#1A2E35"/>
<path d="M108.529 266.793V286.635H98.3444V266.793H108.529Z" fill="#1A2E35"/>
<path d="M108.529 291.829V311.671H98.3444V291.829H108.529Z" fill="#1A2E35"/>
<path d="M108.529 316.865V336.707H98.3444V316.865H108.529Z" fill="#1A2E35"/>
<path d="M108.529 341.888V361.73H98.3444V341.888H108.529Z" fill="#1A2E35"/>
<path d="M108.529 366.924V386.766H98.3444V366.924H108.529Z" fill="#1A2E35"/>
<path d="M108.529 391.96V411.802H98.3444V391.96H108.529Z" fill="#1A2E35"/>
<path d="M108.529 416.981V436.823H98.3444V416.981H108.529Z" fill="#1A2E35"/>
<path d="M108.529 442.018V461.859H98.3444V442.018H108.529Z" fill="#1A2E35"/>
<path d="M108.529 467.054V486.896H98.3444V467.054H108.529Z" fill="#1A2E35"/>
<path d="M108.529 191.698V211.54H98.3444V191.698H108.529Z" fill="#1A2E35"/>
<path d="M108.529 216.734V236.576H98.3444V216.734H108.529Z" fill="#1A2E35"/>
<path d="M108.529 241.771V261.613H98.3444V241.771H108.529Z" fill="#1A2E35"/>
<path d="M108.529 266.793V286.635H98.3444V266.793H108.529Z" fill="#1A2E35"/>
<path d="M108.529 291.829V311.671H98.3444V291.829H108.529Z" fill="#1A2E35"/>
<path d="M108.529 316.865V336.707H98.3444V316.865H108.529Z" fill="#1A2E35"/>
<path d="M108.529 341.888V361.73H98.3444V341.888H108.529Z" fill="#1A2E35"/>
<path d="M108.529 366.924V386.766H98.3444V366.924H108.529Z" fill="#1A2E35"/>
<path d="M108.529 391.96V411.802H98.3444V391.96H108.529Z" fill="#1A2E35"/>
<path d="M108.529 416.981V436.823H98.3444V416.981H108.529Z" fill="#1A2E35"/>
<path d="M108.529 442.018V461.859H98.3444V442.018H108.529Z" fill="#1A2E35"/>
<path d="M108.529 467.054V486.896H98.3444V467.054H108.529Z" fill="#1A2E35"/>
<path d="M125.401 191.698V211.54H115.217V191.698H125.401Z" fill="#1A2E35"/>
<path d="M125.401 216.734V236.576H115.217V216.734H125.401Z" fill="#1A2E35"/>
<path d="M125.401 241.771V261.613H115.217V241.771H125.401Z" fill="#1A2E35"/>
<path d="M125.401 266.793V286.635H115.217V266.793H125.401Z" fill="#1A2E35"/>
<path d="M125.401 291.829V311.671H115.217V291.829H125.401Z" fill="#1A2E35"/>
<path d="M125.401 316.865V336.707H115.217V316.865H125.401Z" fill="#1A2E35"/>
<path d="M125.401 341.888V361.73H115.217V341.888H125.401Z" fill="#1A2E35"/>
<path d="M125.401 366.924V386.766H115.217V366.924H125.401Z" fill="#1A2E35"/>
<path d="M125.401 391.96V411.802H115.217V391.96H125.401Z" fill="#1A2E35"/>
<path d="M125.401 416.981V436.823H115.217V416.981H125.401Z" fill="#1A2E35"/>
<path d="M125.401 442.018V461.859H115.217V442.018H125.401Z" fill="#1A2E35"/>
<path d="M125.401 467.054V486.896H115.217V467.054H125.401Z" fill="#1A2E35"/>
<path d="M125.401 191.698V211.54H115.217V191.698H125.401Z" fill="#1A2E35"/>
<path d="M125.401 216.734V236.576H115.217V216.734H125.401Z" fill="#1A2E35"/>
<path d="M125.401 241.771V261.613H115.217V241.771H125.401Z" fill="#1A2E35"/>
<path d="M125.401 266.793V286.635H115.217V266.793H125.401Z" fill="#1A2E35"/>
<path d="M125.401 291.829V311.671H115.217V291.829H125.401Z" fill="#1A2E35"/>
<path d="M125.401 316.865V336.707H115.217V316.865H125.401Z" fill="#1A2E35"/>
<path d="M125.401 341.888V361.73H115.217V341.888H125.401Z" fill="#1A2E35"/>
<path d="M125.401 366.924V386.766H115.217V366.924H125.401Z" fill="#1A2E35"/>
<path d="M125.401 391.96V411.802H115.217V391.96H125.401Z" fill="#1A2E35"/>
<path d="M125.401 416.981V436.823H115.217V416.981H125.401Z" fill="#1A2E35"/>
<path d="M125.401 442.018V461.859H115.217V442.018H125.401Z" fill="#1A2E35"/>
<path d="M125.401 467.054V486.896H115.217V467.054H125.401Z" fill="#1A2E35"/>
<path d="M142.273 191.698V211.54H132.089V191.698H142.273Z" fill="#1A2E35"/>
<path d="M142.273 216.734V236.576H132.089V216.734H142.273Z" fill="#1A2E35"/>
<path d="M142.273 241.771V261.613H132.089V241.771H142.273Z" fill="#1A2E35"/>
<path d="M142.273 266.793V286.635H132.089V266.793H142.273Z" fill="#1A2E35"/>
<path d="M142.273 291.829V311.671H132.089V291.829H142.273Z" fill="#1A2E35"/>
<path d="M142.273 316.865V336.707H132.089V316.865H142.273Z" fill="#1A2E35"/>
<path d="M142.273 341.888V361.73H132.089V341.888H142.273Z" fill="#1A2E35"/>
<path d="M142.273 366.924V386.766H132.089V366.924H142.273Z" fill="#1A2E35"/>
<path d="M142.273 391.96V411.802H132.089V391.96H142.273Z" fill="#1A2E35"/>
<path d="M142.273 416.981V436.823H132.089V416.981H142.273Z" fill="#1A2E35"/>
<path d="M142.273 442.018V461.859H132.089V442.018H142.273Z" fill="#1A2E35"/>
<path d="M142.273 467.054V486.896H132.089V467.054H142.273Z" fill="#1A2E35"/>
<path d="M142.273 191.698V211.54H132.089V191.698H142.273Z" fill="#1A2E35"/>
<path d="M142.273 216.734V236.576H132.089V216.734H142.273Z" fill="#1A2E35"/>
<path d="M142.273 241.771V261.613H132.089V241.771H142.273Z" fill="#1A2E35"/>
<path d="M142.273 266.793V286.635H132.089V266.793H142.273Z" fill="#1A2E35"/>
<path d="M142.273 291.829V311.671H132.089V291.829H142.273Z" fill="#1A2E35"/>
<path d="M142.273 316.865V336.707H132.089V316.865H142.273Z" fill="#1A2E35"/>
<path d="M142.273 341.888V361.73H132.089V341.888H142.273Z" fill="#1A2E35"/>
<path d="M142.273 366.924V386.766H132.089V366.924H142.273Z" fill="#1A2E35"/>
<path d="M142.273 391.96V411.802H132.089V391.96H142.273Z" fill="#1A2E35"/>
<path d="M142.273 416.981V436.823H132.089V416.981H142.273Z" fill="#1A2E35"/>
<path d="M142.273 442.018V461.859H132.089V442.018H142.273Z" fill="#1A2E35"/>
<path d="M142.273 467.054V486.896H132.089V467.054H142.273Z" fill="#1A2E35"/>
<path d="M69.99 496.325H23.8025V300.405L69.99 259.929V496.325Z" fill="#FFC800"/>
<g opacity="0.5">
<path d="M64.0536 496.325H29.0001V305.886L64.0536 275.167V496.325Z" fill="#FFC800"/>
<g opacity="0.3">
<path opacity="0.3" d="M64.0536 496.325H29.0001V305.886L64.0536 275.167V496.325Z" fill="black"/>
</g>
<path d="M64.0532 310.693H33.0142V309.183H64.0532V310.693Z" fill="black"/>
<path d="M64.0532 323.069H33.0142V321.559H64.0532V323.069Z" fill="black"/>
<path d="M64.0532 335.444H33.0142V333.935H64.0532V335.444Z" fill="black"/>
<path d="M64.0532 347.819H33.0142V346.31H64.0532V347.819Z" fill="black"/>
<path d="M64.0532 360.194H33.0142V358.685H64.0532V360.194Z" fill="black"/>
<path d="M64.0532 372.57H33.0142V371.061H64.0532V372.57Z" fill="black"/>
<path d="M64.0532 384.945H33.0142V383.436H64.0532V384.945Z" fill="black"/>
<path d="M64.0532 397.321H33.0142V395.812H64.0532V397.321Z" fill="black"/>
<path d="M64.0532 409.697H33.0142V408.188H64.0532V409.697Z" fill="black"/>
<path d="M64.0532 422.072H33.0142V420.562H64.0532V422.072Z" fill="black"/>
<path d="M64.0532 434.447H33.0142V432.938H64.0532V434.447Z" fill="black"/>
<path d="M64.0532 446.823H33.0142V445.313H64.0532V446.823Z" fill="black"/>
<path d="M64.0532 459.198H33.0142V457.688H64.0532V459.198Z" fill="black"/>
<path d="M64.0532 471.574H33.0142V470.064H64.0532V471.574Z" fill="black"/>
<path d="M64.0532 483.95H33.0142V482.44H64.0532V483.95Z" fill="black"/>
<path d="M64.0532 496.325H33.0142V494.815H64.0532V496.325Z" fill="black"/>
<path d="M49.092 294.802V496.325H47.9753V294.802H49.092Z" fill="black"/>
<path d="M64.053 275.166V281.982L33.0144 309.182V496.325H29.0029V305.882L64.053 275.166Z" fill="#FFC800"/>
<g opacity="0.2">
<path opacity="0.2" d="M64.053 275.166V281.982L33.0144 309.182V496.325H29.0029V305.882L64.053 275.166Z" fill="black"/>
</g>
</g>
<path d="M110.682 496.325H69.9904V259.929H110.682V496.325Z" fill="#FFC800"/>
<g opacity="0.2">
<path opacity="0.2" d="M110.682 496.325H69.9904V259.929H110.682V496.325Z" fill="black"/>
</g>
<g opacity="0.2">
<path opacity="0.2" d="M106.734 280.516H73.9385V275.166H106.734V280.516ZM106.734 292.639H73.9385V287.289H106.734V292.639ZM106.734 304.762H73.9385V299.412H106.734V304.762ZM106.734 316.885H73.9385V311.535H106.734V316.885ZM106.734 329.008H73.9385V323.658H106.734V329.008ZM106.734 341.131H73.9385V335.78H106.734V341.131ZM106.734 353.253H73.9385V347.903H106.734V353.253ZM106.734 365.376H73.9385V360.026H106.734V365.376ZM106.734 377.499H73.9385V372.149H106.734V377.499ZM106.734 389.622H73.9385V384.272H106.734V389.622ZM106.734 401.745H73.9385V396.395H106.734V401.745ZM106.734 413.868H73.9385V408.518H106.734V413.868ZM106.734 425.991H73.9385V420.641H106.734V425.991ZM106.734 438.114H73.9385V432.764H106.734V438.114ZM106.734 450.236H73.9385V444.886H106.734V450.236ZM106.734 462.359H73.9385V457.009H106.734V462.359ZM106.734 474.482H73.9385V469.132H106.734V474.482ZM106.734 486.605H73.9385V481.255H106.734V486.605Z" fill="black"/>
</g>
<path d="M278.94 246.9V497.196H242.327V246.9H278.94Z" fill="#CB9F00"/>
<path d="M281.129 238.698V246.901H242.326V238.698H281.129Z" fill="#FFC800"/>
<path d="M275.226 225.893V238.698H242.327V225.893H275.226Z" fill="#CB9F00"/>
<path d="M267.497 197.648V225.893H242.327V197.648H267.497Z" fill="#A38107"/>
<g opacity="0.2">
<path opacity="0.2" d="M250.803 256.388V282.714H245.836V256.388H250.803ZM250.803 292.253V318.579H245.836V292.253H250.803ZM250.803 328.119V354.445H245.836V328.119H250.803ZM250.803 363.984V390.31H245.836V363.984H250.803ZM250.803 399.849V426.176H245.836V399.849H250.803ZM250.803 435.715V462.041H245.836V435.715H250.803ZM259.013 256.388V282.714H254.046V256.388H259.013ZM259.013 292.253V318.579H254.046V292.253H259.013ZM259.013 328.119V354.445H254.046V328.119H259.013ZM259.013 363.984V390.31H254.046V363.984H259.013ZM259.013 399.849V426.176H254.046V399.849H259.013ZM259.013 435.715V462.041H254.046V435.715H259.013ZM267.221 256.388V282.714H262.255V256.388H267.221ZM267.221 292.253V318.579H262.255V292.253H267.221ZM267.221 328.119V354.445H262.255V328.119H267.221ZM267.221 363.984V390.31H262.255V363.984H267.221ZM267.221 399.849V426.176H262.255V399.849H267.221ZM267.221 435.715V462.041H262.255V435.715H267.221ZM275.431 256.388V282.714H270.464V256.388H275.431ZM275.431 292.253V318.579H270.464V292.253H275.431ZM275.431 328.119V354.445H270.464V328.119H275.431ZM275.431 363.984V390.31H270.464V363.984H275.431ZM275.431 399.849V426.176H270.464V399.849H275.431ZM275.431 435.715V462.041H270.464V435.715H275.431Z" fill="black"/>
</g>
<path d="M242.327 246.9V497.196H167.276V246.9H242.327Z" fill="#FFC800"/>
<path d="M242.327 225.893V238.698H170.871V225.893H242.327Z" fill="#FFC800"/>
<path d="M242.758 197.648V225.893H188.989V197.648H242.758Z" fill="#CB9F00"/>
<path d="M242.327 238.698V246.901H165.029V238.698H242.327Z" fill="#FFC800"/>
<g opacity="0.2">
<path opacity="0.2" d="M242.327 238.698V246.901H165.029V238.698H242.327Z" fill="black"/>
</g>
<g opacity="0.2">
<path opacity="0.2" d="M184.638 256.388V282.714H174.451V256.388H184.638ZM184.638 292.253V318.579H174.451V292.253H184.638ZM184.638 328.119V354.445H174.451V328.119H184.638ZM184.638 363.984V390.31H174.451V363.984H184.638ZM184.638 399.849V426.176H174.451V399.849H184.638ZM184.638 435.715V462.041H174.451V435.715H184.638ZM201.476 256.388V282.714H191.288V256.388H201.476ZM201.476 292.253V318.579H191.288V292.253H201.476ZM201.476 328.119V354.445H191.288V328.119H201.476ZM201.476 363.984V390.31H191.288V363.984H201.476ZM201.476 399.849V426.176H191.288V399.849H201.476ZM201.476 435.715V462.041H191.288V435.715H201.476ZM218.313 256.388V282.714H208.126V256.388H218.313ZM218.313 292.253V318.579H208.126V292.253H218.313ZM218.313 328.119V354.445H208.126V328.119H218.313ZM218.313 363.984V390.31H208.126V363.984H218.313ZM218.313 399.849V426.176H208.126V399.849H218.313ZM218.313 435.715V462.041H208.126V435.715H218.313ZM235.151 256.388V282.714H224.964V256.388H235.151ZM235.151 292.253V318.579H224.964V292.253H235.151ZM235.151 328.119V354.445H224.964V328.119H235.151ZM235.151 363.984V390.31H224.964V363.984H235.151ZM235.151 399.849V426.176H224.964V399.849H235.151ZM235.151 435.715V462.041H224.964V435.715H235.151Z" fill="black"/>
</g>
<g opacity="0.3">
<path opacity="0.3" d="M218.314 472.388V497.196H191.289V472.388H218.314Z" fill="black"/>
</g>
<path d="M354.057 352.594V495.321H317.443V352.594H354.057Z" fill="#CB9F00"/>
<path d="M356.246 344.393V352.595H317.443V344.393H356.246Z" fill="#FFC800"/>
<path d="M350.342 331.587V344.392H317.443V331.587H350.342Z" fill="#CB9F00"/>
<path d="M325.92 362.082V388.408H320.953V362.082H325.92Z" fill="#9E7800"/>
<path d="M325.92 397.947V424.273H320.953V397.947H325.92Z" fill="#9E7800"/>
<path d="M325.92 433.812V460.139H320.953V433.812H325.92Z" fill="#9E7800"/>
<path d="M334.129 362.082V388.408H329.162V362.082H334.129Z" fill="#9E7800"/>
<path d="M334.129 397.947V424.273H329.162V397.947H334.129Z" fill="#9E7800"/>
<path d="M334.129 433.812V460.139H329.162V433.812H334.129Z" fill="#9E7800"/>
<path d="M342.338 362.082V388.408H337.371V362.082H342.338Z" fill="#9E7800"/>
<path d="M342.338 397.947V424.273H337.371V397.947H342.338Z" fill="#9E7800"/>
<path d="M342.338 433.812V460.139H337.371V433.812H342.338Z" fill="#9E7800"/>
<path d="M350.547 362.082V388.408H345.58V362.082H350.547Z" fill="#9E7800"/>
<path d="M350.547 397.947V424.273H345.58V397.947H350.547Z" fill="#9E7800"/>
<path d="M350.547 433.812V460.139H345.58V433.812H350.547Z" fill="#9E7800"/>
<path d="M317.443 352.594V495.321H242.392V352.594H317.443Z" fill="#FFC800"/>
<path d="M317.443 331.587V344.392H245.987V331.587H317.443Z" fill="#FFC800"/>
<path d="M317.443 344.393V352.595H240.146V344.393H317.443Z" fill="#CB9F00"/>
<path d="M259.755 363.103V389.429H249.568V363.103H259.755Z" fill="#B28B00"/>
<path d="M259.755 397.947V424.273H249.568V397.947H259.755Z" fill="#B28B00"/>
<path d="M259.755 433.812V460.139H249.568V433.812H259.755Z" fill="#B28B00"/>
<path d="M276.593 363.103V389.429H266.406V363.103H276.593Z" fill="#B28B00"/>
<path d="M276.593 397.947V424.273H266.406V397.947H276.593Z" fill="#B28B00"/>
<path d="M276.593 433.812V460.139H266.406V433.812H276.593Z" fill="#B28B00"/>
<path d="M293.43 363.103V389.429H283.243V363.103H293.43Z" fill="#B28B00"/>
<path d="M293.43 397.947V424.273H283.243V397.947H293.43Z" fill="#B28B00"/>
<path d="M293.43 433.812V460.139H283.243V433.812H293.43Z" fill="#B28B00"/>
<path d="M310.268 363.103V389.429H300.08V363.103H310.268Z" fill="#B28B00"/>
<path d="M310.268 398.968V425.294H300.08V398.968H310.268Z" fill="#B28B00"/>
<path d="M310.268 434.834V461.16H300.08V434.834H310.268Z" fill="#B28B00"/>
<path d="M353.296 233.055V497.592H289.579V233.055H353.296Z" fill="#375A64"/>
<path d="M353.058 206.443V233.055H305.379V206.443H353.058Z" fill="#2B454E"/>
<path d="M313.425 210.549V228.949H309.349V210.549H313.425Z" fill="#375A64"/>
<path d="M320.558 210.549V228.949H316.482V210.549H320.558Z" fill="#375A64"/>
<path d="M327.69 210.549V228.949H323.614V210.549H327.69Z" fill="#375A64"/>
<path d="M334.822 210.549V228.949H330.747V210.549H334.822Z" fill="#375A64"/>
<path d="M341.955 210.549V228.949H337.88V210.549H341.955Z" fill="#375A64"/>
<path d="M349.088 210.549V228.949H345.012V210.549H349.088Z" fill="#375A64"/>
<path d="M374.738 206.443V233.055H353.058V206.443H374.738Z" fill="#375A64"/>
<path d="M359.564 210.549V228.949H356.097V210.549H359.564Z" fill="#2B454E"/>
<path d="M365.631 210.549V228.949H362.164V210.549H365.631Z" fill="#2B454E"/>
<path d="M371.699 210.549V228.949H368.232V210.549H371.699Z" fill="#2B454E"/>
<path d="M385.488 233.055V497.592H353.058V233.055H385.488Z" fill="#2B454E"/>
<path d="M315.882 192.959V206.443H314.423V192.959H315.882Z" fill="#1A2E35"/>
<path d="M344.015 192.959V206.443H342.556V192.959H344.015Z" fill="#1A2E35"/>
<path d="M350.477 169.382V192.959H307.96V169.382H350.477Z" fill="#FFC800"/>
<path d="M314.382 251.274V275.625H302.621V251.274H314.382Z" fill="#1A2E35"/>
<path d="M338.322 251.274V275.625H326.561V251.274H338.322Z" fill="#1A2E35"/>
<path d="M314.382 289.647V313.998H302.621V289.647H314.382Z" fill="#1A2E35"/>
<path d="M338.322 289.647V313.998H326.561V289.647H338.322Z" fill="#1A2E35"/>
<path d="M314.382 328.021V352.372H302.621V328.021H314.382Z" fill="#1A2E35"/>
<path d="M338.322 328.021V352.372H326.561V328.021H338.322Z" fill="#1A2E35"/>
<path d="M314.382 366.395V390.745H302.621V366.395H314.382Z" fill="#1A2E35"/>
<path d="M338.322 366.395V390.745H326.561V366.395H338.322Z" fill="#1A2E35"/>
<path d="M314.382 404.767V429.117H302.621V404.767H314.382Z" fill="#1A2E35"/>
<path d="M338.322 404.767V429.117H326.561V404.767H338.322Z" fill="#1A2E35"/>
<path d="M314.382 443.141V467.491H302.621V443.141H314.382Z" fill="#1A2E35"/>
<path d="M338.322 443.141V467.491H326.561V443.141H338.322Z" fill="#1A2E35"/>
<path d="M365.773 251.274V275.625H359.015V251.274H365.773Z" fill="#1A2E35"/>
<path d="M379.531 251.274V275.625H372.772V251.274H379.531Z" fill="#1A2E35"/>
<path d="M365.773 289.647V313.998H359.015V289.647H365.773Z" fill="#1A2E35"/>
<path d="M379.531 289.647V313.998H372.772V289.647H379.531Z" fill="#1A2E35"/>
<path d="M365.773 328.021V352.372H359.015V328.021H365.773Z" fill="#1A2E35"/>
<path d="M379.531 328.021V352.372H372.772V328.021H379.531Z" fill="#1A2E35"/>
<path d="M365.773 366.395V390.745H359.015V366.395H365.773Z" fill="#1A2E35"/>
<path d="M379.531 366.395V390.745H372.772V366.395H379.531Z" fill="#1A2E35"/>
<path d="M365.773 404.767V429.117H359.015V404.767H365.773Z" fill="#1A2E35"/>
<path d="M379.531 404.767V429.117H372.772V404.767H379.531Z" fill="#1A2E35"/>
<path d="M365.773 443.141V467.491H359.015V443.141H365.773Z" fill="#1A2E35"/>
<path d="M379.531 443.141V467.491H372.772V443.141H379.531Z" fill="#1A2E35"/>
<path d="M45.997 492.678C45.997 492.678 45.1841 487.55 43.5613 486.76C41.9385 485.97 40.9508 488.271 40.9508 488.271C40.9508 488.271 40.5685 483.373 38.2675 481.907C35.9664 480.441 34.2391 483.443 34.2391 483.443C34.2391 483.443 32.4731 477.227 29.3185 477.227C26.164 477.227 24.5722 486.322 24.5722 486.322C24.5722 486.322 22.7112 483.611 20.8024 485.142C18.8935 486.673 18.8931 492.678 18.8931 492.678H45.997Z" fill="#2B454E"/>
<path d="M315.216 492.678C315.216 492.678 314.404 487.55 312.781 486.76C311.158 485.97 310.17 488.271 310.17 488.271C310.17 488.271 309.788 483.373 307.486 481.907C305.185 480.441 303.458 483.443 303.458 483.443C303.458 483.443 301.692 477.227 298.538 477.227C295.383 477.227 293.791 486.322 293.791 486.322C293.791 486.322 291.93 483.611 290.021 485.142C288.112 486.673 288.112 492.678 288.112 492.678H315.216Z" fill="#375A64"/>
<path d="M117.713 492.678H89.1857C89.1857 492.678 90.1255 487.239 92.0171 486.854C93.9087 486.469 94.7885 488.991 94.7885 488.991C94.7885 488.991 94.7031 481.407 98.2361 480.115C101.769 478.823 104.732 485.524 104.732 485.524C104.732 485.524 106.947 481.702 109.965 481.947C112.984 482.192 113.75 488.505 113.75 488.505C113.75 488.505 116.499 486.313 117.713 492.678Z" fill="#2B454E"/>
<path d="M20.6458 492.678H5.62761C5.62761 492.678 5.66212 489.655 7.13866 488.854C8.61519 488.052 9.49282 489.616 9.49282 489.616C9.49282 489.616 10.0952 484.06 12.8463 484.06C15.5974 484.06 16.9143 488.854 16.9143 488.854C16.9143 488.854 17.5305 487.404 19.0579 487.674C20.5853 487.943 20.6458 492.678 20.6458 492.678Z" fill="#375A64"/>
<path d="M129.496 492.678H114.478C114.478 492.678 114.513 489.655 115.989 488.854C117.465 488.052 118.343 489.616 118.343 489.616C118.343 489.616 118.945 484.06 121.697 484.06C124.448 484.06 125.765 488.854 125.765 488.854C125.765 488.854 126.381 487.404 127.908 487.674C129.436 487.943 129.496 492.678 129.496 492.678Z" fill="#375A64"/>
<path d="M376.464 492.678H361.446C361.446 492.678 361.48 489.655 362.957 488.854C364.433 488.052 365.311 489.616 365.311 489.616C365.311 489.616 365.913 484.06 368.664 484.06C371.415 484.06 372.732 488.854 372.732 488.854C372.732 488.854 373.348 487.404 374.876 487.674C376.403 487.943 376.464 492.678 376.464 492.678Z" fill="#375A64"/>
<path d="M398.372 492.678H373.617C373.617 492.678 373.674 487.696 376.108 486.374C378.541 485.052 379.988 487.631 379.988 487.631C379.988 487.631 380.98 478.471 385.516 478.471C390.051 478.471 392.221 486.374 392.221 486.374C392.221 486.374 393.237 483.985 395.755 484.429C398.272 484.874 398.372 492.678 398.372 492.678Z" fill="#2B454E"/>
<path d="M403.435 492.677V502.166H0.564819V492.677H403.435Z" fill="#C8C8C8"/>
<path d="M28.809 492.677C29.1869 494.258 29.2719 495.84 29.2879 497.421C29.2741 499.003 29.1891 500.585 28.809 502.166C28.4293 500.585 28.3443 499.003 28.3304 497.421C28.3464 495.84 28.4314 494.258 28.809 492.677Z" fill="#1A2E35"/>
<path d="M60.2985 492.677C60.6764 494.258 60.761 495.84 60.7774 497.421C60.7636 499.003 60.6782 500.585 60.2985 502.166C59.9188 500.585 59.8333 499.003 59.8195 497.421C59.8355 495.84 59.9205 494.258 60.2985 492.677Z" fill="#1A2E35"/>
<path d="M91.7876 492.677C92.1655 494.258 92.2501 495.84 92.2665 497.421C92.2527 499.003 92.1673 500.585 91.7876 502.166C91.4078 500.585 91.3229 499.003 91.3091 497.421C91.325 495.84 91.4096 494.258 91.7876 492.677Z" fill="#1A2E35"/>
<path d="M123.277 492.677C123.655 494.258 123.74 495.84 123.756 497.421C123.742 499.003 123.657 500.585 123.277 502.166C122.897 500.585 122.812 499.003 122.798 497.421C122.814 495.84 122.899 494.258 123.277 492.677Z" fill="#1A2E35"/>
<path d="M154.766 492.677C155.144 494.258 155.229 495.84 155.245 497.421C155.231 499.003 155.146 500.585 154.766 502.166C154.386 500.585 154.301 499.003 154.287 497.421C154.304 495.84 154.388 494.258 154.766 492.677Z" fill="#1A2E35"/>
<path d="M186.255 492.677C186.633 494.258 186.718 495.84 186.734 497.421C186.72 499.003 186.635 500.585 186.255 502.166C185.876 500.585 185.791 499.003 185.777 497.421C185.793 495.84 185.877 494.258 186.255 492.677Z" fill="#1A2E35"/>
<path d="M217.745 492.677C218.123 494.258 218.207 495.84 218.223 497.421C218.209 499.003 218.124 500.585 217.745 502.166C217.365 500.585 217.28 499.003 217.266 497.421C217.282 495.84 217.367 494.258 217.745 492.677Z" fill="#1A2E35"/>
<path d="M249.234 492.677C249.612 494.258 249.696 495.84 249.713 497.421C249.699 499.003 249.614 500.585 249.234 502.166C248.854 500.585 248.769 499.003 248.755 497.421C248.771 495.84 248.856 494.258 249.234 492.677Z" fill="#1A2E35"/>
<path d="M280.723 492.677C281.101 494.258 281.186 495.84 281.202 497.421C281.188 499.003 281.103 500.585 280.723 502.166C280.343 500.585 280.258 499.003 280.244 497.421C280.26 495.84 280.345 494.258 280.723 492.677Z" fill="#1A2E35"/>
<path d="M312.212 492.677C312.59 494.258 312.675 495.84 312.691 497.421C312.677 499.003 312.592 500.585 312.212 502.166C311.833 500.585 311.747 499.003 311.734 497.421C311.749 495.84 311.835 494.258 312.212 492.677Z" fill="#1A2E35"/>
<path d="M343.702 492.677C344.08 494.258 344.165 495.84 344.18 497.421C344.167 499.003 344.082 500.585 343.702 502.166C343.322 500.585 343.236 499.003 343.223 497.421C343.239 495.84 343.324 494.258 343.702 492.677Z" fill="#1A2E35"/>
<path d="M375.191 492.677C375.569 494.258 375.654 495.84 375.67 497.421C375.656 499.003 375.571 500.585 375.191 502.166C374.811 500.585 374.726 499.003 374.712 497.421C374.729 495.84 374.813 494.258 375.191 492.677Z" fill="#1A2E35"/>
<path d="M3.54872 502.167H400.451" stroke="#1A2E35" stroke-linecap="round" stroke-linejoin="round"/>
<g opacity="0.1">
<path opacity="0.1" d="M249.346 73.4909C249.346 92.7852 237.779 108.426 223.509 108.426C209.24 108.426 197.672 92.7852 197.672 73.4909C197.672 54.1967 209.24 38.5557 223.509 38.5557C237.779 38.5557 249.346 54.1967 249.346 73.4909Z" fill="#FFC800"/>
</g>
<path d="M254.453 73.6804C254.453 88.0251 243.26 99.6538 229.453 99.6538C215.645 99.6538 204.453 88.0251 204.453 73.6804C204.453 59.3357 215.645 47.707 229.453 47.707C243.26 47.707 254.453 59.3357 254.453 73.6804Z" fill="#FFC800"/>
</svg>
