<svg width="33" height="24" viewBox="0 0 33 24" fill="none" xmlns="http://www.w3.org/2000/svg">
<path fill-rule="evenodd" clip-rule="evenodd" d="M30.9375 4.71429H2.0625C0.923413 4.71429 0 3.65896 0 2.35714C0 1.05533 0.923413 0 2.0625 0H30.9375C32.0766 0 33 1.05533 33 2.35714C33 3.65896 32.0766 4.71429 30.9375 4.71429ZM30.9375 14.1429H2.0625C0.923413 14.1429 0 13.0875 0 11.7857C0 10.4839 0.923413 9.42857 2.0625 9.42857H30.9375C32.0766 9.42857 33 10.4839 33 11.7857C33 13.0875 32.0766 14.1429 30.9375 14.1429ZM30.9375 23.5714H2.0625C0.923413 23.5714 0 22.5161 0 21.2143C0 19.9125 0.923413 18.8571 2.0625 18.8571H30.9375C32.0766 18.8571 33 19.9125 33 21.2143C33 22.5161 32.0766 23.5714 30.9375 23.5714Z" fill="#717579"/>
</svg>
