<svg width="26" height="26" viewBox="0 0 26 26" fill="none" xmlns="http://www.w3.org/2000/svg">
<rect width="26" height="26" rx="5" fill="#B8B8B8"/>
<rect x="2.59961" y="2.59961" width="20.8" height="20.8" rx="4" fill="white"/>
<path d="M4.73926 20.4278H21.0769C21.6748 20.4278 22.0344 19.9248 21.8779 19.3029L19.2821 8.93607C19.1262 8.31483 18.8689 7.93104 18.707 8.07835C18.5451 8.22566 18.2521 8.83651 18.0528 9.44319L15.9321 15.886C15.7327 16.4928 15.2897 16.5592 14.9431 16.0351L13.0844 13.2245C12.7373 12.7004 12.1654 12.6923 11.8057 13.2064L9.81332 16.0537C9.45367 16.5679 8.80217 16.6354 8.35758 16.2051L7.71097 15.5786C7.26638 15.1483 6.65004 15.242 6.33479 15.7882L4.22757 19.4385C3.91233 19.9847 4.14084 20.4278 4.73926 20.4278Z" fill="#B8B8B8"/>
<path d="M8.04626 12.0095C8.8668 12.0095 9.53198 11.3443 9.53198 10.5238C9.53198 9.70326 8.8668 9.03809 8.04626 9.03809C7.22572 9.03809 6.56055 9.70326 6.56055 10.5238C6.56055 11.3443 7.22572 12.0095 8.04626 12.0095Z" fill="#B8B8B8"/>
</svg>
