<svg width="24" height="22" viewBox="0 0 24 22" fill="none" xmlns="http://www.w3.org/2000/svg">
<path d="M0 18.9022C0 20.499 1.22524 21.7979 2.73132 21.7979H3.33832H20.0041H21.218H22.4827V20.511H21.218V17.2935H22.4827V16.7304H23.0896H24V15.4435H23.0896V12.2262H24V10.9393H23.0896H23.0137V10.5106V9.86708V9.83947L21.515 6.86335H23.0896V5.1328L19.1286 0H5.15412L1.5503 6.02017C0.933965 6.55182 0.531176 7.35234 0.531176 8.25837C0.531176 9.84516 1.74211 11.1352 3.23575 11.151C2.23078 11.5789 1.51743 12.6183 1.51743 13.835C1.51743 14.7184 1.90044 15.5007 2.49073 16.0322C1.09867 16.1637 0 17.3928 0 18.9022ZM1.74501 8.25837C1.74501 7.6583 2.05983 7.13996 2.5204 6.86345H20.611V9.86715H3.26246C2.42582 9.86709 1.74501 9.1452 1.74501 8.25837ZM4.24877 12.2263H4.85572H21.8756V15.4435H4.85572H4.24877C3.41213 15.4435 2.73132 14.7221 2.73132 13.835C2.73135 12.9476 3.41213 12.2263 4.24877 12.2263ZM2.73135 17.2935H3.33835H20.0041V20.5109H3.33832H2.73132C1.89474 20.5109 1.21395 19.7895 1.21395 18.9022C1.21395 18.0149 1.89477 17.2935 2.73135 17.2935Z" fill="#717579"/>
</svg>
