<svg width="50" height="50" viewBox="0 0 50 50" fill="none" xmlns="http://www.w3.org/2000/svg">
<path fill-rule="evenodd" clip-rule="evenodd" d="M25 0C26.5342 0 27.7778 1.1193 27.7778 2.5V22.5C27.7778 23.8807 26.5342 25 25 25C23.4658 25 22.2222 23.8807 22.2222 22.5V2.5C22.2222 1.1193 23.4658 0 25 0ZM11.4115 10.7319C12.4965 11.7081 12.4968 13.291 11.4122 14.2675C7.80172 17.518 5.55556 22.0525 5.55556 27.0832C5.55556 37.0272 14.3149 45 25 45C35.6853 45 44.4444 37.0272 44.4444 27.0832C44.4444 22.0525 42.1983 17.518 38.5878 14.2675C37.5033 13.291 37.5036 11.7081 38.5883 10.7319C39.6733 9.7558 41.4322 9.75605 42.5169 10.7325C47.1383 14.8934 50 20.6885 50 27.0832C50 39.691 38.8608 50 25 50C11.1392 50 0 39.691 0 27.0832C0 20.6885 2.86158 14.8934 7.48317 10.7325C8.56778 9.75605 10.3266 9.7558 11.4115 10.7319Z" fill="#717579"/>
</svg>
