<svg width="28" height="26" viewBox="0 0 28 26" fill="none" xmlns="http://www.w3.org/2000/svg">
<path fill-rule="evenodd" clip-rule="evenodd" d="M10.8985 11.8452C10.337 11.8452 9.89307 12.2815 9.89307 12.8333C9.89307 13.3723 10.337 13.8215 10.8985 13.8215H18.7328V19.9558C18.7328 23.1 16.1344 25.6667 12.9223 25.6667H6.56349C3.36449 25.6667 0.766113 23.1128 0.766113 19.9687V5.71083C0.766113 2.55383 3.37755 0 6.57655 0H12.9484C16.1344 0 18.7328 2.55383 18.7328 5.698V11.8452H10.8985ZM23.3916 8.39326L27.1389 12.1278C27.3314 12.3203 27.4341 12.5641 27.4341 12.8336C27.4341 13.0903 27.3314 13.3469 27.1389 13.5266L23.3916 17.2611C23.1991 17.4536 22.9424 17.5562 22.6986 17.5562C22.4419 17.5562 22.1852 17.4536 21.9927 17.2611C21.6077 16.8761 21.6077 16.2472 21.9927 15.8623L24.0461 13.8218H18.7331V11.8454H24.0461L21.9927 9.80492C21.6077 9.41992 21.6077 8.79109 21.9927 8.40609C22.3777 8.00826 23.0066 8.00826 23.3916 8.39326Z" fill="#717579"/>
</svg>
