<svg width="55" height="56" viewBox="0 0 55 56" fill="none" xmlns="http://www.w3.org/2000/svg">
<path d="M-0.000488281 23.9195H34.0879V55.7906H9.99951C4.47666 55.7906 -0.000488281 51.3135 -0.000488281 45.7906V23.9195Z" fill="white"/>
<path d="M25.5658 25.2475H8.52161C6.6388 25.2496 4.83375 25.9498 3.5024 27.1946C2.17106 28.4393 1.42212 30.127 1.41986 31.8873V42.511C1.42193 44.0411 1.98813 45.5238 3.02303 46.7091C4.05794 47.8944 5.49827 48.7098 7.10126 49.0181V53.1348C7.10122 53.3752 7.17099 53.6111 7.30312 53.8173C7.43526 54.0236 7.6248 54.1924 7.85153 54.3059C8.07827 54.4193 8.33368 54.473 8.59052 54.4614C8.84736 54.4497 9.09599 54.3731 9.3099 54.2396L17.4698 49.1509H25.5658C27.4486 49.1488 29.2536 48.4485 30.585 47.2038C31.9163 45.959 32.6653 44.2714 32.6675 42.511V31.8873C32.6653 30.127 31.9163 28.4393 30.585 27.1946C29.2536 25.9498 27.4486 25.2496 25.5658 25.2475ZM22.7251 41.1831H11.3623C10.9856 41.1831 10.6243 41.0432 10.358 40.7941C10.0916 40.5451 9.94195 40.2073 9.94195 39.8551C9.94195 39.5029 10.0916 39.1651 10.358 38.9161C10.6243 38.6671 10.9856 38.5271 11.3623 38.5271H22.7251C23.1018 38.5271 23.4631 38.6671 23.7294 38.9161C23.9958 39.1651 24.1454 39.5029 24.1454 39.8551C24.1454 40.2073 23.9958 40.5451 23.7294 40.7941C23.4631 41.0432 23.1018 41.1831 22.7251 41.1831ZM25.5658 35.8712H8.52161C8.14491 35.8712 7.78363 35.7313 7.51727 35.4823C7.2509 35.2332 7.10126 34.8954 7.10126 34.5432C7.10126 34.1911 7.2509 33.8533 7.51727 33.6042C7.78363 33.3552 8.14491 33.2153 8.52161 33.2153H25.5658C25.9425 33.2153 26.3038 33.3552 26.5701 33.6042C26.8365 33.8533 26.9861 34.1911 26.9861 34.5432C26.9861 34.8954 26.8365 35.2332 26.5701 35.4823C26.3038 35.7313 25.9425 35.8712 25.5658 35.8712Z" fill="#717579"/>
<path d="M17.0438 4H50.0669V34.8752H27.0438C21.521 34.8752 17.0438 30.398 17.0438 24.8752V4Z" fill="white"/>
<path d="M33.5554 36.8752C43.6502 36.8752 52.0669 29.1927 52.0669 19.4376C52.0669 9.6825 43.6502 2 33.5554 2C23.4605 2 15.0438 9.6825 15.0438 19.4376C15.0438 29.1927 23.4605 36.8752 33.5554 36.8752Z" fill="#FF69B4" stroke="#FBFBFB" stroke-width="4"/>
<path d="M27.1321 23.9758V22.4918H29.3581V16.1498L27.6361 17.1858L26.9361 15.8698L29.8761 14.1058H31.1501V22.4918H33.2361V23.9758H27.1321ZM35.1207 23.9758V22.6458L38.3127 19.2438C38.742 18.7772 39.05 18.3665 39.2367 18.0118C39.4233 17.6478 39.5167 17.2792 39.5167 16.9058C39.5167 15.9538 38.9427 15.4778 37.7947 15.4778C36.8987 15.4778 36.0727 15.8138 35.3167 16.4858L34.7147 15.1418C35.1067 14.7872 35.5967 14.5025 36.1847 14.2878C36.7727 14.0732 37.384 13.9658 38.0187 13.9658C39.0733 13.9658 39.8807 14.2038 40.4407 14.6798C41.01 15.1558 41.2947 15.8372 41.2947 16.7238C41.2947 17.3212 41.15 17.8952 40.8607 18.4458C40.5807 18.9965 40.1373 19.5892 39.5307 20.2238L37.3607 22.4918H41.6727V23.9758H35.1207Z" fill="white"/>
</svg>
