<svg width="48" height="48" viewBox="0 0 48 48" fill="none" xmlns="http://www.w3.org/2000/svg">
<path d="M48 24C48 37.2548 37.2548 48 24 48C10.7452 48 0 37.2548 0 24C0 10.7452 10.7452 0 24 0C37.2548 0 48 10.7452 48 24ZM4.47223 24C4.47223 34.7849 13.2151 43.5278 24 43.5278C34.7849 43.5278 43.5278 34.7849 43.5278 24C43.5278 13.2151 34.7849 4.47223 24 4.47223C13.2151 4.47223 4.47223 13.2151 4.47223 24Z" fill="black"/>
<path d="M32.3854 17.7278H30.3962C30.2647 16.5749 29.8632 15.4958 29.226 14.6605H32.3853C33.1421 14.6605 33.7549 14.0954 33.7549 13.3389C33.7549 12.582 33.142 12.0014 32.3853 12.0014H21.6722C21.633 12.0014 21.5953 12 21.555 12C21.5289 12 21.5028 12.0014 21.4768 12.0014H16.3696C15.6129 12.0014 15 12.5825 15 13.3389C15 14.0954 15.6129 14.6605 16.3696 14.6605H22.4432C24.3613 14.8002 26.3705 15.5422 26.8997 17.7278H16.3696C15.6129 17.7278 15 18.3411 15 19.0979C15 19.8544 15.6129 20.468 16.3696 20.468H26.7633C26.1166 22.1952 24.3404 23.2486 21.8718 23.2486H19.1479H19.14H17.5517C16.8139 23.2486 16.2158 23.8467 16.2158 24.5844C16.2158 25.3223 16.8139 25.9204 17.5517 25.9204H19.1211C19.1276 25.9212 19.1334 25.9243 19.1399 25.9243H21.6185C24.3115 26.0266 25.5092 27.1944 26.196 30.3893C26.7333 32.7624 27.1289 34.3081 27.44 35.2339C27.6731 36.0905 28.1345 37.381 28.9348 38.1518C29.2478 38.4527 29.6514 38.6025 30.0537 38.6025C30.477 38.6025 30.9004 38.4369 31.2172 38.1074C31.7978 37.504 31.8083 36.5701 31.2763 35.946C31.2738 35.9386 31.2749 35.9305 31.271 35.9231C30.7798 35.0117 30.1855 32.5672 29.4605 29.4666C28.8842 26.9454 27.8075 25.375 26.1759 24.6778C28.2245 23.8913 29.6338 22.3871 30.1862 20.4676H32.3853C33.142 20.4676 33.7548 19.854 33.7548 19.0975C33.7548 18.341 33.1421 17.7278 32.3854 17.7278Z" fill="black"/>
</svg>
