<svg width="26" height="22" viewBox="0 0 26 22" fill="none" xmlns="http://www.w3.org/2000/svg">
<path d="M11.4616 8.89621H15.2411C15.4345 8.04723 16.0027 7.3159 16.8072 6.78446C16.8106 6.78446 16.8148 6.78446 16.8198 6.78446C17.4898 6.76641 18.3632 6.62602 19.1913 6.1387C19.293 6.0792 19.3914 6.01503 19.4863 5.94885C20.6733 5.1119 21.3248 3.72144 21.4131 1.80957C21.4341 1.30285 20.939 0.876357 20.3034 0.856971C19.6091 0.828895 19.1299 1.23266 19.1055 1.74071C19.0349 3.18532 18.5995 4.19005 17.8395 4.64797C17.6748 4.74891 17.4991 4.81776 17.3301 4.86389C17.3251 4.86523 17.3175 4.8659 17.3124 4.86723C16.8123 4.48753 16.1204 4.30236 15.653 4.30236H12.7965H9.94088C8.89344 4.30236 8.06036 5.13864 8.04187 6.05647C9.78704 6.3954 11.1405 7.51779 11.4616 8.89621Z" fill="#717579"/>
<path d="M11.8329 4.27164C13.3469 4.27164 14.5742 3.3154 14.5742 2.13582C14.5742 0.956239 13.3469 0 11.8329 0C10.3189 0 9.09155 0.956239 9.09155 2.13582C9.09155 3.3154 10.3189 4.27164 11.8329 4.27164Z" fill="#717579"/>
<path d="M12.4418 14.4032C12.4418 12.746 11.544 12.0461 10.2982 12.0461H10.2301H7.40973C8.96827 11.865 10.1628 10.8201 10.1628 9.55401C10.1628 8.16356 8.71692 7.03516 6.92888 7.03516C5.1442 7.03516 3.69746 8.16356 3.69746 9.55401C3.69746 10.8201 4.89201 11.8643 6.4514 12.0461H3.63021H3.56128C2.31377 12.0461 1.30164 13.1077 1.30164 14.2047V17.5605H12.4418V14.4032Z" fill="#717579"/>
<path d="M16.4282 9.55407C16.4282 10.8202 17.6236 11.8644 19.1804 12.0462H16.4736H16.2895C15.0411 12.0462 14.0887 13.1077 14.0887 14.2047V17.5605H25.1431V14.4053C25.1431 12.7675 24.2781 12.0783 23.0575 12.0616C23.0398 12.0616 23.0415 12.0475 23.0264 12.0475H20.1362C21.6956 11.8664 22.891 10.8215 22.891 9.55474C22.891 8.16429 21.4434 7.03589 19.6579 7.03589C17.8741 7.03522 16.4282 8.16362 16.4282 9.55407Z" fill="#717579"/>
<path d="M26 19.2415H0V21.1656H26V19.2415Z" fill="#717579"/>
</svg>
 