<svg width="55" height="54" viewBox="0 0 55 54" fill="none" xmlns="http://www.w3.org/2000/svg">
<path d="M0.106689 21.9275H34.1949V53.7987H10.1067C4.58384 53.7987 0.106689 49.3215 0.106689 43.7987V21.9275Z" fill="white"/>
<path d="M16.3554 28.7665L15.6595 26.8144C15.5617 26.5521 15.3795 26.3245 15.138 26.1628C14.8964 26.0011 14.6072 25.9133 14.3101 25.9114H7.20842C6.07934 25.9145 4.99744 26.3352 4.19906 27.0816C3.40067 27.8281 2.95069 28.8396 2.94739 29.8953V32.5512H12.3075L16.3554 28.7665Z" fill="#717579"/>
<path d="M27.0932 29.8953H19.1677L13.8982 34.8221C13.6274 35.0667 13.2664 35.2046 12.8898 35.2072H2.94739V45.8309C2.95069 46.8865 3.40067 47.8981 4.19906 48.6445C4.99744 49.391 6.07934 49.8117 7.20842 49.8148H27.0932C28.2223 49.8117 29.3042 49.391 30.1026 48.6445C30.901 47.8981 31.351 46.8865 31.3543 45.8309V33.8792C31.351 32.8236 30.901 31.812 30.1026 31.0656C29.3042 30.3191 28.2223 29.8984 27.0932 29.8953Z" fill="#717579"/>
<path d="M17.8331 4H50.8562V34.8752H27.8331C22.3103 34.8752 17.8331 30.398 17.8331 24.8752V4Z" fill="white"/>
<path d="M34.3447 36.8752C44.4395 36.8752 52.8562 29.1927 52.8562 19.4376C52.8562 9.6825 44.4395 2 34.3447 2C24.2499 2 15.8331 9.6825 15.8331 19.4376C15.8331 29.1927 24.2499 36.8752 34.3447 36.8752Z" fill="#3A36DB" stroke="#FBFBFB" stroke-width="4"/>
<path d="M27.5154 23.9758V22.6458L30.7074 19.2438C31.1368 18.7772 31.4448 18.3665 31.6314 18.0118C31.8181 17.6478 31.9114 17.2792 31.9114 16.9058C31.9114 15.9538 31.3374 15.4778 30.1894 15.4778C29.2934 15.4778 28.4674 15.8138 27.7114 16.4858L27.1094 15.1418C27.5014 14.7872 27.9914 14.5025 28.5794 14.2878C29.1674 14.0732 29.7788 13.9658 30.4134 13.9658C31.4681 13.9658 32.2754 14.2038 32.8354 14.6798C33.4048 15.1558 33.6894 15.8372 33.6894 16.7238C33.6894 17.3212 33.5448 17.8952 33.2554 18.4458C32.9754 18.9965 32.5321 19.5892 31.9254 20.2238L29.7554 22.4918H34.0674V23.9758H27.5154ZM39.074 24.1158C38.43 24.1158 37.8046 24.0178 37.198 23.8218C36.5913 23.6165 36.0966 23.3412 35.714 22.9958L36.302 21.6238C37.1513 22.2772 38.066 22.6038 39.046 22.6038C39.634 22.6038 40.0913 22.4545 40.418 22.1558C40.754 21.8478 40.922 21.4372 40.922 20.9238C40.922 20.4012 40.7633 19.9812 40.446 19.6638C40.1286 19.3372 39.6946 19.1738 39.144 19.1738C38.36 19.1738 37.7113 19.4865 37.198 20.1118H35.994V14.1058H42.056V15.5898H37.744V18.2638C38.2386 17.8905 38.8453 17.7038 39.564 17.7038C40.1893 17.7038 40.7306 17.8392 41.188 18.1098C41.6546 18.3712 42.014 18.7398 42.266 19.2158C42.5273 19.6825 42.658 20.2285 42.658 20.8538C42.658 21.4978 42.5133 22.0672 42.224 22.5618C41.9346 23.0472 41.5193 23.4298 40.978 23.7098C40.446 23.9805 39.8113 24.1158 39.074 24.1158Z" fill="white"/>
</svg>
