<svg width="87" height="87" viewBox="0 0 87 87" fill="none" xmlns="http://www.w3.org/2000/svg">
<path d="M10.8749 0H57.0745L81.5623 24.3927V81.5625C81.5623 84.5667 79.1265 87 76.1249 87H10.8749C7.87337 87 5.4375 84.5667 5.4375 81.5625V5.43745C5.4375 2.43333 7.87365 0 10.8749 0Z" fill="#E2574C"/>
<path d="M81.4836 24.4686H62.5312C59.5296 24.4686 57.0938 22.0327 57.0938 19.0311V0.0541992L81.4836 24.4686Z" fill="#B53629"/>
<path d="M61.1666 41.2243C62.0775 41.2243 62.5233 40.4304 62.5233 39.661C62.5233 38.8644 62.0583 38.095 61.1666 38.095H55.9792C54.9651 38.095 54.3997 38.935 54.3997 39.8622V52.6103C54.3997 53.7468 55.0467 54.3775 55.9221 54.3775C56.7922 54.3775 57.442 53.7468 57.442 52.6103V49.1114H60.5795C61.5528 49.1114 62.0395 48.3147 62.0395 47.5236C62.0395 46.7489 61.5528 45.9793 60.5795 45.9793H57.442V41.2243C57.442 41.2243 61.1666 41.2243 61.1666 41.2243ZM43.6334 38.095H39.8379C38.8075 38.095 38.0761 38.8019 38.0761 39.8512V52.6213C38.0761 53.9235 39.1282 54.3314 39.8812 54.3314H43.8643C48.5785 54.3314 51.6915 51.2293 51.6915 46.4414C51.689 41.3793 48.7583 38.095 43.6334 38.095ZM43.8156 51.1832H41.5019V41.2434H43.5872C46.7438 41.2434 48.1166 43.3614 48.1166 46.2839C48.1166 49.0191 46.768 51.1832 43.8156 51.1832ZM29.9119 38.095H26.1519C25.0888 38.095 24.4961 38.7963 24.4961 39.8622V52.6103C24.4961 53.7468 25.1757 54.3775 26.0892 54.3775C27.0026 54.3775 27.6822 53.7468 27.6822 52.6103V48.8883H30.0393C32.9483 48.8883 35.349 46.8274 35.349 43.5133C35.3493 40.2701 33.033 38.095 29.9119 38.095ZM29.8494 45.898H27.6825V41.0884H29.8494C31.1871 41.0884 32.038 42.1323 32.038 43.4944C32.0352 44.854 31.1871 45.898 29.8494 45.898Z" fill="white"/>
</svg>
