<svg width="47" height="55" viewBox="0 0 47 55" fill="none" xmlns="http://www.w3.org/2000/svg">
<path d="M22.6119 43.7199L23.5924 47H31L22.5452 24H15.548L7 47H14.1837L15.2309 43.7199H22.6119ZM19.0333 31.7027H19.0973L21.1756 38.7959H16.7897L19.0333 31.7027Z" fill="black"/>
<path d="M28.5323 15V19.5303H24V23.4718H28.5323V28H32.4656V23.4718H37V19.5303H32.4656V15H28.5323Z" fill="black"/>
<path d="M36.0884 0L35.6868 0.0362102L35.6506 0H0V55H46.1203V14.7985V10.4713V10.0368L36.0884 0ZM4.56104 50.5V27.5V4H19H33.9882V12.295H41.5V50.5H4.56104Z" fill="black"/>
</svg>
