<svg width="50" height="30" viewBox="0 0 50 30" fill="none" xmlns="http://www.w3.org/2000/svg">
<path d="M17.6923 14.4162C17.6923 18.3023 21.0256 21.5617 25 21.5617C28.9744 21.5617 32.3077 18.3023 32.3077 14.4162C32.3077 10.5301 28.9744 7.27079 25 7.27079C21.0256 7.27079 17.6923 10.5301 17.6923 14.4162ZM28.0769 29.8353C36.6667 27.9549 50 16.798 50 16.798C50 16.798 40.1282 1.75502 26.9231 0.125358C26.1538 -7.19175e-07 23.5897 0 23.0769 0C10.2564 1.25358 0 17.1741 0 17.1741C0 17.1741 11.1538 27.9549 21.7949 29.5846C22.9487 30.086 26.7949 30.086 28.0769 29.8353ZM12.3077 15.1684C12.3077 8.64973 17.9487 3.38468 25 3.38468C32.0513 3.38468 37.6923 8.64973 37.6923 15.1684C37.6923 21.687 32.0513 26.8267 25 26.8267C17.9487 26.8267 12.3077 21.5617 12.3077 15.1684Z" fill="#717579"/>
</svg>
