<svg width="21" height="23" viewBox="0 0 21 23" fill="none" xmlns="http://www.w3.org/2000/svg">
<path d="M1.32462 0.00189458C0.574592 0.0658356 0 0.604125 0 1.25419V21.7265C0 22.4199 0.655184 22.9788 1.47808 22.9788H19.5219C20.3448 22.9788 21 22.4199 21 21.7265V6.34503H15.5642C14.4513 6.34503 13.4804 5.66093 13.4804 4.75244V0.00189458H1.47808C1.42665 0.00189458 1.37462 -0.00236823 1.32462 0.00189458ZM14.5142 0.00189458V4.75244C14.5142 5.12576 14.936 5.47387 15.5642 5.47387H21L14.5142 0.00189458ZM11.7923 8.32556L13.5369 8.72031L7.92346 13.4504C7.86458 13.4236 7.82938 13.3889 7.76192 13.362C7.55954 13.2812 7.32545 13.1959 7.08346 13.1238C6.82392 13.0463 6.56276 12.9798 6.33231 12.9264L11.7923 8.32556ZM13.8519 8.98574L16.9212 11.572L11.2269 16.2C10.8765 15.9933 10.489 15.9113 10.1446 15.8734C9.73628 15.8284 9.40677 15.7926 9.12692 15.5603C8.85327 15.3331 8.80155 15.0492 8.74731 14.7027C8.69576 14.3734 8.6202 13.9938 8.28692 13.675L13.8519 8.98574ZM17.2281 11.8374L17.7046 13.3211L12.3012 17.8743C12.1559 17.1698 11.8193 16.7229 11.55 16.4587L17.2281 11.8374ZM5.99308 13.2463C6.24526 13.298 6.59427 13.3843 6.93 13.4845C7.16183 13.5536 7.38621 13.6228 7.56808 13.6955C7.74995 13.7681 7.89295 13.8529 7.93154 13.886C8.20103 14.1173 8.2487 14.4098 8.30308 14.7572C8.35746 15.1046 8.42324 15.503 8.81192 15.8257C9.20316 16.1506 9.67963 16.2027 10.0881 16.2477C10.4965 16.2926 10.8335 16.3356 11.1138 16.5676C11.3353 16.7508 11.7847 17.2816 11.8973 18.1738L5.70231 19.8276C5.59242 19.5059 5.3873 19.2015 5.08846 18.9496C4.78962 18.6978 4.43635 18.525 4.05462 18.4324L5.99308 13.2463ZM3.91731 18.7931C4.23287 18.8687 4.52655 19.007 4.77346 19.2151C5.01885 19.4219 5.18415 19.6724 5.27423 19.9365L3.29538 20.4674L3.91731 18.7931Z" fill="#717579"/>
</svg>

