<svg width="50" height="50" viewBox="0 0 50 50" fill="none" xmlns="http://www.w3.org/2000/svg">
<path d="M30 10.6591C30 13.2322 27.7614 15.3182 25 15.3182C22.2386 15.3182 20 13.2322 20 10.6591C20 8.08595 22.2386 6 25 6C27.7614 6 30 8.08595 30 10.6591Z" fill="black"/>
<path d="M30 26.5C30 29.0731 27.7614 31.1591 25 31.1591C22.2386 31.1591 20 29.0731 20 26.5C20 23.9269 22.2386 21.8409 25 21.8409C27.7614 21.8409 30 23.9269 30 26.5Z" fill="black"/>
<path d="M30 42.3409C30 44.9141 27.7614 47 25 47C22.2386 47 20 44.9141 20 42.3409C20 39.7678 22.2386 37.6818 25 37.6818C27.7614 37.6818 30 39.7678 30 42.3409Z" fill="black"/>
</svg>
