<svg width="4" height="16" viewBox="0 0 10 41" fill="none" xmlns="http://www.w3.org/2000/svg">
<path d="M10 4.65909C10 7.23224 7.76142 9.31818 5 9.31818C2.23858 9.31818 0 7.23224 0 4.65909C0 2.08595 2.23858 0 5 0C7.76142 0 10 2.08595 10 4.65909Z" fill="#717579"/>
<path d="M10 20.5C10 23.0731 7.76142 25.1591 5 25.1591C2.23858 25.1591 0 23.0731 0 20.5C0 17.9269 2.23858 15.8409 5 15.8409C7.76142 15.8409 10 17.9269 10 20.5Z" fill="#717579"/>
<path d="M10 36.3409C10 38.9141 7.76142 41 5 41C2.23858 41 0 38.9141 0 36.3409C0 33.7678 2.23858 31.6818 5 31.6818C7.76142 31.6818 10 33.7678 10 36.3409Z" fill="#717579"/>
</svg>
