<svg width="28" height="25" viewBox="0 0 28 25" fill="none" xmlns="http://www.w3.org/2000/svg">
<path d="M15.4496 24.2769H1.7465C0.781899 24.2769 0 23.3711 0 22.2538C0 21.1365 0.781899 20.2307 1.7465 20.2307H15.4497C16.4142 20.2307 17.1962 21.1365 17.1962 22.2538C17.1961 23.3711 16.4142 24.2769 15.4496 24.2769Z" fill="#717579"/>
<path d="M26.1973 14.1614H1.7465C0.781899 14.1614 0 13.2557 0 12.1384C0 11.0211 0.781899 10.1154 1.7465 10.1154H26.1973C27.1619 10.1154 27.9438 11.0211 27.9438 12.1384C27.9438 13.2558 27.1619 14.1614 26.1973 14.1614Z" fill="#717579"/>
<path d="M26.1973 4.04615H1.7465C0.781899 4.04615 0 3.14043 0 2.02307C0 0.905722 0.781899 0 1.7465 0H26.1973C27.1619 0 27.9438 0.905722 27.9438 2.02307C27.9438 3.14043 27.1619 4.04615 26.1973 4.04615Z" fill="#717579"/>
</svg>
