<svg width="26" height="18" viewBox="0 0 26 18" fill="none" xmlns="http://www.w3.org/2000/svg">
<path d="M25.8596 7.09275L21.8669 0.4896C21.6836 0.186302 21.3481 1.14692e-08 20.9853 1.14692e-08H1.02185C0.457504 -8.23504e-05 0 0.443436 0 0.990484V13.6688C0 14.2158 0.457504 14.6593 1.02185 14.6593H3.05541C3.31192 16.3359 4.80624 17.6266 6.60605 17.6266C8.4059 17.6266 9.9003 16.3359 10.1568 14.6593H15.8432C16.0997 16.3359 17.5941 17.6266 19.3939 17.6266C21.1937 17.6266 22.6881 16.3359 22.9446 14.6593H24.9782C25.5425 14.6593 26 14.2158 26 13.6688V7.59364C25.9999 7.41759 25.9514 7.24467 25.8596 7.09275ZM3.25674 6.66925V2.42766H7.45236V6.66925H3.25674ZM6.60596 15.9495C5.58054 15.9495 4.74625 15.1408 4.74625 14.1467C4.74625 13.1527 5.58054 12.3439 6.60596 12.3439C7.63147 12.3439 8.46585 13.1527 8.46585 14.1467C8.46585 15.1408 7.63152 15.9495 6.60596 15.9495ZM13.8425 6.66925H9.39301V2.42766H13.8425V6.66925ZM19.3938 15.9495C18.3684 15.9495 17.5341 15.1408 17.5341 14.1467C17.5341 13.1527 18.3684 12.3439 19.3938 12.3439C20.4193 12.3439 21.2536 13.1527 21.2536 14.1467C21.2536 15.1408 20.4192 15.9495 19.3938 15.9495ZM15.783 6.66925V2.42766H19.832L22.7431 6.66925H15.783Z" fill="#717579"/>
</svg>
