<svg width="33" height="34" viewBox="0 0 33 34" fill="none" xmlns="http://www.w3.org/2000/svg">
<g clip-path="url(#clip0_90_240)">
<path d="M25.1509 21.4004C25.151 21.3966 25.1509 21.3928 25.1509 21.3889L25.1583 9.51522C25.1581 9.4212 25.1482 9.32747 25.1288 9.23566L25.0551 8.97164L24.9814 8.81632L24.9003 8.73088C24.7989 8.57592 24.6716 8.44171 24.5245 8.33483L24.4508 8.25719L24.3623 8.164L24.1707 8.10186C24.0629 8.06826 23.9514 8.04995 23.839 8.04748L12.5109 8.07081C11.7569 8.06764 11.1431 8.70919 11.1401 9.50372C11.14 9.50754 11.1401 9.51137 11.1401 9.51522C11.1576 10.3009 11.7579 10.9334 12.5036 10.9519L19.2326 10.9596C19.5204 10.9626 19.7515 11.2109 19.7486 11.5141C19.7473 11.6552 19.6945 11.7904 19.6011 11.8915L8.6268 23.4546C8.09352 24.0164 8.09345 24.9273 8.62666 25.4892C9.15988 26.0511 10.0244 26.0511 10.5577 25.4893C10.5577 25.4893 10.5578 25.4892 10.5578 25.4892L21.5321 13.9261C21.7385 13.7148 22.0685 13.7196 22.2691 13.937C22.3624 14.0382 22.4153 14.1733 22.4166 14.3144L22.4092 21.3889C22.423 22.1806 23.0288 22.8188 23.7801 22.8333C24.5342 22.8365 25.148 22.195 25.1509 21.4004Z" fill="white"/>
</g>
<defs>
<clipPath id="clip0_90_240">
<rect width="23.397" height="23.397" fill="white" transform="matrix(0.6884 0.725331 -0.6884 0.725331 16.6762 0.029541)"/>
</clipPath>
</defs>
</svg>
