<svg width="23" height="20" viewBox="0 0 23 20" fill="none" xmlns="http://www.w3.org/2000/svg">
<path d="M7.3615 6.16806L10.4558 3.304V15.1612C10.4558 15.6956 10.9239 16.1289 11.5012 16.1289C12.0786 16.1289 12.5467 15.6956 12.5467 15.1612V3.30406L15.6407 6.16806C15.8448 6.35703 16.1124 6.45155 16.3799 6.45155C16.6474 6.45155 16.915 6.3571 17.1191 6.16806C17.5274 5.79013 17.5274 5.17742 17.1191 4.79948L12.2407 0.283613C12.2162 0.260968 12.1905 0.239548 12.1638 0.219226C12.1522 0.210452 12.14 0.202839 12.1282 0.194645C12.1127 0.183871 12.0976 0.172903 12.0815 0.162903C12.0671 0.153935 12.0521 0.146194 12.0373 0.138C12.0228 0.129935 12.0087 0.121613 11.9938 0.114194C11.9786 0.10671 11.9632 0.100452 11.9477 0.0936774C11.9322 0.0869032 11.917 0.0797419 11.901 0.0736129C11.8861 0.0679355 11.8709 0.0632903 11.8558 0.0582581C11.8388 0.0525806 11.822 0.0465162 11.8045 0.0416129C11.7894 0.0374194 11.7742 0.0343871 11.759 0.0308387C11.7412 0.0266451 11.7235 0.022 11.7054 0.0186451C11.6879 0.0154838 11.6703 0.0136129 11.6527 0.0112258C11.6366 0.00903224 11.6207 0.00625809 11.6043 0.00477422C11.5721 0.00187099 11.5398 0.000451594 11.5075 0.000258046C11.5054 0.000258046 11.5034 0 11.5013 0C11.4993 0 11.4972 0.000258046 11.4952 0.000258046C11.4628 0.000387078 11.4305 0.00187099 11.3982 0.00477422C11.3823 0.00625809 11.3666 0.00896774 11.3508 0.0110968C11.3328 0.0134839 11.3149 0.0154194 11.2971 0.0187097C11.2794 0.0219355 11.2622 0.0264516 11.2449 0.0305161C11.2291 0.0341935 11.2134 0.0374194 11.1978 0.041742C11.181 0.0464516 11.1646 0.0523226 11.1481 0.0578064C11.1325 0.0630322 11.1166 0.0678064 11.1012 0.0737419C11.0858 0.0796129 11.0712 0.0865161 11.0563 0.0930323C11.0402 0.1 11.0241 0.106645 11.0083 0.114387C10.9941 0.121419 10.9807 0.129419 10.9669 0.137032C10.9513 0.145548 10.9357 0.153677 10.9206 0.163032C10.9055 0.172387 10.8913 0.182839 10.8767 0.192839C10.8639 0.201677 10.8509 0.209871 10.8385 0.219355C10.813 0.238645 10.7887 0.259097 10.7654 0.280452C10.7642 0.281484 10.7631 0.282323 10.7619 0.283355L5.88309 4.79942C5.47488 5.17735 5.47481 5.79006 5.88309 6.168C6.29131 6.546 6.95329 6.54587 7.3615 6.16806Z" fill="#8C8C8C"/>
<path d="M21.9545 9.67725C21.3772 9.67725 20.9091 10.1105 20.9091 10.645V18.0643H2.09091V10.645C2.09091 10.1105 1.62282 9.67725 1.04545 9.67725C0.468085 9.67725 0 10.1105 0 10.645V19.0321C0 19.5665 0.468085 19.9998 1.04545 19.9998H21.9545C22.5319 19.9998 23 19.5665 23 19.0321V10.645C23 10.1105 22.5319 9.67725 21.9545 9.67725Z" fill="#8C8C8C"/>
</svg>
