<svg width="21" height="13" viewBox="0 0 21 13" fill="none" xmlns="http://www.w3.org/2000/svg">
<path d="M7.43077 6.24703C7.43077 7.93101 8.83077 9.34338 10.5 9.34338C12.1692 9.34338 13.5692 7.93101 13.5692 6.24703C13.5692 4.56305 12.1692 3.15068 10.5 3.15068C8.83077 3.15068 7.43077 4.56305 7.43077 6.24703ZM11.7923 12.9286C15.4 12.1138 21 7.27915 21 7.27915C21 7.27915 16.8538 0.760508 11.3077 0.0543217C10.9846 -3.09199e-07 9.90769 0 9.69231 0C4.30769 0.54322 0 7.44211 0 7.44211C0 7.44211 4.68461 12.1138 9.15385 12.82C9.63846 13.0373 11.2538 13.0373 11.7923 12.9286ZM5.16923 6.57296C5.16923 3.74822 7.53846 1.46669 10.5 1.46669C13.4615 1.46669 15.8308 3.74822 15.8308 6.57296C15.8308 9.39771 13.4615 11.6249 10.5 11.6249C7.53846 11.6249 5.16923 9.34338 5.16923 6.57296Z" fill="white" fill-opacity="0.7"/>
</svg>
