<svg width="35" height="35" viewBox="0 0 35 35" fill="none" xmlns="http://www.w3.org/2000/svg">
<path d="M4.10439 22.5562L2.25716 30.5284C2.19344 30.8199 2.19563 31.1218 2.26356 31.4123C2.33149 31.7028 2.46345 31.9744 2.64981 32.2074C2.83616 32.4403 3.0722 32.6287 3.34068 32.7587C3.60916 32.8888 3.9033 32.9572 4.20161 32.959C4.34061 32.973 4.48067 32.973 4.61967 32.959L12.6405 31.1118L28.0405 15.7701L19.4461 7.19509L4.10439 22.5562Z" fill="#717579"/>
<path d="M32.8822 8.08954L27.1461 2.35343C26.7689 1.97821 26.2586 1.76758 25.7266 1.76758C25.1946 1.76758 24.6843 1.97821 24.3072 2.35343L21.1183 5.54231L29.703 14.127L32.8919 10.9381C33.0785 10.7506 33.2263 10.5281 33.3268 10.2833C33.4274 10.0386 33.4786 9.77641 33.4777 9.51183C33.4768 9.24724 33.4238 8.98543 33.3216 8.74138C33.2194 8.49733 33.0701 8.27582 32.8822 8.08954Z" fill="#717579"/>
</svg>
