<svg width="427" height="310" viewBox="0 0 457 310" fill="none" xmlns="http://www.w3.org/2000/svg">
                <path d="M244.249 292.083H283.696V291.876H244.249V292.083Z" fill="#E6E6E6" />
                <path d="M230.338 292.083H236.119V291.876H230.338V292.083Z" fill="#E6E6E6" />
                <path d="M224.146 200.768H244.231V273.142H224.146V200.768Z" fill="#DFDFDF" />
                <path d="M240.413 273.142H244.231V263.285H236.413L240.413 273.142Z" fill="#F9F9F9" />
                <path d="M136.135 200.768H156.22V273.142H136.135V200.768Z" fill="#DFDFDF" />
                <path d="M152.895 200.769H244.23V267.093H152.895V200.769Z" fill="#F9F9F9" />
                <path
                    d="M240.915 204.028V221.577H156.184V204.028H240.887H240.915ZM241.244 203.705H155.854V221.892H241.271V203.705H241.244Z"
                    fill="#DFDFDF" />
                <path d="M156.704 273.142H152.895V263.285H160.703L156.704 273.142Z" fill="#F9F9F9" />
                <path
                    d="M196.544 212.799C196.544 213.811 197.448 214.632 198.562 214.632C199.677 214.632 200.581 213.811 200.581 212.799C200.581 211.786 199.677 210.965 198.562 210.965C197.448 210.965 196.544 211.786 196.544 212.799Z"
                    fill="#E6E6E6" />
                <path
                    d="M240.915 225.152V242.7H156.184V225.152H240.887H240.915ZM241.244 224.837H155.854V243.024H241.271V224.845L241.244 224.837Z"
                    fill="#DFDFDF" />
                <path
                    d="M196.544 233.972C196.544 234.984 197.448 235.805 198.562 235.805C199.677 235.805 200.581 234.984 200.581 233.972C200.581 232.959 199.677 232.138 198.562 232.138C197.448 232.138 196.544 232.959 196.544 233.972Z"
                    fill="#E6E6E6" />
                <path
                    d="M240.915 246.284V263.84H156.184V246.284H240.887H240.915ZM241.244 245.961H155.854V264.156H241.271V245.961H241.244Z"
                    fill="#DFDFDF" />
                <path
                    d="M196.544 255.062C196.55 256.075 197.456 256.893 198.571 256.888C199.686 256.884 200.586 256.058 200.581 255.046C200.575 254.036 199.673 253.221 198.562 253.221C197.447 253.221 196.544 254.042 196.544 255.054V255.062Z"
                    fill="#E6E6E6" />
                <path d="M123.869 158.736H143.954V273.15H123.869V158.736Z" fill="#DFDFDF" />
                <path d="M140.136 273.142H143.953V263.285H136.144L140.136 273.142Z" fill="#F9F9F9" />
                <path d="M48.8096 158.736H68.8943V273.15H48.8096V158.736Z" fill="#DFDFDF" />
                <path d="M65.5605 158.736H143.954V267.102H65.5605V158.736Z" fill="#F9F9F9" />
                <path
                    d="M140.574 186.324H68.9402V161.79H140.574V186.324ZM140.994 161.416H68.5015V186.68H140.976V161.424L140.994 161.416Z"
                    fill="#DFDFDF" />
                <path
                    d="M140.574 254.391H106.451V189.318H140.574V254.391ZM140.994 188.937H106.041V254.772H140.994V188.937Z"
                    fill="#DFDFDF" />
                <path
                    d="M103.063 189.318V254.391H68.9402V189.318H103.063ZM103.474 188.937H68.5015V254.772H103.457V188.937H103.474Z"
                    fill="#DFDFDF" />
                <path d="M69.3779 273.142H65.5596V263.285H73.3783L69.3779 273.142Z" fill="#F9F9F9" />
                <path
                    d="M102.734 174.068C102.729 175.086 103.633 175.915 104.753 175.919C105.873 175.923 106.785 175.103 106.79 174.086C106.794 173.068 105.891 172.24 104.772 172.235C104.768 172.235 104.765 172.235 104.762 172.235C103.646 172.235 102.74 173.054 102.734 174.068Z"
                    fill="#E6E6E6" />
                <path
                    d="M109.968 220.307C109.968 221.324 110.875 222.149 111.994 222.149C113.115 222.149 114.023 221.324 114.023 220.307C114.023 219.29 113.115 218.465 111.994 218.465C111.991 218.465 111.988 218.465 111.986 218.465C110.871 218.465 109.968 219.286 109.968 220.299C109.968 220.302 109.968 220.304 109.968 220.307Z"
                    fill="#E6E6E6" />
                <path
                    d="M95.5093 220.306C95.5145 221.319 96.4211 222.137 97.536 222.132C98.6508 222.128 99.5507 221.302 99.5455 220.29C99.5403 219.28 98.6381 218.465 97.527 218.465C96.4122 218.465 95.5093 219.285 95.5093 220.298C95.5093 220.301 95.5093 220.304 95.5093 220.306Z"
                    fill="#E6E6E6" />
                <path
                    d="M93.2261 126.834H84.759C85.5388 130.565 86.0305 134.342 86.229 138.135C86.229 142.284 79.7811 158.737 88.9691 158.737C98.1578 158.737 91.7091 142.325 91.7091 138.135C91.9233 134.341 92.4307 130.565 93.2261 126.834Z"
                    fill="#DFDFDF" />
                <path
                    d="M61.0127 143.66V148.639C61.0328 154.194 65.9846 158.692 72.0998 158.711H77.5806C83.6965 158.692 88.649 154.194 88.6692 148.639V143.66H61.0127Z"
                    fill="#F5F5F5" />
                <path
                    d="M178.716 190.214C178.716 196.022 185.867 200.767 194.608 200.767H202.499C211.24 200.767 218.391 196.022 218.391 190.214H178.716Z"
                    fill="#DFDFDF" />
                <path
                    d="M387.818 181.701C383.032 185.253 376.419 191.749 370.373 200.892C366.336 206.982 363.907 213.337 362.838 221.783C362.838 212.242 362.902 201.996 362.938 192.321C364.153 189.832 366.93 184.091 368.921 179.561C375.561 164.436 378.054 160.71 384.018 147.667C391.992 130.244 400.157 109.618 397.819 111.27C393.051 114.63 374.784 145.702 372.812 150.148C367.434 162.017 364.11 174.568 362.957 187.36C362.957 178.234 363.03 169.937 363.067 163.498C363.194 142.499 363.587 135.72 363.779 133.629C364.519 132.568 365.387 131.331 365.898 130.668C370.191 125.026 371.843 120.23 375.88 111.817C381.616 99.9108 386.549 78.7619 385.106 79.8241C379.096 84.2715 374.364 93.8129 368.136 105.984C361.906 118.156 363.687 125.15 362.454 135.538C362.199 137.579 361.997 145.278 361.852 155.94C360.244 144.573 357.212 137.089 351.686 130.286C344.891 121.914 338.314 116.264 333.492 113.311C328.67 110.356 341.822 130.916 348.105 139.861C353.705 147.858 358.865 154.903 361.806 161.847C361.65 176.308 361.577 194.611 361.577 211.628C360.135 203.879 357.778 195.524 354.636 189.061C350.855 181.295 345.046 169.381 340.415 165.34C339.31 164.37 345.256 187.542 349.074 193.699C352.891 199.855 355.696 205.671 358.098 209.164C358.655 209.993 360.518 213.122 361.577 214.93C361.577 235.731 361.706 254.084 361.906 260.331H362.893C362.829 258.721 362.811 248.135 362.838 234.13C365.222 226.53 370.665 217.851 375.159 209.936C380.055 201.365 392.604 178.175 387.818 181.701Z"
                    fill="#DFDFDF" />
                <path d="M376.703 273.141H348.079L345.914 247.653H378.868L376.703 273.141Z" fill="#EFEFEF" />
                <path d="M380.995 250.623H343.776L342.716 242.02H382.064L380.995 250.623Z" fill="#F5F5F5" />
                <path d="M62.2988 17.0093H113.493V68.0757H62.2988V17.0093Z" fill="#DFDFDF" />
                <path d="M66.1538 17.0093H119.037V68.0757H66.1538V17.0093Z" fill="#F5F5F5" />
                <path d="M114.608 64.052H70.5835V21.033H114.608V64.052Z" fill="white" />
                <path d="M103.93 53.6144H81.2515V31.4542H103.93V53.6144Z" fill="#F5F5F5" />
                <path d="M326.962 22.9574H374.52V70.3987H326.962V22.9574Z" fill="#DFDFDF" />
                <path d="M330.551 22.9574H379.671V70.3987H330.551V22.9574Z" fill="#F5F5F5" />
                <path d="M375.561 66.657H334.671V26.6991H375.561V66.657Z" fill="white" />
                <path
                    d="M355.111 35.0875C362.158 35.0875 367.87 40.2778 367.87 46.6787C367.87 53.0804 362.158 58.27 355.111 58.27C348.064 58.27 342.352 53.0804 342.352 46.6787C342.352 40.2778 348.064 35.0875 355.111 35.0875Z"
                    fill="#F5F5F5" />
                <path d="M128.7 47.4583H166.677V85.3419H128.7V47.4583Z" fill="#DFDFDF" />
                <path d="M131.559 47.4583H170.788V85.3419H131.559V47.4583Z" fill="#F5F5F5" />
                <path d="M167.499 82.3552H134.847V50.4448H167.499V82.3552Z" fill="white" />
                <path d="M151.177 58.3269L142.245 72.3827H160.11L151.177 58.3269Z" fill="#F5F5F5" />
                <path
                    d="M228.338 290.325C326.142 290.325 405.427 294.531 405.427 299.718C405.427 304.905 326.142 309.11 228.338 309.11C130.534 309.11 51.2485 304.905 51.2485 299.718C51.2485 294.531 130.534 290.325 228.338 290.325Z"
                    fill="#F5F5F5" />
                <path
                    d="M318.604 89.9489L309.53 86.6655C309.53 86.6655 297.685 106.516 294.267 107.533C289.618 108.911 279.997 112.733 274.286 113.419C273.514 114.251 272.259 116.837 272.383 117.774C280.073 120.075 296.927 116.915 300.529 114.462C308.726 108.896 318.604 89.9489 318.604 89.9489Z"
                    fill="#E4897A" />
                <path
                    d="M321.376 85.4334C323.095 91.0934 314.01 102.529 314.01 102.529L301.994 96.4686C301.994 96.4686 304.215 91.7721 306.927 86.9909C311.276 79.267 319.416 78.9778 321.376 85.4334Z"
                    fill="#0288D1" />
                <path
                    d="M321.376 85.4334C323.095 91.0934 314.01 102.529 314.01 102.529L301.994 96.4686C301.994 96.4686 304.215 91.7721 306.927 86.9909C311.276 79.267 319.416 78.9778 321.376 85.4334Z"
                    fill="#0288D1" />
                <path
                    d="M306.761 98.8894L311.489 101.278L312.248 88.1074C309.514 90.0343 307.611 95.8162 306.761 98.8894Z"
                    fill="#0288D1" />
                <path
                    d="M313.471 81.2006C313.471 81.2006 304.245 100.104 309.871 135.21L346.621 135.067C347.178 129.938 345.11 104.923 351.982 80.7357C347.946 80.0349 343.865 79.5769 339.764 79.3644C334.562 79.1108 329.348 79.1311 324.149 79.4251C320.546 79.772 316.977 80.3654 313.471 81.2006Z"
                    fill="#0288D1" />
                <path
                    d="M313.471 81.2006C313.471 81.2006 304.245 100.103 309.871 135.21L346.621 135.067C347.178 129.938 345.11 104.923 351.982 80.7357C347.946 80.0349 343.865 79.5769 339.764 79.3644C334.562 79.1108 329.348 79.1311 324.149 79.4251C320.546 79.772 316.977 80.3654 313.471 81.2006Z"
                    fill="#0288D1" />
                <path
                    d="M305.97 300.5C305.92 301.397 319.869 302.065 337.122 301.998C354.375 301.932 368.418 301.156 368.468 300.259C368.518 299.363 354.578 298.703 337.316 298.769C320.054 298.836 306.03 299.612 305.97 300.5Z"
                    fill="#E8EBF0" />
                <path d="M323.899 279.181L330.404 276.862L336.089 290.026L329.583 292.345L323.899 279.181Z"
                    fill="#E4897A" />
                <path d="M359.58 293.913L352.708 293.939L350.113 279.488L356.984 279.462L359.58 293.913Z"
                    fill="#E4897A" />
                <path
                    d="M352.221 293.22L359.947 293.19C360.223 293.189 360.46 293.371 360.506 293.619L361.531 299.165C361.614 299.701 361.204 300.196 360.615 300.272C360.563 300.278 360.511 300.282 360.459 300.281C357.765 300.25 356.468 300.106 353.071 300.119C350.979 300.127 346.68 300.343 343.776 300.354C340.873 300.365 340.667 297.778 341.862 297.533C347.225 296.458 349.3 295.015 351.082 293.614C351.396 293.361 351.801 293.221 352.221 293.22Z"
                    fill="#253138" />
                <path
                    d="M329.377 291.168L336.672 289.197C336.94 289.127 337.225 289.237 337.358 289.461L340.124 294.428C340.368 294.906 340.139 295.473 339.613 295.694C339.559 295.717 339.503 295.735 339.446 295.75C336.792 296.424 335.014 296.837 331.695 297.729C329.407 298.344 327.074 299.34 324.813 300.004C323.246 300.466 319.557 300.497 317.648 300.505C314.826 300.516 314.182 297.814 315.396 297.684C318.453 297.365 318.865 297.505 320.55 296.727C323.308 295.618 325.804 294.037 327.903 292.069C328.298 291.656 328.807 291.345 329.377 291.168Z"
                    fill="#253138" />
                <path
                    d="M275.417 113.38L267.842 110.531L264.769 118.159C267.87 118.576 271.021 118.564 274.117 118.122L275.417 113.38Z"
                    fill="#E4897A" />
                <path d="M262.217 110.353L262.043 115.415L264.768 118.142L267.838 110.514L262.217 110.353Z"
                    fill="#E4897A" />
                <path d="M324.779 280.298L331.305 277.977L334.238 284.785L327.711 287.105L324.779 280.298Z"
                    fill="#CF6E63" />
                <path d="M356.988 279.462L350.113 279.488L351.46 286.942L358.332 286.915L356.988 279.462Z"
                    fill="#CF6E63" />
                <path
                    d="M308.64 125.715C308.785 127.216 308.948 128.75 309.157 130.326L336.447 122.155C340.709 120.989 344.405 118.537 346.927 115.204C347.024 112.988 347.149 110.657 347.346 108.224C347.431 107.046 347.534 105.834 347.646 104.606C347.759 103.378 347.916 102.017 348.082 100.705L308.64 125.715Z"
                    fill="#0288D1" />
                <path
                    d="M317.433 98.4662L316.52 98.3708C317.036 94.2204 320.424 90.9387 324.011 91.0074L324.015 91.8371C320.875 91.791 317.897 94.7472 317.433 98.4662Z"
                    fill="white" />
                <path
                    d="M322.338 106.106L322.183 106.106L322.178 105.277C325.318 105.372 328.25 102.382 328.714 98.6719L329.628 98.768C329.165 102.827 325.888 106.092 322.338 106.106Z"
                    fill="white" />
                <path
                    d="M339.191 63.3778C337.928 67.954 336.458 76.3318 339.787 79.3637C339.787 79.3637 337.493 84.0111 328.158 84.0474C319.625 84.0805 324.172 79.4244 324.172 79.4244C329.842 78.191 329.923 74.4233 329.155 70.8588L339.191 63.3778Z"
                    fill="#E4897A" />
                <path
                    d="M335.103 66.4303L329.166 70.8595C329.356 71.6789 329.467 72.5109 329.499 73.3472C331.251 74.917 334.725 70.913 335.071 68.8706C335.247 68.066 335.258 67.2383 335.103 66.4303Z"
                    fill="#CF6E63" />
                <path
                    d="M318.875 63.398C319.72 64.7158 321.131 65.6539 322.768 65.9878C324.961 66.4192 326.046 64.5814 325.434 62.7421C324.886 61.0849 323.077 58.8605 320.852 59.2508C319.204 59.5663 318.151 61.0352 318.498 62.5325C318.569 62.838 318.696 63.131 318.875 63.398Z"
                    fill="#CF6E63" />
                <path
                    d="M322.426 48.7569C319.022 50.1889 317.884 62.5234 322.18 64.3314C326.476 66.1401 328.869 46.0353 322.426 48.7569Z"
                    fill="#253138" />
                <path
                    d="M340.203 56.4956C339.414 62.688 339.342 66.331 335.708 69.5147C332.335 72.6798 326.777 72.7577 323.294 69.6891C321.965 68.5189 321.077 66.9979 320.755 65.3418C319.621 59.7872 321.096 50.5961 327.91 48.1056C332.341 46.3077 337.54 48.1163 339.52 52.1465C340.19 53.5097 340.427 55.0163 340.203 56.4956Z"
                    fill="#E4897A" />
                <path
                    d="M328.97 51.9344C334.021 50.7449 337.731 49.934 336.419 53.7641C334.684 58.8817 332.593 63.8347 335.432 64.0473C337.168 64.1816 344.82 61.1985 343.828 58.207C342.965 55.6054 346.548 54.8777 347.18 53.5562C349.519 48.7684 342.758 49.425 343.948 46.5166C345.137 43.6081 338.431 38.9551 334.792 41.3003C328.869 45.09 318.672 45.0714 323.998 38.8532C327.817 34.4162 320.967 35.347 320.967 35.347C320.967 35.347 325.124 37.563 318.168 41.0416C310.812 44.7535 317.628 54.6255 328.97 51.9344Z"
                    fill="#253138" />
                <path
                    d="M342.929 63.305C341.937 64.6218 340.443 65.5563 338.735 65.9263C336.482 66.3749 335.605 64.5448 336.445 62.6999C337.194 61.0376 339.262 58.7981 341.418 59.1713C343.575 59.5445 344.079 61.6744 342.929 63.305Z"
                    fill="#E4897A" />
                <path
                    d="M309.818 135.211C309.818 135.211 303.928 185.43 303.545 204.481C303.158 224.296 324.841 286.031 324.841 286.031L335.746 281.841C335.746 281.841 322.699 225.406 324.417 205.943C326.236 184.721 333.95 135.15 333.95 135.15L309.818 135.211Z"
                    fill="#053F5F" />
                <path
                    d="M325.237 148.932C320.381 158.226 323.781 176.558 326.496 187.416C327.465 179.738 328.623 171.403 329.72 163.691C329.548 151.844 328.49 142.696 325.237 148.932Z"
                    fill="#053F5F" />
                <path
                    d="M335.244 278.558C335.299 278.558 336.557 281.723 336.557 281.723L323.947 286.6L321.939 283.24L335.244 278.558Z"
                    fill="#053F5F" />
                <path
                    d="M322.889 135.161C322.889 135.161 327.851 182.882 331.061 200.749C334.59 220.325 348.365 285.51 348.365 285.51L360.928 285.461C360.928 285.461 353.067 221.838 351.543 202.445C349.883 181.411 346.558 135.069 346.558 135.069L322.889 135.161Z"
                    fill="#053F5F" />
                <path
                    d="M361.104 282.482C361.159 282.482 361.541 285.674 361.541 285.674L347.697 285.728L346.691 282.065L361.104 282.482Z"
                    fill="#0288D1" />
                <path
                    d="M356.267 278.717C356.209 278.718 356.158 278.68 356.149 278.626C356.073 278.046 349.01 220.575 347.648 203.157C346.169 184.263 343.172 142.35 343.142 141.927C343.137 141.872 343.181 141.824 343.241 141.819C343.244 141.819 343.248 141.819 343.251 141.819C343.312 141.818 343.364 141.861 343.369 141.917C343.371 142.341 346.396 184.22 347.875 203.148C349.236 220.566 356.3 277.995 356.367 278.617C356.377 278.671 356.338 278.723 356.278 278.733C356.275 278.734 356.271 278.734 356.267 278.734L356.267 278.717Z"
                    fill="black" />
                <path
                    d="M329.771 58.2617C329.774 58.7681 329.429 59.1755 329.064 59.1769C328.699 59.1783 328.433 58.7733 328.466 58.2669C328.5 57.7604 328.808 57.3531 329.173 57.3517C329.538 57.3503 329.805 57.7641 329.771 58.2617Z"
                    fill="#253138" />
                <path
                    d="M323.506 58.286C323.509 58.7923 323.155 59.1998 322.799 59.2012C322.443 59.2026 322.168 58.7976 322.192 58.2912C322.217 57.7847 322.543 57.3774 322.908 57.376C323.273 57.3745 323.54 57.7883 323.506 58.286Z"
                    fill="#253138" />
                <path
                    d="M325.478 58.5353C324.724 60.0837 323.75 61.5361 322.58 62.8537C323.497 63.6798 325.201 63.2914 325.201 63.2914L325.478 58.5353Z"
                    fill="#DF5652" />
                <path
                    d="M325.678 65.4046C325.593 65.405 325.523 65.3422 325.523 65.2643C325.523 65.2615 325.522 65.2588 325.522 65.2561C325.527 65.1721 325.602 65.106 325.694 65.1057C327.109 65.1096 328.449 64.5302 329.338 63.5317C329.403 63.4799 329.501 63.4795 329.566 63.5308C329.628 63.5888 329.629 63.6803 329.567 63.7382C328.615 64.8 327.186 65.4123 325.678 65.4046Z"
                    fill="#253138" />
                <path
                    d="M330.88 56.7303C330.791 56.772 330.685 56.7724 330.596 56.7314C329.901 56.3274 329.037 56.2481 328.267 56.5175C328.114 56.5872 327.927 56.5317 327.849 56.3924C327.848 56.3904 327.847 56.3883 327.845 56.3863C327.774 56.2327 327.85 56.0562 328.017 55.9871C328.984 55.6241 330.086 55.7126 330.968 56.2243C331.114 56.3139 331.154 56.4947 331.055 56.6279C331.055 56.6286 331.053 56.63 331.052 56.6307C331.006 56.6783 330.947 56.7124 330.88 56.7303Z"
                    fill="#253138" />
                <path
                    d="M321.072 55.1095C321.023 55.0989 320.979 55.076 320.944 55.0436C320.817 54.9322 320.814 54.7479 320.937 54.6329C320.938 54.6315 320.94 54.6301 320.942 54.6288C321.647 53.9034 322.685 53.5184 323.749 53.5888C323.918 53.6119 324.035 53.7558 324.009 53.9098C324.009 53.9159 324.007 53.922 324.006 53.9281C323.966 54.0875 323.803 54.1946 323.624 54.1783C322.783 54.1335 321.966 54.4431 321.409 55.0167C321.325 55.1031 321.195 55.1389 321.072 55.1095Z"
                    fill="#253138" />
                <path
                    d="M355.567 88.8853L346.061 86.625C346.061 86.625 336.861 107.493 333.573 108.858C329.11 110.734 317.817 117.216 313.013 120.28C312.754 121.318 312.978 124.063 313.584 124.816C321.793 123.423 337.492 117.862 340.763 115.053C348.223 108.644 355.567 88.8853 355.567 88.8853Z"
                    fill="#E4897A" />
                <path
                    d="M349.919 294.323C349.456 294.359 348.994 294.246 348.612 294.005C348.371 293.809 348.262 293.514 348.324 293.226C348.335 293.047 348.454 292.887 348.632 292.81C349.398 292.45 351.55 293.678 351.797 293.818C351.853 293.849 351.879 293.91 351.862 293.967C351.847 294.026 351.798 294.074 351.735 294.092C351.14 294.228 350.531 294.305 349.919 294.323ZM348.999 293.033C348.93 293.019 348.858 293.019 348.789 293.034C348.718 293.067 348.675 293.136 348.681 293.208C348.632 293.405 348.703 293.61 348.866 293.747C349.224 294.036 350.118 294.065 351.295 293.853C350.592 293.437 349.8 293.157 348.971 293.033L348.999 293.033Z"
                    fill="#0288D1" />
                <path
                    d="M351.69 294.093C351.666 294.099 351.64 294.1 351.616 294.093C350.93 293.747 349.636 292.383 349.824 291.685C349.882 291.458 350.104 291.296 350.361 291.294C350.608 291.263 350.859 291.331 351.046 291.482C351.806 292.068 351.862 293.876 351.863 293.968C351.872 294.023 351.838 294.078 351.781 294.1C351.749 294.107 351.719 294.104 351.69 294.093ZM350.453 291.567L350.389 291.567C350.179 291.568 350.153 291.676 350.144 291.717C350.037 292.124 350.853 293.158 351.531 293.645C351.525 292.944 351.282 292.262 350.837 291.69C350.73 291.607 350.594 291.562 350.453 291.567Z"
                    fill="#0288D1" />
                <path
                    d="M325.665 293.38C325.107 293.559 324.498 293.561 323.938 293.387C323.679 293.26 323.51 293.023 323.487 292.757C323.463 292.591 323.535 292.424 323.677 292.317C324.404 291.717 327.393 292.303 327.732 292.418C327.798 292.433 327.843 292.488 327.842 292.55C327.845 292.614 327.806 292.673 327.742 292.7C327.072 292.978 326.377 293.206 325.665 293.38ZM324.171 292.398C324.067 292.418 323.968 292.461 323.888 292.524C323.829 292.564 323.801 292.632 323.816 292.698C323.829 292.875 323.939 293.034 324.11 293.12C324.595 293.351 325.718 293.164 327.167 292.602C326.187 292.382 325.175 292.313 324.171 292.398Z"
                    fill="#0288D1" />
                <path
                    d="M327.715 292.7L327.642 292.7C326.729 292.554 324.899 291.607 324.84 290.894C324.839 290.728 324.919 290.496 325.357 290.362C325.655 290.264 325.985 290.28 326.27 290.408C327.258 290.844 327.787 292.434 327.815 292.509C327.828 292.56 327.812 292.613 327.77 292.65C327.757 292.67 327.738 292.687 327.715 292.7ZM325.541 290.61L325.45 290.61C325.167 290.703 325.168 290.81 325.168 290.843C325.17 291.274 326.498 292.058 327.421 292.32C327.205 291.654 326.754 291.073 326.135 290.666C325.951 290.582 325.74 290.561 325.541 290.61Z"
                    fill="#0288D1" />
                <path
                    d="M313.76 119.787L304.26 123.807L303.168 126.301L306.694 128.436C306.694 128.436 313.264 127.763 315.115 123.915L313.76 119.787Z"
                    fill="#E4897A" />
                <path
                    d="M314.193 124.954C313.972 123.293 313.36 121.693 312.398 120.265L313.898 119.231C315.039 120.876 315.772 122.728 316.044 124.657L314.193 124.954Z"
                    fill="#253138" />
                <path
                    d="M315.797 120.958C316.342 121.729 316.097 122.756 315.248 123.251C314.4 123.746 313.271 123.522 312.725 122.75C312.18 121.979 312.426 120.953 313.274 120.458C313.367 120.404 313.465 120.357 313.566 120.319C314.376 119.94 315.372 120.224 315.797 120.958Z"
                    fill="#253138" />
                <path d="M297.836 127.05L299.111 128.208L307.64 124.856L304.256 123.806L297.836 127.05Z"
                    fill="#E4897A" />
                <path
                    d="M335.244 278.558C335.299 278.558 336.557 281.722 336.557 281.722L323.947 286.599L321.939 283.239L335.244 278.558Z"
                    fill="#0288D1" />
                <path
                    d="M361.104 282.482C361.159 282.482 361.541 285.675 361.541 285.675L347.697 285.728L346.691 282.065L361.104 282.482Z"
                    fill="#0288D1" />
                <path
                    d="M358.043 86.4862C360.592 93.8356 350.834 103.937 350.834 103.937L337.254 98.9634C338.837 94.7031 340.667 90.5219 342.736 86.438C346.855 78.2662 355.466 79.0705 358.043 86.4862Z"
                    fill="#053F5F" />
                <path
                    d="M358.043 86.4869C360.592 93.8363 350.834 103.938 350.834 103.938L337.254 98.9635C338.837 94.7032 340.667 90.5226 342.736 86.4387C346.855 78.2669 355.466 79.0712 358.043 86.4869Z"
                    fill="#0288D1" />
                <path d="M297.396 17.934H189.62L179.592 221.804H287.367L297.396 17.934Z" fill="#372655" />
                <path d="M294.182 20.7376H186.406L176.377 224.608H284.153L294.182 20.7376Z" fill="#F9F9F9" />
                <path d="M290.966 23.5337H183.191L173.153 227.404H280.928L290.966 23.5337Z" fill="#2068BD" />
                <path d="M278.7 112.451H186.707L185.94 128.05H277.932L278.7 112.451Z" fill="white" />
                <path d="M237.297 101.068H187.263L186.925 108.046H236.959L237.297 101.068Z" fill="#4A90E2" />
                <path d="M276.626 154.55H184.633L183.866 170.148H275.858L276.626 154.55Z" fill="white" />
                <path d="M259.757 191.214H197.895L196.973 209.908H258.835L259.757 191.214Z" fill="#4A90E2" />
                <path d="M226.492 143.167H185.191L184.853 150.153H226.145L226.492 143.167Z" fill="#4A90E2" />
                <path
                    d="M258.579 62.0647C258.343 66.6043 256.565 70.9662 253.491 74.5514C248.88 80.0399 241.729 83.2787 234.129 83.3214C221.866 83.4061 211.849 74.4449 211.756 63.3059C211.752 62.8917 211.764 62.4782 211.787 62.0647C212.455 50.222 223.166 40.9023 236.22 40.808C248.472 40.7043 258.497 49.6424 258.611 60.7727C258.615 61.2032 258.605 61.6343 258.579 62.0647Z"
                    fill="white" />
                <path
                    d="M260.779 45.2554C260.72 46.4627 260.247 47.6225 259.427 48.5742C258.198 50.0316 256.298 50.8924 254.276 50.9053C252.315 50.9162 250.474 50.0431 249.363 48.5742C248.638 47.5967 248.279 46.4329 248.34 45.2554C248.523 42.1116 251.368 39.6401 254.834 39.6137C258.092 39.5866 260.758 41.9645 260.788 44.924C260.788 45.0345 260.786 45.1449 260.779 45.2554Z"
                    fill="#4A90E2" />
                <path
                    d="M196.617 120.251C196.526 121.637 195.269 122.725 193.74 122.74C192.302 122.756 191.123 121.709 191.106 120.403C191.105 120.352 191.106 120.301 191.109 120.251C191.191 118.86 192.452 117.768 193.986 117.762C195.428 117.751 196.608 118.805 196.62 120.116C196.621 120.161 196.619 120.205 196.617 120.251Z"
                    fill="#253138" />
                <path
                    d="M208.929 120.251C208.842 121.64 207.583 122.73 206.051 122.74C204.614 122.751 203.439 121.701 203.427 120.395C203.426 120.347 203.428 120.299 203.431 120.251C203.512 118.863 204.769 117.772 206.298 117.762C207.736 117.746 208.915 118.793 208.932 120.099C208.932 120.15 208.932 120.2 208.929 120.251Z"
                    fill="#253138" />
                <path
                    d="M221.25 120.251C221.163 121.64 219.905 122.73 218.373 122.74C216.93 122.751 215.751 121.696 215.739 120.386C215.739 120.341 215.74 120.296 215.742 120.251C215.829 118.862 217.088 117.772 218.62 117.762C220.057 117.746 221.237 118.793 221.254 120.099C221.254 120.15 221.253 120.2 221.25 120.251Z"
                    fill="#253138" />
                <path
                    d="M194.543 162.349C194.452 163.736 193.196 164.823 191.666 164.838C190.224 164.849 189.045 163.795 189.033 162.485C189.033 162.439 189.033 162.394 189.036 162.349C189.122 160.96 190.382 159.871 191.913 159.86C193.355 159.849 194.534 160.903 194.546 162.213C194.547 162.259 194.546 162.304 194.543 162.349Z"
                    fill="#253138" />
                <path
                    d="M206.856 162.349C206.769 163.735 205.516 164.824 203.988 164.839C202.55 164.854 201.371 163.808 201.354 162.502C201.353 162.451 201.355 162.4 201.358 162.349C201.444 160.96 202.703 159.871 204.235 159.86C205.672 159.849 206.846 160.899 206.859 162.205C206.859 162.253 206.859 162.301 206.856 162.349Z"
                    fill="#253138" />
                <path
                    d="M219.204 162.349C219.117 163.738 217.859 164.827 216.327 164.838C214.879 164.844 213.7 163.783 213.694 162.468C213.693 162.428 213.695 162.388 213.696 162.349C213.787 160.962 215.044 159.875 216.574 159.86C218.011 159.844 219.191 160.89 219.208 162.196C219.208 162.247 219.207 162.298 219.204 162.349Z"
                    fill="#253138" />
                <path
                    d="M231.497 162.349C231.406 163.736 230.15 164.824 228.62 164.839C227.172 164.845 225.993 163.783 225.988 162.468C225.987 162.428 225.988 162.388 225.99 162.349C226.081 160.962 227.337 159.875 228.867 159.86C230.31 159.849 231.489 160.903 231.5 162.213C231.501 162.259 231.5 162.304 231.497 162.349Z"
                    fill="#253138" />
                <path
                    d="M243.864 162.349C243.773 163.736 242.517 164.824 240.987 164.839C239.55 164.854 238.371 163.808 238.354 162.502C238.353 162.451 238.354 162.4 238.357 162.349C238.443 160.96 239.702 159.871 241.233 159.86C242.676 159.849 243.855 160.904 243.867 162.214C243.868 162.26 243.866 162.304 243.864 162.349Z"
                    fill="#253138" />
                <path
                    d="M229.058 48.9395C232.88 45.5435 238.875 45.4811 242.448 48.7999C246.021 52.1186 245.818 57.5617 241.995 60.9578C238.172 64.3538 232.177 64.4161 228.605 61.0974C225.032 57.7787 225.235 52.3355 229.058 48.9395Z"
                    fill="#4A90E2" />
                <path
                    d="M253.491 74.5514C248.88 80.0399 241.729 83.2787 234.128 83.3214C226.743 83.3784 219.81 80.0894 215.641 74.5514C220.08 70.5358 227.104 67.9139 234.885 67.9139C242.668 67.9139 249.445 70.5358 253.491 74.5514Z"
                    fill="#4A90E2" />
                <path
                    d="M229.057 48.9395C232.88 45.5435 238.875 45.4811 242.447 48.7999C246.02 52.1186 245.817 57.5617 241.994 60.9578C238.172 64.3538 232.177 64.4161 228.604 61.0974C225.031 57.7787 225.234 52.3355 229.057 48.9395Z"
                    fill="#4A90E2" />
                <path
                    d="M253.491 74.552C248.88 80.0406 241.729 83.2793 234.128 83.322C226.743 83.379 219.81 80.09 215.641 74.552C220.08 70.5364 227.104 67.9145 234.885 67.9145C242.668 67.9145 249.445 70.5364 253.491 74.552Z"
                    fill="#4A90E2" />
                <path
                    d="M118.668 130.745C117.815 132.475 116.918 134.38 116.139 136.226C115.359 138.073 114.562 139.977 113.875 141.873C112.469 145.609 111.407 149.445 110.698 153.34L110.506 154.562C110.489 154.771 110.512 154.982 110.575 155.184C110.795 155.87 111.139 156.518 111.592 157.102C112.775 158.614 114.144 159.999 115.672 161.228C117.284 162.574 118.974 163.842 120.735 165.024C122.495 166.242 124.345 167.428 126.168 168.546L124.485 171.467C120.14 169.773 116.011 167.651 112.173 165.139C110.126 163.798 108.275 162.225 106.667 160.457C105.714 159.404 104.967 158.211 104.462 156.927C104.166 156.125 104.013 155.286 104.005 154.44L104 153.809L103.997 153.403L104.082 152.573C104.571 148.248 105.538 143.979 106.966 139.83C107.662 137.785 108.403 135.748 109.254 133.76C110.105 131.772 110.984 129.826 112.072 127.804L118.668 130.745Z"
                    fill="#E4897A" />
                <path
                    d="M124.88 168.038L131.309 165.033L129.688 171.48C129.688 171.48 125.271 172.633 123.202 170.687L124.88 168.038Z"
                    fill="#E4897A" />
                <path d="M137.227 166.054L135.553 171.39L129.693 171.481L131.314 165.034L137.227 166.054Z"
                    fill="#E4897A" />
                <path
                    d="M145.902 99.5299C146.255 100.678 146.743 101.788 147.358 102.841C146.999 103.216 146.445 103.381 145.912 103.272L145.902 99.5299Z"
                    fill="#DF5652" />
                <path
                    d="M145.696 97.6722C146.074 97.6701 146.384 98.0961 146.388 98.6234C146.392 99.1501 146.089 99.5788 145.711 99.581C145.333 99.5831 145.023 99.1578 145.019 98.6311C145.015 98.1038 145.318 97.6744 145.696 97.6722Z"
                    fill="#253138" />
                <path d="M145.497 97.7071L146.882 97.343C146.882 97.343 146.215 98.3254 145.497 97.7071Z"
                    fill="#253138" />
                <path
                    d="M128.103 105.719C128.963 109.573 129.847 116.645 126.892 119.242C126.892 119.242 128.091 123.151 135.983 123.107C144.659 123.058 140.094 119.168 140.094 119.168C135.351 118.165 135.445 114.971 136.252 111.963L128.103 105.719Z"
                    fill="#E4897A" />
                <path
                    d="M125.743 96.9372C126.231 103.381 126.287 106.119 129.89 109.409C135.319 114.357 143.918 112.418 145.556 106.003C147.036 100.187 145.996 90.6348 139.033 88.11C134.072 86.2838 128.425 88.4614 126.42 92.9714C125.862 94.2285 125.63 95.5848 125.743 96.9372Z"
                    fill="#E4897A" />
                <path
                    d="M126.384 89.6821C122.833 90.88 118.082 90.028 120.02 99.9977C122.071 110.556 119.068 114.049 119.068 114.049C119.068 114.049 132.585 116.587 146.343 113.739C146.343 113.739 142.085 107.077 143.224 102.142C144.683 95.9111 143.479 93.6193 143.479 93.6193C143.479 93.6193 131.372 87.9949 126.384 89.6821Z"
                    fill="#253138" />
                <path
                    d="M141.534 100.21C141.547 101.435 141.941 102.633 142.672 103.663C143.649 105.002 144.785 104.481 145.057 103.053C145.303 101.799 145.094 99.5842 143.856 98.7282C142.618 97.8728 141.54 98.7248 141.534 100.21Z"
                    fill="#E4897A" />
                <path
                    d="M123.306 90.7862C122.264 88.1783 127.108 84.1278 137.437 85.7296C147.766 87.3313 148.272 95.1363 148.272 95.1363L146.174 92.8915L146.283 95.2633L135.698 97.1727L123.306 90.7862Z"
                    fill="#253138" />
                <path
                    d="M124.374 119.695C124.241 118.909 124.823 118.169 125.686 118.029C128.896 117.53 136.194 116.51 139.868 116.954C142.61 117.287 143.333 118.727 143.462 119.912C143.539 120.716 142.886 121.424 142.002 121.494C141.929 121.5 141.856 121.501 141.784 121.498L125.909 120.939C125.137 120.908 124.496 120.388 124.374 119.695Z"
                    fill="#407AFF" />
                <path
                    d="M124.374 119.695C124.241 118.908 124.823 118.169 125.686 118.028C128.896 117.529 136.194 116.51 139.868 116.954C142.61 117.287 143.333 118.726 143.462 119.912C143.539 120.715 142.886 121.424 142.002 121.494C141.929 121.5 141.856 121.501 141.784 121.498L125.909 120.939C125.137 120.908 124.496 120.388 124.374 119.695Z"
                    fill="#E91E63" />
                <path d="M134.534 264.588L140.448 268.272L150.201 256.079L144.287 252.404L134.534 264.588Z"
                    fill="#E4897A" />
                <path d="M120.797 264.423L127.034 267.607L135.651 254.724L129.412 251.54L120.797 264.423Z"
                    fill="#E4897A" />
                <path d="M150.198 256.08L145.172 262.363L139.257 258.688L144.283 252.404L150.198 256.08Z"
                    fill="#CF6E63" />
                <path d="M129.408 251.54L135.656 254.732L131.217 261.369L124.968 258.177L129.408 251.54Z"
                    fill="#CF6E63" />
                <path
                    d="M138.742 160.139C138.742 160.139 161.891 186.336 157.772 211.54C154.454 231.894 134.522 259.543 134.522 259.543L125.02 255.315C131.602 243.103 137.202 230.471 141.776 217.52C144.634 209.373 143.222 200.48 137.947 193.397C126.2 178.006 107.641 187.311 119.968 160.244L138.742 160.139Z"
                    fill="#E91E63" />
                <path
                    d="M138.742 160.139C138.742 160.139 161.891 186.336 157.772 211.54C154.454 231.894 134.521 259.543 134.521 259.543L125.02 255.315C131.602 243.103 137.202 230.471 141.776 217.52C144.633 209.373 143.222 200.48 137.946 193.397C126.2 178.006 107.641 187.311 119.967 160.244L138.742 160.139Z"
                    fill="#E91E63" />
                <path
                    d="M150.175 176.984L146.821 173.983C146.823 174.224 153.55 210.502 155.438 220.697C156.484 217.71 157.28 214.654 157.817 211.557C159.853 199.191 155.307 186.597 150.175 176.984Z"
                    fill="#E91E63" />
                <path
                    d="M149.012 160.082C149.012 160.082 176.91 193.015 177.845 212.847C178.618 229.437 148.126 261.757 148.126 261.757L139.15 256.548C139.15 256.548 156.967 233.615 161.356 214.939C159.465 196.464 122.167 160.232 122.167 160.232L149.012 160.082Z"
                    fill="#E91E63" />
                <path
                    d="M149.013 160.082C149.013 160.082 176.911 193.015 177.845 212.847C178.619 229.437 148.127 261.757 148.127 261.757L139.151 256.548C139.151 256.548 156.968 233.615 161.357 214.939C159.466 196.464 122.168 160.232 122.168 160.232L149.013 160.082Z"
                    fill="#E91E63" />
                <path
                    d="M114.527 120.786C111.576 121.441 108.813 131.231 108.813 131.231L120.426 138.185C120.426 138.185 124.217 130.432 122.84 127.054C121.418 123.536 118.234 119.961 114.527 120.786Z"
                    fill="#660325" />
                <path
                    d="M116.84 127.072L116.102 135.596L120.418 138.194C121.585 135.759 122.444 133.209 122.977 130.597L116.84 127.072Z"
                    fill="black" />
                <path
                    d="M152.182 120.768C152.182 120.768 155.603 121.836 149.06 160.071L119.99 160.233C120.4 149.445 120.359 142.808 114.534 120.788C118.598 120.002 122.721 119.485 126.867 119.242C131.261 118.93 135.674 118.906 140.071 119.168C145.75 119.609 152.182 120.768 152.182 120.768Z"
                    fill="#660325" />
                <path
                    d="M155.214 126.86C155.883 128.515 156.591 130.295 157.334 132.008C158.077 133.722 158.784 135.485 159.536 137.223L161.811 142.421L162.388 143.72L162.684 144.366L162.824 144.688L162.825 144.738C162.656 144.525 162.436 144.35 162.182 144.228C161.82 144.036 161.412 143.928 160.993 143.91C160.645 143.903 160.3 143.964 159.981 144.09C159.563 144.267 159.563 144.341 159.572 144.333C159.648 144.278 159.714 144.213 159.771 144.141C160.272 143.535 160.705 142.886 161.062 142.201C161.485 141.435 161.89 140.62 162.294 139.796C163.084 138.132 163.81 136.411 164.536 134.673C165.262 132.935 165.951 131.181 166.622 129.41L168.662 124.105L172.181 124.915C171.516 128.702 170.65 132.39 169.602 136.146C169.096 138.016 168.499 139.869 167.82 141.74C167.48 142.68 167.103 143.61 166.673 144.567C166.224 145.606 165.67 146.603 165.018 147.547C164.777 147.865 164.511 148.166 164.222 148.447C163.759 148.907 163.196 149.275 162.569 149.527C162.012 149.748 161.408 149.853 160.801 149.836C160.121 149.816 159.456 149.64 158.871 149.323C158.181 148.937 157.606 148.402 157.198 147.765C157.06 147.55 156.939 147.335 156.856 147.178L156.681 146.863L156.329 146.218L155.626 144.936C154.7 143.215 153.774 141.478 152.967 139.732C152.16 137.986 151.307 136.215 150.509 134.436C149.71 132.657 148.995 130.877 148.313 128.956L155.214 126.86Z"
                    fill="#E4897A" />
                <path
                    d="M152.21 120.768C155.71 121.504 159.713 130.874 159.713 130.874L149.383 138.971C149.383 138.971 142.581 128.771 143.915 125.386C145.302 121.861 147.64 119.806 152.21 120.768Z"
                    fill="#660224" />
                <path
                    d="M170.316 121.125L173.945 118.334L176.509 121.912L174.661 124.917C174.661 124.917 171.705 127.423 169.068 126.168C168.198 124.422 168.707 122.363 170.316 121.125Z"
                    fill="#E4897A" />
                <path d="M180.542 118.305L180.275 119.211L174.502 120.123L173.922 118.334L180.542 118.305Z"
                    fill="#E4897A" />
                <path d="M148.794 262.176L138.322 256.113L140.171 253.148L151.932 259.629L148.794 262.176Z"
                    fill="#660224" />
                <path
                    d="M131.106 267.154C130.191 267.058 129.309 266.779 128.525 266.338C128.439 266.312 128.393 266.227 128.423 266.149C128.439 266.106 128.476 266.072 128.523 266.056C128.805 265.972 131.256 265.27 131.972 265.797C132.136 265.919 132.215 266.112 132.177 266.302C132.154 266.606 131.959 266.876 131.662 267.018C131.491 267.104 131.301 267.151 131.106 267.154ZM129.045 266.253C130.19 266.777 131.105 266.963 131.542 266.761C131.735 266.663 131.857 266.48 131.866 266.278C131.865 266.146 131.865 266.088 131.782 266.055C131.397 265.775 130.029 265.999 129.027 266.253L129.045 266.253Z"
                    fill="#253138" />
                <path
                    d="M128.591 266.397C128.543 266.396 128.496 266.378 128.463 266.347C128.435 266.3 128.434 266.245 128.461 266.198C128.461 266.123 129.041 264.32 129.969 263.908C130.209 263.807 130.485 263.805 130.726 263.904C130.991 263.977 131.165 264.207 131.15 264.458C131.092 265.204 129.43 266.243 128.664 266.421L128.591 266.397ZM130.345 264.121C130.256 264.125 130.169 264.145 130.089 264.182C129.525 264.434 129.067 265.406 128.843 265.997C129.644 265.685 130.742 264.866 130.776 264.409C130.775 264.334 130.774 264.244 130.564 264.161C130.495 264.129 130.421 264.107 130.344 264.097L130.345 264.121Z"
                    fill="#253138" />
                <path
                    d="M144.164 270.665C143.131 270.671 141.689 269.476 140.898 268.742C140.857 268.69 140.857 268.62 140.897 268.568C140.933 268.513 141 268.481 141.07 268.484C141.435 268.482 144.607 268.896 145.06 269.706C145.158 269.854 145.159 270.038 145.063 270.187C144.929 270.445 144.658 270.623 144.346 270.656L144.164 270.665ZM141.502 268.855C142.66 269.86 143.678 270.419 144.252 270.35C144.456 270.324 144.634 270.208 144.724 270.04C144.766 269.981 144.765 269.907 144.723 269.849C144.482 269.402 142.791 269.03 141.502 268.855Z"
                    fill="#253138" />
                <path
                    d="M141.603 268.813C141.399 268.82 141.194 268.807 140.991 268.775C140.934 268.768 140.885 268.733 140.863 268.685C140.835 268.635 140.835 268.577 140.862 268.527C140.916 268.469 142.138 267.11 143.306 267.012C143.637 266.987 143.965 267.08 144.221 267.272C144.579 267.552 144.563 267.801 144.473 267.96C144.249 268.525 142.671 268.807 141.603 268.813ZM141.365 268.508C142.387 268.551 144.019 268.236 144.225 267.828C144.225 267.828 144.297 267.695 144.058 267.514C143.866 267.364 143.614 267.293 143.363 267.319C142.577 267.522 141.881 267.94 141.365 268.516L141.365 268.508Z"
                    fill="#253138" />
                <path
                    d="M128.826 265.499L121.07 263.551C120.793 263.476 120.499 263.603 120.387 263.845L117.818 269.194C117.582 269.73 117.869 270.339 118.458 270.554C118.5 270.568 118.542 270.582 118.585 270.592C121.329 271.224 122.644 271.399 126.056 272.268C128.16 272.787 131.162 273.757 134.062 274.488C136.961 275.219 137.908 272.649 136.782 272.108C131.687 269.697 131.273 267.991 129.871 266.174C129.62 265.844 129.251 265.606 128.826 265.499Z"
                    fill="#E91E63" />
                <path
                    d="M141.097 267.771L134.457 263.66C134.224 263.507 133.903 263.538 133.71 263.73L129.361 268.036C128.949 268.469 129.002 269.124 129.478 269.499C129.514 269.527 129.552 269.553 129.592 269.577C131.93 270.983 133.139 271.549 136.065 273.366C137.899 274.485 141.45 276.97 143.926 278.516C146.402 280.062 148.22 277.91 147.337 277.069C143.384 273.283 142.508 270.899 141.843 268.737C141.729 268.346 141.463 268.003 141.097 267.771Z"
                    fill="#E91E63" />
                <path d="M135.691 260.084L123.737 254.766L124.946 251.822L137.715 257.426L135.691 260.084Z"
                    fill="#82042F" />
                <path
                    d="M119.509 158.685L118.523 161.08C118.423 161.263 118.662 161.453 119 161.451L149.212 161.283C149.476 161.282 149.695 161.165 149.712 161.015L149.95 158.641C149.948 158.483 149.737 158.343 149.454 158.345L119.982 158.508C119.802 158.494 119.626 158.56 119.509 158.685Z"
                    fill="#E91E63" />
                <path
                    d="M119.509 158.685L118.523 161.08C118.423 161.263 118.662 161.453 119 161.451L149.211 161.283C149.476 161.282 149.694 161.165 149.711 161.015L149.949 158.641C149.948 158.483 149.736 158.343 149.453 158.345L119.982 158.508C119.802 158.494 119.626 158.56 119.509 158.685Z"
                    fill="#EC769E" />
                <path
                    d="M124.289 161.653L123.495 161.658C123.34 161.659 123.221 161.585 123.23 161.493L123.58 158.413C123.58 158.33 123.725 158.255 123.88 158.254L124.673 158.25C124.828 158.249 124.947 158.323 124.939 158.405L124.588 161.486C124.58 161.577 124.444 161.652 124.289 161.653Z"
                    fill="#660325" />
                <path
                    d="M142.921 161.55L142.136 161.555C141.982 161.555 141.863 161.482 141.871 161.39L142.212 158.31C142.212 158.227 142.366 158.152 142.521 158.151L143.305 158.147C143.46 158.146 143.588 158.22 143.571 158.302L143.229 161.382C143.185 161.474 143.085 161.549 142.921 161.55Z"
                    fill="#660325" />
                <path
                    d="M124.513 298.942C138.025 298.867 148.985 299.527 148.992 300.417C148.999 301.306 138.05 302.088 124.537 302.162C111.024 302.237 100.065 301.577 100.058 300.688C100.051 299.798 111 299.017 124.513 298.942Z"
                    fill="#294A83" />
                <path
                    d="M139.416 298.196C135.091 297.075 130.291 295.633 127.384 294.114C127.302 294.065 127.21 294.041 127.128 294L126.993 276.195L135.725 276.147C137.16 276.061 138.246 274.931 138.152 273.624C138.064 272.424 137.007 271.472 135.689 271.409L127.002 271.458L126.387 190.3L121.141 190.329L121.757 271.487L113.08 271.536C111.644 271.466 110.418 272.47 110.344 273.779C110.268 275.088 111.372 276.205 112.809 276.275C112.911 276.279 113.013 276.279 113.116 276.273L121.793 276.224L121.928 294.004C121.846 294.004 121.765 294.071 121.683 294.121C118.754 295.697 114.012 297.193 109.705 298.337C109.032 298.526 108.656 299.177 108.865 299.79C109.029 300.274 109.521 300.606 110.077 300.608L139.078 300.446C139.78 300.399 140.306 299.841 140.254 299.202C140.216 298.746 139.888 298.352 139.416 298.196Z"
                    fill="#5690D4" />
                <path
                    d="M107.499 182.142L139.965 181.961C142.577 181.946 144.709 183.859 144.727 186.232L144.794 195.001C144.812 197.374 142.709 199.31 140.097 199.324L107.631 199.505C105.019 199.52 102.888 197.608 102.87 195.234L102.803 186.465C102.785 184.092 104.887 182.156 107.499 182.142Z"
                    fill="#5690D4" />
                <path
                    d="M107.316 199.515L107.327 201.026C107.337 202.271 108.833 203.274 110.659 203.264L137.144 203.117C138.97 203.107 140.451 202.087 140.441 200.843L140.43 199.332L107.316 199.515Z"
                    fill="#E91E63" />
                <path
                    d="M107.316 199.515L107.327 201.026C107.337 202.271 108.833 203.274 110.659 203.264L137.144 203.117C138.97 203.107 140.451 202.087 140.441 200.843L140.43 199.332L107.316 199.515Z"
                    fill="#194A83" />
            </svg>
        