<svg width="415" height="97" viewBox="0 0 415 97" fill="none" xmlns="http://www.w3.org/2000/svg">
<path d="M12.4813 11.4135H0V52.3591H12.4813V11.4135Z" fill="#142667"/>
<path d="M46.4955 20.9943C56.4418 20.9943 57.3365 21.3519 57.6646 25.7624H69.5047C69.5643 25.3005 69.5643 24.5406 69.5643 24.4214C69.5643 17.1799 67.6109 13.7975 62.3768 12.2032C59.4391 11.339 58.3058 11.2794 46.4806 11.1602V20.9943H46.4955ZM41.5746 42.7187C36.2957 42.6144 35.1624 42.4654 33.6861 41.929C31.0467 40.886 30.3309 38.8596 30.3309 32.1694C30.3309 26.1051 30.5844 24.3171 31.673 23.0207C33.0449 21.3519 34.4914 20.9943 40.5307 20.9943H41.5895V11.1602H35.6098C27.7661 11.1602 23.2776 12.9333 20.7426 16.1816C18.64 18.8189 17.9987 22.5141 17.9987 30.9327C17.9987 44.6707 19.5943 48.9619 25.5889 51.1373C28.9143 52.3591 31.2257 52.5975 41.5895 52.5975V42.7187H41.5746ZM46.4955 52.6571C60.5426 52.5975 62.7794 52.4038 66.567 49.7665C69.5643 47.7103 70.131 45.0581 70.0713 36.9375H58.0225C57.8883 42.0333 56.4269 42.8081 46.4806 42.7336V52.672L46.4955 52.6571Z" fill="#142667"/>
<path d="M92.7673 52.374H121.428V43.0763H92.7673V52.374ZM92.7673 35.8498H119.072V27.759H92.7673V35.8498ZM92.7673 20.6665H120.981V11.4135H92.7673V20.6516V20.6665ZM87.8464 11.4135H75.5888V52.3591H87.8464V11.4135Z" fill="#142667"/>
<path d="M153.28 20.9943C163.226 20.9943 164.166 21.3519 164.449 25.7624H176.319C176.394 25.3005 176.394 24.5406 176.394 24.4214C176.394 17.1799 174.41 13.7975 169.191 12.2032C166.239 11.339 165.135 11.2794 153.28 11.1602V20.9943ZM148.359 42.7187C143.08 42.6144 142.007 42.4654 140.515 41.929C137.876 40.886 137.116 38.8596 137.116 32.1694C137.116 26.1051 137.369 24.3171 138.487 23.0207C139.815 21.3519 141.306 20.9943 147.3 20.9943H148.359V11.1602H142.409C134.551 11.1602 130.062 12.9333 127.557 16.1816C125.469 18.8189 124.783 22.5141 124.783 30.9327C124.783 44.6707 126.379 48.9619 132.418 51.1373C135.699 52.3591 138.055 52.5975 148.359 52.5975V42.7187ZM153.28 52.6571C167.357 52.5975 169.549 52.4038 173.367 49.7665C176.409 47.7103 176.93 45.0581 176.871 36.9375H164.822C164.718 42.0333 163.226 42.8081 153.28 42.7336V52.672V52.6571Z" fill="#4A9FDC"/>
<path d="M204.89 11.4135L218.49 36.5203H204.324L199.761 45.0581H222.844L226.9 52.374H240.5L218.102 11.4135H204.905H204.89ZM199.313 11.4135L176.23 52.374H190.381L205.83 23.3783L199.313 11.4135Z" fill="#4A9FDC"/>
<path d="M265.552 21.5307H278.854V11.4135H265.552V21.5307ZM248.195 52.3591H260.631V11.4135H248.195V52.3591ZM243.274 11.4135H229.883V21.5307H243.274V11.4135Z" fill="#4A9FDC"/>
<path d="M309.095 20.9943C319.086 20.9943 319.936 21.3519 320.309 25.7624H332.134C332.179 25.3005 332.179 24.5406 332.179 24.4214C332.179 17.1799 330.24 13.7975 325.021 12.2032C322.054 11.339 320.98 11.2794 309.11 11.1602V20.9943H309.095ZM304.174 42.7187C298.895 42.6144 297.807 42.4654 296.286 41.929C293.691 40.886 292.975 38.8596 292.975 32.1694C292.975 26.1051 293.184 24.3171 294.273 23.0207C295.645 21.3519 297.106 20.9943 303.19 20.9943H304.189V11.1602H298.269C290.381 11.1602 285.892 12.9333 283.357 16.1816C281.255 18.8189 280.613 22.5141 280.613 30.9327C280.613 44.6707 282.209 48.9619 288.204 51.1373C291.529 52.3591 293.855 52.5975 304.189 52.5975V42.7187H304.174ZM309.095 52.6571C323.172 52.5975 325.364 52.4038 329.211 49.7665C332.164 47.7103 332.761 45.0581 332.671 36.9375H320.667C320.518 42.0333 319.071 42.8081 309.08 42.7336V52.672L309.095 52.6571Z" fill="#4A9FDC"/>
<path d="M366.73 36.714H378.451V52.374H390.887V11.4135H378.451V26.5521H366.73V36.714ZM361.809 26.5521H350.043V11.4135H337.577V52.3591H350.043V36.6991H361.809V26.5372V26.5521Z" fill="#4A9FDC"/>
<path d="M405.874 9.4914C407.276 9.4914 407.559 9.1636 407.559 7.82258C407.559 6.36237 407.365 6.10906 406.053 6.10906H403.041V9.5063H405.874V9.4914ZM400.774 4.17204H406.247C408.99 4.17204 409.9 5.00645 409.9 7.42028C409.9 9.4318 409.512 10.0576 408.275 10.445C409.348 10.6983 409.826 11.2943 409.826 12.5459V14.93H407.469V12.9333C407.469 11.786 407.082 11.4284 405.889 11.4284H403.056V14.93H400.789V4.17204H400.774ZM397.18 9.6553C397.18 14.2445 400.878 17.9994 405.397 17.9994C409.915 17.9994 413.568 14.2296 413.568 9.6553C413.568 5.08095 409.9 1.32611 405.441 1.32611C400.983 1.32611 397.165 5.00645 397.165 9.6553M414.985 9.6553C414.985 14.9598 410.705 19.3106 405.397 19.3106C400.088 19.3106 395.674 14.9598 395.674 9.6553C395.674 4.35085 400.043 0 405.441 0C410.84 0 414.985 4.38065 414.985 9.6553Z" fill="#4A9FDC"/>
<path d="M380.613 85.8249V85.4971C380.613 83.8581 380.867 82.7704 381.403 82.2488C381.925 81.7273 383.029 81.474 384.699 81.474C386.369 81.474 387.413 81.6975 387.905 82.1296C388.382 82.5766 388.636 83.575 388.636 85.1395V85.8249H380.643H380.613ZM388.606 90.2651C388.606 91.2187 388.367 91.8445 387.905 92.1127C387.428 92.381 386.354 92.5151 384.669 92.5151C382.984 92.5151 381.791 92.217 381.314 91.6359C380.837 91.0399 380.613 89.6393 380.613 87.4192H390.708V86.3315C390.708 83.5899 390.306 81.8167 389.501 81.0121C388.695 80.2075 386.966 79.8052 384.296 79.8052C381.97 79.8052 380.419 80.2969 379.614 81.2654C378.824 82.2339 378.421 84.171 378.421 87.0467C378.421 89.9224 378.824 91.9041 379.644 92.8429C380.464 93.7816 382.119 94.2584 384.624 94.2584C386.861 94.2584 388.427 93.9753 389.337 93.3942C390.231 92.828 390.694 91.8296 390.694 90.3992L390.664 89.8032H388.591V90.2502L388.606 90.2651ZM374.872 80.0138L372.501 87.6725L371.74 90.0416L371.383 91.2485L370.995 92.4555L370.592 91.2485L370.249 90.0416L369.459 87.6427L366.984 80.0138H364.851L369.519 94.0349H372.471L377.153 79.9989H374.872V80.0138ZM361.108 94.0498H363.151V80.0138H361.108V94.0498ZM361.108 76.3186H363.151V74.0091H361.108V76.3186ZM353.354 80.0138V76.6464H351.311V80.0138H349.358V81.7273H351.311V90.8313C351.311 92.0978 351.624 92.977 352.236 93.4836C352.847 93.9902 353.921 94.2435 355.471 94.2435C358.036 94.2435 359.319 92.8727 359.319 90.131L359.289 89.0731H357.425V89.833C357.425 90.9356 357.291 91.6508 357.007 91.9936C356.724 92.3363 356.157 92.5002 355.293 92.5002C354.517 92.5002 353.995 92.3512 353.742 92.068C353.488 91.77 353.369 91.1889 353.369 90.3098V81.7124H358.782V79.9989H353.369L353.354 80.0138ZM344.69 87.7321C345.257 88.1195 345.54 88.8198 345.54 89.8628C345.54 90.9058 345.227 91.5763 344.63 91.9488C344.019 92.3213 342.886 92.5002 341.216 92.5002C339.754 92.5002 338.785 92.3214 338.338 91.9637C337.875 91.6061 337.652 90.8611 337.652 89.7436C337.652 88.6261 337.89 87.9556 338.367 87.6427C338.845 87.3298 339.918 87.1659 341.588 87.1659C343.109 87.1659 344.153 87.3596 344.72 87.7321M338.129 83.5303C338.129 82.6959 338.382 82.1296 338.874 81.8316C339.381 81.5336 340.351 81.3995 341.797 81.3995C343.333 81.3995 344.332 81.6379 344.794 82.0998C345.242 82.5766 345.466 83.6197 345.466 85.2438L345.406 86.9573C345.152 86.4209 344.69 86.0484 344.019 85.8249C343.363 85.6163 342.319 85.512 340.888 85.512C338.86 85.512 337.458 85.8398 336.682 86.5103C335.907 87.1659 335.504 88.3579 335.504 90.0565C335.504 91.621 335.907 92.7088 336.697 93.3346C337.488 93.9604 338.874 94.2584 340.828 94.2584C342.14 94.2584 343.154 94.1243 343.84 93.871C344.541 93.6177 345.108 93.1707 345.54 92.5151L345.451 94.0498H347.494V84.7968C347.494 82.8598 347.091 81.5336 346.271 80.8482C345.451 80.1628 343.9 79.8052 341.588 79.8052C339.277 79.8052 337.86 80.0734 337.145 80.6098C336.429 81.1462 336.056 82.2637 336.056 83.9475H338.099V83.5303H338.129ZM332.06 80.0138L329.689 87.6725L328.928 90.0416L328.57 91.2485L328.183 92.4555L327.78 91.2485L327.437 90.0416L326.647 87.6427L324.171 80.0138H322.039L326.706 94.0349H329.659L334.356 79.9989H332.075L332.06 80.0138ZM317.938 82.3978C318.385 82.9641 318.609 84.4094 318.609 86.7338C318.609 89.3711 318.4 90.9952 317.983 91.6061C317.565 92.2021 316.417 92.5002 314.523 92.5002C312.629 92.5002 311.541 92.2022 311.108 91.621C310.676 91.025 310.467 89.4903 310.467 87.0169C310.467 84.5435 310.691 83.0237 311.123 82.4276C311.556 81.8316 312.689 81.5485 314.523 81.5485C316.357 81.5485 317.491 81.8316 317.938 82.3978ZM309.498 81.1313C308.722 82.0253 308.335 83.9773 308.335 87.002C308.335 90.0267 308.722 91.9935 309.498 92.8876C310.273 93.7816 311.943 94.2435 314.538 94.2435C317.133 94.2435 318.878 93.7816 319.638 92.8727C320.384 91.9638 320.771 89.8777 320.771 86.6444C320.771 83.8134 320.369 81.9657 319.578 81.1015C318.788 80.2373 317.103 79.7903 314.538 79.7903C311.973 79.7903 310.273 80.2373 309.498 81.1313ZM293.244 94.0349H295.376V85.6014C295.376 84.1263 295.704 83.0684 296.346 82.4574C297.002 81.8465 298.12 81.5485 299.731 81.5485C300.998 81.5485 301.848 81.7571 302.295 82.1594C302.743 82.5766 302.966 83.3664 302.966 84.5435V94.0349H305.009V84.9011C305.009 82.8896 304.651 81.5485 303.951 80.8482C303.25 80.1479 301.923 79.8052 299.954 79.8052C298.627 79.8052 297.598 79.9691 296.853 80.3118C296.107 80.6545 295.57 81.1909 295.227 81.9359L295.257 80.0138H293.214V94.0498L293.244 94.0349ZM277.765 94.0349H279.898V85.6014C279.898 84.1263 280.226 83.0684 280.867 82.4574C281.523 81.8465 282.641 81.5485 284.252 81.5485C285.519 81.5485 286.369 81.7571 286.817 82.1594C287.264 82.5766 287.488 83.3664 287.488 84.5435V94.0349H289.531V84.9011C289.531 82.8896 289.173 81.5485 288.472 80.8482C287.771 80.1479 286.444 79.8052 284.476 79.8052C283.148 79.8052 282.119 79.9691 281.374 80.3118C280.628 80.6545 280.091 81.1909 279.749 81.9359L279.778 80.0138H277.735V94.0498L277.765 94.0349ZM272.114 94.0349H274.157V79.9989H272.114V94.0349ZM272.114 76.3037H274.157V73.9942H272.114V76.3037ZM258.618 91.323V94.02H259.647V94.5415C259.647 95.0481 259.558 95.3908 259.379 95.5845C259.2 95.7633 258.842 95.8527 258.32 95.8527V96.9702H258.887C259.662 96.9702 260.214 96.7616 260.527 96.3593C260.84 95.9421 260.989 95.2418 260.989 94.2435V91.323H258.618ZM245.183 85.7951V85.4673C245.183 83.8283 245.436 82.7406 245.973 82.219C246.495 81.6975 247.598 81.4442 249.268 81.4442C250.939 81.4442 251.982 81.6677 252.475 82.0998C252.952 82.5468 253.19 83.5452 253.19 85.1097V85.7951H245.197H245.183ZM253.175 90.2353C253.175 91.1889 252.937 91.8147 252.475 92.0829C251.997 92.3512 250.924 92.4853 249.239 92.4853C247.554 92.4853 246.361 92.1872 245.883 91.6061C245.406 91.0101 245.183 89.6095 245.183 87.3894H255.278V86.3017C255.278 83.5601 254.875 81.7869 254.07 80.9823C253.265 80.1777 251.535 79.7754 248.866 79.7754C246.54 79.7754 244.989 80.2671 244.198 81.2356C243.408 82.2041 243.005 84.1412 243.005 87.0169C243.005 89.8926 243.408 91.8743 244.228 92.8131C245.048 93.7518 246.704 94.2286 249.209 94.2286C251.446 94.2286 253.011 93.9455 253.921 93.3644C254.816 92.7982 255.263 91.7998 255.263 90.3694L255.233 89.7734H253.16V90.2204L253.175 90.2353ZM237.756 94.02H239.799V73.9793H237.756V94.02ZM231.642 82.5766C232.135 83.277 232.373 84.7521 232.373 87.0169C232.373 89.2817 232.12 90.6972 231.613 91.4124C231.106 92.1276 230.077 92.4704 228.526 92.4704C226.766 92.4704 225.648 92.1127 225.156 91.4124C224.664 90.6972 224.425 89.0582 224.425 86.4954C224.425 84.5137 224.708 83.1876 225.26 82.5171C225.812 81.8465 226.9 81.5038 228.511 81.5038C230.121 81.5038 231.15 81.8465 231.628 82.5618M224.41 94.0051L224.351 92.2617C224.753 92.9621 225.29 93.4687 225.976 93.7667C226.662 94.0647 227.601 94.2137 228.809 94.2137C230.971 94.2137 232.463 93.7071 233.268 92.679C234.073 91.6508 234.491 89.8032 234.491 87.0914C234.491 84.3796 234.088 82.4425 233.283 81.3697C232.478 80.2969 231.061 79.7605 229.048 79.7605C227.691 79.7605 226.647 79.9244 225.916 80.2373C225.201 80.5502 224.694 81.0717 224.41 81.772V73.9644H222.367V94.0051H224.41ZM215.746 87.7023C216.313 88.0897 216.596 88.79 216.596 89.833C216.596 90.876 216.283 91.5465 215.672 91.919C215.06 92.2915 213.927 92.4704 212.257 92.4704C210.796 92.4704 209.826 92.2916 209.379 91.9339C208.917 91.5763 208.693 90.8313 208.693 89.7138C208.693 88.5963 208.932 87.9258 209.409 87.6129C209.886 87.3 210.96 87.1361 212.63 87.1361C214.151 87.1361 215.195 87.3298 215.761 87.7023M209.17 83.5005C209.17 82.6661 209.424 82.0998 209.916 81.8018C210.423 81.5038 211.392 81.3697 212.838 81.3697C214.374 81.3697 215.374 81.6081 215.836 82.07C216.283 82.5469 216.507 83.5899 216.507 85.214L216.447 86.9275C216.194 86.3911 215.731 86.0186 215.06 85.7951C214.404 85.5865 213.36 85.4822 211.929 85.4822C209.901 85.4822 208.499 85.81 207.724 86.4805C206.933 87.1361 206.546 88.3281 206.546 90.0267C206.546 91.5912 206.948 92.679 207.739 93.3048C208.544 93.9306 209.916 94.2286 211.869 94.2286C213.181 94.2286 214.195 94.0945 214.881 93.8412C215.582 93.5879 216.149 93.1409 216.581 92.4853L216.492 94.02H218.535V84.767C218.535 82.83 218.132 81.5038 217.312 80.8184C216.507 80.133 214.941 79.7754 212.63 79.7754C210.318 79.7754 208.902 80.0436 208.186 80.58C207.47 81.1164 207.097 82.2339 207.097 83.9177H209.14V83.5005H209.17ZM191.589 94.02H193.721V85.5865C193.721 84.1114 194.049 83.0535 194.706 82.4426C195.362 81.8316 196.48 81.5336 198.091 81.5336C199.358 81.5336 200.208 81.7422 200.655 82.1445C201.103 82.5618 201.326 83.3515 201.326 84.5286V94.02H203.369V84.8862C203.369 82.8747 203.026 81.5336 202.311 80.8333C201.61 80.133 200.283 79.7903 198.314 79.7903C196.987 79.7903 195.958 79.9542 195.213 80.2969C194.467 80.6396 193.93 81.176 193.587 81.921L193.617 79.9989H191.574V94.0349L191.589 94.02ZM185.937 94.02H187.98V79.984H185.937V94.02ZM185.937 76.2888H187.98V73.9793H185.937V76.2888ZM179.331 87.7023C179.898 88.0897 180.166 88.79 180.166 89.833C180.166 90.876 179.868 91.5465 179.257 91.919C178.645 92.2915 177.512 92.4704 175.842 92.4704C174.381 92.4704 173.411 92.2916 172.964 91.9339C172.502 91.5763 172.278 90.8313 172.278 89.7138C172.278 88.5963 172.517 87.9258 172.994 87.6129C173.471 87.3 174.545 87.1361 176.215 87.1361C177.736 87.1361 178.78 87.3298 179.346 87.7023M172.755 83.5005C172.755 82.6661 173.009 82.0998 173.501 81.8018C174.008 81.5038 174.977 81.3697 176.423 81.3697C177.959 81.3697 178.959 81.6081 179.421 82.07C179.868 82.5469 180.092 83.5899 180.092 85.214L180.032 86.9275C179.779 86.3911 179.316 86.0186 178.645 85.7951C177.989 85.5865 176.945 85.4822 175.514 85.4822C173.486 85.4822 172.084 85.81 171.309 86.4805C170.533 87.1361 170.131 88.3281 170.131 90.0267C170.131 91.5912 170.533 92.679 171.324 93.3048C172.114 93.9306 173.501 94.2286 175.454 94.2286C176.766 94.2286 177.78 94.0945 178.481 93.8412C179.182 93.5879 179.749 93.1409 180.181 92.4853L180.092 94.02H182.135V84.767C182.135 82.83 181.732 81.5038 180.912 80.8184C180.107 80.133 178.541 79.7754 176.23 79.7754C173.918 79.7754 172.502 80.0436 171.786 80.58C171.07 81.1164 170.712 82.2339 170.712 83.9177H172.755V83.5005ZM162.898 79.984V76.6166H160.855V79.984H158.902V81.6975H160.855V90.8015C160.855 92.068 161.169 92.9472 161.78 93.4538C162.391 93.9604 163.465 94.2137 165.016 94.2137C167.581 94.2137 168.863 92.8429 168.863 90.1012L168.833 89.0433H166.969V89.8032C166.969 90.9058 166.835 91.621 166.552 91.9637C166.268 92.3065 165.702 92.4704 164.837 92.4704C164.061 92.4704 163.54 92.3214 163.286 92.0382C163.033 91.7402 162.913 91.1591 162.913 90.28V81.6826H168.326V79.9691H162.913L162.898 79.984ZM157.455 83.2621C157.455 81.9061 157.068 80.9823 156.277 80.5055C155.502 80.0287 154.026 79.7903 151.893 79.7903C149.567 79.7903 148.016 80.0585 147.256 80.5949C146.48 81.1313 146.093 82.219 146.093 83.8432C146.093 85.4673 146.57 86.5848 147.509 87.0914C148.449 87.598 150.536 87.8364 153.757 87.8364C154.577 87.8364 155.114 87.9854 155.383 88.2834C155.636 88.5814 155.77 89.1774 155.77 90.0565C155.77 91.0697 155.502 91.7551 154.98 92.0829C154.443 92.4108 153.37 92.5747 151.744 92.5747C150.268 92.5747 149.269 92.4257 148.777 92.1127C148.285 91.7998 148.046 91.174 148.046 90.2353L148.076 89.5499H145.973V90.3545C145.973 91.8147 146.406 92.828 147.256 93.3942C148.106 93.9604 149.671 94.2435 151.908 94.2435C154.145 94.2435 155.8 93.9455 156.635 93.3644C157.47 92.7833 157.873 91.6955 157.873 90.0863C157.873 88.6708 157.575 87.6427 156.978 87.002C156.382 86.3762 155.398 86.0484 154.026 86.0484L151.923 85.959L150.238 85.8696C149.373 85.8696 148.807 85.7206 148.553 85.4226C148.3 85.1246 148.165 84.469 148.165 83.4707C148.165 82.5916 148.389 82.0253 148.821 81.7869C149.254 81.5485 150.268 81.4293 151.834 81.4293C153.399 81.4293 154.428 81.5485 154.831 81.7869C155.219 82.0253 155.413 82.6512 155.413 83.6495H157.455V83.2621ZM140.799 79.984V88.0301C140.799 89.7287 140.486 90.9058 139.889 91.5316C139.278 92.1574 138.144 92.4853 136.474 92.4853C135.266 92.4853 134.461 92.2766 134.059 91.8445C133.656 91.4124 133.447 90.578 133.447 89.3413V79.9989H131.404V89.3413C131.404 91.0846 131.792 92.3363 132.552 93.0962C133.328 93.8561 134.566 94.2435 136.28 94.2435C138.696 94.2435 140.262 93.5432 140.963 92.1425V92.2022L140.814 94.0349H142.857V79.9989H140.814L140.799 79.984ZM127.989 83.2621C127.989 81.9061 127.602 80.9823 126.811 80.5055C126.036 80.0287 124.56 79.7903 122.427 79.7903C120.101 79.7903 118.55 80.0585 117.775 80.5949C116.999 81.1313 116.626 82.219 116.626 83.8432C116.626 85.4673 117.089 86.5848 118.043 87.0914C118.983 87.598 121.07 87.8364 124.291 87.8364C125.111 87.8364 125.648 87.9854 125.917 88.2834C126.185 88.5814 126.304 89.1774 126.304 90.0565C126.304 91.0697 126.036 91.7551 125.514 92.0829C124.977 92.4108 123.904 92.5747 122.278 92.5747C120.802 92.5747 119.803 92.4257 119.311 92.1127C118.819 91.7998 118.58 91.174 118.58 90.2353L118.61 89.5499H116.507V90.3545C116.507 91.8147 116.94 92.828 117.805 93.3942C118.669 93.9604 120.205 94.2435 122.457 94.2435C124.709 94.2435 126.349 93.9455 127.184 93.3644C128.019 92.7833 128.422 91.6955 128.422 90.0863C128.422 88.6708 128.124 87.6427 127.542 87.002C126.946 86.3762 125.961 86.0484 124.575 86.0484L122.472 85.959L120.787 85.8696C119.922 85.8696 119.355 85.7206 119.102 85.4226C118.848 85.1246 118.714 84.469 118.714 83.4707C118.714 82.5916 118.938 82.0253 119.37 81.7869C119.818 81.5485 120.817 81.4293 122.383 81.4293C123.948 81.4293 124.977 81.5485 125.38 81.7869C125.768 82.0253 125.961 82.6512 125.961 83.6495H128.004V83.2621H127.989ZM103.668 91.3081V94.0051H104.697V94.5266C104.697 95.0332 104.607 95.3759 104.429 95.5696C104.25 95.7484 103.892 95.8378 103.37 95.8378V96.9553H103.936C104.712 96.9553 105.264 96.7467 105.577 96.3444C105.89 95.9272 106.039 95.2269 106.039 94.2286V91.3081H103.668ZM91.8279 94.0051H93.8708V85.5865C93.8708 84.0071 94.1094 82.9045 94.6015 82.2935C95.0936 81.6826 95.9734 81.3846 97.2559 81.3846C98.7918 81.3846 99.5672 82.0849 99.5672 83.4856V84.5882H101.58V83.6346C101.58 82.2488 101.267 81.2356 100.656 80.5949C100.029 79.9542 99.0602 79.6264 97.7032 79.6264C96.7041 79.6264 95.8839 79.7754 95.2726 80.0734C94.6463 80.3714 94.1094 80.878 93.6472 81.5783L93.8559 79.9542H91.813V93.9902L91.8279 94.0051ZM84.9982 87.7023C85.5649 88.0897 85.8333 88.79 85.8333 89.833C85.8333 90.876 85.5201 91.5465 84.9237 91.919C84.3123 92.2915 83.179 92.4704 81.5088 92.4704C80.0474 92.4704 79.0782 92.2916 78.6308 91.9339C78.1685 91.5763 77.9449 90.8313 77.9449 89.7138C77.9449 88.5963 78.1834 87.9258 78.6755 87.6129C79.1527 87.3 80.2264 87.1361 81.8965 87.1361C83.4175 87.1361 84.4614 87.3298 85.028 87.7023M78.4519 83.5005C78.4519 82.6661 78.7054 82.0998 79.1975 81.8018C79.7045 81.5038 80.6737 81.3697 82.1202 81.3697C83.6561 81.3697 84.6552 81.6081 85.1175 82.07C85.5649 82.5469 85.7885 83.5899 85.7885 85.214L85.7289 86.9275C85.4754 86.3911 85.0131 86.0186 84.3421 85.7951C83.686 85.5865 82.6421 85.4822 81.2106 85.4822C79.1825 85.4822 77.7808 85.81 77.0054 86.4805C76.23 87.1361 75.8274 88.3281 75.8274 90.0267C75.8274 91.5912 76.23 92.679 77.0203 93.3048C77.8106 93.9306 79.1975 94.2286 81.1509 94.2286C82.4632 94.2286 83.4772 94.0945 84.1631 93.8412C84.864 93.5879 85.4307 93.1409 85.8631 92.4853L85.7736 94.02H87.8166V84.767C87.8166 82.83 87.414 81.5038 86.5938 80.8184C85.7885 80.133 84.2228 79.7754 81.9114 79.7754C79.6001 79.7754 78.1834 80.0436 77.4677 80.58C76.7519 81.1164 76.3791 82.2339 76.3791 83.9177H78.422V83.5005H78.4519ZM70.6976 94.02H72.7406V73.9793H70.6976V94.02ZM64.8671 79.984V88.0301C64.8671 89.7287 64.5688 90.9058 63.9574 91.5316C63.346 92.1574 62.2127 92.4853 60.5426 92.4853C59.3347 92.4853 58.5295 92.2766 58.1268 91.8445C57.7242 91.4124 57.5155 90.578 57.5155 89.3413V79.9989H55.4725V89.3413C55.4725 91.0846 55.8602 92.3363 56.6207 93.0962C57.3962 93.8561 58.6339 94.2435 60.3487 94.2435C62.7645 94.2435 64.3302 93.5432 65.0311 92.1425V92.2022L64.882 94.0349H66.9249V79.9989H64.882L64.8671 79.984ZM48.9709 82.5618C49.5376 83.2621 49.806 84.6031 49.806 86.5848C49.806 89.0284 49.5525 90.6227 49.0604 91.3528C48.5534 92.0979 47.4946 92.4555 45.8692 92.4555C44.2438 92.4555 43.0956 92.0978 42.6035 91.3975C42.1114 90.6823 41.8728 89.1178 41.8728 86.6891C41.8728 84.6031 42.1263 83.2174 42.6482 82.5319C43.1701 81.8465 44.1991 81.4889 45.7499 81.4889C47.3008 81.4889 48.4042 81.8316 48.9709 82.5469M49.806 73.9495L49.7463 81.7273C49.2841 80.4012 47.763 79.7456 45.1683 79.7456C43.1105 79.7456 41.6789 80.2671 40.9035 81.3101C40.1281 82.3531 39.7255 84.2157 39.7255 86.8977C39.7255 89.5797 40.1281 91.621 40.9184 92.6492C41.7088 93.6773 43.1851 94.1988 45.3175 94.1988C46.585 94.1988 47.5692 94.0349 48.285 93.722C49.0007 93.4091 49.5376 92.8876 49.8954 92.1574L49.806 93.9902H51.8489V73.9495H49.806ZM34.1335 82.3531C34.5809 82.9194 34.8045 84.3647 34.8045 86.6891C34.8045 89.3264 34.5958 90.9505 34.1782 91.5614C33.7607 92.1575 32.6125 92.4555 30.7187 92.4555C28.8248 92.4555 27.7363 92.1574 27.3038 91.5763C26.8714 90.9803 26.6626 89.4456 26.6626 86.9722C26.6626 84.4988 26.8863 82.979 27.3187 82.3829C27.7661 81.7869 28.8994 81.5038 30.7187 81.5038C32.5379 81.5038 33.6861 81.7869 34.1335 82.3531ZM25.6933 81.0866C24.9179 81.9806 24.5302 83.9326 24.5302 86.9573C24.5302 89.982 24.9179 91.9488 25.6933 92.8429C26.4687 93.7369 28.1389 94.1988 30.7336 94.1988C33.3282 94.1988 35.0729 93.7369 35.8335 92.828C36.594 91.919 36.9668 89.833 36.9668 86.5997C36.9668 83.7687 36.5641 81.921 35.7738 81.0568C34.9835 80.1926 33.2984 79.7456 30.7336 79.7456C28.1687 79.7456 26.4687 80.1926 25.6933 81.0866ZM0.0447388 94.0498H2.02803V86.0931C2.02803 84.4243 2.35609 83.2621 2.99731 82.5766C3.63852 81.8912 4.74201 81.5485 6.27794 81.5485C7.51563 81.5485 8.3507 81.7273 8.76824 82.0849C9.18577 82.4425 9.40945 83.1578 9.40945 84.2455V94.0349H11.4524V85.9292C11.4524 84.1859 11.7357 83.0237 12.3173 82.4276C12.8839 81.8316 14.0322 81.5485 15.7321 81.5485C16.9102 81.5485 17.7154 81.7571 18.1479 82.1892C18.5803 82.6214 18.7891 83.4409 18.7891 84.6627V94.0349H20.832V84.8713C20.832 83.0088 20.4592 81.6975 19.7285 80.9376C18.9829 80.1777 17.7005 79.7903 15.8812 79.7903C14.6436 79.7903 13.6295 79.9691 12.869 80.3416C12.1085 80.7141 11.4822 81.325 11.005 82.1594C10.498 80.58 9.06648 79.7903 6.68056 79.7903C5.47269 79.7903 4.51833 79.9691 3.77273 80.3416C3.04204 80.7141 2.46048 81.3101 2.01312 82.1296L2.07277 79.9989H0.0447388V94.0349V94.0498Z" fill="#142667"/>
</svg>
