<svg width="46" height="42" viewBox="0 0 46 42" fill="none" xmlns="http://www.w3.org/2000/svg">
<path d="M19.8265 21.0157H26.9395C27.3034 19.0102 28.3729 17.2825 29.8869 16.0271C29.8933 16.0271 29.9012 16.0271 29.9107 16.0271C32 15 33 15 33 15C32.7263 13.6315 31.8533 12.4129 31.1192 11.5901C30.4332 10.8212 29.4839 10.3466 28.4615 10.2185C28.1997 10.1857 27.94 10.1636 27.7148 10.1636H16.9645C14.9933 10.1636 13.4254 12.1392 13.3906 14.3074C16.675 15.108 19.2222 17.7594 19.8265 21.0157Z" fill="#717579"/>
<path d="M22.3372 10.091C25.1865 10.091 27.4964 7.83202 27.4964 5.04548C27.4964 2.25894 25.1865 0 22.3372 0C19.4879 0 17.1781 2.25894 17.1781 5.04548C17.1781 7.83202 19.4879 10.091 22.3372 10.091Z" fill="#717579"/>
<path d="M21.6712 34.025C21.6712 30.1102 19.9815 28.4568 17.6369 28.4568H12.2009C15.1341 28.0288 17.3822 25.5606 17.3822 22.5696C17.3822 19.2849 14.661 16.6193 11.2959 16.6193C7.93718 16.6193 5.21443 19.2849 5.21443 22.5696C5.21443 25.5606 7.46256 28.0273 10.3973 28.4568H4.95813C2.61033 28.4568 0.705505 30.9645 0.705505 33.556V41.4835H21.6712V34.025Z" fill="#717579"/>
<path d="M29.1734 22.5696C29.1734 25.5606 31.4231 28.0273 34.3532 28.4568H28.9124C26.563 28.4568 24.7705 30.9645 24.7705 33.556V41.4835H45.5749V34.0297C45.5749 30.1607 43.9469 28.5326 41.6497 28.4931C41.6165 28.4931 41.6197 28.46 41.5912 28.46H36.152C39.0867 28.032 41.3365 25.5637 41.3365 22.5712C41.3365 19.2865 38.6121 16.6208 35.2518 16.6208C31.8946 16.6193 29.1734 19.2849 29.1734 22.5696Z" fill="#717579"/>
</svg>
