<svg width="21" height="19" viewBox="0 0 21 19" fill="none" xmlns="http://www.w3.org/2000/svg">
<path d="M6.6 18.3667H21V15.8333H6.6V18.3667ZM6.6 10.7667H21V8.23333H6.6V10.7667ZM6.6 0.633333V3.16667H21V0.633333H6.6ZM1.8 0C0.8064 0 0 0.8512 0 1.9C0 2.9488 0.8064 3.8 1.8 3.8C2.7936 3.8 3.6 2.9488 3.6 1.9C3.6 0.8512 2.7936 0 1.8 0ZM1.8 7.6C0.8064 7.6 0 8.4512 0 9.5C0 10.5488 0.8064 11.4 1.8 11.4C2.7936 11.4 3.6 10.5488 3.6 9.5C3.6 8.4512 2.7936 7.6 1.8 7.6ZM1.8 15.2C0.8064 15.2 0 16.0512 0 17.1C0 18.1488 0.8064 19 1.8 19C2.7936 19 3.6 18.1488 3.6 17.1C3.6 16.0512 2.7936 15.2 1.8 15.2Z" fill="#717579"/>
</svg>
